ISO-10303-21;
HEADER;
/*Generated by software containing ST-Developer
 * from STEP Tools, Inc. (www.steptools.com) 
 */
/*OPTION: using custom renumber hook */
/*description */
/*implementation_level */
FILE_DESCRIPTION(('STEP AP242 Edition 2','STEP AP242 Edition 2''CAx-IF Rec.Pracs.---Representation and Presentation of Product Manufa
cturing Information (PMI)---4.0---2014-10-13','STEP AP242 Edition 2''CAx-IF Rec.Pracs.---Representation and Presentation of Product Manufa
cturing Information (PMI)---4.0---2014-10-13''CAx-IF Rec.Pracs.---3D Tessellated Geometry---0.4---2014-09-14','STEP AP242 Edition 2''CAx-IF Rec.Pracs.---Representation and Presentation of Product Manufa
cturing Information (PMI)---4.0---2014-10-13''CAx-IF Rec.Pracs.---3D Tessellated Geometry---0.4---2014-09-14''2;1','STEP AP242 Edition 2''CAx-IF Rec.Pracs.---Representation and Presentation of Product Manufa
cturing Information (PMI)---4.0---2014-10-13''CAx-IF Rec.Pracs.---3D Tessellated Geometry---0.4---2014-09-14''2;1''CAx-IF Rec.Pracs.---User Defined Attributes---1.5---2016-08-15'),'2;1');
/*name */
/*time_stamp */
/*author */
/*organization */
/*preprocessor_version */
/*originating_system */
/*authorisation */
FILE_NAME('/vol/tmp/translate-2397580947789988284/DTP502535 - Part 2.step','2026-02-21T11:29:18',(''),(''),'ST-DEVELOPER v20','ONSHAPE BY PTC INC, 1.211','  ');
FILE_SCHEMA(('AP242_MANAGED_MODEL_BASED_3D_ENGINEERING_MIM_LF { 1 0 10303 442 3 1 4 }'));
ENDSEC;
DATA;
#10=SHAPE_REPRESENTATION_RELATIONSHIP('','',#1466,#11);
#11=ADVANCED_BREP_SHAPE_REPRESENTATION('',(#1464),#2356);
#12=CIRCLE('',#1473,0.0011);
#13=CIRCLE('',#1477,0.0011);
#14=CIRCLE('',#1479,0.00275);
#15=CIRCLE('',#1483,0.00275);
#16=CIRCLE('',#1485,0.00275);
#17=CIRCLE('',#1486,0.00275);
#18=CIRCLE('',#1488,0.00275);
#19=CIRCLE('',#1489,0.00275);
#20=CIRCLE('',#1494,0.0011);
#21=CIRCLE('',#1501,0.00105);
#22=CIRCLE('',#1503,0.00105);
#23=CIRCLE('',#1507,0.0011);
#24=CIRCLE('',#1510,0.00105);
#25=CIRCLE('',#1526,0.00105);
#26=CIRCLE('',#1537,0.00275);
#27=CIRCLE('',#1540,0.00275);
#28=CIRCLE('',#1556,0.00105);
#29=CIRCLE('',#1559,0.00105);
#30=CIRCLE('',#1562,0.00105);
#31=CIRCLE('',#1565,0.00105);
#32=ELLIPSE('',#1472,0.0015556349186104,0.0011);
#33=ELLIPSE('',#1476,0.0015556349186104,0.0011);
#34=ELLIPSE('',#1495,0.0015556349186104,0.0011);
#35=ELLIPSE('',#1508,0.0015556349186104,0.0011);
#36=CYLINDRICAL_SURFACE('',#1471,0.0011);
#37=CYLINDRICAL_SURFACE('',#1475,0.0011);
#38=CYLINDRICAL_SURFACE('',#1484,0.00275);
#39=CYLINDRICAL_SURFACE('',#1487,0.00275);
#40=CYLINDRICAL_SURFACE('',#1493,0.0011);
#41=CYLINDRICAL_SURFACE('',#1506,0.0011);
#42=CYLINDRICAL_SURFACE('',#1538,0.00275);
#43=CYLINDRICAL_SURFACE('',#1539,0.00275);
#44=CYLINDRICAL_SURFACE('',#1555,0.00105);
#45=CYLINDRICAL_SURFACE('',#1558,0.00105);
#46=CYLINDRICAL_SURFACE('',#1561,0.00105);
#47=CYLINDRICAL_SURFACE('',#1564,0.00105);
#48=ORIENTED_EDGE('',*,*,#442,.T.);
#49=ORIENTED_EDGE('',*,*,#443,.T.);
#50=ORIENTED_EDGE('',*,*,#444,.T.);
#51=ORIENTED_EDGE('',*,*,#445,.T.);
#52=ORIENTED_EDGE('',*,*,#446,.T.);
#53=ORIENTED_EDGE('',*,*,#447,.T.);
#54=ORIENTED_EDGE('',*,*,#448,.T.);
#55=ORIENTED_EDGE('',*,*,#449,.F.);
#56=ORIENTED_EDGE('',*,*,#450,.T.);
#57=ORIENTED_EDGE('',*,*,#451,.T.);
#58=ORIENTED_EDGE('',*,*,#452,.T.);
#59=ORIENTED_EDGE('',*,*,#453,.T.);
#60=ORIENTED_EDGE('',*,*,#454,.F.);
#61=ORIENTED_EDGE('',*,*,#455,.T.);
#62=ORIENTED_EDGE('',*,*,#442,.F.);
#63=ORIENTED_EDGE('',*,*,#456,.T.);
#64=ORIENTED_EDGE('',*,*,#457,.F.);
#65=ORIENTED_EDGE('',*,*,#458,.F.);
#66=ORIENTED_EDGE('',*,*,#459,.F.);
#67=ORIENTED_EDGE('',*,*,#460,.T.);
#68=ORIENTED_EDGE('',*,*,#461,.F.);
#69=ORIENTED_EDGE('',*,*,#462,.T.);
#70=ORIENTED_EDGE('',*,*,#463,.F.);
#71=ORIENTED_EDGE('',*,*,#464,.F.);
#72=ORIENTED_EDGE('',*,*,#465,.F.);
#73=ORIENTED_EDGE('',*,*,#466,.F.);
#74=ORIENTED_EDGE('',*,*,#467,.F.);
#75=ORIENTED_EDGE('',*,*,#461,.T.);
#76=ORIENTED_EDGE('',*,*,#468,.T.);
#77=ORIENTED_EDGE('',*,*,#469,.T.);
#78=ORIENTED_EDGE('',*,*,#470,.T.);
#79=ORIENTED_EDGE('',*,*,#471,.F.);
#80=ORIENTED_EDGE('',*,*,#459,.T.);
#81=ORIENTED_EDGE('',*,*,#472,.T.);
#82=ORIENTED_EDGE('',*,*,#473,.T.);
#83=ORIENTED_EDGE('',*,*,#474,.T.);
#84=ORIENTED_EDGE('',*,*,#475,.T.);
#85=ORIENTED_EDGE('',*,*,#476,.F.);
#86=ORIENTED_EDGE('',*,*,#477,.T.);
#87=ORIENTED_EDGE('',*,*,#478,.T.);
#88=ORIENTED_EDGE('',*,*,#479,.T.);
#89=ORIENTED_EDGE('',*,*,#480,.T.);
#90=ORIENTED_EDGE('',*,*,#481,.T.);
#91=ORIENTED_EDGE('',*,*,#482,.T.);
#92=ORIENTED_EDGE('',*,*,#483,.T.);
#93=ORIENTED_EDGE('',*,*,#484,.F.);
#94=ORIENTED_EDGE('',*,*,#485,.T.);
#95=ORIENTED_EDGE('',*,*,#486,.F.);
#96=ORIENTED_EDGE('',*,*,#487,.F.);
#97=ORIENTED_EDGE('',*,*,#488,.F.);
#98=ORIENTED_EDGE('',*,*,#486,.T.);
#99=ORIENTED_EDGE('',*,*,#489,.F.);
#100=ORIENTED_EDGE('',*,*,#490,.T.);
#101=ORIENTED_EDGE('',*,*,#491,.T.);
#102=ORIENTED_EDGE('',*,*,#492,.F.);
#103=ORIENTED_EDGE('',*,*,#493,.F.);
#104=ORIENTED_EDGE('',*,*,#494,.T.);
#105=ORIENTED_EDGE('',*,*,#495,.T.);
#106=ORIENTED_EDGE('',*,*,#496,.F.);
#107=ORIENTED_EDGE('',*,*,#449,.T.);
#108=ORIENTED_EDGE('',*,*,#483,.F.);
#109=ORIENTED_EDGE('',*,*,#497,.T.);
#110=ORIENTED_EDGE('',*,*,#451,.F.);
#111=ORIENTED_EDGE('',*,*,#498,.F.);
#112=ORIENTED_EDGE('',*,*,#453,.F.);
#113=ORIENTED_EDGE('',*,*,#499,.T.);
#114=ORIENTED_EDGE('',*,*,#500,.F.);
#115=ORIENTED_EDGE('',*,*,#501,.T.);
#116=ORIENTED_EDGE('',*,*,#502,.T.);
#117=ORIENTED_EDGE('',*,*,#503,.T.);
#118=ORIENTED_EDGE('',*,*,#504,.T.);
#119=ORIENTED_EDGE('',*,*,#444,.F.);
#120=ORIENTED_EDGE('',*,*,#505,.T.);
#121=ORIENTED_EDGE('',*,*,#506,.F.);
#122=ORIENTED_EDGE('',*,*,#507,.T.);
#123=ORIENTED_EDGE('',*,*,#454,.T.);
#124=ORIENTED_EDGE('',*,*,#508,.T.);
#125=ORIENTED_EDGE('',*,*,#509,.F.);
#126=ORIENTED_EDGE('',*,*,#510,.F.);
#127=ORIENTED_EDGE('',*,*,#511,.T.);
#128=ORIENTED_EDGE('',*,*,#512,.F.);
#129=ORIENTED_EDGE('',*,*,#513,.T.);
#130=ORIENTED_EDGE('',*,*,#514,.F.);
#131=ORIENTED_EDGE('',*,*,#515,.F.);
#132=ORIENTED_EDGE('',*,*,#516,.T.);
#133=ORIENTED_EDGE('',*,*,#517,.T.);
#134=ORIENTED_EDGE('',*,*,#518,.T.);
#135=ORIENTED_EDGE('',*,*,#519,.F.);
#136=ORIENTED_EDGE('',*,*,#466,.T.);
#137=ORIENTED_EDGE('',*,*,#520,.F.);
#138=ORIENTED_EDGE('',*,*,#521,.F.);
#139=ORIENTED_EDGE('',*,*,#522,.T.);
#140=ORIENTED_EDGE('',*,*,#523,.F.);
#141=ORIENTED_EDGE('',*,*,#524,.F.);
#142=ORIENTED_EDGE('',*,*,#525,.T.);
#143=ORIENTED_EDGE('',*,*,#526,.T.);
#144=ORIENTED_EDGE('',*,*,#527,.T.);
#145=ORIENTED_EDGE('',*,*,#528,.T.);
#146=ORIENTED_EDGE('',*,*,#529,.T.);
#147=ORIENTED_EDGE('',*,*,#530,.T.);
#148=ORIENTED_EDGE('',*,*,#531,.F.);
#149=ORIENTED_EDGE('',*,*,#532,.F.);
#150=ORIENTED_EDGE('',*,*,#517,.F.);
#151=ORIENTED_EDGE('',*,*,#533,.T.);
#152=ORIENTED_EDGE('',*,*,#534,.F.);
#153=ORIENTED_EDGE('',*,*,#535,.T.);
#154=ORIENTED_EDGE('',*,*,#536,.F.);
#155=ORIENTED_EDGE('',*,*,#537,.F.);
#156=ORIENTED_EDGE('',*,*,#526,.F.);
#157=ORIENTED_EDGE('',*,*,#538,.T.);
#158=ORIENTED_EDGE('',*,*,#539,.T.);
#159=ORIENTED_EDGE('',*,*,#540,.T.);
#160=ORIENTED_EDGE('',*,*,#541,.T.);
#161=ORIENTED_EDGE('',*,*,#474,.F.);
#162=ORIENTED_EDGE('',*,*,#542,.F.);
#163=ORIENTED_EDGE('',*,*,#543,.F.);
#164=ORIENTED_EDGE('',*,*,#514,.T.);
#165=ORIENTED_EDGE('',*,*,#544,.T.);
#166=ORIENTED_EDGE('',*,*,#545,.F.);
#167=ORIENTED_EDGE('',*,*,#546,.F.);
#168=ORIENTED_EDGE('',*,*,#547,.T.);
#169=ORIENTED_EDGE('',*,*,#531,.T.);
#170=ORIENTED_EDGE('',*,*,#548,.T.);
#171=ORIENTED_EDGE('',*,*,#523,.T.);
#172=ORIENTED_EDGE('',*,*,#549,.T.);
#173=ORIENTED_EDGE('',*,*,#469,.F.);
#174=ORIENTED_EDGE('',*,*,#550,.F.);
#175=ORIENTED_EDGE('',*,*,#551,.T.);
#176=ORIENTED_EDGE('',*,*,#528,.F.);
#177=ORIENTED_EDGE('',*,*,#552,.T.);
#178=ORIENTED_EDGE('',*,*,#553,.F.);
#179=ORIENTED_EDGE('',*,*,#554,.F.);
#180=ORIENTED_EDGE('',*,*,#555,.F.);
#181=ORIENTED_EDGE('',*,*,#556,.T.);
#182=ORIENTED_EDGE('',*,*,#557,.T.);
#183=ORIENTED_EDGE('',*,*,#480,.F.);
#184=ORIENTED_EDGE('',*,*,#558,.T.);
#185=ORIENTED_EDGE('',*,*,#559,.T.);
#186=ORIENTED_EDGE('',*,*,#560,.T.);
#187=ORIENTED_EDGE('',*,*,#561,.F.);
#188=ORIENTED_EDGE('',*,*,#562,.T.);
#189=ORIENTED_EDGE('',*,*,#563,.T.);
#190=ORIENTED_EDGE('',*,*,#540,.F.);
#191=ORIENTED_EDGE('',*,*,#564,.F.);
#192=ORIENTED_EDGE('',*,*,#539,.F.);
#193=ORIENTED_EDGE('',*,*,#565,.F.);
#194=ORIENTED_EDGE('',*,*,#566,.T.);
#195=ORIENTED_EDGE('',*,*,#564,.T.);
#196=ORIENTED_EDGE('',*,*,#567,.F.);
#197=ORIENTED_EDGE('',*,*,#490,.F.);
#198=ORIENTED_EDGE('',*,*,#568,.T.);
#199=ORIENTED_EDGE('',*,*,#569,.T.);
#200=ORIENTED_EDGE('',*,*,#570,.T.);
#201=ORIENTED_EDGE('',*,*,#571,.F.);
#202=ORIENTED_EDGE('',*,*,#572,.T.);
#203=ORIENTED_EDGE('',*,*,#573,.F.);
#204=ORIENTED_EDGE('',*,*,#574,.F.);
#205=ORIENTED_EDGE('',*,*,#575,.T.);
#206=ORIENTED_EDGE('',*,*,#478,.F.);
#207=ORIENTED_EDGE('',*,*,#576,.T.);
#208=ORIENTED_EDGE('',*,*,#577,.F.);
#209=ORIENTED_EDGE('',*,*,#578,.F.);
#210=ORIENTED_EDGE('',*,*,#524,.T.);
#211=ORIENTED_EDGE('',*,*,#579,.T.);
#212=ORIENTED_EDGE('',*,*,#527,.F.);
#213=ORIENTED_EDGE('',*,*,#580,.F.);
#214=ORIENTED_EDGE('',*,*,#581,.T.);
#215=ORIENTED_EDGE('',*,*,#582,.T.);
#216=ORIENTED_EDGE('',*,*,#583,.T.);
#217=ORIENTED_EDGE('',*,*,#512,.T.);
#218=ORIENTED_EDGE('',*,*,#584,.T.);
#219=ORIENTED_EDGE('',*,*,#585,.F.);
#220=ORIENTED_EDGE('',*,*,#586,.T.);
#221=ORIENTED_EDGE('',*,*,#587,.T.);
#222=ORIENTED_EDGE('',*,*,#588,.T.);
#223=ORIENTED_EDGE('',*,*,#589,.T.);
#224=ORIENTED_EDGE('',*,*,#568,.F.);
#225=ORIENTED_EDGE('',*,*,#493,.T.);
#226=ORIENTED_EDGE('',*,*,#590,.F.);
#227=ORIENTED_EDGE('',*,*,#534,.T.);
#228=ORIENTED_EDGE('',*,*,#591,.T.);
#229=ORIENTED_EDGE('',*,*,#550,.T.);
#230=ORIENTED_EDGE('',*,*,#592,.F.);
#231=ORIENTED_EDGE('',*,*,#494,.F.);
#232=ORIENTED_EDGE('',*,*,#448,.F.);
#233=ORIENTED_EDGE('',*,*,#593,.F.);
#234=ORIENTED_EDGE('',*,*,#556,.F.);
#235=ORIENTED_EDGE('',*,*,#594,.F.);
#236=ORIENTED_EDGE('',*,*,#571,.T.);
#237=ORIENTED_EDGE('',*,*,#500,.T.);
#238=ORIENTED_EDGE('',*,*,#595,.T.);
#239=ORIENTED_EDGE('',*,*,#560,.F.);
#240=ORIENTED_EDGE('',*,*,#596,.F.);
#241=ORIENTED_EDGE('',*,*,#573,.T.);
#242=ORIENTED_EDGE('',*,*,#597,.T.);
#243=ORIENTED_EDGE('',*,*,#559,.F.);
#244=ORIENTED_EDGE('',*,*,#598,.T.);
#245=ORIENTED_EDGE('',*,*,#574,.T.);
#246=ORIENTED_EDGE('',*,*,#596,.T.);
#247=ORIENTED_EDGE('',*,*,#546,.T.);
#248=ORIENTED_EDGE('',*,*,#599,.F.);
#249=ORIENTED_EDGE('',*,*,#581,.F.);
#250=ORIENTED_EDGE('',*,*,#600,.T.);
#251=ORIENTED_EDGE('',*,*,#545,.T.);
#252=ORIENTED_EDGE('',*,*,#601,.T.);
#253=ORIENTED_EDGE('',*,*,#582,.F.);
#254=ORIENTED_EDGE('',*,*,#599,.T.);
#255=ORIENTED_EDGE('',*,*,#602,.T.);
#256=ORIENTED_EDGE('',*,*,#603,.T.);
#257=ORIENTED_EDGE('',*,*,#604,.T.);
#258=ORIENTED_EDGE('',*,*,#503,.F.);
#259=ORIENTED_EDGE('',*,*,#569,.F.);
#260=ORIENTED_EDGE('',*,*,#605,.T.);
#261=ORIENTED_EDGE('',*,*,#585,.T.);
#262=ORIENTED_EDGE('',*,*,#606,.T.);
#263=ORIENTED_EDGE('',*,*,#607,.F.);
#264=ORIENTED_EDGE('',*,*,#608,.F.);
#265=ORIENTED_EDGE('',*,*,#609,.T.);
#266=ORIENTED_EDGE('',*,*,#610,.F.);
#267=ORIENTED_EDGE('',*,*,#586,.F.);
#268=ORIENTED_EDGE('',*,*,#608,.T.);
#269=ORIENTED_EDGE('',*,*,#611,.F.);
#270=ORIENTED_EDGE('',*,*,#510,.T.);
#271=ORIENTED_EDGE('',*,*,#612,.T.);
#272=ORIENTED_EDGE('',*,*,#602,.F.);
#273=ORIENTED_EDGE('',*,*,#613,.F.);
#274=ORIENTED_EDGE('',*,*,#609,.F.);
#275=ORIENTED_EDGE('',*,*,#607,.T.);
#276=ORIENTED_EDGE('',*,*,#614,.T.);
#277=ORIENTED_EDGE('',*,*,#507,.F.);
#278=ORIENTED_EDGE('',*,*,#615,.F.);
#279=ORIENTED_EDGE('',*,*,#616,.F.);
#280=ORIENTED_EDGE('',*,*,#468,.F.);
#281=ORIENTED_EDGE('',*,*,#460,.F.);
#282=ORIENTED_EDGE('',*,*,#471,.T.);
#283=ORIENTED_EDGE('',*,*,#617,.F.);
#284=ORIENTED_EDGE('',*,*,#618,.F.);
#285=ORIENTED_EDGE('',*,*,#443,.F.);
#286=ORIENTED_EDGE('',*,*,#455,.F.);
#287=ORIENTED_EDGE('',*,*,#458,.T.);
#288=ORIENTED_EDGE('',*,*,#464,.T.);
#289=ORIENTED_EDGE('',*,*,#476,.T.);
#290=ORIENTED_EDGE('',*,*,#619,.T.);
#291=ORIENTED_EDGE('',*,*,#562,.F.);
#292=ORIENTED_EDGE('',*,*,#566,.F.);
#293=ORIENTED_EDGE('',*,*,#620,.T.);
#294=ORIENTED_EDGE('',*,*,#621,.T.);
#295=ORIENTED_EDGE('',*,*,#622,.T.);
#296=ORIENTED_EDGE('',*,*,#619,.F.);
#297=ORIENTED_EDGE('',*,*,#475,.F.);
#298=ORIENTED_EDGE('',*,*,#541,.F.);
#299=ORIENTED_EDGE('',*,*,#563,.F.);
#300=ORIENTED_EDGE('',*,*,#576,.F.);
#301=ORIENTED_EDGE('',*,*,#477,.F.);
#302=ORIENTED_EDGE('',*,*,#622,.F.);
#303=ORIENTED_EDGE('',*,*,#623,.F.);
#304=ORIENTED_EDGE('',*,*,#575,.F.);
#305=ORIENTED_EDGE('',*,*,#598,.F.);
#306=ORIENTED_EDGE('',*,*,#558,.F.);
#307=ORIENTED_EDGE('',*,*,#479,.F.);
#308=ORIENTED_EDGE('',*,*,#584,.F.);
#309=ORIENTED_EDGE('',*,*,#511,.F.);
#310=ORIENTED_EDGE('',*,*,#614,.F.);
#311=ORIENTED_EDGE('',*,*,#606,.F.);
#312=ORIENTED_EDGE('',*,*,#583,.F.);
#313=ORIENTED_EDGE('',*,*,#601,.F.);
#314=ORIENTED_EDGE('',*,*,#544,.F.);
#315=ORIENTED_EDGE('',*,*,#513,.F.);
#316=ORIENTED_EDGE('',*,*,#502,.F.);
#317=ORIENTED_EDGE('',*,*,#618,.T.);
#318=ORIENTED_EDGE('',*,*,#446,.F.);
#319=ORIENTED_EDGE('',*,*,#501,.F.);
#320=ORIENTED_EDGE('',*,*,#570,.F.);
#321=ORIENTED_EDGE('',*,*,#552,.F.);
#322=ORIENTED_EDGE('',*,*,#579,.F.);
#323=ORIENTED_EDGE('',*,*,#548,.F.);
#324=ORIENTED_EDGE('',*,*,#616,.T.);
#325=ORIENTED_EDGE('',*,*,#588,.F.);
#326=ORIENTED_EDGE('',*,*,#624,.F.);
#327=ORIENTED_EDGE('',*,*,#625,.T.);
#328=ORIENTED_EDGE('',*,*,#518,.F.);
#329=ORIENTED_EDGE('',*,*,#535,.F.);
#330=ORIENTED_EDGE('',*,*,#590,.T.);
#331=ORIENTED_EDGE('',*,*,#492,.T.);
#332=ORIENTED_EDGE('',*,*,#553,.T.);
#333=ORIENTED_EDGE('',*,*,#625,.F.);
#334=ORIENTED_EDGE('',*,*,#626,.T.);
#335=ORIENTED_EDGE('',*,*,#467,.T.);
#336=ORIENTED_EDGE('',*,*,#519,.T.);
#337=ORIENTED_EDGE('',*,*,#627,.F.);
#338=ORIENTED_EDGE('',*,*,#628,.T.);
#339=ORIENTED_EDGE('',*,*,#489,.T.);
#340=ORIENTED_EDGE('',*,*,#485,.F.);
#341=ORIENTED_EDGE('',*,*,#629,.F.);
#342=ORIENTED_EDGE('',*,*,#627,.T.);
#343=ORIENTED_EDGE('',*,*,#484,.T.);
#344=ORIENTED_EDGE('',*,*,#498,.T.);
#345=ORIENTED_EDGE('',*,*,#450,.F.);
#346=ORIENTED_EDGE('',*,*,#496,.T.);
#347=ORIENTED_EDGE('',*,*,#505,.F.);
#348=ORIENTED_EDGE('',*,*,#613,.T.);
#349=ORIENTED_EDGE('',*,*,#605,.F.);
#350=ORIENTED_EDGE('',*,*,#587,.F.);
#351=ORIENTED_EDGE('',*,*,#610,.T.);
#352=ORIENTED_EDGE('',*,*,#547,.F.);
#353=ORIENTED_EDGE('',*,*,#600,.F.);
#354=ORIENTED_EDGE('',*,*,#580,.T.);
#355=ORIENTED_EDGE('',*,*,#532,.T.);
#356=ORIENTED_EDGE('',*,*,#630,.F.);
#357=ORIENTED_EDGE('',*,*,#577,.T.);
#358=ORIENTED_EDGE('',*,*,#623,.T.);
#359=ORIENTED_EDGE('',*,*,#621,.F.);
#360=ORIENTED_EDGE('',*,*,#578,.T.);
#361=ORIENTED_EDGE('',*,*,#630,.T.);
#362=ORIENTED_EDGE('',*,*,#620,.F.);
#363=ORIENTED_EDGE('',*,*,#565,.T.);
#364=ORIENTED_EDGE('',*,*,#538,.F.);
#365=ORIENTED_EDGE('',*,*,#525,.F.);
#366=ORIENTED_EDGE('',*,*,#561,.T.);
#367=ORIENTED_EDGE('',*,*,#597,.F.);
#368=ORIENTED_EDGE('',*,*,#572,.F.);
#369=ORIENTED_EDGE('',*,*,#594,.T.);
#370=ORIENTED_EDGE('',*,*,#530,.F.);
#371=ORIENTED_EDGE('',*,*,#631,.T.);
#372=ORIENTED_EDGE('',*,*,#515,.T.);
#373=ORIENTED_EDGE('',*,*,#543,.T.);
#374=ORIENTED_EDGE('',*,*,#473,.F.);
#375=ORIENTED_EDGE('',*,*,#632,.T.);
#376=ORIENTED_EDGE('',*,*,#521,.T.);
#377=ORIENTED_EDGE('',*,*,#537,.T.);
#378=ORIENTED_EDGE('',*,*,#593,.T.);
#379=ORIENTED_EDGE('',*,*,#633,.T.);
#380=ORIENTED_EDGE('',*,*,#481,.F.);
#381=ORIENTED_EDGE('',*,*,#557,.F.);
#382=ORIENTED_EDGE('',*,*,#509,.T.);
#383=ORIENTED_EDGE('',*,*,#634,.T.);
#384=ORIENTED_EDGE('',*,*,#603,.F.);
#385=ORIENTED_EDGE('',*,*,#612,.F.);
#386=ORIENTED_EDGE('',*,*,#604,.F.);
#387=ORIENTED_EDGE('',*,*,#634,.F.);
#388=ORIENTED_EDGE('',*,*,#508,.F.);
#389=ORIENTED_EDGE('',*,*,#456,.F.);
#390=ORIENTED_EDGE('',*,*,#445,.F.);
#391=ORIENTED_EDGE('',*,*,#504,.F.);
#392=ORIENTED_EDGE('',*,*,#457,.T.);
#393=ORIENTED_EDGE('',*,*,#482,.F.);
#394=ORIENTED_EDGE('',*,*,#633,.F.);
#395=ORIENTED_EDGE('',*,*,#595,.F.);
#396=ORIENTED_EDGE('',*,*,#499,.F.);
#397=ORIENTED_EDGE('',*,*,#452,.F.);
#398=ORIENTED_EDGE('',*,*,#497,.F.);
#399=ORIENTED_EDGE('',*,*,#506,.T.);
#400=ORIENTED_EDGE('',*,*,#522,.F.);
#401=ORIENTED_EDGE('',*,*,#632,.F.);
#402=ORIENTED_EDGE('',*,*,#472,.F.);
#403=ORIENTED_EDGE('',*,*,#462,.F.);
#404=ORIENTED_EDGE('',*,*,#470,.F.);
#405=ORIENTED_EDGE('',*,*,#549,.F.);
#406=ORIENTED_EDGE('',*,*,#463,.T.);
#407=ORIENTED_EDGE('',*,*,#516,.F.);
#408=ORIENTED_EDGE('',*,*,#631,.F.);
#409=ORIENTED_EDGE('',*,*,#529,.F.);
#410=ORIENTED_EDGE('',*,*,#551,.F.);
#411=ORIENTED_EDGE('',*,*,#591,.F.);
#412=ORIENTED_EDGE('',*,*,#533,.F.);
#413=ORIENTED_EDGE('',*,*,#554,.T.);
#414=ORIENTED_EDGE('',*,*,#635,.F.);
#415=ORIENTED_EDGE('',*,*,#611,.T.);
#416=ORIENTED_EDGE('',*,*,#635,.T.);
#417=ORIENTED_EDGE('',*,*,#636,.F.);
#418=ORIENTED_EDGE('',*,*,#555,.T.);
#419=ORIENTED_EDGE('',*,*,#636,.T.);
#420=ORIENTED_EDGE('',*,*,#637,.F.);
#421=ORIENTED_EDGE('',*,*,#542,.T.);
#422=ORIENTED_EDGE('',*,*,#637,.T.);
#423=ORIENTED_EDGE('',*,*,#638,.F.);
#424=ORIENTED_EDGE('',*,*,#536,.T.);
#425=ORIENTED_EDGE('',*,*,#638,.T.);
#426=ORIENTED_EDGE('',*,*,#592,.T.);
#427=ORIENTED_EDGE('',*,*,#447,.F.);
#428=ORIENTED_EDGE('',*,*,#617,.T.);
#429=ORIENTED_EDGE('',*,*,#487,.T.);
#430=ORIENTED_EDGE('',*,*,#488,.T.);
#431=ORIENTED_EDGE('',*,*,#628,.F.);
#432=ORIENTED_EDGE('',*,*,#629,.T.);
#433=ORIENTED_EDGE('',*,*,#495,.F.);
#434=ORIENTED_EDGE('',*,*,#567,.T.);
#435=ORIENTED_EDGE('',*,*,#589,.F.);
#436=ORIENTED_EDGE('',*,*,#615,.T.);
#437=ORIENTED_EDGE('',*,*,#520,.T.);
#438=ORIENTED_EDGE('',*,*,#465,.T.);
#439=ORIENTED_EDGE('',*,*,#626,.F.);
#440=ORIENTED_EDGE('',*,*,#624,.T.);
#441=ORIENTED_EDGE('',*,*,#491,.F.);
#442=EDGE_CURVE('',#639,#640,#773,.T.);
#443=EDGE_CURVE('',#640,#641,#774,.T.);
#444=EDGE_CURVE('',#641,#642,#775,.T.);
#445=EDGE_CURVE('',#642,#639,#776,.T.);
#446=EDGE_CURVE('',#643,#644,#777,.T.);
#447=EDGE_CURVE('',#644,#645,#778,.T.);
#448=EDGE_CURVE('',#645,#646,#779,.T.);
#449=EDGE_CURVE('',#647,#646,#780,.T.);
#450=EDGE_CURVE('',#647,#648,#781,.T.);
#451=EDGE_CURVE('',#648,#649,#782,.T.);
#452=EDGE_CURVE('',#649,#650,#783,.T.);
#453=EDGE_CURVE('',#650,#643,#784,.T.);
#454=EDGE_CURVE('',#651,#652,#785,.T.);
#455=EDGE_CURVE('',#651,#640,#786,.F.);
#456=EDGE_CURVE('',#639,#652,#787,.F.);
#457=EDGE_CURVE('',#653,#653,#32,.T.);
#458=EDGE_CURVE('',#654,#654,#12,.F.);
#459=EDGE_CURVE('',#655,#656,#788,.T.);
#460=EDGE_CURVE('',#655,#657,#789,.F.);
#461=EDGE_CURVE('',#658,#657,#790,.T.);
#462=EDGE_CURVE('',#658,#656,#791,.F.);
#463=EDGE_CURVE('',#659,#659,#33,.T.);
#464=EDGE_CURVE('',#660,#660,#13,.F.);
#465=EDGE_CURVE('',#661,#662,#792,.T.);
#466=EDGE_CURVE('',#663,#661,#793,.T.);
#467=EDGE_CURVE('',#662,#663,#14,.T.);
#468=EDGE_CURVE('',#657,#664,#794,.T.);
#469=EDGE_CURVE('',#664,#665,#795,.T.);
#470=EDGE_CURVE('',#665,#658,#796,.T.);
#471=EDGE_CURVE('',#655,#666,#797,.T.);
#472=EDGE_CURVE('',#656,#667,#798,.T.);
#473=EDGE_CURVE('',#667,#668,#799,.T.);
#474=EDGE_CURVE('',#668,#669,#800,.T.);
#475=EDGE_CURVE('',#669,#670,#801,.T.);
#476=EDGE_CURVE('',#671,#670,#802,.T.);
#477=EDGE_CURVE('',#671,#672,#803,.T.);
#478=EDGE_CURVE('',#672,#673,#804,.T.);
#479=EDGE_CURVE('',#673,#674,#805,.T.);
#480=EDGE_CURVE('',#674,#675,#806,.T.);
#481=EDGE_CURVE('',#675,#676,#807,.T.);
#482=EDGE_CURVE('',#676,#677,#808,.T.);
#483=EDGE_CURVE('',#677,#678,#809,.T.);
#484=EDGE_CURVE('',#679,#678,#810,.T.);
#485=EDGE_CURVE('',#679,#680,#811,.T.);
#486=EDGE_CURVE('',#681,#680,#812,.T.);
#487=EDGE_CURVE('',#666,#681,#813,.T.);
#488=EDGE_CURVE('',#681,#682,#814,.T.);
#489=EDGE_CURVE('',#682,#680,#15,.T.);
#490=EDGE_CURVE('',#683,#684,#16,.T.);
#491=EDGE_CURVE('',#684,#685,#815,.F.);
#492=EDGE_CURVE('',#686,#685,#17,.T.);
#493=EDGE_CURVE('',#683,#686,#816,.F.);
#494=EDGE_CURVE('',#646,#687,#18,.T.);
#495=EDGE_CURVE('',#687,#688,#817,.F.);
#496=EDGE_CURVE('',#647,#688,#19,.T.);
#497=EDGE_CURVE('',#677,#649,#818,.T.);
#498=EDGE_CURVE('',#678,#648,#819,.T.);
#499=EDGE_CURVE('',#650,#689,#820,.F.);
#500=EDGE_CURVE('',#690,#689,#821,.T.);
#501=EDGE_CURVE('',#690,#643,#822,.F.);
#502=EDGE_CURVE('',#641,#691,#823,.T.);
#503=EDGE_CURVE('',#691,#692,#824,.T.);
#504=EDGE_CURVE('',#692,#642,#825,.T.);
#505=EDGE_CURVE('',#693,#693,#20,.T.);
#506=EDGE_CURVE('',#694,#694,#34,.T.);
#507=EDGE_CURVE('',#695,#651,#826,.T.);
#508=EDGE_CURVE('',#652,#696,#827,.T.);
#509=EDGE_CURVE('',#697,#696,#828,.T.);
#510=EDGE_CURVE('',#698,#697,#829,.T.);
#511=EDGE_CURVE('',#698,#699,#830,.T.);
#512=EDGE_CURVE('',#700,#699,#831,.T.);
#513=EDGE_CURVE('',#700,#701,#832,.T.);
#514=EDGE_CURVE('',#702,#701,#833,.T.);
#515=EDGE_CURVE('',#703,#702,#834,.T.);
#516=EDGE_CURVE('',#703,#704,#835,.T.);
#517=EDGE_CURVE('',#704,#705,#836,.T.);
#518=EDGE_CURVE('',#705,#706,#837,.T.);
#519=EDGE_CURVE('',#663,#706,#838,.F.);
#520=EDGE_CURVE('',#695,#661,#839,.T.);
#521=EDGE_CURVE('',#707,#708,#840,.T.);
#522=EDGE_CURVE('',#707,#709,#841,.T.);
#523=EDGE_CURVE('',#710,#709,#842,.F.);
#524=EDGE_CURVE('',#711,#710,#843,.T.);
#525=EDGE_CURVE('',#711,#712,#844,.T.);
#526=EDGE_CURVE('',#712,#708,#845,.T.);
#527=EDGE_CURVE('',#713,#714,#846,.T.);
#528=EDGE_CURVE('',#714,#715,#847,.F.);
#529=EDGE_CURVE('',#715,#716,#848,.T.);
#530=EDGE_CURVE('',#716,#717,#849,.T.);
#531=EDGE_CURVE('',#718,#717,#850,.T.);
#532=EDGE_CURVE('',#713,#718,#851,.T.);
#533=EDGE_CURVE('',#704,#719,#852,.T.);
#534=EDGE_CURVE('',#720,#719,#853,.T.);
#535=EDGE_CURVE('',#720,#705,#854,.T.);
#536=EDGE_CURVE('',#721,#721,#21,.T.);
#537=EDGE_CURVE('',#708,#668,#855,.T.);
#538=EDGE_CURVE('',#712,#722,#856,.F.);
#539=EDGE_CURVE('',#722,#723,#857,.T.);
#540=EDGE_CURVE('',#723,#724,#858,.T.);
#541=EDGE_CURVE('',#724,#669,#859,.T.);
#542=EDGE_CURVE('',#725,#725,#22,.T.);
#543=EDGE_CURVE('',#702,#717,#860,.T.);
#544=EDGE_CURVE('',#701,#726,#861,.T.);
#545=EDGE_CURVE('',#727,#726,#862,.T.);
#546=EDGE_CURVE('',#728,#727,#863,.T.);
#547=EDGE_CURVE('',#728,#718,#864,.F.);
#548=EDGE_CURVE('',#664,#710,#865,.T.);
#549=EDGE_CURVE('',#709,#665,#866,.F.);
#550=EDGE_CURVE('',#729,#730,#867,.T.);
#551=EDGE_CURVE('',#729,#715,#868,.T.);
#552=EDGE_CURVE('',#714,#730,#869,.F.);
#553=EDGE_CURVE('',#731,#731,#23,.F.);
#554=EDGE_CURVE('',#732,#732,#35,.T.);
#555=EDGE_CURVE('',#733,#733,#24,.T.);
#556=EDGE_CURVE('',#734,#735,#870,.T.);
#557=EDGE_CURVE('',#735,#675,#871,.T.);
#558=EDGE_CURVE('',#674,#736,#872,.T.);
#559=EDGE_CURVE('',#736,#737,#873,.T.);
#560=EDGE_CURVE('',#737,#738,#874,.T.);
#561=EDGE_CURVE('',#734,#738,#875,.F.);
#562=EDGE_CURVE('',#739,#740,#876,.T.);
#563=EDGE_CURVE('',#740,#724,#877,.T.);
#564=EDGE_CURVE('',#739,#723,#878,.T.);
#565=EDGE_CURVE('',#741,#722,#879,.T.);
#566=EDGE_CURVE('',#741,#739,#880,.T.);
#567=EDGE_CURVE('',#684,#742,#881,.T.);
#568=EDGE_CURVE('',#683,#742,#882,.T.);
#569=EDGE_CURVE('',#743,#691,#883,.T.);
#570=EDGE_CURVE('',#691,#690,#884,.T.);
#571=EDGE_CURVE('',#744,#690,#885,.T.);
#572=EDGE_CURVE('',#744,#745,#886,.F.);
#573=EDGE_CURVE('',#746,#745,#887,.T.);
#574=EDGE_CURVE('',#747,#746,#888,.T.);
#575=EDGE_CURVE('',#747,#673,#889,.T.);
#576=EDGE_CURVE('',#672,#748,#890,.T.);
#577=EDGE_CURVE('',#749,#748,#891,.T.);
#578=EDGE_CURVE('',#711,#749,#892,.F.);
#579=EDGE_CURVE('',#710,#714,#893,.T.);
#580=EDGE_CURVE('',#750,#713,#894,.F.);
#581=EDGE_CURVE('',#750,#751,#895,.T.);
#582=EDGE_CURVE('',#751,#752,#896,.T.);
#583=EDGE_CURVE('',#752,#700,#897,.T.);
#584=EDGE_CURVE('',#699,#753,#898,.F.);
#585=EDGE_CURVE('',#754,#753,#899,.T.);
#586=EDGE_CURVE('',#754,#755,#900,.T.);
#587=EDGE_CURVE('',#755,#743,#901,.F.);
#588=EDGE_CURVE('',#730,#756,#902,.T.);
#589=EDGE_CURVE('',#756,#742,#903,.T.);
#590=EDGE_CURVE('',#720,#686,#904,.T.);
#591=EDGE_CURVE('',#719,#729,#905,.T.);
#592=EDGE_CURVE('',#687,#645,#906,.T.);
#593=EDGE_CURVE('',#735,#757,#907,.T.);
#594=EDGE_CURVE('',#744,#734,#908,.T.);
#595=EDGE_CURVE('',#689,#757,#909,.T.);
#596=EDGE_CURVE('',#746,#737,#910,.T.);
#597=EDGE_CURVE('',#745,#738,#911,.T.);
#598=EDGE_CURVE('',#736,#747,#912,.T.);
#599=EDGE_CURVE('',#751,#727,#913,.T.);
#600=EDGE_CURVE('',#750,#728,#914,.T.);
#601=EDGE_CURVE('',#726,#752,#915,.T.);
#602=EDGE_CURVE('',#758,#759,#916,.T.);
#603=EDGE_CURVE('',#759,#760,#917,.T.);
#604=EDGE_CURVE('',#760,#692,#918,.T.);
#605=EDGE_CURVE('',#743,#758,#919,.T.);
#606=EDGE_CURVE('',#753,#761,#920,.T.);
#607=EDGE_CURVE('',#762,#761,#921,.T.);
#608=EDGE_CURVE('',#754,#762,#922,.T.);
#609=EDGE_CURVE('',#762,#763,#923,.T.);
#610=EDGE_CURVE('',#755,#763,#924,.T.);
#611=EDGE_CURVE('',#764,#764,#25,.T.);
#612=EDGE_CURVE('',#697,#759,#925,.T.);
#613=EDGE_CURVE('',#763,#758,#926,.F.);
#614=EDGE_CURVE('',#761,#698,#927,.F.);
#615=EDGE_CURVE('',#756,#695,#928,.T.);
#616=EDGE_CURVE('',#664,#756,#929,.T.);
#617=EDGE_CURVE('',#644,#666,#930,.T.);
#618=EDGE_CURVE('',#641,#644,#931,.T.);
#619=EDGE_CURVE('',#670,#740,#932,.T.);
#620=EDGE_CURVE('',#741,#765,#933,.F.);
#621=EDGE_CURVE('',#765,#766,#934,.T.);
#622=EDGE_CURVE('',#766,#671,#935,.T.);
#623=EDGE_CURVE('',#748,#766,#936,.T.);
#624=EDGE_CURVE('',#767,#685,#937,.T.);
#625=EDGE_CURVE('',#767,#706,#26,.T.);
#626=EDGE_CURVE('',#767,#662,#938,.T.);
#627=EDGE_CURVE('',#768,#679,#27,.T.);
#628=EDGE_CURVE('',#768,#682,#939,.T.);
#629=EDGE_CURVE('',#768,#688,#940,.T.);
#630=EDGE_CURVE('',#749,#765,#941,.T.);
#631=EDGE_CURVE('',#716,#703,#942,.T.);
#632=EDGE_CURVE('',#667,#707,#943,.T.);
#633=EDGE_CURVE('',#757,#676,#944,.T.);
#634=EDGE_CURVE('',#696,#760,#945,.T.);
#635=EDGE_CURVE('',#769,#769,#28,.T.);
#636=EDGE_CURVE('',#770,#770,#29,.T.);
#637=EDGE_CURVE('',#771,#771,#30,.T.);
#638=EDGE_CURVE('',#772,#772,#31,.T.);
#639=VERTEX_POINT('',#1949);
#640=VERTEX_POINT('',#1950);
#641=VERTEX_POINT('',#1952);
#642=VERTEX_POINT('',#1954);
#643=VERTEX_POINT('',#1958);
#644=VERTEX_POINT('',#1959);
#645=VERTEX_POINT('',#1961);
#646=VERTEX_POINT('',#1963);
#647=VERTEX_POINT('',#1965);
#648=VERTEX_POINT('',#1967);
#649=VERTEX_POINT('',#1969);
#650=VERTEX_POINT('',#1971);
#651=VERTEX_POINT('',#1975);
#652=VERTEX_POINT('',#1976);
#653=VERTEX_POINT('',#1981);
#654=VERTEX_POINT('',#1983);
#655=VERTEX_POINT('',#1986);
#656=VERTEX_POINT('',#1987);
#657=VERTEX_POINT('',#1989);
#658=VERTEX_POINT('',#1991);
#659=VERTEX_POINT('',#1995);
#660=VERTEX_POINT('',#1997);
#661=VERTEX_POINT('',#2000);
#662=VERTEX_POINT('',#2001);
#663=VERTEX_POINT('',#2003);
#664=VERTEX_POINT('',#2007);
#665=VERTEX_POINT('',#2009);
#666=VERTEX_POINT('',#2013);
#667=VERTEX_POINT('',#2015);
#668=VERTEX_POINT('',#2017);
#669=VERTEX_POINT('',#2019);
#670=VERTEX_POINT('',#2021);
#671=VERTEX_POINT('',#2023);
#672=VERTEX_POINT('',#2025);
#673=VERTEX_POINT('',#2027);
#674=VERTEX_POINT('',#2029);
#675=VERTEX_POINT('',#2031);
#676=VERTEX_POINT('',#2033);
#677=VERTEX_POINT('',#2035);
#678=VERTEX_POINT('',#2037);
#679=VERTEX_POINT('',#2039);
#680=VERTEX_POINT('',#2041);
#681=VERTEX_POINT('',#2043);
#682=VERTEX_POINT('',#2047);
#683=VERTEX_POINT('',#2051);
#684=VERTEX_POINT('',#2052);
#685=VERTEX_POINT('',#2054);
#686=VERTEX_POINT('',#2056);
#687=VERTEX_POINT('',#2060);
#688=VERTEX_POINT('',#2062);
#689=VERTEX_POINT('',#2069);
#690=VERTEX_POINT('',#2071);
#691=VERTEX_POINT('',#2075);
#692=VERTEX_POINT('',#2077);
#693=VERTEX_POINT('',#2081);
#694=VERTEX_POINT('',#2083);
#695=VERTEX_POINT('',#2086);
#696=VERTEX_POINT('',#2088);
#697=VERTEX_POINT('',#2090);
#698=VERTEX_POINT('',#2092);
#699=VERTEX_POINT('',#2094);
#700=VERTEX_POINT('',#2096);
#701=VERTEX_POINT('',#2098);
#702=VERTEX_POINT('',#2100);
#703=VERTEX_POINT('',#2102);
#704=VERTEX_POINT('',#2104);
#705=VERTEX_POINT('',#2106);
#706=VERTEX_POINT('',#2108);
#707=VERTEX_POINT('',#2113);
#708=VERTEX_POINT('',#2114);
#709=VERTEX_POINT('',#2116);
#710=VERTEX_POINT('',#2118);
#711=VERTEX_POINT('',#2120);
#712=VERTEX_POINT('',#2122);
#713=VERTEX_POINT('',#2126);
#714=VERTEX_POINT('',#2127);
#715=VERTEX_POINT('',#2129);
#716=VERTEX_POINT('',#2131);
#717=VERTEX_POINT('',#2133);
#718=VERTEX_POINT('',#2135);
#719=VERTEX_POINT('',#2139);
#720=VERTEX_POINT('',#2141);
#721=VERTEX_POINT('',#2145);
#722=VERTEX_POINT('',#2148);
#723=VERTEX_POINT('',#2150);
#724=VERTEX_POINT('',#2152);
#725=VERTEX_POINT('',#2156);
#726=VERTEX_POINT('',#2159);
#727=VERTEX_POINT('',#2161);
#728=VERTEX_POINT('',#2163);
#729=VERTEX_POINT('',#2170);
#730=VERTEX_POINT('',#2171);
#731=VERTEX_POINT('',#2176);
#732=VERTEX_POINT('',#2178);
#733=VERTEX_POINT('',#2181);
#734=VERTEX_POINT('',#2183);
#735=VERTEX_POINT('',#2184);
#736=VERTEX_POINT('',#2187);
#737=VERTEX_POINT('',#2189);
#738=VERTEX_POINT('',#2191);
#739=VERTEX_POINT('',#2195);
#740=VERTEX_POINT('',#2196);
#741=VERTEX_POINT('',#2201);
#742=VERTEX_POINT('',#2205);
#743=VERTEX_POINT('',#2209);
#744=VERTEX_POINT('',#2212);
#745=VERTEX_POINT('',#2214);
#746=VERTEX_POINT('',#2216);
#747=VERTEX_POINT('',#2218);
#748=VERTEX_POINT('',#2221);
#749=VERTEX_POINT('',#2223);
#750=VERTEX_POINT('',#2227);
#751=VERTEX_POINT('',#2229);
#752=VERTEX_POINT('',#2231);
#753=VERTEX_POINT('',#2234);
#754=VERTEX_POINT('',#2236);
#755=VERTEX_POINT('',#2238);
#756=VERTEX_POINT('',#2242);
#757=VERTEX_POINT('',#2250);
#758=VERTEX_POINT('',#2265);
#759=VERTEX_POINT('',#2266);
#760=VERTEX_POINT('',#2268);
#761=VERTEX_POINT('',#2273);
#762=VERTEX_POINT('',#2275);
#763=VERTEX_POINT('',#2279);
#764=VERTEX_POINT('',#2283);
#765=VERTEX_POINT('',#2295);
#766=VERTEX_POINT('',#2297);
#767=VERTEX_POINT('',#2309);
#768=VERTEX_POINT('',#2315);
#769=VERTEX_POINT('',#2339);
#770=VERTEX_POINT('',#2343);
#771=VERTEX_POINT('',#2347);
#772=VERTEX_POINT('',#2351);
#773=LINE('',#1948,#946);
#774=LINE('',#1951,#947);
#775=LINE('',#1953,#948);
#776=LINE('',#1955,#949);
#777=LINE('',#1957,#950);
#778=LINE('',#1960,#951);
#779=LINE('',#1962,#952);
#780=LINE('',#1964,#953);
#781=LINE('',#1966,#954);
#782=LINE('',#1968,#955);
#783=LINE('',#1970,#956);
#784=LINE('',#1972,#957);
#785=LINE('',#1974,#958);
#786=LINE('',#1977,#959);
#787=LINE('',#1978,#960);
#788=LINE('',#1985,#961);
#789=LINE('',#1988,#962);
#790=LINE('',#1990,#963);
#791=LINE('',#1992,#964);
#792=LINE('',#1999,#965);
#793=LINE('',#2002,#966);
#794=LINE('',#2006,#967);
#795=LINE('',#2008,#968);
#796=LINE('',#2010,#969);
#797=LINE('',#2012,#970);
#798=LINE('',#2014,#971);
#799=LINE('',#2016,#972);
#800=LINE('',#2018,#973);
#801=LINE('',#2020,#974);
#802=LINE('',#2022,#975);
#803=LINE('',#2024,#976);
#804=LINE('',#2026,#977);
#805=LINE('',#2028,#978);
#806=LINE('',#2030,#979);
#807=LINE('',#2032,#980);
#808=LINE('',#2034,#981);
#809=LINE('',#2036,#982);
#810=LINE('',#2038,#983);
#811=LINE('',#2040,#984);
#812=LINE('',#2042,#985);
#813=LINE('',#2044,#986);
#814=LINE('',#2046,#987);
#815=LINE('',#2053,#988);
#816=LINE('',#2057,#989);
#817=LINE('',#2061,#990);
#818=LINE('',#2065,#991);
#819=LINE('',#2066,#992);
#820=LINE('',#2068,#993);
#821=LINE('',#2070,#994);
#822=LINE('',#2072,#995);
#823=LINE('',#2074,#996);
#824=LINE('',#2076,#997);
#825=LINE('',#2078,#998);
#826=LINE('',#2085,#999);
#827=LINE('',#2087,#1000);
#828=LINE('',#2089,#1001);
#829=LINE('',#2091,#1002);
#830=LINE('',#2093,#1003);
#831=LINE('',#2095,#1004);
#832=LINE('',#2097,#1005);
#833=LINE('',#2099,#1006);
#834=LINE('',#2101,#1007);
#835=LINE('',#2103,#1008);
#836=LINE('',#2105,#1009);
#837=LINE('',#2107,#1010);
#838=LINE('',#2109,#1011);
#839=LINE('',#2110,#1012);
#840=LINE('',#2112,#1013);
#841=LINE('',#2115,#1014);
#842=LINE('',#2117,#1015);
#843=LINE('',#2119,#1016);
#844=LINE('',#2121,#1017);
#845=LINE('',#2123,#1018);
#846=LINE('',#2125,#1019);
#847=LINE('',#2128,#1020);
#848=LINE('',#2130,#1021);
#849=LINE('',#2132,#1022);
#850=LINE('',#2134,#1023);
#851=LINE('',#2136,#1024);
#852=LINE('',#2138,#1025);
#853=LINE('',#2140,#1026);
#854=LINE('',#2142,#1027);
#855=LINE('',#2146,#1028);
#856=LINE('',#2147,#1029);
#857=LINE('',#2149,#1030);
#858=LINE('',#2151,#1031);
#859=LINE('',#2153,#1032);
#860=LINE('',#2157,#1033);
#861=LINE('',#2158,#1034);
#862=LINE('',#2160,#1035);
#863=LINE('',#2162,#1036);
#864=LINE('',#2164,#1037);
#865=LINE('',#2166,#1038);
#866=LINE('',#2167,#1039);
#867=LINE('',#2169,#1040);
#868=LINE('',#2172,#1041);
#869=LINE('',#2173,#1042);
#870=LINE('',#2182,#1043);
#871=LINE('',#2185,#1044);
#872=LINE('',#2186,#1045);
#873=LINE('',#2188,#1046);
#874=LINE('',#2190,#1047);
#875=LINE('',#2192,#1048);
#876=LINE('',#2194,#1049);
#877=LINE('',#2197,#1050);
#878=LINE('',#2198,#1051);
#879=LINE('',#2200,#1052);
#880=LINE('',#2202,#1053);
#881=LINE('',#2204,#1054);
#882=LINE('',#2206,#1055);
#883=LINE('',#2208,#1056);
#884=LINE('',#2210,#1057);
#885=LINE('',#2211,#1058);
#886=LINE('',#2213,#1059);
#887=LINE('',#2215,#1060);
#888=LINE('',#2217,#1061);
#889=LINE('',#2219,#1062);
#890=LINE('',#2220,#1063);
#891=LINE('',#2222,#1064);
#892=LINE('',#2224,#1065);
#893=LINE('',#2225,#1066);
#894=LINE('',#2226,#1067);
#895=LINE('',#2228,#1068);
#896=LINE('',#2230,#1069);
#897=LINE('',#2232,#1070);
#898=LINE('',#2233,#1071);
#899=LINE('',#2235,#1072);
#900=LINE('',#2237,#1073);
#901=LINE('',#2239,#1074);
#902=LINE('',#2241,#1075);
#903=LINE('',#2243,#1076);
#904=LINE('',#2244,#1077);
#905=LINE('',#2245,#1078);
#906=LINE('',#2247,#1079);
#907=LINE('',#2249,#1080);
#908=LINE('',#2251,#1081);
#909=LINE('',#2252,#1082);
#910=LINE('',#2254,#1083);
#911=LINE('',#2255,#1084);
#912=LINE('',#2257,#1085);
#913=LINE('',#2259,#1086);
#914=LINE('',#2260,#1087);
#915=LINE('',#2262,#1088);
#916=LINE('',#2264,#1089);
#917=LINE('',#2267,#1090);
#918=LINE('',#2269,#1091);
#919=LINE('',#2270,#1092);
#920=LINE('',#2272,#1093);
#921=LINE('',#2274,#1094);
#922=LINE('',#2276,#1095);
#923=LINE('',#2278,#1096);
#924=LINE('',#2280,#1097);
#925=LINE('',#2284,#1098);
#926=LINE('',#2285,#1099);
#927=LINE('',#2286,#1100);
#928=LINE('',#2288,#1101);
#929=LINE('',#2289,#1102);
#930=LINE('',#2290,#1103);
#931=LINE('',#2291,#1104);
#932=LINE('',#2293,#1105);
#933=LINE('',#2294,#1106);
#934=LINE('',#2296,#1107);
#935=LINE('',#2298,#1108);
#936=LINE('',#2301,#1109);
#937=LINE('',#2308,#1110);
#938=LINE('',#2312,#1111);
#939=LINE('',#2316,#1112);
#940=LINE('',#2318,#1113);
#941=LINE('',#2322,#1114);
#942=LINE('',#2326,#1115);
#943=LINE('',#2328,#1116);
#944=LINE('',#2330,#1117);
#945=LINE('',#2332,#1118);
#946=VECTOR('',#1573,1.);
#947=VECTOR('',#1574,1.);
#948=VECTOR('',#1575,1.);
#949=VECTOR('',#1576,1.);
#950=VECTOR('',#1579,1.);
#951=VECTOR('',#1580,1.);
#952=VECTOR('',#1581,1.);
#953=VECTOR('',#1582,1.);
#954=VECTOR('',#1583,1.);
#955=VECTOR('',#1584,1.);
#956=VECTOR('',#1585,1.);
#957=VECTOR('',#1586,1.);
#958=VECTOR('',#1589,1.);
#959=VECTOR('',#1590,1.);
#960=VECTOR('',#1591,1.);
#961=VECTOR('',#1600,1.);
#962=VECTOR('',#1601,1.);
#963=VECTOR('',#1602,1.);
#964=VECTOR('',#1603,1.);
#965=VECTOR('',#1612,1.);
#966=VECTOR('',#1613,1.);
#967=VECTOR('',#1618,1.);
#968=VECTOR('',#1619,1.);
#969=VECTOR('',#1620,1.);
#970=VECTOR('',#1623,1.);
#971=VECTOR('',#1624,1.);
#972=VECTOR('',#1625,1.);
#973=VECTOR('',#1626,1.);
#974=VECTOR('',#1627,1.);
#975=VECTOR('',#1628,1.);
#976=VECTOR('',#1629,1.);
#977=VECTOR('',#1630,1.);
#978=VECTOR('',#1631,1.);
#979=VECTOR('',#1632,1.);
#980=VECTOR('',#1633,1.);
#981=VECTOR('',#1634,1.);
#982=VECTOR('',#1635,1.);
#983=VECTOR('',#1636,1.);
#984=VECTOR('',#1637,1.);
#985=VECTOR('',#1638,1.);
#986=VECTOR('',#1639,1.);
#987=VECTOR('',#1642,1.);
#988=VECTOR('',#1649,1.);
#989=VECTOR('',#1652,1.);
#990=VECTOR('',#1657,1.);
#991=VECTOR('',#1662,1.);
#992=VECTOR('',#1663,1.);
#993=VECTOR('',#1666,1.);
#994=VECTOR('',#1667,1.);
#995=VECTOR('',#1668,1.);
#996=VECTOR('',#1671,1.);
#997=VECTOR('',#1672,1.);
#998=VECTOR('',#1673,1.);
#999=VECTOR('',#1682,1.);
#1000=VECTOR('',#1683,1.);
#1001=VECTOR('',#1684,1.);
#1002=VECTOR('',#1685,1.);
#1003=VECTOR('',#1686,1.);
#1004=VECTOR('',#1687,1.);
#1005=VECTOR('',#1688,1.);
#1006=VECTOR('',#1689,1.);
#1007=VECTOR('',#1690,1.);
#1008=VECTOR('',#1691,1.);
#1009=VECTOR('',#1692,1.);
#1010=VECTOR('',#1693,1.);
#1011=VECTOR('',#1694,1.);
#1012=VECTOR('',#1695,1.);
#1013=VECTOR('',#1698,1.);
#1014=VECTOR('',#1699,1.);
#1015=VECTOR('',#1700,1.);
#1016=VECTOR('',#1701,1.);
#1017=VECTOR('',#1702,1.);
#1018=VECTOR('',#1703,1.);
#1019=VECTOR('',#1706,1.);
#1020=VECTOR('',#1707,1.);
#1021=VECTOR('',#1708,1.);
#1022=VECTOR('',#1709,1.);
#1023=VECTOR('',#1710,1.);
#1024=VECTOR('',#1711,1.);
#1025=VECTOR('',#1714,1.);
#1026=VECTOR('',#1715,1.);
#1027=VECTOR('',#1716,1.);
#1028=VECTOR('',#1721,1.);
#1029=VECTOR('',#1722,1.);
#1030=VECTOR('',#1723,1.);
#1031=VECTOR('',#1724,1.);
#1032=VECTOR('',#1725,1.);
#1033=VECTOR('',#1730,1.);
#1034=VECTOR('',#1731,1.);
#1035=VECTOR('',#1732,1.);
#1036=VECTOR('',#1733,1.);
#1037=VECTOR('',#1734,1.);
#1038=VECTOR('',#1737,1.);
#1039=VECTOR('',#1738,1.);
#1040=VECTOR('',#1741,1.);
#1041=VECTOR('',#1742,1.);
#1042=VECTOR('',#1743,1.);
#1043=VECTOR('',#1754,1.);
#1044=VECTOR('',#1755,1.);
#1045=VECTOR('',#1756,1.);
#1046=VECTOR('',#1757,1.);
#1047=VECTOR('',#1758,1.);
#1048=VECTOR('',#1759,1.);
#1049=VECTOR('',#1762,1.);
#1050=VECTOR('',#1763,1.);
#1051=VECTOR('',#1764,1.);
#1052=VECTOR('',#1767,1.);
#1053=VECTOR('',#1768,1.);
#1054=VECTOR('',#1771,1.);
#1055=VECTOR('',#1772,1.);
#1056=VECTOR('',#1775,1.);
#1057=VECTOR('',#1776,1.);
#1058=VECTOR('',#1777,1.);
#1059=VECTOR('',#1778,1.);
#1060=VECTOR('',#1779,1.);
#1061=VECTOR('',#1780,1.);
#1062=VECTOR('',#1781,1.);
#1063=VECTOR('',#1782,1.);
#1064=VECTOR('',#1783,1.);
#1065=VECTOR('',#1784,1.);
#1066=VECTOR('',#1785,1.);
#1067=VECTOR('',#1786,1.);
#1068=VECTOR('',#1787,1.);
#1069=VECTOR('',#1788,1.);
#1070=VECTOR('',#1789,1.);
#1071=VECTOR('',#1790,1.);
#1072=VECTOR('',#1791,1.);
#1073=VECTOR('',#1792,1.);
#1074=VECTOR('',#1793,1.);
#1075=VECTOR('',#1796,1.);
#1076=VECTOR('',#1797,1.);
#1077=VECTOR('',#1798,1.);
#1078=VECTOR('',#1799,1.);
#1079=VECTOR('',#1802,1.);
#1080=VECTOR('',#1805,1.);
#1081=VECTOR('',#1806,1.);
#1082=VECTOR('',#1807,1.);
#1083=VECTOR('',#1810,1.);
#1084=VECTOR('',#1811,1.);
#1085=VECTOR('',#1814,1.);
#1086=VECTOR('',#1817,1.);
#1087=VECTOR('',#1818,1.);
#1088=VECTOR('',#1821,1.);
#1089=VECTOR('',#1824,1.);
#1090=VECTOR('',#1825,1.);
#1091=VECTOR('',#1826,1.);
#1092=VECTOR('',#1827,1.);
#1093=VECTOR('',#1830,1.);
#1094=VECTOR('',#1831,1.);
#1095=VECTOR('',#1832,1.);
#1096=VECTOR('',#1835,1.);
#1097=VECTOR('',#1836,1.);
#1098=VECTOR('',#1841,1.);
#1099=VECTOR('',#1842,1.);
#1100=VECTOR('',#1843,1.);
#1101=VECTOR('',#1846,1.);
#1102=VECTOR('',#1847,1.);
#1103=VECTOR('',#1848,1.);
#1104=VECTOR('',#1849,1.);
#1105=VECTOR('',#1852,1.);
#1106=VECTOR('',#1853,1.);
#1107=VECTOR('',#1854,1.);
#1108=VECTOR('',#1855,1.);
#1109=VECTOR('',#1860,1.);
#1110=VECTOR('',#1873,1.);
#1111=VECTOR('',#1878,1.);
#1112=VECTOR('',#1883,1.);
#1113=VECTOR('',#1886,1.);
#1114=VECTOR('',#1893,1.);
#1115=VECTOR('',#1900,1.);
#1116=VECTOR('',#1903,1.);
#1117=VECTOR('',#1906,1.);
#1118=VECTOR('',#1909,1.);
#1119=EDGE_LOOP('',(#48,#49,#50,#51));
#1120=EDGE_LOOP('',(#52,#53,#54,#55,#56,#57,#58,#59));
#1121=EDGE_LOOP('',(#60,#61,#62,#63));
#1122=EDGE_LOOP('',(#64));
#1123=EDGE_LOOP('',(#65));
#1124=EDGE_LOOP('',(#66,#67,#68,#69));
#1125=EDGE_LOOP('',(#70));
#1126=EDGE_LOOP('',(#71));
#1127=EDGE_LOOP('',(#72,#73,#74));
#1128=EDGE_LOOP('',(#75,#76,#77,#78));
#1129=EDGE_LOOP('',(#79,#80,#81,#82,#83,#84,#85,#86,#87,#88,#89,#90,#91,#92,#93,#94,#95,#96));
#1130=EDGE_LOOP('',(#97,#98,#99));
#1131=EDGE_LOOP('',(#100,#101,#102,#103));
#1132=EDGE_LOOP('',(#104,#105,#106,#107));
#1133=EDGE_LOOP('',(#108,#109,#110,#111));
#1134=EDGE_LOOP('',(#112,#113,#114,#115));
#1135=EDGE_LOOP('',(#116,#117,#118,#119));
#1136=EDGE_LOOP('',(#120));
#1137=EDGE_LOOP('',(#121));
#1138=EDGE_LOOP('',(#122,#123,#124,#125,#126,#127,#128,#129,#130,#131,#132,#133,#134,#135,#136,#137));
#1139=EDGE_LOOP('',(#138,#139,#140,#141,#142,#143));
#1140=EDGE_LOOP('',(#144,#145,#146,#147,#148,#149));
#1141=EDGE_LOOP('',(#150,#151,#152,#153));
#1142=EDGE_LOOP('',(#154));
#1143=EDGE_LOOP('',(#155,#156,#157,#158,#159,#160,#161));
#1144=EDGE_LOOP('',(#162));
#1145=EDGE_LOOP('',(#163,#164,#165,#166,#167,#168,#169));
#1146=EDGE_LOOP('',(#170,#171,#172,#173));
#1147=EDGE_LOOP('',(#174,#175,#176,#177));
#1148=EDGE_LOOP('',(#178));
#1149=EDGE_LOOP('',(#179));
#1150=EDGE_LOOP('',(#180));
#1151=EDGE_LOOP('',(#181,#182,#183,#184,#185,#186,#187));
#1152=EDGE_LOOP('',(#188,#189,#190,#191));
#1153=EDGE_LOOP('',(#192,#193,#194,#195));
#1154=EDGE_LOOP('',(#196,#197,#198));
#1155=EDGE_LOOP('',(#199,#200,#201,#202,#203,#204,#205,#206,#207,#208,#209,#210,#211,#212,#213,#214,#215,#216,#217,#218,#219,#220,#221));
#1156=EDGE_LOOP('',(#222,#223,#224,#225,#226,#227,#228,#229));
#1157=EDGE_LOOP('',(#230,#231,#232));
#1158=EDGE_LOOP('',(#233,#234,#235,#236,#237,#238));
#1159=EDGE_LOOP('',(#239,#240,#241,#242));
#1160=EDGE_LOOP('',(#243,#244,#245,#246));
#1161=EDGE_LOOP('',(#247,#248,#249,#250));
#1162=EDGE_LOOP('',(#251,#252,#253,#254));
#1163=EDGE_LOOP('',(#255,#256,#257,#258,#259,#260));
#1164=EDGE_LOOP('',(#261,#262,#263,#264));
#1165=EDGE_LOOP('',(#265,#266,#267,#268));
#1166=EDGE_LOOP('',(#269));
#1167=EDGE_LOOP('',(#270,#271,#272,#273,#274,#275,#276));
#1168=EDGE_LOOP('',(#277,#278,#279,#280,#281,#282,#283,#284,#285,#286));
#1169=EDGE_LOOP('',(#287));
#1170=EDGE_LOOP('',(#288));
#1171=EDGE_LOOP('',(#289,#290,#291,#292,#293,#294,#295));
#1172=EDGE_LOOP('',(#296,#297,#298,#299));
#1173=EDGE_LOOP('',(#300,#301,#302,#303));
#1174=EDGE_LOOP('',(#304,#305,#306,#307));
#1175=EDGE_LOOP('',(#308,#309,#310,#311));
#1176=EDGE_LOOP('',(#312,#313,#314,#315));
#1177=EDGE_LOOP('',(#316,#317,#318,#319,#320));
#1178=EDGE_LOOP('',(#321,#322,#323,#324,#325));
#1179=EDGE_LOOP('',(#326,#327,#328,#329,#330,#331));
#1180=EDGE_LOOP('',(#332));
#1181=EDGE_LOOP('',(#333,#334,#335,#336));
#1182=EDGE_LOOP('',(#337,#338,#339,#340));
#1183=EDGE_LOOP('',(#341,#342,#343,#344,#345,#346));
#1184=EDGE_LOOP('',(#347));
#1185=EDGE_LOOP('',(#348,#349,#350,#351));
#1186=EDGE_LOOP('',(#352,#353,#354,#355));
#1187=EDGE_LOOP('',(#356,#357,#358,#359));
#1188=EDGE_LOOP('',(#360,#361,#362,#363,#364,#365));
#1189=EDGE_LOOP('',(#366,#367,#368,#369));
#1190=EDGE_LOOP('',(#370,#371,#372,#373));
#1191=EDGE_LOOP('',(#374,#375,#376,#377));
#1192=EDGE_LOOP('',(#378,#379,#380,#381));
#1193=EDGE_LOOP('',(#382,#383,#384,#385));
#1194=EDGE_LOOP('',(#386,#387,#388,#389,#390,#391));
#1195=EDGE_LOOP('',(#392));
#1196=EDGE_LOOP('',(#393,#394,#395,#396,#397,#398));
#1197=EDGE_LOOP('',(#399));
#1198=EDGE_LOOP('',(#400,#401,#402,#403,#404,#405));
#1199=EDGE_LOOP('',(#406));
#1200=EDGE_LOOP('',(#407,#408,#409,#410,#411,#412));
#1201=EDGE_LOOP('',(#413));
#1202=EDGE_LOOP('',(#414));
#1203=EDGE_LOOP('',(#415));
#1204=EDGE_LOOP('',(#416));
#1205=EDGE_LOOP('',(#417));
#1206=EDGE_LOOP('',(#418));
#1207=EDGE_LOOP('',(#419));
#1208=EDGE_LOOP('',(#420));
#1209=EDGE_LOOP('',(#421));
#1210=EDGE_LOOP('',(#422));
#1211=EDGE_LOOP('',(#423));
#1212=EDGE_LOOP('',(#424));
#1213=EDGE_LOOP('',(#425));
#1214=EDGE_LOOP('',(#426,#427,#428,#429,#430,#431,#432,#433));
#1215=EDGE_LOOP('',(#434,#435,#436,#437,#438,#439,#440,#441));
#1216=FACE_BOUND('',#1119,.T.);
#1217=FACE_BOUND('',#1120,.T.);
#1218=FACE_BOUND('',#1121,.T.);
#1219=FACE_BOUND('',#1122,.T.);
#1220=FACE_BOUND('',#1123,.T.);
#1221=FACE_BOUND('',#1124,.T.);
#1222=FACE_BOUND('',#1125,.T.);
#1223=FACE_BOUND('',#1126,.T.);
#1224=FACE_BOUND('',#1127,.T.);
#1225=FACE_BOUND('',#1128,.T.);
#1226=FACE_BOUND('',#1129,.T.);
#1227=FACE_BOUND('',#1130,.T.);
#1228=FACE_BOUND('',#1131,.T.);
#1229=FACE_BOUND('',#1132,.T.);
#1230=FACE_BOUND('',#1133,.T.);
#1231=FACE_BOUND('',#1134,.T.);
#1232=FACE_BOUND('',#1135,.T.);
#1233=FACE_BOUND('',#1136,.T.);
#1234=FACE_BOUND('',#1137,.T.);
#1235=FACE_BOUND('',#1138,.T.);
#1236=FACE_BOUND('',#1139,.T.);
#1237=FACE_BOUND('',#1140,.T.);
#1238=FACE_BOUND('',#1141,.T.);
#1239=FACE_BOUND('',#1142,.T.);
#1240=FACE_BOUND('',#1143,.T.);
#1241=FACE_BOUND('',#1144,.T.);
#1242=FACE_BOUND('',#1145,.T.);
#1243=FACE_BOUND('',#1146,.T.);
#1244=FACE_BOUND('',#1147,.T.);
#1245=FACE_BOUND('',#1148,.T.);
#1246=FACE_BOUND('',#1149,.T.);
#1247=FACE_BOUND('',#1150,.T.);
#1248=FACE_BOUND('',#1151,.T.);
#1249=FACE_BOUND('',#1152,.T.);
#1250=FACE_BOUND('',#1153,.T.);
#1251=FACE_BOUND('',#1154,.T.);
#1252=FACE_BOUND('',#1155,.T.);
#1253=FACE_BOUND('',#1156,.T.);
#1254=FACE_BOUND('',#1157,.T.);
#1255=FACE_BOUND('',#1158,.T.);
#1256=FACE_BOUND('',#1159,.T.);
#1257=FACE_BOUND('',#1160,.T.);
#1258=FACE_BOUND('',#1161,.T.);
#1259=FACE_BOUND('',#1162,.T.);
#1260=FACE_BOUND('',#1163,.T.);
#1261=FACE_BOUND('',#1164,.T.);
#1262=FACE_BOUND('',#1165,.T.);
#1263=FACE_BOUND('',#1166,.T.);
#1264=FACE_BOUND('',#1167,.T.);
#1265=FACE_BOUND('',#1168,.T.);
#1266=FACE_BOUND('',#1169,.T.);
#1267=FACE_BOUND('',#1170,.T.);
#1268=FACE_BOUND('',#1171,.T.);
#1269=FACE_BOUND('',#1172,.T.);
#1270=FACE_BOUND('',#1173,.T.);
#1271=FACE_BOUND('',#1174,.T.);
#1272=FACE_BOUND('',#1175,.T.);
#1273=FACE_BOUND('',#1176,.T.);
#1274=FACE_BOUND('',#1177,.T.);
#1275=FACE_BOUND('',#1178,.T.);
#1276=FACE_BOUND('',#1179,.T.);
#1277=FACE_BOUND('',#1180,.T.);
#1278=FACE_BOUND('',#1181,.T.);
#1279=FACE_BOUND('',#1182,.T.);
#1280=FACE_BOUND('',#1183,.T.);
#1281=FACE_BOUND('',#1184,.T.);
#1282=FACE_BOUND('',#1185,.T.);
#1283=FACE_BOUND('',#1186,.T.);
#1284=FACE_BOUND('',#1187,.T.);
#1285=FACE_BOUND('',#1188,.T.);
#1286=FACE_BOUND('',#1189,.T.);
#1287=FACE_BOUND('',#1190,.T.);
#1288=FACE_BOUND('',#1191,.T.);
#1289=FACE_BOUND('',#1192,.T.);
#1290=FACE_BOUND('',#1193,.T.);
#1291=FACE_BOUND('',#1194,.T.);
#1292=FACE_BOUND('',#1195,.T.);
#1293=FACE_BOUND('',#1196,.T.);
#1294=FACE_BOUND('',#1197,.T.);
#1295=FACE_BOUND('',#1198,.T.);
#1296=FACE_BOUND('',#1199,.T.);
#1297=FACE_BOUND('',#1200,.T.);
#1298=FACE_BOUND('',#1201,.T.);
#1299=FACE_BOUND('',#1202,.T.);
#1300=FACE_BOUND('',#1203,.T.);
#1301=FACE_BOUND('',#1204,.T.);
#1302=FACE_BOUND('',#1205,.T.);
#1303=FACE_BOUND('',#1206,.T.);
#1304=FACE_BOUND('',#1207,.T.);
#1305=FACE_BOUND('',#1208,.T.);
#1306=FACE_BOUND('',#1209,.T.);
#1307=FACE_BOUND('',#1210,.T.);
#1308=FACE_BOUND('',#1211,.T.);
#1309=FACE_BOUND('',#1212,.T.);
#1310=FACE_BOUND('',#1213,.T.);
#1311=FACE_BOUND('',#1214,.T.);
#1312=FACE_BOUND('',#1215,.T.);
#1313=PLANE('',#1468);
#1314=PLANE('',#1469);
#1315=PLANE('',#1470);
#1316=PLANE('',#1474);
#1317=PLANE('',#1478);
#1318=PLANE('',#1480);
#1319=PLANE('',#1481);
#1320=PLANE('',#1482);
#1321=PLANE('',#1490);
#1322=PLANE('',#1491);
#1323=PLANE('',#1492);
#1324=PLANE('',#1496);
#1325=PLANE('',#1497);
#1326=PLANE('',#1498);
#1327=PLANE('',#1499);
#1328=PLANE('',#1500);
#1329=PLANE('',#1502);
#1330=PLANE('',#1504);
#1331=PLANE('',#1505);
#1332=PLANE('',#1509);
#1333=PLANE('',#1511);
#1334=PLANE('',#1512);
#1335=PLANE('',#1513);
#1336=PLANE('',#1514);
#1337=PLANE('',#1515);
#1338=PLANE('',#1516);
#1339=PLANE('',#1517);
#1340=PLANE('',#1518);
#1341=PLANE('',#1519);
#1342=PLANE('',#1520);
#1343=PLANE('',#1521);
#1344=PLANE('',#1522);
#1345=PLANE('',#1523);
#1346=PLANE('',#1524);
#1347=PLANE('',#1525);
#1348=PLANE('',#1527);
#1349=PLANE('',#1528);
#1350=PLANE('',#1529);
#1351=PLANE('',#1530);
#1352=PLANE('',#1531);
#1353=PLANE('',#1532);
#1354=PLANE('',#1533);
#1355=PLANE('',#1534);
#1356=PLANE('',#1535);
#1357=PLANE('',#1536);
#1358=PLANE('',#1541);
#1359=PLANE('',#1542);
#1360=PLANE('',#1543);
#1361=PLANE('',#1544);
#1362=PLANE('',#1545);
#1363=PLANE('',#1546);
#1364=PLANE('',#1547);
#1365=PLANE('',#1548);
#1366=PLANE('',#1549);
#1367=PLANE('',#1550);
#1368=PLANE('',#1551);
#1369=PLANE('',#1552);
#1370=PLANE('',#1553);
#1371=PLANE('',#1554);
#1372=PLANE('',#1557);
#1373=PLANE('',#1560);
#1374=PLANE('',#1563);
#1375=PLANE('',#1566);
#1376=PLANE('',#1567);
#1377=PLANE('',#1568);
#1378=ADVANCED_FACE('',(#1216),#1313,.T.);
#1379=ADVANCED_FACE('',(#1217),#1314,.T.);
#1380=ADVANCED_FACE('',(#1218),#1315,.F.);
#1381=ADVANCED_FACE('',(#1219,#1220),#36,.F.);
#1382=ADVANCED_FACE('',(#1221),#1316,.F.);
#1383=ADVANCED_FACE('',(#1222,#1223),#37,.F.);
#1384=ADVANCED_FACE('',(#1224),#1317,.T.);
#1385=ADVANCED_FACE('',(#1225),#1318,.F.);
#1386=ADVANCED_FACE('',(#1226),#1319,.F.);
#1387=ADVANCED_FACE('',(#1227),#1320,.T.);
#1388=ADVANCED_FACE('',(#1228),#38,.F.);
#1389=ADVANCED_FACE('',(#1229),#39,.F.);
#1390=ADVANCED_FACE('',(#1230),#1321,.T.);
#1391=ADVANCED_FACE('',(#1231),#1322,.F.);
#1392=ADVANCED_FACE('',(#1232),#1323,.T.);
#1393=ADVANCED_FACE('',(#1233,#1234),#40,.F.);
#1394=ADVANCED_FACE('',(#1235),#1324,.T.);
#1395=ADVANCED_FACE('',(#1236),#1325,.F.);
#1396=ADVANCED_FACE('',(#1237),#1326,.T.);
#1397=ADVANCED_FACE('',(#1238),#1327,.T.);
#1398=ADVANCED_FACE('',(#1239,#1240),#1328,.F.);
#1399=ADVANCED_FACE('',(#1241,#1242),#1329,.F.);
#1400=ADVANCED_FACE('',(#1243),#1330,.F.);
#1401=ADVANCED_FACE('',(#1244),#1331,.T.);
#1402=ADVANCED_FACE('',(#1245,#1246),#41,.F.);
#1403=ADVANCED_FACE('',(#1247,#1248),#1332,.F.);
#1404=ADVANCED_FACE('',(#1249),#1333,.T.);
#1405=ADVANCED_FACE('',(#1250),#1334,.T.);
#1406=ADVANCED_FACE('',(#1251),#1335,.T.);
#1407=ADVANCED_FACE('',(#1252),#1336,.F.);
#1408=ADVANCED_FACE('',(#1253),#1337,.F.);
#1409=ADVANCED_FACE('',(#1254),#1338,.T.);
#1410=ADVANCED_FACE('',(#1255),#1339,.T.);
#1411=ADVANCED_FACE('',(#1256),#1340,.T.);
#1412=ADVANCED_FACE('',(#1257),#1341,.T.);
#1413=ADVANCED_FACE('',(#1258),#1342,.F.);
#1414=ADVANCED_FACE('',(#1259),#1343,.F.);
#1415=ADVANCED_FACE('',(#1260),#1344,.F.);
#1416=ADVANCED_FACE('',(#1261),#1345,.T.);
#1417=ADVANCED_FACE('',(#1262),#1346,.F.);
#1418=ADVANCED_FACE('',(#1263,#1264),#1347,.F.);
#1419=ADVANCED_FACE('',(#1265,#1266,#1267),#1348,.T.);
#1420=ADVANCED_FACE('',(#1268),#1349,.F.);
#1421=ADVANCED_FACE('',(#1269),#1350,.T.);
#1422=ADVANCED_FACE('',(#1270),#1351,.T.);
#1423=ADVANCED_FACE('',(#1271),#1352,.T.);
#1424=ADVANCED_FACE('',(#1272),#1353,.F.);
#1425=ADVANCED_FACE('',(#1273),#1354,.T.);
#1426=ADVANCED_FACE('',(#1274),#1355,.T.);
#1427=ADVANCED_FACE('',(#1275),#1356,.F.);
#1428=ADVANCED_FACE('',(#1276,#1277),#1357,.T.);
#1429=ADVANCED_FACE('',(#1278),#42,.F.);
#1430=ADVANCED_FACE('',(#1279),#43,.F.);
#1431=ADVANCED_FACE('',(#1280,#1281),#1358,.T.);
#1432=ADVANCED_FACE('',(#1282),#1359,.F.);
#1433=ADVANCED_FACE('',(#1283),#1360,.T.);
#1434=ADVANCED_FACE('',(#1284),#1361,.F.);
#1435=ADVANCED_FACE('',(#1285),#1362,.T.);
#1436=ADVANCED_FACE('',(#1286),#1363,.F.);
#1437=ADVANCED_FACE('',(#1287),#1364,.T.);
#1438=ADVANCED_FACE('',(#1288),#1365,.T.);
#1439=ADVANCED_FACE('',(#1289),#1366,.T.);
#1440=ADVANCED_FACE('',(#1290),#1367,.T.);
#1441=ADVANCED_FACE('',(#1291,#1292),#1368,.F.);
#1442=ADVANCED_FACE('',(#1293,#1294),#1369,.F.);
#1443=ADVANCED_FACE('',(#1295,#1296),#1370,.F.);
#1444=ADVANCED_FACE('',(#1297,#1298),#1371,.F.);
#1445=ADVANCED_FACE('',(#1299,#1300),#44,.F.);
#1446=ADVANCED_FACE('',(#1301),#1372,.T.);
#1447=ADVANCED_FACE('',(#1302,#1303),#45,.F.);
#1448=ADVANCED_FACE('',(#1304),#1373,.T.);
#1449=ADVANCED_FACE('',(#1305,#1306),#46,.F.);
#1450=ADVANCED_FACE('',(#1307),#1374,.T.);
#1451=ADVANCED_FACE('',(#1308,#1309),#47,.F.);
#1452=ADVANCED_FACE('',(#1310),#1375,.T.);
#1453=ADVANCED_FACE('',(#1311),#1376,.F.);
#1454=ADVANCED_FACE('',(#1312),#1377,.F.);
#1455=CLOSED_SHELL('',(#1378,#1379,#1380,#1381,#1382,#1383,#1384,#1385,#1386,#1387,#1388,#1389,#1390,#1391,#1392,#1393,#1394,#1395,#1396,#1397,#1398,#1399,#1400,#1401,#1402,#1403,#1404,#1405,#1406,#1407,#1408,#1409,#1410,#1411,#1412,#1413,#1414,#1415,#1416,#1417,#1418,#1419,#1420,#1421,#1422,#1423,#1424,#1425,#1426,#1427,#1428,#1429,#1430,#1431,#1432,#1433,#1434,#1435,#1436,#1437,#1438,#1439,#1440,#1441,#1442,#1443,#1444,#1445,#1446,#1447,#1448,#1449,#1450,#1451,#1452,#1453,#1454));
#1456=STYLED_ITEM('',(#1457),#1464);
#1457=PRESENTATION_STYLE_ASSIGNMENT((#1458));
#1458=SURFACE_STYLE_USAGE(.BOTH.,#1459);
#1459=SURFACE_SIDE_STYLE('',(#1460));
#1460=SURFACE_STYLE_FILL_AREA(#1461);
#1461=FILL_AREA_STYLE('',(#1462));
#1462=FILL_AREA_STYLE_COLOUR('',#1463);
#1463=COLOUR_RGB('',0.764705882352941,0.545098039215686,0.803921568627451);
#1464=MANIFOLD_SOLID_BREP('Part 2',#1455);
#1465=SHAPE_DEFINITION_REPRESENTATION(#2361,#1466);
#1466=SHAPE_REPRESENTATION('Part 2',(#1467),#2356);
#1467=AXIS2_PLACEMENT_3D('',#1946,#1569,#1570);
#1468=AXIS2_PLACEMENT_3D('',#1947,#1571,#1572);
#1469=AXIS2_PLACEMENT_3D('',#1956,#1577,#1578);
#1470=AXIS2_PLACEMENT_3D('',#1973,#1587,#1588);
#1471=AXIS2_PLACEMENT_3D('',#1979,#1592,#1593);
#1472=AXIS2_PLACEMENT_3D('',#1980,#1594,#1595);
#1473=AXIS2_PLACEMENT_3D('',#1982,#1596,#1597);
#1474=AXIS2_PLACEMENT_3D('',#1984,#1598,#1599);
#1475=AXIS2_PLACEMENT_3D('',#1993,#1604,#1605);
#1476=AXIS2_PLACEMENT_3D('',#1994,#1606,#1607);
#1477=AXIS2_PLACEMENT_3D('',#1996,#1608,#1609);
#1478=AXIS2_PLACEMENT_3D('',#1998,#1610,#1611);
#1479=AXIS2_PLACEMENT_3D('',#2004,#1614,#1615);
#1480=AXIS2_PLACEMENT_3D('',#2005,#1616,#1617);
#1481=AXIS2_PLACEMENT_3D('',#2011,#1621,#1622);
#1482=AXIS2_PLACEMENT_3D('',#2045,#1640,#1641);
#1483=AXIS2_PLACEMENT_3D('',#2048,#1643,#1644);
#1484=AXIS2_PLACEMENT_3D('',#2049,#1645,#1646);
#1485=AXIS2_PLACEMENT_3D('',#2050,#1647,#1648);
#1486=AXIS2_PLACEMENT_3D('',#2055,#1650,#1651);
#1487=AXIS2_PLACEMENT_3D('',#2058,#1653,#1654);
#1488=AXIS2_PLACEMENT_3D('',#2059,#1655,#1656);
#1489=AXIS2_PLACEMENT_3D('',#2063,#1658,#1659);
#1490=AXIS2_PLACEMENT_3D('',#2064,#1660,#1661);
#1491=AXIS2_PLACEMENT_3D('',#2067,#1664,#1665);
#1492=AXIS2_PLACEMENT_3D('',#2073,#1669,#1670);
#1493=AXIS2_PLACEMENT_3D('',#2079,#1674,#1675);
#1494=AXIS2_PLACEMENT_3D('',#2080,#1676,#1677);
#1495=AXIS2_PLACEMENT_3D('',#2082,#1678,#1679);
#1496=AXIS2_PLACEMENT_3D('',#2084,#1680,#1681);
#1497=AXIS2_PLACEMENT_3D('',#2111,#1696,#1697);
#1498=AXIS2_PLACEMENT_3D('',#2124,#1704,#1705);
#1499=AXIS2_PLACEMENT_3D('',#2137,#1712,#1713);
#1500=AXIS2_PLACEMENT_3D('',#2143,#1717,#1718);
#1501=AXIS2_PLACEMENT_3D('',#2144,#1719,#1720);
#1502=AXIS2_PLACEMENT_3D('',#2154,#1726,#1727);
#1503=AXIS2_PLACEMENT_3D('',#2155,#1728,#1729);
#1504=AXIS2_PLACEMENT_3D('',#2165,#1735,#1736);
#1505=AXIS2_PLACEMENT_3D('',#2168,#1739,#1740);
#1506=AXIS2_PLACEMENT_3D('',#2174,#1744,#1745);
#1507=AXIS2_PLACEMENT_3D('',#2175,#1746,#1747);
#1508=AXIS2_PLACEMENT_3D('',#2177,#1748,#1749);
#1509=AXIS2_PLACEMENT_3D('',#2179,#1750,#1751);
#1510=AXIS2_PLACEMENT_3D('',#2180,#1752,#1753);
#1511=AXIS2_PLACEMENT_3D('',#2193,#1760,#1761);
#1512=AXIS2_PLACEMENT_3D('',#2199,#1765,#1766);
#1513=AXIS2_PLACEMENT_3D('',#2203,#1769,#1770);
#1514=AXIS2_PLACEMENT_3D('',#2207,#1773,#1774);
#1515=AXIS2_PLACEMENT_3D('',#2240,#1794,#1795);
#1516=AXIS2_PLACEMENT_3D('',#2246,#1800,#1801);
#1517=AXIS2_PLACEMENT_3D('',#2248,#1803,#1804);
#1518=AXIS2_PLACEMENT_3D('',#2253,#1808,#1809);
#1519=AXIS2_PLACEMENT_3D('',#2256,#1812,#1813);
#1520=AXIS2_PLACEMENT_3D('',#2258,#1815,#1816);
#1521=AXIS2_PLACEMENT_3D('',#2261,#1819,#1820);
#1522=AXIS2_PLACEMENT_3D('',#2263,#1822,#1823);
#1523=AXIS2_PLACEMENT_3D('',#2271,#1828,#1829);
#1524=AXIS2_PLACEMENT_3D('',#2277,#1833,#1834);
#1525=AXIS2_PLACEMENT_3D('',#2281,#1837,#1838);
#1526=AXIS2_PLACEMENT_3D('',#2282,#1839,#1840);
#1527=AXIS2_PLACEMENT_3D('',#2287,#1844,#1845);
#1528=AXIS2_PLACEMENT_3D('',#2292,#1850,#1851);
#1529=AXIS2_PLACEMENT_3D('',#2299,#1856,#1857);
#1530=AXIS2_PLACEMENT_3D('',#2300,#1858,#1859);
#1531=AXIS2_PLACEMENT_3D('',#2302,#1861,#1862);
#1532=AXIS2_PLACEMENT_3D('',#2303,#1863,#1864);
#1533=AXIS2_PLACEMENT_3D('',#2304,#1865,#1866);
#1534=AXIS2_PLACEMENT_3D('',#2305,#1867,#1868);
#1535=AXIS2_PLACEMENT_3D('',#2306,#1869,#1870);
#1536=AXIS2_PLACEMENT_3D('',#2307,#1871,#1872);
#1537=AXIS2_PLACEMENT_3D('',#2310,#1874,#1875);
#1538=AXIS2_PLACEMENT_3D('',#2311,#1876,#1877);
#1539=AXIS2_PLACEMENT_3D('',#2313,#1879,#1880);
#1540=AXIS2_PLACEMENT_3D('',#2314,#1881,#1882);
#1541=AXIS2_PLACEMENT_3D('',#2317,#1884,#1885);
#1542=AXIS2_PLACEMENT_3D('',#2319,#1887,#1888);
#1543=AXIS2_PLACEMENT_3D('',#2320,#1889,#1890);
#1544=AXIS2_PLACEMENT_3D('',#2321,#1891,#1892);
#1545=AXIS2_PLACEMENT_3D('',#2323,#1894,#1895);
#1546=AXIS2_PLACEMENT_3D('',#2324,#1896,#1897);
#1547=AXIS2_PLACEMENT_3D('',#2325,#1898,#1899);
#1548=AXIS2_PLACEMENT_3D('',#2327,#1901,#1902);
#1549=AXIS2_PLACEMENT_3D('',#2329,#1904,#1905);
#1550=AXIS2_PLACEMENT_3D('',#2331,#1907,#1908);
#1551=AXIS2_PLACEMENT_3D('',#2333,#1910,#1911);
#1552=AXIS2_PLACEMENT_3D('',#2334,#1912,#1913);
#1553=AXIS2_PLACEMENT_3D('',#2335,#1914,#1915);
#1554=AXIS2_PLACEMENT_3D('',#2336,#1916,#1917);
#1555=AXIS2_PLACEMENT_3D('',#2337,#1918,#1919);
#1556=AXIS2_PLACEMENT_3D('',#2338,#1920,#1921);
#1557=AXIS2_PLACEMENT_3D('',#2340,#1922,#1923);
#1558=AXIS2_PLACEMENT_3D('',#2341,#1924,#1925);
#1559=AXIS2_PLACEMENT_3D('',#2342,#1926,#1927);
#1560=AXIS2_PLACEMENT_3D('',#2344,#1928,#1929);
#1561=AXIS2_PLACEMENT_3D('',#2345,#1930,#1931);
#1562=AXIS2_PLACEMENT_3D('',#2346,#1932,#1933);
#1563=AXIS2_PLACEMENT_3D('',#2348,#1934,#1935);
#1564=AXIS2_PLACEMENT_3D('',#2349,#1936,#1937);
#1565=AXIS2_PLACEMENT_3D('',#2350,#1938,#1939);
#1566=AXIS2_PLACEMENT_3D('',#2352,#1940,#1941);
#1567=AXIS2_PLACEMENT_3D('',#2353,#1942,#1943);
#1568=AXIS2_PLACEMENT_3D('',#2354,#1944,#1945);
#1569=DIRECTION('',(0.,0.,1.));
#1570=DIRECTION('',(1.,0.,0.));
#1571=DIRECTION('',(1.,0.,0.));
#1572=DIRECTION('',(0.,0.,-1.));
#1573=DIRECTION('',(0.,0.,1.));
#1574=DIRECTION('',(0.,-1.,0.));
#1575=DIRECTION('',(0.,0.,-1.));
#1576=DIRECTION('',(0.,1.,0.));
#1577=DIRECTION('',(1.,0.,0.));
#1578=DIRECTION('',(0.,0.,-1.));
#1579=DIRECTION('',(0.,1.,0.));
#1580=DIRECTION('',(0.,0.,1.));
#1581=DIRECTION('',(0.,-1.,0.));
#1582=DIRECTION('',(0.,0.,1.));
#1583=DIRECTION('',(0.,-1.,0.));
#1584=DIRECTION('',(0.,0.,-1.));
#1585=DIRECTION('',(0.,1.,0.));
#1586=DIRECTION('',(0.,0.,1.));
#1587=DIRECTION('',(-0.707106781186546,-0.70710678118655,0.));
#1588=DIRECTION('',(0.,0.,-1.));
#1589=DIRECTION('',(0.,0.,-1.));
#1590=DIRECTION('',(-0.70710678118655,0.707106781186546,0.));
#1591=DIRECTION('',(0.577350269189627,-0.577350269189624,0.577350269189627));
#1592=DIRECTION('',(0.,0.,1.));
#1593=DIRECTION('',(1.,0.,0.));
#1594=DIRECTION('',(-0.707106781186547,0.,0.707106781186548));
#1595=DIRECTION('',(0.707106781186548,0.,0.707106781186548));
#1596=DIRECTION('',(0.,0.,1.));
#1597=DIRECTION('',(1.,0.,0.));
#1598=DIRECTION('',(0.707106781186548,0.707106781186548,0.));
#1599=DIRECTION('',(0.,0.,-1.));
#1600=DIRECTION('',(0.,0.,-1.));
#1601=DIRECTION('',(0.707106781186548,-0.707106781186548,0.));
#1602=DIRECTION('',(0.,0.,1.));
#1603=DIRECTION('',(-0.577350269189626,0.577350269189626,0.577350269189626));
#1604=DIRECTION('',(0.,0.,1.));
#1605=DIRECTION('',(1.,0.,0.));
#1606=DIRECTION('',(0.707106781186547,0.,0.707106781186548));
#1607=DIRECTION('',(-0.707106781186548,0.,0.707106781186548));
#1608=DIRECTION('',(0.,0.,1.));
#1609=DIRECTION('',(1.,0.,0.));
#1610=DIRECTION('',(0.,0.,1.));
#1611=DIRECTION('',(1.,0.,0.));
#1612=DIRECTION('',(-0.47128698087265,-0.881979921347387,0.));
#1613=DIRECTION('',(1.,0.,0.));
#1614=DIRECTION('',(0.,0.,1.));
#1615=DIRECTION('',(1.,0.,0.));
#1616=DIRECTION('',(1.,0.,0.));
#1617=DIRECTION('',(0.,0.,-1.));
#1618=DIRECTION('',(0.,1.,0.));
#1619=DIRECTION('',(0.,0.,-1.));
#1620=DIRECTION('',(0.,-1.,0.));
#1621=DIRECTION('',(0.,1.,0.));
#1622=DIRECTION('',(0.,0.,1.));
#1623=DIRECTION('',(1.,0.,0.));
#1624=DIRECTION('',(0.707106781186548,0.,-0.707106781186548));
#1625=DIRECTION('',(0.,-3.04337451925756E-16,-1.));
#1626=DIRECTION('',(1.,0.,0.));
#1627=DIRECTION('',(0.,0.,1.));
#1628=DIRECTION('',(1.,0.,0.));
#1629=DIRECTION('',(0.,0.,1.));
#1630=DIRECTION('',(1.,0.,0.));
#1631=DIRECTION('',(0.,0.,-1.));
#1632=DIRECTION('',(1.,0.,0.));
#1633=DIRECTION('',(0.,-1.52168725962878E-16,1.));
#1634=DIRECTION('',(0.707106781186548,0.,0.707106781186548));
#1635=DIRECTION('',(0.,0.,1.));
#1636=DIRECTION('',(1.,0.,0.));
#1637=DIRECTION('',(0.,0.,1.));
#1638=DIRECTION('',(1.,0.,0.));
#1639=DIRECTION('',(0.,0.,1.));
#1640=DIRECTION('',(0.,0.,1.));
#1641=DIRECTION('',(1.,0.,0.));
#1642=DIRECTION('',(0.471286980872649,0.881979921347387,0.));
#1643=DIRECTION('',(0.,0.,1.));
#1644=DIRECTION('',(1.,0.,0.));
#1645=DIRECTION('',(0.,0.,1.));
#1646=DIRECTION('',(1.,0.,0.));
#1647=DIRECTION('',(0.,0.,1.));
#1648=DIRECTION('',(1.,0.,0.));
#1649=DIRECTION('',(0.,0.,1.));
#1650=DIRECTION('',(0.,0.,1.));
#1651=DIRECTION('',(1.,0.,0.));
#1652=DIRECTION('',(0.,0.,1.));
#1653=DIRECTION('',(0.,0.,1.));
#1654=DIRECTION('',(1.,0.,0.));
#1655=DIRECTION('',(0.,0.,1.));
#1656=DIRECTION('',(1.,0.,0.));
#1657=DIRECTION('',(0.,0.,1.));
#1658=DIRECTION('',(0.,0.,1.));
#1659=DIRECTION('',(1.,0.,0.));
#1660=DIRECTION('',(0.707106781186548,-0.707106781186548,0.));
#1661=DIRECTION('',(0.,0.,1.));
#1662=DIRECTION('',(0.577350269189626,0.577350269189626,0.577350269189626));
#1663=DIRECTION('',(0.707106781186548,0.707106781186548,0.));
#1664=DIRECTION('',(-0.707106781186547,-0.707106781186548,0.));
#1665=DIRECTION('',(0.,0.,-1.));
#1666=DIRECTION('',(0.577350269189626,-0.577350269189626,0.577350269189626));
#1667=DIRECTION('',(0.,0.,-1.));
#1668=DIRECTION('',(-0.577350269189626,0.577350269189626,-0.577350269189626));
#1669=DIRECTION('',(0.707106781186547,-0.707106781186548,0.));
#1670=DIRECTION('',(0.,0.,1.));
#1671=DIRECTION('',(-0.577350269189626,-0.577350269189625,-0.577350269189626));
#1672=DIRECTION('',(0.,0.,-1.));
#1673=DIRECTION('',(0.577350269189626,0.577350269189625,0.577350269189626));
#1674=DIRECTION('',(0.,0.,1.));
#1675=DIRECTION('',(1.,0.,0.));
#1676=DIRECTION('',(0.,0.,1.));
#1677=DIRECTION('',(1.,0.,0.));
#1678=DIRECTION('',(-0.707106781186547,0.,0.707106781186548));
#1679=DIRECTION('',(0.707106781186548,0.,0.707106781186548));
#1680=DIRECTION('',(0.,1.,0.));
#1681=DIRECTION('',(0.,0.,1.));
#1682=DIRECTION('',(1.,0.,0.));
#1683=DIRECTION('',(-0.707106781186548,0.,-0.707106781186548));
#1684=DIRECTION('',(0.,-1.52168725962878E-16,1.));
#1685=DIRECTION('',(1.,2.77555756156289E-16,0.));
#1686=DIRECTION('',(0.,0.,1.));
#1687=DIRECTION('',(1.,0.,0.));
#1688=DIRECTION('',(0.,0.,-1.));
#1689=DIRECTION('',(1.,1.38777878078145E-16,0.));
#1690=DIRECTION('',(0.,0.,-1.));
#1691=DIRECTION('',(-0.707106781186548,0.,0.707106781186548));
#1692=DIRECTION('',(0.,0.,1.));
#1693=DIRECTION('',(1.,0.,0.));
#1694=DIRECTION('',(0.,0.,1.));
#1695=DIRECTION('',(0.,0.,1.));
#1696=DIRECTION('',(0.,-1.,0.));
#1697=DIRECTION('',(0.,0.,-1.));
#1698=DIRECTION('',(0.,-3.04337451925756E-16,-1.));
#1699=DIRECTION('',(-0.707106781186548,0.,0.707106781186548));
#1700=DIRECTION('',(0.,0.,1.));
#1701=DIRECTION('',(-1.,0.,0.));
#1702=DIRECTION('',(0.,0.,-1.));
#1703=DIRECTION('',(-1.,0.,0.));
#1704=DIRECTION('',(0.,-1.,0.));
#1705=DIRECTION('',(0.,0.,-1.));
#1706=DIRECTION('',(-1.,0.,0.));
#1707=DIRECTION('',(0.,0.,1.));
#1708=DIRECTION('',(0.707106781186548,0.,-0.707106781186548));
#1709=DIRECTION('',(0.,-5.70632722360792E-17,-1.));
#1710=DIRECTION('',(-1.,0.,0.));
#1711=DIRECTION('',(0.,0.,-1.));
#1712=DIRECTION('',(-0.707106781186548,0.707106781186548,0.));
#1713=DIRECTION('',(0.,0.,1.));
#1714=DIRECTION('',(-0.577350269189626,-0.577350269189626,0.577350269189626));
#1715=DIRECTION('',(0.,0.,-1.));
#1716=DIRECTION('',(0.707106781186548,0.707106781186548,0.));
#1717=DIRECTION('',(0.,0.,1.));
#1718=DIRECTION('',(1.,0.,0.));
#1719=DIRECTION('',(0.,0.,-1.));
#1720=DIRECTION('',(-1.,0.,0.));
#1721=DIRECTION('',(0.,-1.,0.));
#1722=DIRECTION('',(0.,1.,0.));
#1723=DIRECTION('',(1.,0.,0.));
#1724=DIRECTION('',(0.,-1.,0.));
#1725=DIRECTION('',(-0.70710678118655,-0.707106781186545,0.));
#1726=DIRECTION('',(0.,0.,1.));
#1727=DIRECTION('',(1.,0.,0.));
#1728=DIRECTION('',(0.,0.,-1.));
#1729=DIRECTION('',(-1.,0.,0.));
#1730=DIRECTION('',(0.,-1.,0.));
#1731=DIRECTION('',(0.707106781186549,-0.707106781186546,0.));
#1732=DIRECTION('',(-1.7701259958947E-16,1.,0.));
#1733=DIRECTION('',(1.,0.,0.));
#1734=DIRECTION('',(0.,1.,0.));
#1735=DIRECTION('',(0.707106781186547,-0.707106781186548,0.));
#1736=DIRECTION('',(0.,0.,-1.));
#1737=DIRECTION('',(0.577350269189626,0.577350269189626,-0.577350269189626));
#1738=DIRECTION('',(0.577350269189626,0.577350269189626,-0.577350269189626));
#1739=DIRECTION('',(-0.707106781186547,-0.707106781186548,0.));
#1740=DIRECTION('',(0.,0.,1.));
#1741=DIRECTION('',(0.,0.,1.));
#1742=DIRECTION('',(0.577350269189626,-0.577350269189626,-0.577350269189626));
#1743=DIRECTION('',(0.577350269189626,-0.577350269189626,-0.577350269189626));
#1744=DIRECTION('',(0.,0.,1.));
#1745=DIRECTION('',(1.,0.,0.));
#1746=DIRECTION('',(0.,0.,1.));
#1747=DIRECTION('',(1.,0.,0.));
#1748=DIRECTION('',(0.707106781186547,0.,0.707106781186548));
#1749=DIRECTION('',(-0.707106781186548,0.,0.707106781186548));
#1750=DIRECTION('',(0.,0.,1.));
#1751=DIRECTION('',(1.,0.,0.));
#1752=DIRECTION('',(0.,0.,-1.));
#1753=DIRECTION('',(-1.,0.,0.));
#1754=DIRECTION('',(1.,8.34001671142696E-17,0.));
#1755=DIRECTION('',(0.,-1.,0.));
#1756=DIRECTION('',(-0.70710678118655,0.707106781186545,0.));
#1757=DIRECTION('',(-1.7701259958947E-16,1.,0.));
#1758=DIRECTION('',(1.,0.,0.));
#1759=DIRECTION('',(0.,1.,0.));
#1760=DIRECTION('',(1.,0.,0.));
#1761=DIRECTION('',(0.,0.,-1.));
#1762=DIRECTION('',(0.,-1.,0.));
#1763=DIRECTION('',(0.,0.,-1.));
#1764=DIRECTION('',(0.,0.,-1.));
#1765=DIRECTION('',(0.,1.,0.));
#1766=DIRECTION('',(0.,0.,1.));
#1767=DIRECTION('',(0.,0.,-1.));
#1768=DIRECTION('',(1.,0.,0.));
#1769=DIRECTION('',(0.,0.,1.));
#1770=DIRECTION('',(1.,0.,0.));
#1771=DIRECTION('',(-0.47128698087265,-0.881979921347387,0.));
#1772=DIRECTION('',(0.,-1.,0.));
#1773=DIRECTION('',(0.,0.,1.));
#1774=DIRECTION('',(1.,0.,0.));
#1775=DIRECTION('',(1.,8.34001671142696E-17,0.));
#1776=DIRECTION('',(0.,-1.,0.));
#1777=DIRECTION('',(1.,8.34001671142696E-17,0.));
#1778=DIRECTION('',(0.,1.,0.));
#1779=DIRECTION('',(1.,0.,0.));
#1780=DIRECTION('',(-1.7701259958947E-16,1.,0.));
#1781=DIRECTION('',(0.70710678118655,-0.707106781186545,0.));
#1782=DIRECTION('',(0.707106781186551,0.707106781186545,0.));
#1783=DIRECTION('',(1.,0.,0.));
#1784=DIRECTION('',(0.,1.,0.));
#1785=DIRECTION('',(0.,1.,0.));
#1786=DIRECTION('',(0.,1.,0.));
#1787=DIRECTION('',(1.,0.,0.));
#1788=DIRECTION('',(-1.7701259958947E-16,1.,0.));
#1789=DIRECTION('',(-0.707106781186549,0.707106781186546,0.));
#1790=DIRECTION('',(0.707106781186549,0.707106781186546,0.));
#1791=DIRECTION('',(-1.7701259958947E-16,1.,0.));
#1792=DIRECTION('',(1.,0.,0.));
#1793=DIRECTION('',(0.,1.,0.));
#1794=DIRECTION('',(1.,0.,0.));
#1795=DIRECTION('',(0.,0.,-1.));
#1796=DIRECTION('',(0.,-1.,0.));
#1797=DIRECTION('',(0.,0.,1.));
#1798=DIRECTION('',(0.,-1.,0.));
#1799=DIRECTION('',(0.,-1.,0.));
#1800=DIRECTION('',(0.,0.,1.));
#1801=DIRECTION('',(1.,0.,0.));
#1802=DIRECTION('',(0.471286980872649,0.881979921347387,0.));
#1803=DIRECTION('',(-8.34001671142696E-17,1.,0.));
#1804=DIRECTION('',(-1.,-8.34001671142696E-17,0.));
#1805=DIRECTION('',(0.,-1.90210907453597E-16,1.));
#1806=DIRECTION('',(0.,0.,-1.));
#1807=DIRECTION('',(-0.707106781186548,-5.89728237185913E-17,-0.707106781186548));
#1808=DIRECTION('',(0.,1.,0.));
#1809=DIRECTION('',(0.,0.,1.));
#1810=DIRECTION('',(0.,0.,-1.));
#1811=DIRECTION('',(0.,0.,-1.));
#1812=DIRECTION('',(-1.,-1.7701259958947E-16,0.));
#1813=DIRECTION('',(1.7701259958947E-16,-1.,0.));
#1814=DIRECTION('',(0.,0.,1.));
#1815=DIRECTION('',(0.,1.,0.));
#1816=DIRECTION('',(0.,0.,1.));
#1817=DIRECTION('',(0.,0.,-1.));
#1818=DIRECTION('',(0.,0.,-1.));
#1819=DIRECTION('',(-1.,-1.7701259958947E-16,0.));
#1820=DIRECTION('',(1.7701259958947E-16,-1.,0.));
#1821=DIRECTION('',(0.,0.,1.));
#1822=DIRECTION('',(-8.34001671142696E-17,1.,0.));
#1823=DIRECTION('',(-1.,-8.34001671142696E-17,0.));
#1824=DIRECTION('',(1.,8.34001671142696E-17,0.));
#1825=DIRECTION('',(0.,-1.90210907453597E-16,1.));
#1826=DIRECTION('',(0.707106781186548,5.89728237185913E-17,0.707106781186548));
#1827=DIRECTION('',(0.,0.,-1.));
#1828=DIRECTION('',(-1.,-1.7701259958947E-16,0.));
#1829=DIRECTION('',(1.7701259958947E-16,-1.,0.));
#1830=DIRECTION('',(0.,0.,-1.));
#1831=DIRECTION('',(-1.7701259958947E-16,1.,0.));
#1832=DIRECTION('',(0.,0.,-1.));
#1833=DIRECTION('',(0.,1.,0.));
#1834=DIRECTION('',(0.,0.,1.));
#1835=DIRECTION('',(1.,0.,0.));
#1836=DIRECTION('',(0.,0.,-1.));
#1837=DIRECTION('',(0.,0.,1.));
#1838=DIRECTION('',(1.,0.,0.));
#1839=DIRECTION('',(0.,0.,-1.));
#1840=DIRECTION('',(-1.,0.,0.));
#1841=DIRECTION('',(0.,-1.,0.));
#1842=DIRECTION('',(0.,1.,0.));
#1843=DIRECTION('',(-0.707106781186549,-0.707106781186546,0.));
#1844=DIRECTION('',(0.,0.,1.));
#1845=DIRECTION('',(1.,0.,0.));
#1846=DIRECTION('',(0.47128698087265,0.881979921347387,0.));
#1847=DIRECTION('',(0.,1.,0.));
#1848=DIRECTION('',(-0.471286980872649,-0.881979921347387,0.));
#1849=DIRECTION('',(0.,-1.,0.));
#1850=DIRECTION('',(0.,0.,-1.));
#1851=DIRECTION('',(1.,0.,0.));
#1852=DIRECTION('',(0.70710678118655,0.707106781186545,0.));
#1853=DIRECTION('',(0.,1.,0.));
#1854=DIRECTION('',(1.,0.,0.));
#1855=DIRECTION('',(-0.707106781186551,-0.707106781186545,0.));
#1856=DIRECTION('',(0.707106781186545,-0.707106781186551,0.));
#1857=DIRECTION('',(0.,0.,1.));
#1858=DIRECTION('',(0.707106781186545,-0.707106781186551,0.));
#1859=DIRECTION('',(0.,0.,1.));
#1860=DIRECTION('',(0.,0.,-1.));
#1861=DIRECTION('',(-0.707106781186545,-0.70710678118655,0.));
#1862=DIRECTION('',(0.,0.,1.));
#1863=DIRECTION('',(0.707106781186546,-0.707106781186549,0.));
#1864=DIRECTION('',(0.,0.,-1.));
#1865=DIRECTION('',(0.707106781186546,0.707106781186549,0.));
#1866=DIRECTION('',(0.,0.,1.));
#1867=DIRECTION('',(0.707106781186548,0.,-0.707106781186548));
#1868=DIRECTION('',(0.,1.,0.));
#1869=DIRECTION('',(0.707106781186548,0.,0.707106781186548));
#1870=DIRECTION('',(0.,-1.,0.));
#1871=DIRECTION('',(0.,0.,1.));
#1872=DIRECTION('',(1.,0.,0.));
#1873=DIRECTION('',(-0.47128698087265,-0.881979921347387,0.));
#1874=DIRECTION('',(0.,0.,1.));
#1875=DIRECTION('',(1.,0.,0.));
#1876=DIRECTION('',(0.,0.,1.));
#1877=DIRECTION('',(1.,0.,0.));
#1878=DIRECTION('',(0.,0.,1.));
#1879=DIRECTION('',(0.,0.,1.));
#1880=DIRECTION('',(1.,0.,0.));
#1881=DIRECTION('',(0.,0.,1.));
#1882=DIRECTION('',(1.,0.,0.));
#1883=DIRECTION('',(0.,0.,1.));
#1884=DIRECTION('',(0.,0.,1.));
#1885=DIRECTION('',(1.,0.,0.));
#1886=DIRECTION('',(0.471286980872649,0.881979921347387,0.));
#1887=DIRECTION('',(1.,0.,0.));
#1888=DIRECTION('',(0.,0.,-1.));
#1889=DIRECTION('',(1.,0.,0.));
#1890=DIRECTION('',(0.,0.,-1.));
#1891=DIRECTION('',(0.,-1.,0.));
#1892=DIRECTION('',(0.,0.,-1.));
#1893=DIRECTION('',(0.,0.,-1.));
#1894=DIRECTION('',(1.,0.,0.));
#1895=DIRECTION('',(0.,0.,-1.));
#1896=DIRECTION('',(1.,0.,0.));
#1897=DIRECTION('',(0.,0.,-1.));
#1898=DIRECTION('',(-1.,0.,0.));
#1899=DIRECTION('',(0.,-1.,0.));
#1900=DIRECTION('',(0.,1.,0.));
#1901=DIRECTION('',(-1.,0.,0.));
#1902=DIRECTION('',(0.,-1.,0.));
#1903=DIRECTION('',(0.,1.,0.));
#1904=DIRECTION('',(1.,0.,0.));
#1905=DIRECTION('',(0.,1.,0.));
#1906=DIRECTION('',(0.,-1.,0.));
#1907=DIRECTION('',(1.,0.,0.));
#1908=DIRECTION('',(0.,1.,0.));
#1909=DIRECTION('',(0.,-1.,0.));
#1910=DIRECTION('',(-0.707106781186547,0.,0.707106781186548));
#1911=DIRECTION('',(0.,1.,0.));
#1912=DIRECTION('',(-0.707106781186547,0.,0.707106781186548));
#1913=DIRECTION('',(0.,1.,0.));
#1914=DIRECTION('',(0.707106781186547,0.,0.707106781186548));
#1915=DIRECTION('',(0.,-1.,0.));
#1916=DIRECTION('',(0.707106781186547,0.,0.707106781186548));
#1917=DIRECTION('',(0.,-1.,0.));
#1918=DIRECTION('',(0.,0.,-1.));
#1919=DIRECTION('',(-1.,0.,0.));
#1920=DIRECTION('',(0.,0.,-1.));
#1921=DIRECTION('',(-1.,0.,0.));
#1922=DIRECTION('',(0.,0.,-1.));
#1923=DIRECTION('',(1.,0.,0.));
#1924=DIRECTION('',(0.,0.,-1.));
#1925=DIRECTION('',(-1.,0.,0.));
#1926=DIRECTION('',(0.,0.,-1.));
#1927=DIRECTION('',(-1.,0.,0.));
#1928=DIRECTION('',(0.,0.,-1.));
#1929=DIRECTION('',(1.,0.,0.));
#1930=DIRECTION('',(0.,0.,-1.));
#1931=DIRECTION('',(-1.,0.,0.));
#1932=DIRECTION('',(0.,0.,-1.));
#1933=DIRECTION('',(-1.,0.,0.));
#1934=DIRECTION('',(0.,0.,-1.));
#1935=DIRECTION('',(1.,0.,0.));
#1936=DIRECTION('',(0.,0.,-1.));
#1937=DIRECTION('',(-1.,0.,0.));
#1938=DIRECTION('',(0.,0.,-1.));
#1939=DIRECTION('',(-1.,0.,0.));
#1940=DIRECTION('',(0.,0.,-1.));
#1941=DIRECTION('',(1.,0.,0.));
#1942=DIRECTION('',(0.881979921347387,-0.471286980872649,0.));
#1943=DIRECTION('',(0.471286980872649,0.881979921347387,0.));
#1944=DIRECTION('',(-0.881979921347387,0.47128698087265,0.));
#1945=DIRECTION('',(-0.47128698087265,-0.881979921347387,0.));
#1946=CARTESIAN_POINT('',(0.,0.,0.));
#1947=CARTESIAN_POINT('',(0.0155,1.7347234759768E-18,0.0278));
#1948=CARTESIAN_POINT('',(0.0155,0.008,0.0278));
#1949=CARTESIAN_POINT('',(0.0155,0.008,0.0228));
#1950=CARTESIAN_POINT('',(0.0155,0.008,0.0238));
#1951=CARTESIAN_POINT('',(0.0155,0.00599201264664347,0.0238));
#1952=CARTESIAN_POINT('',(0.0155,0.004,0.0238));
#1953=CARTESIAN_POINT('',(0.0155,0.004,0.));
#1954=CARTESIAN_POINT('',(0.0155,0.004,0.0228));
#1955=CARTESIAN_POINT('',(0.0155,0.00625,0.0228));
#1956=CARTESIAN_POINT('',(0.0155,1.7347234759768E-18,0.0278));
#1957=CARTESIAN_POINT('',(0.0155,0.004,0.0238));
#1958=CARTESIAN_POINT('',(0.0155,-0.004,0.0238));
#1959=CARTESIAN_POINT('',(0.0155,0.00248402529328694,0.0238));
#1960=CARTESIAN_POINT('',(0.0155,0.00248402529328694,0.023798));
#1961=CARTESIAN_POINT('',(0.0155,0.00248402529328694,0.0278));
#1962=CARTESIAN_POINT('',(0.0155,1.7347234759768E-18,0.0278));
#1963=CARTESIAN_POINT('',(0.0155,-0.00565742784179024,0.0278));
#1964=CARTESIAN_POINT('',(0.0155,-0.00565742784179024,0.0268));
#1965=CARTESIAN_POINT('',(0.0155,-0.00565742784179024,0.0268));
#1966=CARTESIAN_POINT('',(0.0155,1.7347234759768E-18,0.0268));
#1967=CARTESIAN_POINT('',(0.0155,-0.008,0.0268));
#1968=CARTESIAN_POINT('',(0.0155,-0.008,0.));
#1969=CARTESIAN_POINT('',(0.0155,-0.008,0.0228));
#1970=CARTESIAN_POINT('',(0.0155,-0.00625,0.0228));
#1971=CARTESIAN_POINT('',(0.0155,-0.004,0.0228));
#1972=CARTESIAN_POINT('',(0.0155,-0.004,0.0278));
#1973=CARTESIAN_POINT('',(0.014,0.0095,0.0278));
#1974=CARTESIAN_POINT('',(0.014,0.0095,0.0278));
#1975=CARTESIAN_POINT('',(0.014,0.0095,0.0238));
#1976=CARTESIAN_POINT('',(0.014,0.0095,0.0213));
#1977=CARTESIAN_POINT('',(0.014,0.0095,0.0238));
#1978=CARTESIAN_POINT('',(0.0181666666666667,0.00533333333333336,0.0254666666666667));
#1979=CARTESIAN_POINT('',(0.0131,0.007,0.0178));
#1980=CARTESIAN_POINT('',(0.0131,0.007,0.0204));
#1981=CARTESIAN_POINT('',(0.0142,0.007,0.0215));
#1982=CARTESIAN_POINT('',(0.0131,0.007,0.0238));
#1983=CARTESIAN_POINT('',(0.0142,0.007,0.0238));
#1984=CARTESIAN_POINT('',(-0.014,-0.0095,0.0278));
#1985=CARTESIAN_POINT('',(-0.014,-0.0095,0.0278));
#1986=CARTESIAN_POINT('',(-0.014,-0.0095,0.0238));
#1987=CARTESIAN_POINT('',(-0.014,-0.0095,0.0213));
#1988=CARTESIAN_POINT('',(-0.014,-0.0095,0.0238));
#1989=CARTESIAN_POINT('',(-0.0155,-0.008,0.0238));
#1990=CARTESIAN_POINT('',(-0.0155,-0.008,0.0278));
#1991=CARTESIAN_POINT('',(-0.0155,-0.008,0.0228));
#1992=CARTESIAN_POINT('',(-0.0181666666666667,-0.00533333333333333,0.0254666666666667));
#1993=CARTESIAN_POINT('',(-0.0131,-0.007,0.0178));
#1994=CARTESIAN_POINT('',(-0.0131,-0.007,0.0204));
#1995=CARTESIAN_POINT('',(-0.0142,-0.007,0.0215));
#1996=CARTESIAN_POINT('',(-0.0131,-0.007,0.0238));
#1997=CARTESIAN_POINT('',(-0.012,-0.007,0.0238));
#1998=CARTESIAN_POINT('',(0.,6.93889390390723E-18,0.0278));
#1999=CARTESIAN_POINT('',(-0.0132623745084212,0.0017035309838106,0.0278));
#2000=CARTESIAN_POINT('',(-0.00909632236236577,0.0095,0.0278));
#2001=CARTESIAN_POINT('',(-0.0103539061602236,0.00714652174972323,0.0278));
#2002=CARTESIAN_POINT('',(0.,0.0095,0.0278));
#2003=CARTESIAN_POINT('',(-0.011954356076261,0.0095,0.0278));
#2004=CARTESIAN_POINT('',(-0.0131,0.007,0.0278));
#2005=CARTESIAN_POINT('',(-0.0155,1.7347234759768E-18,0.0278));
#2006=CARTESIAN_POINT('',(-0.0155,-0.00599201264664346,0.0238));
#2007=CARTESIAN_POINT('',(-0.0155,-0.004,0.0238));
#2008=CARTESIAN_POINT('',(-0.0155,-0.004,0.0278));
#2009=CARTESIAN_POINT('',(-0.0155,-0.004,0.0228));
#2010=CARTESIAN_POINT('',(-0.0155,-0.0055,0.0228));
#2011=CARTESIAN_POINT('',(0.,-0.0095,0.0278));
#2012=CARTESIAN_POINT('',(0.,-0.0095,0.0238));
#2013=CARTESIAN_POINT('',(0.00909632236236576,-0.0095,0.0238));
#2014=CARTESIAN_POINT('',(-0.01025,-0.0095,0.01755));
#2015=CARTESIAN_POINT('',(-0.0095,-0.0095,0.0168));
#2016=CARTESIAN_POINT('',(-0.0095,-0.0095,0.0114));
#2017=CARTESIAN_POINT('',(-0.0095,-0.0095,3.46944695195361E-18));
#2018=CARTESIAN_POINT('',(-0.00925,-0.0095,0.));
#2019=CARTESIAN_POINT('',(-0.004,-0.0095,0.));
#2020=CARTESIAN_POINT('',(-0.004,-0.0095,0.012));
#2021=CARTESIAN_POINT('',(-0.004,-0.0095,0.012));
#2022=CARTESIAN_POINT('',(-0.00925,-0.0095,0.012));
#2023=CARTESIAN_POINT('',(-0.0061,-0.0095,0.012));
#2024=CARTESIAN_POINT('',(-0.0061,-0.0095,0.0228));
#2025=CARTESIAN_POINT('',(-0.0061,-0.0095,0.0228));
#2026=CARTESIAN_POINT('',(0.,-0.0095,0.0228));
#2027=CARTESIAN_POINT('',(0.004,-0.0095,0.0228));
#2028=CARTESIAN_POINT('',(0.004,-0.0095,0.));
#2029=CARTESIAN_POINT('',(0.004,-0.0095,0.));
#2030=CARTESIAN_POINT('',(0.00925,-0.0095,0.));
#2031=CARTESIAN_POINT('',(0.0095,-0.0095,-3.90312782094781E-18));
#2032=CARTESIAN_POINT('',(0.0095,-0.0095,0.0114));
#2033=CARTESIAN_POINT('',(0.0095,-0.0095,0.0168));
#2034=CARTESIAN_POINT('',(0.01025,-0.0095,0.01755));
#2035=CARTESIAN_POINT('',(0.014,-0.0095,0.0213));
#2036=CARTESIAN_POINT('',(0.014,-0.0095,0.0278));
#2037=CARTESIAN_POINT('',(0.014,-0.0095,0.0268));
#2038=CARTESIAN_POINT('',(0.,-0.0095,0.0268));
#2039=CARTESIAN_POINT('',(0.011954356076261,-0.0095,0.0268));
#2040=CARTESIAN_POINT('',(0.011954356076261,-0.0095,0.0268));
#2041=CARTESIAN_POINT('',(0.011954356076261,-0.0095,0.0278));
#2042=CARTESIAN_POINT('',(0.,-0.0095,0.0278));
#2043=CARTESIAN_POINT('',(0.00909632236236576,-0.0095,0.0278));
#2044=CARTESIAN_POINT('',(0.00909632236236576,-0.0095,0.023798));
#2045=CARTESIAN_POINT('',(0.,6.93889390390723E-18,0.0278));
#2046=CARTESIAN_POINT('',(0.0132623745084212,-0.00170353098381059,0.0278));
#2047=CARTESIAN_POINT('',(0.0103539061602236,-0.00714652174972323,0.0278));
#2048=CARTESIAN_POINT('',(0.0131,-0.007,0.0278));
#2049=CARTESIAN_POINT('',(-0.0131,0.007,0.0268));
#2050=CARTESIAN_POINT('',(-0.0131,0.007,0.0278));
#2051=CARTESIAN_POINT('',(-0.0155,0.00565742784179023,0.0278));
#2052=CARTESIAN_POINT('',(-0.0116955918734611,0.004635652772093,0.0278));
#2053=CARTESIAN_POINT('',(-0.0116955918734611,0.004635652772093,0.0268));
#2054=CARTESIAN_POINT('',(-0.0116955918734611,0.00463565277209301,0.0268));
#2055=CARTESIAN_POINT('',(-0.0131,0.007,0.0268));
#2056=CARTESIAN_POINT('',(-0.0155,0.00565742784179023,0.0268));
#2057=CARTESIAN_POINT('',(-0.0155,0.00565742784179023,0.0268));
#2058=CARTESIAN_POINT('',(0.0131,-0.007,0.0268));
#2059=CARTESIAN_POINT('',(0.0131,-0.007,0.0278));
#2060=CARTESIAN_POINT('',(0.0116955918734611,-0.00463565277209301,0.0278));
#2061=CARTESIAN_POINT('',(0.0116955918734611,-0.00463565277209301,0.0268));
#2062=CARTESIAN_POINT('',(0.0116955918734611,-0.00463565277209301,0.0268));
#2063=CARTESIAN_POINT('',(0.0131,-0.007,0.0268));
#2064=CARTESIAN_POINT('',(0.0155,-0.008,0.0278));
#2065=CARTESIAN_POINT('',(0.0181666666666667,-0.00533333333333333,0.0254666666666667));
#2066=CARTESIAN_POINT('',(0.01175,-0.01175,0.0268));
#2067=CARTESIAN_POINT('',(0.0145,-0.003,0.0228));
#2068=CARTESIAN_POINT('',(0.0141666666666667,-0.00266666666666666,0.0214666666666667));
#2069=CARTESIAN_POINT('',(0.0145,-0.003,0.0218));
#2070=CARTESIAN_POINT('',(0.0145,-0.003,0.0228));
#2071=CARTESIAN_POINT('',(0.0145,-0.003,0.0228));
#2072=CARTESIAN_POINT('',(0.0135,-0.002,0.0218));
#2073=CARTESIAN_POINT('',(0.0155,0.004,0.0278));
#2074=CARTESIAN_POINT('',(0.0135,0.002,0.0218));
#2075=CARTESIAN_POINT('',(0.0145,0.003,0.0228));
#2076=CARTESIAN_POINT('',(0.0145,0.003,0.0228));
#2077=CARTESIAN_POINT('',(0.0145,0.003,0.0218));
#2078=CARTESIAN_POINT('',(0.0141666666666667,0.00266666666666667,0.0214666666666667));
#2079=CARTESIAN_POINT('',(0.0131,-0.007,0.0178));
#2080=CARTESIAN_POINT('',(0.0131,-0.007,0.0268));
#2081=CARTESIAN_POINT('',(0.0142,-0.007,0.0268));
#2082=CARTESIAN_POINT('',(0.0131,-0.007,0.0204));
#2083=CARTESIAN_POINT('',(0.0142,-0.007,0.0215));
#2084=CARTESIAN_POINT('',(0.,0.0095,0.0278));
#2085=CARTESIAN_POINT('',(0.,0.0095,0.0238));
#2086=CARTESIAN_POINT('',(-0.00909632236236577,0.0095,0.0238));
#2087=CARTESIAN_POINT('',(0.0155,0.0095,0.0228));
#2088=CARTESIAN_POINT('',(0.0095,0.0095,0.0168));
#2089=CARTESIAN_POINT('',(0.0095,0.0095,0.0114));
#2090=CARTESIAN_POINT('',(0.0095,0.0095,-4.33680868994202E-19));
#2091=CARTESIAN_POINT('',(0.00925,0.0095,0.));
#2092=CARTESIAN_POINT('',(0.004,0.0095,0.));
#2093=CARTESIAN_POINT('',(0.004,0.0095,0.0278));
#2094=CARTESIAN_POINT('',(0.004,0.0095,0.0228));
#2095=CARTESIAN_POINT('',(0.,0.0095,0.0228));
#2096=CARTESIAN_POINT('',(-0.004,0.0095,0.0228));
#2097=CARTESIAN_POINT('',(-0.004,0.0095,0.));
#2098=CARTESIAN_POINT('',(-0.004,0.0095,0.));
#2099=CARTESIAN_POINT('',(-0.00925,0.0095,0.));
#2100=CARTESIAN_POINT('',(-0.0095,0.0095,0.));
#2101=CARTESIAN_POINT('',(-0.0095,0.0095,0.0114));
#2102=CARTESIAN_POINT('',(-0.0095,0.0095,0.0168));
#2103=CARTESIAN_POINT('',(-0.0155,0.0095,0.0228));
#2104=CARTESIAN_POINT('',(-0.014,0.0095,0.0213));
#2105=CARTESIAN_POINT('',(-0.014,0.0095,0.0278));
#2106=CARTESIAN_POINT('',(-0.014,0.0095,0.0268));
#2107=CARTESIAN_POINT('',(0.,0.0095,0.0268));
#2108=CARTESIAN_POINT('',(-0.011954356076261,0.0095,0.0268));
#2109=CARTESIAN_POINT('',(-0.011954356076261,0.0095,0.0268));
#2110=CARTESIAN_POINT('',(-0.00909632236236577,0.0095,0.023798));
#2111=CARTESIAN_POINT('',(-0.0103,-0.003,0.0228));
#2112=CARTESIAN_POINT('',(-0.0095,-0.003,0.0114));
#2113=CARTESIAN_POINT('',(-0.0095,-0.003,0.0168));
#2114=CARTESIAN_POINT('',(-0.0095,-0.003,0.));
#2115=CARTESIAN_POINT('',(-0.0129,-0.003,0.0202));
#2116=CARTESIAN_POINT('',(-0.0145,-0.003,0.0218));
#2117=CARTESIAN_POINT('',(-0.0145,-0.003,0.0228));
#2118=CARTESIAN_POINT('',(-0.0145,-0.003,0.0228));
#2119=CARTESIAN_POINT('',(-0.0103,-0.003,0.0228));
#2120=CARTESIAN_POINT('',(-0.0052,-0.003,0.0228));
#2121=CARTESIAN_POINT('',(-0.0052,-0.003,0.0228));
#2122=CARTESIAN_POINT('',(-0.0052,-0.003,0.));
#2123=CARTESIAN_POINT('',(-0.0103,-0.003,0.));
#2124=CARTESIAN_POINT('',(-0.0103,0.003,0.0228));
#2125=CARTESIAN_POINT('',(-0.0103,0.003,0.0228));
#2126=CARTESIAN_POINT('',(-0.0052,0.003,0.0228));
#2127=CARTESIAN_POINT('',(-0.0145,0.003,0.0228));
#2128=CARTESIAN_POINT('',(-0.0145,0.003,0.0228));
#2129=CARTESIAN_POINT('',(-0.0145,0.003,0.0218));
#2130=CARTESIAN_POINT('',(-0.0155,0.003,0.0228));
#2131=CARTESIAN_POINT('',(-0.0095,0.003,0.0168));
#2132=CARTESIAN_POINT('',(-0.0095,0.003,0.0114));
#2133=CARTESIAN_POINT('',(-0.0095,0.003,0.));
#2134=CARTESIAN_POINT('',(-0.0103,0.003,0.));
#2135=CARTESIAN_POINT('',(-0.0052,0.003,0.));
#2136=CARTESIAN_POINT('',(-0.0052,0.003,0.0228));
#2137=CARTESIAN_POINT('',(-0.0155,0.008,0.0278));
#2138=CARTESIAN_POINT('',(-0.0181666666666667,0.00533333333333333,0.0254666666666667));
#2139=CARTESIAN_POINT('',(-0.0155,0.008,0.0228));
#2140=CARTESIAN_POINT('',(-0.0155,0.008,0.));
#2141=CARTESIAN_POINT('',(-0.0155,0.008,0.0268));
#2142=CARTESIAN_POINT('',(-0.0155,0.008,0.0268));
#2143=CARTESIAN_POINT('',(0.,3.46944695195361E-18,0.));
#2144=CARTESIAN_POINT('',(-0.00625,-0.00625,0.));
#2145=CARTESIAN_POINT('',(-0.0073,-0.00625,0.));
#2146=CARTESIAN_POINT('',(-0.0095,-0.00625,0.));
#2147=CARTESIAN_POINT('',(-0.0052,-0.0038,0.));
#2148=CARTESIAN_POINT('',(-0.0052,-0.0046,0.));
#2149=CARTESIAN_POINT('',(-0.00405,-0.0046,0.));
#2150=CARTESIAN_POINT('',(-0.003,-0.0046,0.));
#2151=CARTESIAN_POINT('',(-0.003,-0.00705,0.));
#2152=CARTESIAN_POINT('',(-0.003,-0.0085,0.));
#2153=CARTESIAN_POINT('',(-0.003,-0.0085,0.));
#2154=CARTESIAN_POINT('',(0.,3.46944695195361E-18,0.));
#2155=CARTESIAN_POINT('',(-0.00625,0.00625,0.));
#2156=CARTESIAN_POINT('',(-0.0073,0.00625,0.));
#2157=CARTESIAN_POINT('',(-0.0095,0.00625,0.));
#2158=CARTESIAN_POINT('',(-0.004,0.0095,0.));
#2159=CARTESIAN_POINT('',(-0.003,0.0085,0.));
#2160=CARTESIAN_POINT('',(-0.003,0.00705,0.));
#2161=CARTESIAN_POINT('',(-0.003,0.0046,0.));
#2162=CARTESIAN_POINT('',(-0.00405,0.0046,0.));
#2163=CARTESIAN_POINT('',(-0.0052,0.0046,0.));
#2164=CARTESIAN_POINT('',(-0.0052,0.0038,0.));
#2165=CARTESIAN_POINT('',(-0.0155,-0.004,0.0278));
#2166=CARTESIAN_POINT('',(-0.0141666666666667,-0.00266666666666667,0.0224666666666667));
#2167=CARTESIAN_POINT('',(-0.0141666666666667,-0.00266666666666666,0.0214666666666667));
#2168=CARTESIAN_POINT('',(-0.0145,0.003,0.0228));
#2169=CARTESIAN_POINT('',(-0.0155,0.004,0.0228));
#2170=CARTESIAN_POINT('',(-0.0155,0.004,0.0228));
#2171=CARTESIAN_POINT('',(-0.0155,0.004,0.0238));
#2172=CARTESIAN_POINT('',(-0.0141666666666667,0.00266666666666667,0.0214666666666667));
#2173=CARTESIAN_POINT('',(-0.0141666666666667,0.00266666666666667,0.0224666666666667));
#2174=CARTESIAN_POINT('',(-0.0131,0.007,0.0178));
#2175=CARTESIAN_POINT('',(-0.0131,0.007,0.0268));
#2176=CARTESIAN_POINT('',(-0.012,0.007,0.0268));
#2177=CARTESIAN_POINT('',(-0.0131,0.007,0.0204));
#2178=CARTESIAN_POINT('',(-0.0142,0.007,0.0215));
#2179=CARTESIAN_POINT('',(0.,3.46944695195361E-18,0.));
#2180=CARTESIAN_POINT('',(0.00625,-0.00625,0.));
#2181=CARTESIAN_POINT('',(0.0052,-0.00625,0.));
#2182=CARTESIAN_POINT('',(0.0103,-0.003,0.));
#2183=CARTESIAN_POINT('',(0.0052,-0.003,0.));
#2184=CARTESIAN_POINT('',(0.0095,-0.003,-1.95156391047391E-18));
#2185=CARTESIAN_POINT('',(0.0095,-0.00625,0.));
#2186=CARTESIAN_POINT('',(0.004,-0.0095,0.));
#2187=CARTESIAN_POINT('',(0.003,-0.0085,0.));
#2188=CARTESIAN_POINT('',(0.003,-0.00705,0.));
#2189=CARTESIAN_POINT('',(0.003,-0.0046,0.));
#2190=CARTESIAN_POINT('',(0.00405,-0.0046,0.));
#2191=CARTESIAN_POINT('',(0.0052,-0.0046,0.));
#2192=CARTESIAN_POINT('',(0.0052,-0.0038,0.));
#2193=CARTESIAN_POINT('',(-0.003,-0.00705,0.0228));
#2194=CARTESIAN_POINT('',(-0.003,-0.00705,0.012));
#2195=CARTESIAN_POINT('',(-0.003,-0.0046,0.012));
#2196=CARTESIAN_POINT('',(-0.003,-0.0085,0.012));
#2197=CARTESIAN_POINT('',(-0.003,-0.0085,0.));
#2198=CARTESIAN_POINT('',(-0.003,-0.0046,0.0228));
#2199=CARTESIAN_POINT('',(-0.00405,-0.0046,0.0228));
#2200=CARTESIAN_POINT('',(-0.0052,-0.0046,0.0228));
#2201=CARTESIAN_POINT('',(-0.0052,-0.0046,0.012));
#2202=CARTESIAN_POINT('',(-0.00405,-0.0046,0.012));
#2203=CARTESIAN_POINT('',(0.,6.93889390390723E-18,0.0278));
#2204=CARTESIAN_POINT('',(-0.0132623745084212,0.0017035309838106,0.0278));
#2205=CARTESIAN_POINT('',(-0.0155,-0.00248402529328693,0.0278));
#2206=CARTESIAN_POINT('',(-0.0155,1.7347234759768E-18,0.0278));
#2207=CARTESIAN_POINT('',(0.,6.93889390390723E-18,0.0228));
#2208=CARTESIAN_POINT('',(0.0103,0.003,0.0228));
#2209=CARTESIAN_POINT('',(0.0052,0.003,0.0228));
#2210=CARTESIAN_POINT('',(0.0145,-0.004,0.0228));
#2211=CARTESIAN_POINT('',(0.0103,-0.003,0.0228));
#2212=CARTESIAN_POINT('',(0.0052,-0.003,0.0228));
#2213=CARTESIAN_POINT('',(0.0052,-0.0038,0.0228));
#2214=CARTESIAN_POINT('',(0.0052,-0.0046,0.0228));
#2215=CARTESIAN_POINT('',(0.00405,-0.0046,0.0228));
#2216=CARTESIAN_POINT('',(0.003,-0.0046,0.0228));
#2217=CARTESIAN_POINT('',(0.003,-0.00705,0.0228));
#2218=CARTESIAN_POINT('',(0.003,-0.0085,0.0228));
#2219=CARTESIAN_POINT('',(-0.00275,-0.00275,0.0228));
#2220=CARTESIAN_POINT('',(0.00170000000000002,-0.00170000000000003,0.0228));
#2221=CARTESIAN_POINT('',(-0.0051,-0.0085,0.0228));
#2222=CARTESIAN_POINT('',(-0.0051,-0.0085,0.0228));
#2223=CARTESIAN_POINT('',(-0.0052,-0.0085,0.0228));
#2224=CARTESIAN_POINT('',(-0.0052,-0.0038,0.0228));
#2225=CARTESIAN_POINT('',(-0.0145,6.93889390390723E-18,0.0228));
#2226=CARTESIAN_POINT('',(-0.0052,0.0038,0.0228));
#2227=CARTESIAN_POINT('',(-0.0052,0.0046,0.0228));
#2228=CARTESIAN_POINT('',(-0.00405,0.0046,0.0228));
#2229=CARTESIAN_POINT('',(-0.003,0.0046,0.0228));
#2230=CARTESIAN_POINT('',(-0.003,0.00705,0.0228));
#2231=CARTESIAN_POINT('',(-0.003,0.0085,0.0228));
#2232=CARTESIAN_POINT('',(0.00275,0.00275,0.0228));
#2233=CARTESIAN_POINT('',(-0.00275,0.00275,0.0228));
#2234=CARTESIAN_POINT('',(0.003,0.0085,0.0228));
#2235=CARTESIAN_POINT('',(0.003,0.00705,0.0228));
#2236=CARTESIAN_POINT('',(0.003,0.0046,0.0228));
#2237=CARTESIAN_POINT('',(0.00405,0.0046,0.0228));
#2238=CARTESIAN_POINT('',(0.0052,0.0046,0.0228));
#2239=CARTESIAN_POINT('',(0.0052,0.0038,0.0228));
#2240=CARTESIAN_POINT('',(-0.0155,1.7347234759768E-18,0.0278));
#2241=CARTESIAN_POINT('',(-0.0155,1.7347234759768E-18,0.0238));
#2242=CARTESIAN_POINT('',(-0.0155,-0.00248402529328693,0.0238));
#2243=CARTESIAN_POINT('',(-0.0155,-0.00248402529328693,0.023798));
#2244=CARTESIAN_POINT('',(-0.0155,1.7347234759768E-18,0.0268));
#2245=CARTESIAN_POINT('',(-0.0155,0.0055,0.0228));
#2246=CARTESIAN_POINT('',(0.,6.93889390390723E-18,0.0278));
#2247=CARTESIAN_POINT('',(0.0132623745084212,-0.00170353098381059,0.0278));
#2248=CARTESIAN_POINT('',(0.0103,-0.003,0.0228));
#2249=CARTESIAN_POINT('',(0.0095,-0.003,0.0114));
#2250=CARTESIAN_POINT('',(0.0095,-0.003,0.0168));
#2251=CARTESIAN_POINT('',(0.0052,-0.003,0.0228));
#2252=CARTESIAN_POINT('',(0.0155,-0.003,0.0228));
#2253=CARTESIAN_POINT('',(0.00405,-0.0046,0.0228));
#2254=CARTESIAN_POINT('',(0.003,-0.0046,0.0228));
#2255=CARTESIAN_POINT('',(0.0052,-0.0046,0.0228));
#2256=CARTESIAN_POINT('',(0.003,-0.00705,0.0228));
#2257=CARTESIAN_POINT('',(0.003,-0.0085,0.0228));
#2258=CARTESIAN_POINT('',(-0.00405,0.0046,0.0228));
#2259=CARTESIAN_POINT('',(-0.003,0.0046,0.0228));
#2260=CARTESIAN_POINT('',(-0.0052,0.0046,0.0228));
#2261=CARTESIAN_POINT('',(-0.003,0.00705,0.0228));
#2262=CARTESIAN_POINT('',(-0.003,0.0085,0.0228));
#2263=CARTESIAN_POINT('',(0.0103,0.003,0.0228));
#2264=CARTESIAN_POINT('',(0.0103,0.003,0.));
#2265=CARTESIAN_POINT('',(0.0052,0.003,0.));
#2266=CARTESIAN_POINT('',(0.0095,0.003,0.));
#2267=CARTESIAN_POINT('',(0.0095,0.003,0.0114));
#2268=CARTESIAN_POINT('',(0.0095,0.003,0.0168));
#2269=CARTESIAN_POINT('',(0.0129,0.003,0.0202));
#2270=CARTESIAN_POINT('',(0.0052,0.003,0.0228));
#2271=CARTESIAN_POINT('',(0.003,0.00705,0.0228));
#2272=CARTESIAN_POINT('',(0.003,0.0085,0.0228));
#2273=CARTESIAN_POINT('',(0.003,0.0085,0.));
#2274=CARTESIAN_POINT('',(0.003,0.00705,0.));
#2275=CARTESIAN_POINT('',(0.003,0.0046,0.));
#2276=CARTESIAN_POINT('',(0.003,0.0046,0.0228));
#2277=CARTESIAN_POINT('',(0.00405,0.0046,0.0228));
#2278=CARTESIAN_POINT('',(0.00405,0.0046,0.));
#2279=CARTESIAN_POINT('',(0.0052,0.0046,0.));
#2280=CARTESIAN_POINT('',(0.0052,0.0046,0.0228));
#2281=CARTESIAN_POINT('',(0.,3.46944695195361E-18,0.));
#2282=CARTESIAN_POINT('',(0.00625,0.00625,0.));
#2283=CARTESIAN_POINT('',(0.0052,0.00625,0.));
#2284=CARTESIAN_POINT('',(0.0095,0.00625,0.));
#2285=CARTESIAN_POINT('',(0.0052,0.0038,0.));
#2286=CARTESIAN_POINT('',(0.003,0.0085,0.));
#2287=CARTESIAN_POINT('',(0.,6.93889390390723E-18,0.0238));
#2288=CARTESIAN_POINT('',(-0.0132623745084212,0.0017035309838106,0.0238));
#2289=CARTESIAN_POINT('',(-0.0155,-0.00599201264664346,0.0238));
#2290=CARTESIAN_POINT('',(0.0132623745084212,-0.00170353098381059,0.0238));
#2291=CARTESIAN_POINT('',(0.0155,0.00599201264664347,0.0238));
#2292=CARTESIAN_POINT('',(-0.00925,-0.00625,0.012));
#2293=CARTESIAN_POINT('',(-0.003,-0.0085,0.012));
#2294=CARTESIAN_POINT('',(-0.0052,-0.0038,0.012));
#2295=CARTESIAN_POINT('',(-0.0052,-0.0085,0.012));
#2296=CARTESIAN_POINT('',(-0.0051,-0.0085,0.012));
#2297=CARTESIAN_POINT('',(-0.0051,-0.0085,0.012));
#2298=CARTESIAN_POINT('',(-0.00605,-0.00945,0.012));
#2299=CARTESIAN_POINT('',(-0.003,-0.0085,0.0228));
#2300=CARTESIAN_POINT('',(-0.0051,-0.0085,0.0228));
#2301=CARTESIAN_POINT('',(-0.0051,-0.0085,0.012));
#2302=CARTESIAN_POINT('',(0.004,-0.0095,0.0278));
#2303=CARTESIAN_POINT('',(0.003,0.0085,0.0228));
#2304=CARTESIAN_POINT('',(-0.004,0.0095,0.0278));
#2305=CARTESIAN_POINT('',(0.0145,6.93889390390723E-18,0.0228));
#2306=CARTESIAN_POINT('',(-0.0155,1.7347234759768E-18,0.0238));
#2307=CARTESIAN_POINT('',(0.,1.7347234759768E-18,0.0268));
#2308=CARTESIAN_POINT('',(-0.0110247490168423,0.00589108726090812,0.0268));
#2309=CARTESIAN_POINT('',(-0.0103539061602236,0.00714652174972323,0.0268));
#2310=CARTESIAN_POINT('',(-0.0131,0.007,0.0268));
#2311=CARTESIAN_POINT('',(-0.0131,0.007,0.0268));
#2312=CARTESIAN_POINT('',(-0.0103539061602236,0.00714652174972323,0.0268));
#2313=CARTESIAN_POINT('',(0.0131,-0.007,0.0268));
#2314=CARTESIAN_POINT('',(0.0131,-0.007,0.0268));
#2315=CARTESIAN_POINT('',(0.0103539061602236,-0.00714652174972323,0.0268));
#2316=CARTESIAN_POINT('',(0.0103539061602236,-0.00714652174972323,0.0268));
#2317=CARTESIAN_POINT('',(0.,1.7347234759768E-18,0.0268));
#2318=CARTESIAN_POINT('',(0.0110247490168423,-0.00589108726090812,0.0268));
#2319=CARTESIAN_POINT('',(0.0052,0.0038,0.0228));
#2320=CARTESIAN_POINT('',(-0.0052,0.0038,0.0228));
#2321=CARTESIAN_POINT('',(-0.0051,-0.0085,0.012));
#2322=CARTESIAN_POINT('',(-0.0052,-0.0085,0.0228));
#2323=CARTESIAN_POINT('',(-0.0052,-0.0038,0.0228));
#2324=CARTESIAN_POINT('',(0.0052,-0.0038,0.0228));
#2325=CARTESIAN_POINT('',(-0.0095,0.,0.0139));
#2326=CARTESIAN_POINT('',(-0.0095,0.,0.0168));
#2327=CARTESIAN_POINT('',(-0.0095,0.,0.0139));
#2328=CARTESIAN_POINT('',(-0.0095,0.,0.0168));
#2329=CARTESIAN_POINT('',(0.0095,0.,0.0139));
#2330=CARTESIAN_POINT('',(0.0095,0.,0.0168));
#2331=CARTESIAN_POINT('',(0.0095,0.,0.0139));
#2332=CARTESIAN_POINT('',(0.0095,0.,0.0168));
#2333=CARTESIAN_POINT('',(0.0155,6.93889390390723E-18,0.0228));
#2334=CARTESIAN_POINT('',(0.0155,6.93889390390723E-18,0.0228));
#2335=CARTESIAN_POINT('',(-0.0155,6.93889390390723E-18,0.0228));
#2336=CARTESIAN_POINT('',(-0.0155,6.93889390390723E-18,0.0228));
#2337=CARTESIAN_POINT('',(0.00625,0.00625,0.005));
#2338=CARTESIAN_POINT('',(0.00625,0.00625,0.005));
#2339=CARTESIAN_POINT('',(0.0052,0.00625,0.005));
#2340=CARTESIAN_POINT('',(0.0011,-0.0011,0.005));
#2341=CARTESIAN_POINT('',(0.00625,-0.00625,0.005));
#2342=CARTESIAN_POINT('',(0.00625,-0.00625,0.005));
#2343=CARTESIAN_POINT('',(0.0052,-0.00625,0.005));
#2344=CARTESIAN_POINT('',(0.0011,-0.0011,0.005));
#2345=CARTESIAN_POINT('',(-0.00625,0.00625,0.005));
#2346=CARTESIAN_POINT('',(-0.00625,0.00625,0.005));
#2347=CARTESIAN_POINT('',(-0.0073,0.00625,0.005));
#2348=CARTESIAN_POINT('',(0.0011,-0.0011,0.005));
#2349=CARTESIAN_POINT('',(-0.00625,-0.00625,0.005));
#2350=CARTESIAN_POINT('',(-0.00625,-0.00625,0.005));
#2351=CARTESIAN_POINT('',(-0.0073,-0.00625,0.005));
#2352=CARTESIAN_POINT('',(0.0011,-0.0011,0.005));
#2353=CARTESIAN_POINT('',(0.0132623745084212,-0.00170353098381059,0.023798));
#2354=CARTESIAN_POINT('',(-0.0132623745084212,0.0017035309838106,0.023798));
#2355=MECHANICAL_DESIGN_GEOMETRIC_PRESENTATION_REPRESENTATION('',(#1456),#2356);
#2356=(
GEOMETRIC_REPRESENTATION_CONTEXT(3)
GLOBAL_UNCERTAINTY_ASSIGNED_CONTEXT((#2357))
GLOBAL_UNIT_ASSIGNED_CONTEXT((#2360,#2359,#2358))
REPRESENTATION_CONTEXT('Part 2','TOP_LEVEL_ASSEMBLY_PART')
);
#2357=UNCERTAINTY_MEASURE_WITH_UNIT(LENGTH_MEASURE(1.E-08),#2360,'DISTANCE_ACCURACY_VALUE','Maximum Tolerance applied to model');
#2358=(
NAMED_UNIT(*)
SI_UNIT($,.STERADIAN.)
SOLID_ANGLE_UNIT()
);
#2359=(
NAMED_UNIT(*)
PLANE_ANGLE_UNIT()
SI_UNIT($,.RADIAN.)
);
#2360=(
LENGTH_UNIT()
NAMED_UNIT(*)
SI_UNIT($,.METRE.)
);
#2361=PRODUCT_DEFINITION_SHAPE('','',#2362);
#2362=PRODUCT_DEFINITION('','',#2364,#2363);
#2363=PRODUCT_DEFINITION_CONTEXT('',#2370,'design');
#2364=PRODUCT_DEFINITION_FORMATION_WITH_SPECIFIED_SOURCE('','',#2366,.NOT_KNOWN.);
#2365=PRODUCT_RELATED_PRODUCT_CATEGORY('','',(#2366));
#2366=PRODUCT('Part 2','Part 2','Part 2',(#2368));
#2367=PRODUCT_CATEGORY('','');
#2368=PRODUCT_CONTEXT('',#2370,'mechanical');
#2369=APPLICATION_PROTOCOL_DEFINITION('international standard','ap242_managed_model_based_3d_engineering',2020,#2370);
#2370=APPLICATION_CONTEXT('managed model based 3d engineering');
ENDSEC;
END-ISO-10303-21;
