ISO-10303-21;
HEADER;
/* Generated by software containing ST-Developer
 * from STEP Tools, Inc. (www.steptools.com) 
 */
/* OPTION: using custom renumber hook */

FILE_DESCRIPTION(
/* description */ ('STEP AP242',
'CAx-IF Rec.Pracs.---Representation and Presentation of Product Manufa
cturing Information (PMI)---4.0---2014-10-13',
'CAx-IF Rec.Pracs.---3D Tessellated Geometry---0.4---2014-09-14','2;1'),

/* implementation_level */ '2;1');

FILE_NAME(
/* name */ 'KF128-2.54-4P parts - Housing',
/* time_stamp */ '2025-10-05T05:29:17Z',
/* author */ (''),
/* organization */ (''),
/* preprocessor_version */ 'ST-DEVELOPER v20',
/* originating_system */ 'ONSHAPE BY PTC INC, 1.204',
/* authorisation */ '  ');

FILE_SCHEMA (('AP242_MANAGED_MODEL_BASED_3D_ENGINEERING_MIM_LF { 1 0 10303 442 1 1 4 }'));
ENDSEC;

DATA;
#10=SHAPE_REPRESENTATION_RELATIONSHIP('','',#1006,#11);
#11=ADVANCED_BREP_SHAPE_REPRESENTATION('',(#1004),#1637);
#12=CYLINDRICAL_SURFACE('',#1064,0.0009);
#13=CYLINDRICAL_SURFACE('',#1066,0.0009);
#14=CYLINDRICAL_SURFACE('',#1068,0.0009);
#15=CYLINDRICAL_SURFACE('',#1070,0.0009);
#16=CIRCLE('',#1013,0.0009);
#17=CIRCLE('',#1016,0.0009);
#18=CIRCLE('',#1017,0.0009);
#19=CIRCLE('',#1020,0.0009);
#20=CIRCLE('',#1022,0.0009);
#21=CIRCLE('',#1025,0.0009);
#22=CIRCLE('',#1026,0.0009);
#23=CIRCLE('',#1029,0.0009);
#24=CIRCLE('',#1031,0.0009);
#25=CIRCLE('',#1034,0.0009);
#26=CIRCLE('',#1035,0.0009);
#27=CIRCLE('',#1038,0.0009);
#28=CIRCLE('',#1040,0.0009);
#29=CIRCLE('',#1043,0.0009);
#30=CIRCLE('',#1044,0.0009);
#31=CIRCLE('',#1047,0.0009);
#32=CIRCLE('',#1065,0.0009);
#33=CIRCLE('',#1067,0.0009);
#34=CIRCLE('',#1069,0.0009);
#35=CIRCLE('',#1071,0.0009);
#36=CIRCLE('',#1072,0.0009);
#37=ORIENTED_EDGE('',*,*,#303,.F.);
#38=ORIENTED_EDGE('',*,*,#304,.F.);
#39=ORIENTED_EDGE('',*,*,#305,.F.);
#40=ORIENTED_EDGE('',*,*,#306,.F.);
#41=ORIENTED_EDGE('',*,*,#307,.F.);
#42=ORIENTED_EDGE('',*,*,#308,.F.);
#43=ORIENTED_EDGE('',*,*,#309,.F.);
#44=ORIENTED_EDGE('',*,*,#310,.F.);
#45=ORIENTED_EDGE('',*,*,#311,.F.);
#46=ORIENTED_EDGE('',*,*,#312,.F.);
#47=ORIENTED_EDGE('',*,*,#313,.F.);
#48=ORIENTED_EDGE('',*,*,#314,.F.);
#49=ORIENTED_EDGE('',*,*,#315,.F.);
#50=ORIENTED_EDGE('',*,*,#316,.F.);
#51=ORIENTED_EDGE('',*,*,#317,.F.);
#52=ORIENTED_EDGE('',*,*,#318,.F.);
#53=ORIENTED_EDGE('',*,*,#319,.T.);
#54=ORIENTED_EDGE('',*,*,#320,.T.);
#55=ORIENTED_EDGE('',*,*,#319,.F.);
#56=ORIENTED_EDGE('',*,*,#321,.T.);
#57=ORIENTED_EDGE('',*,*,#322,.T.);
#58=ORIENTED_EDGE('',*,*,#323,.F.);
#59=ORIENTED_EDGE('',*,*,#322,.F.);
#60=ORIENTED_EDGE('',*,*,#324,.F.);
#61=ORIENTED_EDGE('',*,*,#325,.F.);
#62=ORIENTED_EDGE('',*,*,#326,.F.);
#63=ORIENTED_EDGE('',*,*,#327,.F.);
#64=ORIENTED_EDGE('',*,*,#328,.T.);
#65=ORIENTED_EDGE('',*,*,#325,.T.);
#66=ORIENTED_EDGE('',*,*,#329,.F.);
#67=ORIENTED_EDGE('',*,*,#330,.T.);
#68=ORIENTED_EDGE('',*,*,#327,.T.);
#69=ORIENTED_EDGE('',*,*,#331,.T.);
#70=ORIENTED_EDGE('',*,*,#332,.T.);
#71=ORIENTED_EDGE('',*,*,#331,.F.);
#72=ORIENTED_EDGE('',*,*,#333,.T.);
#73=ORIENTED_EDGE('',*,*,#334,.T.);
#74=ORIENTED_EDGE('',*,*,#335,.F.);
#75=ORIENTED_EDGE('',*,*,#334,.F.);
#76=ORIENTED_EDGE('',*,*,#336,.F.);
#77=ORIENTED_EDGE('',*,*,#337,.F.);
#78=ORIENTED_EDGE('',*,*,#338,.F.);
#79=ORIENTED_EDGE('',*,*,#339,.F.);
#80=ORIENTED_EDGE('',*,*,#340,.T.);
#81=ORIENTED_EDGE('',*,*,#337,.T.);
#82=ORIENTED_EDGE('',*,*,#341,.F.);
#83=ORIENTED_EDGE('',*,*,#342,.T.);
#84=ORIENTED_EDGE('',*,*,#339,.T.);
#85=ORIENTED_EDGE('',*,*,#343,.T.);
#86=ORIENTED_EDGE('',*,*,#344,.T.);
#87=ORIENTED_EDGE('',*,*,#343,.F.);
#88=ORIENTED_EDGE('',*,*,#345,.T.);
#89=ORIENTED_EDGE('',*,*,#346,.T.);
#90=ORIENTED_EDGE('',*,*,#347,.F.);
#91=ORIENTED_EDGE('',*,*,#346,.F.);
#92=ORIENTED_EDGE('',*,*,#348,.F.);
#93=ORIENTED_EDGE('',*,*,#349,.F.);
#94=ORIENTED_EDGE('',*,*,#350,.F.);
#95=ORIENTED_EDGE('',*,*,#351,.F.);
#96=ORIENTED_EDGE('',*,*,#352,.T.);
#97=ORIENTED_EDGE('',*,*,#349,.T.);
#98=ORIENTED_EDGE('',*,*,#353,.F.);
#99=ORIENTED_EDGE('',*,*,#354,.T.);
#100=ORIENTED_EDGE('',*,*,#351,.T.);
#101=ORIENTED_EDGE('',*,*,#355,.T.);
#102=ORIENTED_EDGE('',*,*,#356,.T.);
#103=ORIENTED_EDGE('',*,*,#355,.F.);
#104=ORIENTED_EDGE('',*,*,#357,.T.);
#105=ORIENTED_EDGE('',*,*,#358,.T.);
#106=ORIENTED_EDGE('',*,*,#359,.F.);
#107=ORIENTED_EDGE('',*,*,#358,.F.);
#108=ORIENTED_EDGE('',*,*,#360,.F.);
#109=ORIENTED_EDGE('',*,*,#361,.F.);
#110=ORIENTED_EDGE('',*,*,#362,.F.);
#111=ORIENTED_EDGE('',*,*,#363,.F.);
#112=ORIENTED_EDGE('',*,*,#364,.T.);
#113=ORIENTED_EDGE('',*,*,#361,.T.);
#114=ORIENTED_EDGE('',*,*,#365,.F.);
#115=ORIENTED_EDGE('',*,*,#366,.T.);
#116=ORIENTED_EDGE('',*,*,#363,.T.);
#117=ORIENTED_EDGE('',*,*,#367,.T.);
#118=ORIENTED_EDGE('',*,*,#305,.T.);
#119=ORIENTED_EDGE('',*,*,#368,.F.);
#120=ORIENTED_EDGE('',*,*,#369,.F.);
#121=ORIENTED_EDGE('',*,*,#370,.T.);
#122=ORIENTED_EDGE('',*,*,#306,.T.);
#123=ORIENTED_EDGE('',*,*,#367,.F.);
#124=ORIENTED_EDGE('',*,*,#371,.F.);
#125=ORIENTED_EDGE('',*,*,#368,.T.);
#126=ORIENTED_EDGE('',*,*,#304,.T.);
#127=ORIENTED_EDGE('',*,*,#372,.F.);
#128=ORIENTED_EDGE('',*,*,#373,.F.);
#129=ORIENTED_EDGE('',*,*,#372,.T.);
#130=ORIENTED_EDGE('',*,*,#303,.T.);
#131=ORIENTED_EDGE('',*,*,#370,.F.);
#132=ORIENTED_EDGE('',*,*,#374,.F.);
#133=ORIENTED_EDGE('',*,*,#375,.T.);
#134=ORIENTED_EDGE('',*,*,#309,.T.);
#135=ORIENTED_EDGE('',*,*,#376,.F.);
#136=ORIENTED_EDGE('',*,*,#377,.F.);
#137=ORIENTED_EDGE('',*,*,#378,.T.);
#138=ORIENTED_EDGE('',*,*,#310,.T.);
#139=ORIENTED_EDGE('',*,*,#375,.F.);
#140=ORIENTED_EDGE('',*,*,#379,.F.);
#141=ORIENTED_EDGE('',*,*,#376,.T.);
#142=ORIENTED_EDGE('',*,*,#308,.T.);
#143=ORIENTED_EDGE('',*,*,#380,.F.);
#144=ORIENTED_EDGE('',*,*,#381,.F.);
#145=ORIENTED_EDGE('',*,*,#380,.T.);
#146=ORIENTED_EDGE('',*,*,#307,.T.);
#147=ORIENTED_EDGE('',*,*,#378,.F.);
#148=ORIENTED_EDGE('',*,*,#382,.F.);
#149=ORIENTED_EDGE('',*,*,#383,.T.);
#150=ORIENTED_EDGE('',*,*,#313,.T.);
#151=ORIENTED_EDGE('',*,*,#384,.F.);
#152=ORIENTED_EDGE('',*,*,#385,.F.);
#153=ORIENTED_EDGE('',*,*,#386,.T.);
#154=ORIENTED_EDGE('',*,*,#314,.T.);
#155=ORIENTED_EDGE('',*,*,#383,.F.);
#156=ORIENTED_EDGE('',*,*,#387,.F.);
#157=ORIENTED_EDGE('',*,*,#384,.T.);
#158=ORIENTED_EDGE('',*,*,#312,.T.);
#159=ORIENTED_EDGE('',*,*,#388,.F.);
#160=ORIENTED_EDGE('',*,*,#389,.F.);
#161=ORIENTED_EDGE('',*,*,#388,.T.);
#162=ORIENTED_EDGE('',*,*,#311,.T.);
#163=ORIENTED_EDGE('',*,*,#386,.F.);
#164=ORIENTED_EDGE('',*,*,#390,.F.);
#165=ORIENTED_EDGE('',*,*,#391,.T.);
#166=ORIENTED_EDGE('',*,*,#318,.T.);
#167=ORIENTED_EDGE('',*,*,#392,.F.);
#168=ORIENTED_EDGE('',*,*,#393,.F.);
#169=ORIENTED_EDGE('',*,*,#392,.T.);
#170=ORIENTED_EDGE('',*,*,#317,.T.);
#171=ORIENTED_EDGE('',*,*,#394,.F.);
#172=ORIENTED_EDGE('',*,*,#395,.F.);
#173=ORIENTED_EDGE('',*,*,#394,.T.);
#174=ORIENTED_EDGE('',*,*,#316,.T.);
#175=ORIENTED_EDGE('',*,*,#396,.F.);
#176=ORIENTED_EDGE('',*,*,#397,.F.);
#177=ORIENTED_EDGE('',*,*,#396,.T.);
#178=ORIENTED_EDGE('',*,*,#315,.T.);
#179=ORIENTED_EDGE('',*,*,#391,.F.);
#180=ORIENTED_EDGE('',*,*,#398,.F.);
#181=ORIENTED_EDGE('',*,*,#328,.F.);
#182=ORIENTED_EDGE('',*,*,#330,.F.);
#183=ORIENTED_EDGE('',*,*,#329,.T.);
#184=ORIENTED_EDGE('',*,*,#324,.T.);
#185=ORIENTED_EDGE('',*,*,#321,.F.);
#186=ORIENTED_EDGE('',*,*,#320,.F.);
#187=ORIENTED_EDGE('',*,*,#323,.T.);
#188=ORIENTED_EDGE('',*,*,#326,.T.);
#189=ORIENTED_EDGE('',*,*,#399,.T.);
#190=ORIENTED_EDGE('',*,*,#340,.F.);
#191=ORIENTED_EDGE('',*,*,#342,.F.);
#192=ORIENTED_EDGE('',*,*,#341,.T.);
#193=ORIENTED_EDGE('',*,*,#336,.T.);
#194=ORIENTED_EDGE('',*,*,#333,.F.);
#195=ORIENTED_EDGE('',*,*,#332,.F.);
#196=ORIENTED_EDGE('',*,*,#335,.T.);
#197=ORIENTED_EDGE('',*,*,#338,.T.);
#198=ORIENTED_EDGE('',*,*,#400,.T.);
#199=ORIENTED_EDGE('',*,*,#352,.F.);
#200=ORIENTED_EDGE('',*,*,#354,.F.);
#201=ORIENTED_EDGE('',*,*,#353,.T.);
#202=ORIENTED_EDGE('',*,*,#348,.T.);
#203=ORIENTED_EDGE('',*,*,#345,.F.);
#204=ORIENTED_EDGE('',*,*,#344,.F.);
#205=ORIENTED_EDGE('',*,*,#347,.T.);
#206=ORIENTED_EDGE('',*,*,#350,.T.);
#207=ORIENTED_EDGE('',*,*,#401,.T.);
#208=ORIENTED_EDGE('',*,*,#364,.F.);
#209=ORIENTED_EDGE('',*,*,#366,.F.);
#210=ORIENTED_EDGE('',*,*,#365,.T.);
#211=ORIENTED_EDGE('',*,*,#360,.T.);
#212=ORIENTED_EDGE('',*,*,#357,.F.);
#213=ORIENTED_EDGE('',*,*,#356,.F.);
#214=ORIENTED_EDGE('',*,*,#359,.T.);
#215=ORIENTED_EDGE('',*,*,#362,.T.);
#216=ORIENTED_EDGE('',*,*,#402,.T.);
#217=ORIENTED_EDGE('',*,*,#403,.T.);
#218=ORIENTED_EDGE('',*,*,#402,.F.);
#219=ORIENTED_EDGE('',*,*,#404,.T.);
#220=ORIENTED_EDGE('',*,*,#405,.T.);
#221=ORIENTED_EDGE('',*,*,#406,.T.);
#222=ORIENTED_EDGE('',*,*,#407,.F.);
#223=ORIENTED_EDGE('',*,*,#408,.F.);
#224=ORIENTED_EDGE('',*,*,#409,.T.);
#225=ORIENTED_EDGE('',*,*,#410,.T.);
#226=ORIENTED_EDGE('',*,*,#411,.F.);
#227=ORIENTED_EDGE('',*,*,#406,.F.);
#228=ORIENTED_EDGE('',*,*,#374,.T.);
#229=ORIENTED_EDGE('',*,*,#371,.T.);
#230=ORIENTED_EDGE('',*,*,#369,.T.);
#231=ORIENTED_EDGE('',*,*,#373,.T.);
#232=ORIENTED_EDGE('',*,*,#382,.T.);
#233=ORIENTED_EDGE('',*,*,#379,.T.);
#234=ORIENTED_EDGE('',*,*,#377,.T.);
#235=ORIENTED_EDGE('',*,*,#381,.T.);
#236=ORIENTED_EDGE('',*,*,#390,.T.);
#237=ORIENTED_EDGE('',*,*,#387,.T.);
#238=ORIENTED_EDGE('',*,*,#385,.T.);
#239=ORIENTED_EDGE('',*,*,#389,.T.);
#240=ORIENTED_EDGE('',*,*,#398,.T.);
#241=ORIENTED_EDGE('',*,*,#393,.T.);
#242=ORIENTED_EDGE('',*,*,#395,.T.);
#243=ORIENTED_EDGE('',*,*,#397,.T.);
#244=ORIENTED_EDGE('',*,*,#412,.T.);
#245=ORIENTED_EDGE('',*,*,#413,.T.);
#246=ORIENTED_EDGE('',*,*,#410,.F.);
#247=ORIENTED_EDGE('',*,*,#414,.F.);
#248=ORIENTED_EDGE('',*,*,#415,.T.);
#249=ORIENTED_EDGE('',*,*,#416,.T.);
#250=ORIENTED_EDGE('',*,*,#412,.F.);
#251=ORIENTED_EDGE('',*,*,#417,.F.);
#252=ORIENTED_EDGE('',*,*,#418,.T.);
#253=ORIENTED_EDGE('',*,*,#419,.T.);
#254=ORIENTED_EDGE('',*,*,#415,.F.);
#255=ORIENTED_EDGE('',*,*,#420,.F.);
#256=ORIENTED_EDGE('',*,*,#421,.T.);
#257=ORIENTED_EDGE('',*,*,#408,.T.);
#258=ORIENTED_EDGE('',*,*,#422,.F.);
#259=ORIENTED_EDGE('',*,*,#423,.F.);
#260=ORIENTED_EDGE('',*,*,#399,.F.);
#261=ORIENTED_EDGE('',*,*,#400,.F.);
#262=ORIENTED_EDGE('',*,*,#401,.F.);
#263=ORIENTED_EDGE('',*,*,#424,.F.);
#264=ORIENTED_EDGE('',*,*,#425,.T.);
#265=ORIENTED_EDGE('',*,*,#426,.T.);
#266=ORIENTED_EDGE('',*,*,#403,.F.);
#267=ORIENTED_EDGE('',*,*,#427,.T.);
#268=ORIENTED_EDGE('',*,*,#418,.F.);
#269=ORIENTED_EDGE('',*,*,#428,.T.);
#270=ORIENTED_EDGE('',*,*,#422,.T.);
#271=ORIENTED_EDGE('',*,*,#407,.T.);
#272=ORIENTED_EDGE('',*,*,#411,.T.);
#273=ORIENTED_EDGE('',*,*,#413,.F.);
#274=ORIENTED_EDGE('',*,*,#416,.F.);
#275=ORIENTED_EDGE('',*,*,#419,.F.);
#276=ORIENTED_EDGE('',*,*,#427,.F.);
#277=ORIENTED_EDGE('',*,*,#404,.F.);
#278=ORIENTED_EDGE('',*,*,#426,.F.);
#279=ORIENTED_EDGE('',*,*,#429,.F.);
#280=ORIENTED_EDGE('',*,*,#430,.T.);
#281=ORIENTED_EDGE('',*,*,#431,.F.);
#282=ORIENTED_EDGE('',*,*,#432,.T.);
#283=ORIENTED_EDGE('',*,*,#424,.T.);
#284=ORIENTED_EDGE('',*,*,#420,.T.);
#285=ORIENTED_EDGE('',*,*,#417,.T.);
#286=ORIENTED_EDGE('',*,*,#414,.T.);
#287=ORIENTED_EDGE('',*,*,#409,.F.);
#288=ORIENTED_EDGE('',*,*,#405,.F.);
#289=ORIENTED_EDGE('',*,*,#421,.F.);
#290=ORIENTED_EDGE('',*,*,#433,.F.);
#291=ORIENTED_EDGE('',*,*,#433,.T.);
#292=ORIENTED_EDGE('',*,*,#423,.T.);
#293=ORIENTED_EDGE('',*,*,#428,.F.);
#294=ORIENTED_EDGE('',*,*,#434,.F.);
#295=ORIENTED_EDGE('',*,*,#435,.T.);
#296=ORIENTED_EDGE('',*,*,#429,.T.);
#297=ORIENTED_EDGE('',*,*,#425,.F.);
#298=ORIENTED_EDGE('',*,*,#432,.F.);
#299=ORIENTED_EDGE('',*,*,#431,.T.);
#300=ORIENTED_EDGE('',*,*,#434,.T.);
#301=ORIENTED_EDGE('',*,*,#430,.F.);
#302=ORIENTED_EDGE('',*,*,#435,.F.);
#303=EDGE_CURVE('',#436,#437,#525,.T.);
#304=EDGE_CURVE('',#438,#436,#526,.T.);
#305=EDGE_CURVE('',#439,#438,#527,.T.);
#306=EDGE_CURVE('',#437,#439,#528,.T.);
#307=EDGE_CURVE('',#440,#441,#529,.T.);
#308=EDGE_CURVE('',#442,#440,#530,.T.);
#309=EDGE_CURVE('',#443,#442,#531,.T.);
#310=EDGE_CURVE('',#441,#443,#532,.T.);
#311=EDGE_CURVE('',#444,#445,#533,.T.);
#312=EDGE_CURVE('',#446,#444,#534,.T.);
#313=EDGE_CURVE('',#447,#446,#535,.T.);
#314=EDGE_CURVE('',#445,#447,#536,.T.);
#315=EDGE_CURVE('',#448,#449,#537,.T.);
#316=EDGE_CURVE('',#450,#448,#538,.T.);
#317=EDGE_CURVE('',#451,#450,#539,.T.);
#318=EDGE_CURVE('',#449,#451,#540,.T.);
#319=EDGE_CURVE('',#452,#453,#541,.T.);
#320=EDGE_CURVE('',#453,#452,#16,.T.);
#321=EDGE_CURVE('',#452,#454,#542,.T.);
#322=EDGE_CURVE('',#454,#455,#543,.T.);
#323=EDGE_CURVE('',#453,#455,#544,.T.);
#324=EDGE_CURVE('',#456,#454,#17,.T.);
#325=EDGE_CURVE('',#457,#456,#545,.T.);
#326=EDGE_CURVE('',#455,#457,#18,.T.);
#327=EDGE_CURVE('',#458,#459,#546,.T.);
#328=EDGE_CURVE('',#458,#457,#547,.T.);
#329=EDGE_CURVE('',#459,#456,#548,.T.);
#330=EDGE_CURVE('',#459,#458,#19,.T.);
#331=EDGE_CURVE('',#460,#461,#549,.T.);
#332=EDGE_CURVE('',#461,#460,#20,.T.);
#333=EDGE_CURVE('',#460,#462,#550,.T.);
#334=EDGE_CURVE('',#462,#463,#551,.T.);
#335=EDGE_CURVE('',#461,#463,#552,.T.);
#336=EDGE_CURVE('',#464,#462,#21,.T.);
#337=EDGE_CURVE('',#465,#464,#553,.T.);
#338=EDGE_CURVE('',#463,#465,#22,.T.);
#339=EDGE_CURVE('',#466,#467,#554,.T.);
#340=EDGE_CURVE('',#466,#465,#555,.T.);
#341=EDGE_CURVE('',#467,#464,#556,.T.);
#342=EDGE_CURVE('',#467,#466,#23,.T.);
#343=EDGE_CURVE('',#468,#469,#557,.T.);
#344=EDGE_CURVE('',#469,#468,#24,.T.);
#345=EDGE_CURVE('',#468,#470,#558,.T.);
#346=EDGE_CURVE('',#470,#471,#559,.T.);
#347=EDGE_CURVE('',#469,#471,#560,.T.);
#348=EDGE_CURVE('',#472,#470,#25,.T.);
#349=EDGE_CURVE('',#473,#472,#561,.T.);
#350=EDGE_CURVE('',#471,#473,#26,.T.);
#351=EDGE_CURVE('',#474,#475,#562,.T.);
#352=EDGE_CURVE('',#474,#473,#563,.T.);
#353=EDGE_CURVE('',#475,#472,#564,.T.);
#354=EDGE_CURVE('',#475,#474,#27,.T.);
#355=EDGE_CURVE('',#476,#477,#565,.T.);
#356=EDGE_CURVE('',#477,#476,#28,.T.);
#357=EDGE_CURVE('',#476,#478,#566,.T.);
#358=EDGE_CURVE('',#478,#479,#567,.T.);
#359=EDGE_CURVE('',#477,#479,#568,.T.);
#360=EDGE_CURVE('',#480,#478,#29,.T.);
#361=EDGE_CURVE('',#481,#480,#569,.T.);
#362=EDGE_CURVE('',#479,#481,#30,.T.);
#363=EDGE_CURVE('',#482,#483,#570,.T.);
#364=EDGE_CURVE('',#482,#481,#571,.T.);
#365=EDGE_CURVE('',#483,#480,#572,.T.);
#366=EDGE_CURVE('',#483,#482,#31,.T.);
#367=EDGE_CURVE('',#484,#439,#573,.T.);
#368=EDGE_CURVE('',#485,#438,#574,.T.);
#369=EDGE_CURVE('',#484,#485,#575,.T.);
#370=EDGE_CURVE('',#486,#437,#576,.T.);
#371=EDGE_CURVE('',#486,#484,#577,.T.);
#372=EDGE_CURVE('',#487,#436,#578,.T.);
#373=EDGE_CURVE('',#485,#487,#579,.T.);
#374=EDGE_CURVE('',#487,#486,#580,.T.);
#375=EDGE_CURVE('',#488,#443,#581,.T.);
#376=EDGE_CURVE('',#489,#442,#582,.T.);
#377=EDGE_CURVE('',#488,#489,#583,.T.);
#378=EDGE_CURVE('',#490,#441,#584,.T.);
#379=EDGE_CURVE('',#490,#488,#585,.T.);
#380=EDGE_CURVE('',#491,#440,#586,.T.);
#381=EDGE_CURVE('',#489,#491,#587,.T.);
#382=EDGE_CURVE('',#491,#490,#588,.T.);
#383=EDGE_CURVE('',#492,#447,#589,.T.);
#384=EDGE_CURVE('',#493,#446,#590,.T.);
#385=EDGE_CURVE('',#492,#493,#591,.T.);
#386=EDGE_CURVE('',#494,#445,#592,.T.);
#387=EDGE_CURVE('',#494,#492,#593,.T.);
#388=EDGE_CURVE('',#495,#444,#594,.T.);
#389=EDGE_CURVE('',#493,#495,#595,.T.);
#390=EDGE_CURVE('',#495,#494,#596,.T.);
#391=EDGE_CURVE('',#496,#449,#597,.T.);
#392=EDGE_CURVE('',#497,#451,#598,.T.);
#393=EDGE_CURVE('',#496,#497,#599,.T.);
#394=EDGE_CURVE('',#498,#450,#600,.T.);
#395=EDGE_CURVE('',#497,#498,#601,.T.);
#396=EDGE_CURVE('',#499,#448,#602,.T.);
#397=EDGE_CURVE('',#498,#499,#603,.T.);
#398=EDGE_CURVE('',#499,#496,#604,.T.);
#399=EDGE_CURVE('',#500,#500,#32,.T.);
#400=EDGE_CURVE('',#501,#501,#33,.T.);
#401=EDGE_CURVE('',#502,#502,#34,.T.);
#402=EDGE_CURVE('',#503,#504,#35,.T.);
#403=EDGE_CURVE('',#504,#503,#36,.T.);
#404=EDGE_CURVE('',#503,#504,#605,.T.);
#405=EDGE_CURVE('',#505,#506,#606,.T.);
#406=EDGE_CURVE('',#506,#507,#607,.T.);
#407=EDGE_CURVE('',#508,#507,#608,.T.);
#408=EDGE_CURVE('',#505,#508,#609,.T.);
#409=EDGE_CURVE('',#506,#509,#610,.T.);
#410=EDGE_CURVE('',#509,#510,#611,.T.);
#411=EDGE_CURVE('',#507,#510,#612,.T.);
#412=EDGE_CURVE('',#511,#512,#613,.T.);
#413=EDGE_CURVE('',#512,#510,#614,.T.);
#414=EDGE_CURVE('',#511,#509,#615,.T.);
#415=EDGE_CURVE('',#513,#514,#616,.T.);
#416=EDGE_CURVE('',#514,#512,#617,.T.);
#417=EDGE_CURVE('',#513,#511,#618,.T.);
#418=EDGE_CURVE('',#515,#516,#619,.T.);
#419=EDGE_CURVE('',#516,#514,#620,.T.);
#420=EDGE_CURVE('',#515,#513,#621,.T.);
#421=EDGE_CURVE('',#517,#505,#622,.T.);
#422=EDGE_CURVE('',#518,#508,#623,.T.);
#423=EDGE_CURVE('',#517,#518,#624,.T.);
#424=EDGE_CURVE('',#519,#515,#625,.T.);
#425=EDGE_CURVE('',#519,#520,#626,.T.);
#426=EDGE_CURVE('',#520,#503,#627,.T.);
#427=EDGE_CURVE('',#504,#516,#628,.T.);
#428=EDGE_CURVE('',#521,#518,#629,.T.);
#429=EDGE_CURVE('',#522,#520,#630,.T.);
#430=EDGE_CURVE('',#522,#521,#631,.T.);
#431=EDGE_CURVE('',#523,#524,#632,.T.);
#432=EDGE_CURVE('',#523,#519,#633,.T.);
#433=EDGE_CURVE('',#524,#517,#634,.T.);
#434=EDGE_CURVE('',#524,#521,#635,.T.);
#435=EDGE_CURVE('',#523,#522,#636,.T.);
#436=VERTEX_POINT('',#1359);
#437=VERTEX_POINT('',#1360);
#438=VERTEX_POINT('',#1362);
#439=VERTEX_POINT('',#1364);
#440=VERTEX_POINT('',#1368);
#441=VERTEX_POINT('',#1369);
#442=VERTEX_POINT('',#1371);
#443=VERTEX_POINT('',#1373);
#444=VERTEX_POINT('',#1377);
#445=VERTEX_POINT('',#1378);
#446=VERTEX_POINT('',#1380);
#447=VERTEX_POINT('',#1382);
#448=VERTEX_POINT('',#1386);
#449=VERTEX_POINT('',#1387);
#450=VERTEX_POINT('',#1389);
#451=VERTEX_POINT('',#1391);
#452=VERTEX_POINT('',#1395);
#453=VERTEX_POINT('',#1396);
#454=VERTEX_POINT('',#1400);
#455=VERTEX_POINT('',#1402);
#456=VERTEX_POINT('',#1406);
#457=VERTEX_POINT('',#1408);
#458=VERTEX_POINT('',#1412);
#459=VERTEX_POINT('',#1413);
#460=VERTEX_POINT('',#1420);
#461=VERTEX_POINT('',#1421);
#462=VERTEX_POINT('',#1425);
#463=VERTEX_POINT('',#1427);
#464=VERTEX_POINT('',#1431);
#465=VERTEX_POINT('',#1433);
#466=VERTEX_POINT('',#1437);
#467=VERTEX_POINT('',#1438);
#468=VERTEX_POINT('',#1445);
#469=VERTEX_POINT('',#1446);
#470=VERTEX_POINT('',#1450);
#471=VERTEX_POINT('',#1452);
#472=VERTEX_POINT('',#1456);
#473=VERTEX_POINT('',#1458);
#474=VERTEX_POINT('',#1462);
#475=VERTEX_POINT('',#1463);
#476=VERTEX_POINT('',#1470);
#477=VERTEX_POINT('',#1471);
#478=VERTEX_POINT('',#1475);
#479=VERTEX_POINT('',#1477);
#480=VERTEX_POINT('',#1481);
#481=VERTEX_POINT('',#1483);
#482=VERTEX_POINT('',#1487);
#483=VERTEX_POINT('',#1488);
#484=VERTEX_POINT('',#1495);
#485=VERTEX_POINT('',#1497);
#486=VERTEX_POINT('',#1501);
#487=VERTEX_POINT('',#1505);
#488=VERTEX_POINT('',#1511);
#489=VERTEX_POINT('',#1513);
#490=VERTEX_POINT('',#1517);
#491=VERTEX_POINT('',#1521);
#492=VERTEX_POINT('',#1527);
#493=VERTEX_POINT('',#1529);
#494=VERTEX_POINT('',#1533);
#495=VERTEX_POINT('',#1537);
#496=VERTEX_POINT('',#1543);
#497=VERTEX_POINT('',#1545);
#498=VERTEX_POINT('',#1549);
#499=VERTEX_POINT('',#1553);
#500=VERTEX_POINT('',#1559);
#501=VERTEX_POINT('',#1562);
#502=VERTEX_POINT('',#1565);
#503=VERTEX_POINT('',#1568);
#504=VERTEX_POINT('',#1569);
#505=VERTEX_POINT('',#1575);
#506=VERTEX_POINT('',#1576);
#507=VERTEX_POINT('',#1578);
#508=VERTEX_POINT('',#1580);
#509=VERTEX_POINT('',#1584);
#510=VERTEX_POINT('',#1586);
#511=VERTEX_POINT('',#1590);
#512=VERTEX_POINT('',#1591);
#513=VERTEX_POINT('',#1596);
#514=VERTEX_POINT('',#1597);
#515=VERTEX_POINT('',#1602);
#516=VERTEX_POINT('',#1603);
#517=VERTEX_POINT('',#1608);
#518=VERTEX_POINT('',#1610);
#519=VERTEX_POINT('',#1614);
#520=VERTEX_POINT('',#1616);
#521=VERTEX_POINT('',#1621);
#522=VERTEX_POINT('',#1623);
#523=VERTEX_POINT('',#1627);
#524=VERTEX_POINT('',#1628);
#525=LINE('',#1358,#637);
#526=LINE('',#1361,#638);
#527=LINE('',#1363,#639);
#528=LINE('',#1365,#640);
#529=LINE('',#1367,#641);
#530=LINE('',#1370,#642);
#531=LINE('',#1372,#643);
#532=LINE('',#1374,#644);
#533=LINE('',#1376,#645);
#534=LINE('',#1379,#646);
#535=LINE('',#1381,#647);
#536=LINE('',#1383,#648);
#537=LINE('',#1385,#649);
#538=LINE('',#1388,#650);
#539=LINE('',#1390,#651);
#540=LINE('',#1392,#652);
#541=LINE('',#1394,#653);
#542=LINE('',#1399,#654);
#543=LINE('',#1401,#655);
#544=LINE('',#1403,#656);
#545=LINE('',#1407,#657);
#546=LINE('',#1411,#658);
#547=LINE('',#1414,#659);
#548=LINE('',#1415,#660);
#549=LINE('',#1419,#661);
#550=LINE('',#1424,#662);
#551=LINE('',#1426,#663);
#552=LINE('',#1428,#664);
#553=LINE('',#1432,#665);
#554=LINE('',#1436,#666);
#555=LINE('',#1439,#667);
#556=LINE('',#1440,#668);
#557=LINE('',#1444,#669);
#558=LINE('',#1449,#670);
#559=LINE('',#1451,#671);
#560=LINE('',#1453,#672);
#561=LINE('',#1457,#673);
#562=LINE('',#1461,#674);
#563=LINE('',#1464,#675);
#564=LINE('',#1465,#676);
#565=LINE('',#1469,#677);
#566=LINE('',#1474,#678);
#567=LINE('',#1476,#679);
#568=LINE('',#1478,#680);
#569=LINE('',#1482,#681);
#570=LINE('',#1486,#682);
#571=LINE('',#1489,#683);
#572=LINE('',#1490,#684);
#573=LINE('',#1494,#685);
#574=LINE('',#1496,#686);
#575=LINE('',#1498,#687);
#576=LINE('',#1500,#688);
#577=LINE('',#1502,#689);
#578=LINE('',#1504,#690);
#579=LINE('',#1506,#691);
#580=LINE('',#1508,#692);
#581=LINE('',#1510,#693);
#582=LINE('',#1512,#694);
#583=LINE('',#1514,#695);
#584=LINE('',#1516,#696);
#585=LINE('',#1518,#697);
#586=LINE('',#1520,#698);
#587=LINE('',#1522,#699);
#588=LINE('',#1524,#700);
#589=LINE('',#1526,#701);
#590=LINE('',#1528,#702);
#591=LINE('',#1530,#703);
#592=LINE('',#1532,#704);
#593=LINE('',#1534,#705);
#594=LINE('',#1536,#706);
#595=LINE('',#1538,#707);
#596=LINE('',#1540,#708);
#597=LINE('',#1542,#709);
#598=LINE('',#1544,#710);
#599=LINE('',#1546,#711);
#600=LINE('',#1548,#712);
#601=LINE('',#1550,#713);
#602=LINE('',#1552,#714);
#603=LINE('',#1554,#715);
#604=LINE('',#1556,#716);
#605=LINE('',#1572,#717);
#606=LINE('',#1574,#718);
#607=LINE('',#1577,#719);
#608=LINE('',#1579,#720);
#609=LINE('',#1581,#721);
#610=LINE('',#1583,#722);
#611=LINE('',#1585,#723);
#612=LINE('',#1587,#724);
#613=LINE('',#1589,#725);
#614=LINE('',#1592,#726);
#615=LINE('',#1593,#727);
#616=LINE('',#1595,#728);
#617=LINE('',#1598,#729);
#618=LINE('',#1599,#730);
#619=LINE('',#1601,#731);
#620=LINE('',#1604,#732);
#621=LINE('',#1605,#733);
#622=LINE('',#1607,#734);
#623=LINE('',#1609,#735);
#624=LINE('',#1611,#736);
#625=LINE('',#1613,#737);
#626=LINE('',#1615,#738);
#627=LINE('',#1617,#739);
#628=LINE('',#1618,#740);
#629=LINE('',#1620,#741);
#630=LINE('',#1622,#742);
#631=LINE('',#1624,#743);
#632=LINE('',#1626,#744);
#633=LINE('',#1629,#745);
#634=LINE('',#1630,#746);
#635=LINE('',#1632,#747);
#636=LINE('',#1634,#748);
#637=VECTOR('',#1090,1.);
#638=VECTOR('',#1091,1.);
#639=VECTOR('',#1092,1.);
#640=VECTOR('',#1093,1.);
#641=VECTOR('',#1096,1.);
#642=VECTOR('',#1097,1.);
#643=VECTOR('',#1098,1.);
#644=VECTOR('',#1099,1.);
#645=VECTOR('',#1102,1.);
#646=VECTOR('',#1103,1.);
#647=VECTOR('',#1104,1.);
#648=VECTOR('',#1105,1.);
#649=VECTOR('',#1108,1.);
#650=VECTOR('',#1109,1.);
#651=VECTOR('',#1110,1.);
#652=VECTOR('',#1111,1.);
#653=VECTOR('',#1114,1.);
#654=VECTOR('',#1119,1.);
#655=VECTOR('',#1120,1.);
#656=VECTOR('',#1121,1.);
#657=VECTOR('',#1126,1.);
#658=VECTOR('',#1131,1.);
#659=VECTOR('',#1132,1.);
#660=VECTOR('',#1133,1.);
#661=VECTOR('',#1140,1.);
#662=VECTOR('',#1145,1.);
#663=VECTOR('',#1146,1.);
#664=VECTOR('',#1147,1.);
#665=VECTOR('',#1152,1.);
#666=VECTOR('',#1157,1.);
#667=VECTOR('',#1158,1.);
#668=VECTOR('',#1159,1.);
#669=VECTOR('',#1166,1.);
#670=VECTOR('',#1171,1.);
#671=VECTOR('',#1172,1.);
#672=VECTOR('',#1173,1.);
#673=VECTOR('',#1178,1.);
#674=VECTOR('',#1183,1.);
#675=VECTOR('',#1184,1.);
#676=VECTOR('',#1185,1.);
#677=VECTOR('',#1192,1.);
#678=VECTOR('',#1197,1.);
#679=VECTOR('',#1198,1.);
#680=VECTOR('',#1199,1.);
#681=VECTOR('',#1204,1.);
#682=VECTOR('',#1209,1.);
#683=VECTOR('',#1210,1.);
#684=VECTOR('',#1211,1.);
#685=VECTOR('',#1218,1.);
#686=VECTOR('',#1219,1.);
#687=VECTOR('',#1220,1.);
#688=VECTOR('',#1223,1.);
#689=VECTOR('',#1224,1.);
#690=VECTOR('',#1227,1.);
#691=VECTOR('',#1228,1.);
#692=VECTOR('',#1231,1.);
#693=VECTOR('',#1234,1.);
#694=VECTOR('',#1235,1.);
#695=VECTOR('',#1236,1.);
#696=VECTOR('',#1239,1.);
#697=VECTOR('',#1240,1.);
#698=VECTOR('',#1243,1.);
#699=VECTOR('',#1244,1.);
#700=VECTOR('',#1247,1.);
#701=VECTOR('',#1250,1.);
#702=VECTOR('',#1251,1.);
#703=VECTOR('',#1252,1.);
#704=VECTOR('',#1255,1.);
#705=VECTOR('',#1256,1.);
#706=VECTOR('',#1259,1.);
#707=VECTOR('',#1260,1.);
#708=VECTOR('',#1263,1.);
#709=VECTOR('',#1266,1.);
#710=VECTOR('',#1267,1.);
#711=VECTOR('',#1268,1.);
#712=VECTOR('',#1271,1.);
#713=VECTOR('',#1272,1.);
#714=VECTOR('',#1275,1.);
#715=VECTOR('',#1276,1.);
#716=VECTOR('',#1279,1.);
#717=VECTOR('',#1300,1.);
#718=VECTOR('',#1303,1.);
#719=VECTOR('',#1304,1.);
#720=VECTOR('',#1305,1.);
#721=VECTOR('',#1306,1.);
#722=VECTOR('',#1309,1.);
#723=VECTOR('',#1310,1.);
#724=VECTOR('',#1311,1.);
#725=VECTOR('',#1314,1.);
#726=VECTOR('',#1315,1.);
#727=VECTOR('',#1316,1.);
#728=VECTOR('',#1319,1.);
#729=VECTOR('',#1320,1.);
#730=VECTOR('',#1321,1.);
#731=VECTOR('',#1324,1.);
#732=VECTOR('',#1325,1.);
#733=VECTOR('',#1326,1.);
#734=VECTOR('',#1329,1.);
#735=VECTOR('',#1330,1.);
#736=VECTOR('',#1331,1.);
#737=VECTOR('',#1334,1.);
#738=VECTOR('',#1335,1.);
#739=VECTOR('',#1336,1.);
#740=VECTOR('',#1337,1.);
#741=VECTOR('',#1340,1.);
#742=VECTOR('',#1341,1.);
#743=VECTOR('',#1342,1.);
#744=VECTOR('',#1345,1.);
#745=VECTOR('',#1346,1.);
#746=VECTOR('',#1347,1.);
#747=VECTOR('',#1350,1.);
#748=VECTOR('',#1353,1.);
#749=EDGE_LOOP('',(#37,#38,#39,#40));
#750=EDGE_LOOP('',(#41,#42,#43,#44));
#751=EDGE_LOOP('',(#45,#46,#47,#48));
#752=EDGE_LOOP('',(#49,#50,#51,#52));
#753=EDGE_LOOP('',(#53,#54));
#754=EDGE_LOOP('',(#55,#56,#57,#58));
#755=EDGE_LOOP('',(#59,#60,#61,#62));
#756=EDGE_LOOP('',(#63,#64,#65,#66));
#757=EDGE_LOOP('',(#67,#68));
#758=EDGE_LOOP('',(#69,#70));
#759=EDGE_LOOP('',(#71,#72,#73,#74));
#760=EDGE_LOOP('',(#75,#76,#77,#78));
#761=EDGE_LOOP('',(#79,#80,#81,#82));
#762=EDGE_LOOP('',(#83,#84));
#763=EDGE_LOOP('',(#85,#86));
#764=EDGE_LOOP('',(#87,#88,#89,#90));
#765=EDGE_LOOP('',(#91,#92,#93,#94));
#766=EDGE_LOOP('',(#95,#96,#97,#98));
#767=EDGE_LOOP('',(#99,#100));
#768=EDGE_LOOP('',(#101,#102));
#769=EDGE_LOOP('',(#103,#104,#105,#106));
#770=EDGE_LOOP('',(#107,#108,#109,#110));
#771=EDGE_LOOP('',(#111,#112,#113,#114));
#772=EDGE_LOOP('',(#115,#116));
#773=EDGE_LOOP('',(#117,#118,#119,#120));
#774=EDGE_LOOP('',(#121,#122,#123,#124));
#775=EDGE_LOOP('',(#125,#126,#127,#128));
#776=EDGE_LOOP('',(#129,#130,#131,#132));
#777=EDGE_LOOP('',(#133,#134,#135,#136));
#778=EDGE_LOOP('',(#137,#138,#139,#140));
#779=EDGE_LOOP('',(#141,#142,#143,#144));
#780=EDGE_LOOP('',(#145,#146,#147,#148));
#781=EDGE_LOOP('',(#149,#150,#151,#152));
#782=EDGE_LOOP('',(#153,#154,#155,#156));
#783=EDGE_LOOP('',(#157,#158,#159,#160));
#784=EDGE_LOOP('',(#161,#162,#163,#164));
#785=EDGE_LOOP('',(#165,#166,#167,#168));
#786=EDGE_LOOP('',(#169,#170,#171,#172));
#787=EDGE_LOOP('',(#173,#174,#175,#176));
#788=EDGE_LOOP('',(#177,#178,#179,#180));
#789=EDGE_LOOP('',(#181,#182,#183,#184,#185,#186,#187,#188));
#790=EDGE_LOOP('',(#189));
#791=EDGE_LOOP('',(#190,#191,#192,#193,#194,#195,#196,#197));
#792=EDGE_LOOP('',(#198));
#793=EDGE_LOOP('',(#199,#200,#201,#202,#203,#204,#205,#206));
#794=EDGE_LOOP('',(#207));
#795=EDGE_LOOP('',(#208,#209,#210,#211,#212,#213,#214,#215));
#796=EDGE_LOOP('',(#216,#217));
#797=EDGE_LOOP('',(#218,#219));
#798=EDGE_LOOP('',(#220,#221,#222,#223));
#799=EDGE_LOOP('',(#224,#225,#226,#227));
#800=EDGE_LOOP('',(#228,#229,#230,#231));
#801=EDGE_LOOP('',(#232,#233,#234,#235));
#802=EDGE_LOOP('',(#236,#237,#238,#239));
#803=EDGE_LOOP('',(#240,#241,#242,#243));
#804=EDGE_LOOP('',(#244,#245,#246,#247));
#805=EDGE_LOOP('',(#248,#249,#250,#251));
#806=EDGE_LOOP('',(#252,#253,#254,#255));
#807=EDGE_LOOP('',(#256,#257,#258,#259));
#808=EDGE_LOOP('',(#260));
#809=EDGE_LOOP('',(#261));
#810=EDGE_LOOP('',(#262));
#811=EDGE_LOOP('',(#263,#264,#265,#266,#267,#268));
#812=EDGE_LOOP('',(#269,#270,#271,#272,#273,#274,#275,#276,#277,#278,#279,
#280));
#813=EDGE_LOOP('',(#281,#282,#283,#284,#285,#286,#287,#288,#289,#290));
#814=EDGE_LOOP('',(#291,#292,#293,#294));
#815=EDGE_LOOP('',(#295,#296,#297,#298));
#816=EDGE_LOOP('',(#299,#300,#301,#302));
#817=FACE_BOUND('',#749,.T.);
#818=FACE_BOUND('',#750,.T.);
#819=FACE_BOUND('',#751,.T.);
#820=FACE_BOUND('',#752,.T.);
#821=FACE_BOUND('',#753,.T.);
#822=FACE_BOUND('',#754,.T.);
#823=FACE_BOUND('',#755,.T.);
#824=FACE_BOUND('',#756,.T.);
#825=FACE_BOUND('',#757,.T.);
#826=FACE_BOUND('',#758,.T.);
#827=FACE_BOUND('',#759,.T.);
#828=FACE_BOUND('',#760,.T.);
#829=FACE_BOUND('',#761,.T.);
#830=FACE_BOUND('',#762,.T.);
#831=FACE_BOUND('',#763,.T.);
#832=FACE_BOUND('',#764,.T.);
#833=FACE_BOUND('',#765,.T.);
#834=FACE_BOUND('',#766,.T.);
#835=FACE_BOUND('',#767,.T.);
#836=FACE_BOUND('',#768,.T.);
#837=FACE_BOUND('',#769,.T.);
#838=FACE_BOUND('',#770,.T.);
#839=FACE_BOUND('',#771,.T.);
#840=FACE_BOUND('',#772,.T.);
#841=FACE_BOUND('',#773,.T.);
#842=FACE_BOUND('',#774,.T.);
#843=FACE_BOUND('',#775,.T.);
#844=FACE_BOUND('',#776,.T.);
#845=FACE_BOUND('',#777,.T.);
#846=FACE_BOUND('',#778,.T.);
#847=FACE_BOUND('',#779,.T.);
#848=FACE_BOUND('',#780,.T.);
#849=FACE_BOUND('',#781,.T.);
#850=FACE_BOUND('',#782,.T.);
#851=FACE_BOUND('',#783,.T.);
#852=FACE_BOUND('',#784,.T.);
#853=FACE_BOUND('',#785,.T.);
#854=FACE_BOUND('',#786,.T.);
#855=FACE_BOUND('',#787,.T.);
#856=FACE_BOUND('',#788,.T.);
#857=FACE_BOUND('',#789,.T.);
#858=FACE_BOUND('',#790,.T.);
#859=FACE_BOUND('',#791,.T.);
#860=FACE_BOUND('',#792,.T.);
#861=FACE_BOUND('',#793,.T.);
#862=FACE_BOUND('',#794,.T.);
#863=FACE_BOUND('',#795,.T.);
#864=FACE_BOUND('',#796,.T.);
#865=FACE_BOUND('',#797,.T.);
#866=FACE_BOUND('',#798,.T.);
#867=FACE_BOUND('',#799,.T.);
#868=FACE_BOUND('',#800,.T.);
#869=FACE_BOUND('',#801,.T.);
#870=FACE_BOUND('',#802,.T.);
#871=FACE_BOUND('',#803,.T.);
#872=FACE_BOUND('',#804,.T.);
#873=FACE_BOUND('',#805,.T.);
#874=FACE_BOUND('',#806,.T.);
#875=FACE_BOUND('',#807,.T.);
#876=FACE_BOUND('',#808,.T.);
#877=FACE_BOUND('',#809,.T.);
#878=FACE_BOUND('',#810,.T.);
#879=FACE_BOUND('',#811,.T.);
#880=FACE_BOUND('',#812,.T.);
#881=FACE_BOUND('',#813,.T.);
#882=FACE_BOUND('',#814,.T.);
#883=FACE_BOUND('',#815,.T.);
#884=FACE_BOUND('',#816,.T.);
#885=PLANE('',#1008);
#886=PLANE('',#1009);
#887=PLANE('',#1010);
#888=PLANE('',#1011);
#889=PLANE('',#1012);
#890=PLANE('',#1014);
#891=PLANE('',#1015);
#892=PLANE('',#1018);
#893=PLANE('',#1019);
#894=PLANE('',#1021);
#895=PLANE('',#1023);
#896=PLANE('',#1024);
#897=PLANE('',#1027);
#898=PLANE('',#1028);
#899=PLANE('',#1030);
#900=PLANE('',#1032);
#901=PLANE('',#1033);
#902=PLANE('',#1036);
#903=PLANE('',#1037);
#904=PLANE('',#1039);
#905=PLANE('',#1041);
#906=PLANE('',#1042);
#907=PLANE('',#1045);
#908=PLANE('',#1046);
#909=PLANE('',#1048);
#910=PLANE('',#1049);
#911=PLANE('',#1050);
#912=PLANE('',#1051);
#913=PLANE('',#1052);
#914=PLANE('',#1053);
#915=PLANE('',#1054);
#916=PLANE('',#1055);
#917=PLANE('',#1056);
#918=PLANE('',#1057);
#919=PLANE('',#1058);
#920=PLANE('',#1059);
#921=PLANE('',#1060);
#922=PLANE('',#1061);
#923=PLANE('',#1062);
#924=PLANE('',#1063);
#925=PLANE('',#1073);
#926=PLANE('',#1074);
#927=PLANE('',#1075);
#928=PLANE('',#1076);
#929=PLANE('',#1077);
#930=PLANE('',#1078);
#931=PLANE('',#1079);
#932=PLANE('',#1080);
#933=PLANE('',#1081);
#934=PLANE('',#1082);
#935=PLANE('',#1083);
#936=PLANE('',#1084);
#937=PLANE('',#1085);
#938=ADVANCED_FACE('',(#817),#885,.F.);
#939=ADVANCED_FACE('',(#818),#886,.F.);
#940=ADVANCED_FACE('',(#819),#887,.F.);
#941=ADVANCED_FACE('',(#820),#888,.F.);
#942=ADVANCED_FACE('',(#821),#889,.T.);
#943=ADVANCED_FACE('',(#822),#890,.F.);
#944=ADVANCED_FACE('',(#823),#891,.F.);
#945=ADVANCED_FACE('',(#824),#892,.F.);
#946=ADVANCED_FACE('',(#825),#893,.T.);
#947=ADVANCED_FACE('',(#826),#894,.T.);
#948=ADVANCED_FACE('',(#827),#895,.F.);
#949=ADVANCED_FACE('',(#828),#896,.F.);
#950=ADVANCED_FACE('',(#829),#897,.F.);
#951=ADVANCED_FACE('',(#830),#898,.T.);
#952=ADVANCED_FACE('',(#831),#899,.T.);
#953=ADVANCED_FACE('',(#832),#900,.F.);
#954=ADVANCED_FACE('',(#833),#901,.F.);
#955=ADVANCED_FACE('',(#834),#902,.F.);
#956=ADVANCED_FACE('',(#835),#903,.T.);
#957=ADVANCED_FACE('',(#836),#904,.T.);
#958=ADVANCED_FACE('',(#837),#905,.F.);
#959=ADVANCED_FACE('',(#838),#906,.F.);
#960=ADVANCED_FACE('',(#839),#907,.F.);
#961=ADVANCED_FACE('',(#840),#908,.T.);
#962=ADVANCED_FACE('',(#841),#909,.T.);
#963=ADVANCED_FACE('',(#842),#910,.T.);
#964=ADVANCED_FACE('',(#843),#911,.T.);
#965=ADVANCED_FACE('',(#844),#912,.T.);
#966=ADVANCED_FACE('',(#845),#913,.T.);
#967=ADVANCED_FACE('',(#846),#914,.T.);
#968=ADVANCED_FACE('',(#847),#915,.T.);
#969=ADVANCED_FACE('',(#848),#916,.T.);
#970=ADVANCED_FACE('',(#849),#917,.T.);
#971=ADVANCED_FACE('',(#850),#918,.T.);
#972=ADVANCED_FACE('',(#851),#919,.T.);
#973=ADVANCED_FACE('',(#852),#920,.T.);
#974=ADVANCED_FACE('',(#853),#921,.T.);
#975=ADVANCED_FACE('',(#854),#922,.T.);
#976=ADVANCED_FACE('',(#855),#923,.T.);
#977=ADVANCED_FACE('',(#856),#924,.T.);
#978=ADVANCED_FACE('',(#857,#858),#12,.T.);
#979=ADVANCED_FACE('',(#859,#860),#13,.T.);
#980=ADVANCED_FACE('',(#861,#862),#14,.T.);
#981=ADVANCED_FACE('',(#863,#864),#15,.T.);
#982=ADVANCED_FACE('',(#865),#925,.F.);
#983=ADVANCED_FACE('',(#866),#926,.F.);
#984=ADVANCED_FACE('',(#867),#927,.F.);
#985=ADVANCED_FACE('',(#868,#869,#870,#871,#872),#928,.T.);
#986=ADVANCED_FACE('',(#873),#929,.T.);
#987=ADVANCED_FACE('',(#874),#930,.T.);
#988=ADVANCED_FACE('',(#875),#931,.F.);
#989=ADVANCED_FACE('',(#876,#877,#878,#879),#932,.T.);
#990=ADVANCED_FACE('',(#880),#933,.F.);
#991=ADVANCED_FACE('',(#881),#934,.T.);
#992=ADVANCED_FACE('',(#882),#935,.F.);
#993=ADVANCED_FACE('',(#883),#936,.T.);
#994=ADVANCED_FACE('',(#884),#937,.F.);
#995=CLOSED_SHELL('',(#938,#939,#940,#941,#942,#943,#944,#945,#946,#947,
#948,#949,#950,#951,#952,#953,#954,#955,#956,#957,#958,#959,#960,#961,#962,
#963,#964,#965,#966,#967,#968,#969,#970,#971,#972,#973,#974,#975,#976,#977,
#978,#979,#980,#981,#982,#983,#984,#985,#986,#987,#988,#989,#990,#991,#992,
#993,#994));
#996=STYLED_ITEM('',(#997),#1004);
#997=PRESENTATION_STYLE_ASSIGNMENT((#998));
#998=SURFACE_STYLE_USAGE(.BOTH.,#999);
#999=SURFACE_SIDE_STYLE('',(#1000));
#1000=SURFACE_STYLE_FILL_AREA(#1001);
#1001=FILL_AREA_STYLE('',(#1002));
#1002=FILL_AREA_STYLE_COLOUR('',#1003);
#1003=COLOUR_RGB('',0.345098039215687,0.345098039215687,0.345098039215687);
#1004=MANIFOLD_SOLID_BREP('Housing',#995);
#1005=SHAPE_DEFINITION_REPRESENTATION(#1642,#1006);
#1006=SHAPE_REPRESENTATION('Housing',(#1007),#1637);
#1007=AXIS2_PLACEMENT_3D('',#1356,#1086,#1087);
#1008=AXIS2_PLACEMENT_3D('',#1357,#1088,#1089);
#1009=AXIS2_PLACEMENT_3D('',#1366,#1094,#1095);
#1010=AXIS2_PLACEMENT_3D('',#1375,#1100,#1101);
#1011=AXIS2_PLACEMENT_3D('',#1384,#1106,#1107);
#1012=AXIS2_PLACEMENT_3D('',#1393,#1112,#1113);
#1013=AXIS2_PLACEMENT_3D('',#1397,#1115,#1116);
#1014=AXIS2_PLACEMENT_3D('',#1398,#1117,#1118);
#1015=AXIS2_PLACEMENT_3D('',#1404,#1122,#1123);
#1016=AXIS2_PLACEMENT_3D('',#1405,#1124,#1125);
#1017=AXIS2_PLACEMENT_3D('',#1409,#1127,#1128);
#1018=AXIS2_PLACEMENT_3D('',#1410,#1129,#1130);
#1019=AXIS2_PLACEMENT_3D('',#1416,#1134,#1135);
#1020=AXIS2_PLACEMENT_3D('',#1417,#1136,#1137);
#1021=AXIS2_PLACEMENT_3D('',#1418,#1138,#1139);
#1022=AXIS2_PLACEMENT_3D('',#1422,#1141,#1142);
#1023=AXIS2_PLACEMENT_3D('',#1423,#1143,#1144);
#1024=AXIS2_PLACEMENT_3D('',#1429,#1148,#1149);
#1025=AXIS2_PLACEMENT_3D('',#1430,#1150,#1151);
#1026=AXIS2_PLACEMENT_3D('',#1434,#1153,#1154);
#1027=AXIS2_PLACEMENT_3D('',#1435,#1155,#1156);
#1028=AXIS2_PLACEMENT_3D('',#1441,#1160,#1161);
#1029=AXIS2_PLACEMENT_3D('',#1442,#1162,#1163);
#1030=AXIS2_PLACEMENT_3D('',#1443,#1164,#1165);
#1031=AXIS2_PLACEMENT_3D('',#1447,#1167,#1168);
#1032=AXIS2_PLACEMENT_3D('',#1448,#1169,#1170);
#1033=AXIS2_PLACEMENT_3D('',#1454,#1174,#1175);
#1034=AXIS2_PLACEMENT_3D('',#1455,#1176,#1177);
#1035=AXIS2_PLACEMENT_3D('',#1459,#1179,#1180);
#1036=AXIS2_PLACEMENT_3D('',#1460,#1181,#1182);
#1037=AXIS2_PLACEMENT_3D('',#1466,#1186,#1187);
#1038=AXIS2_PLACEMENT_3D('',#1467,#1188,#1189);
#1039=AXIS2_PLACEMENT_3D('',#1468,#1190,#1191);
#1040=AXIS2_PLACEMENT_3D('',#1472,#1193,#1194);
#1041=AXIS2_PLACEMENT_3D('',#1473,#1195,#1196);
#1042=AXIS2_PLACEMENT_3D('',#1479,#1200,#1201);
#1043=AXIS2_PLACEMENT_3D('',#1480,#1202,#1203);
#1044=AXIS2_PLACEMENT_3D('',#1484,#1205,#1206);
#1045=AXIS2_PLACEMENT_3D('',#1485,#1207,#1208);
#1046=AXIS2_PLACEMENT_3D('',#1491,#1212,#1213);
#1047=AXIS2_PLACEMENT_3D('',#1492,#1214,#1215);
#1048=AXIS2_PLACEMENT_3D('',#1493,#1216,#1217);
#1049=AXIS2_PLACEMENT_3D('',#1499,#1221,#1222);
#1050=AXIS2_PLACEMENT_3D('',#1503,#1225,#1226);
#1051=AXIS2_PLACEMENT_3D('',#1507,#1229,#1230);
#1052=AXIS2_PLACEMENT_3D('',#1509,#1232,#1233);
#1053=AXIS2_PLACEMENT_3D('',#1515,#1237,#1238);
#1054=AXIS2_PLACEMENT_3D('',#1519,#1241,#1242);
#1055=AXIS2_PLACEMENT_3D('',#1523,#1245,#1246);
#1056=AXIS2_PLACEMENT_3D('',#1525,#1248,#1249);
#1057=AXIS2_PLACEMENT_3D('',#1531,#1253,#1254);
#1058=AXIS2_PLACEMENT_3D('',#1535,#1257,#1258);
#1059=AXIS2_PLACEMENT_3D('',#1539,#1261,#1262);
#1060=AXIS2_PLACEMENT_3D('',#1541,#1264,#1265);
#1061=AXIS2_PLACEMENT_3D('',#1547,#1269,#1270);
#1062=AXIS2_PLACEMENT_3D('',#1551,#1273,#1274);
#1063=AXIS2_PLACEMENT_3D('',#1555,#1277,#1278);
#1064=AXIS2_PLACEMENT_3D('',#1557,#1280,#1281);
#1065=AXIS2_PLACEMENT_3D('',#1558,#1282,#1283);
#1066=AXIS2_PLACEMENT_3D('',#1560,#1284,#1285);
#1067=AXIS2_PLACEMENT_3D('',#1561,#1286,#1287);
#1068=AXIS2_PLACEMENT_3D('',#1563,#1288,#1289);
#1069=AXIS2_PLACEMENT_3D('',#1564,#1290,#1291);
#1070=AXIS2_PLACEMENT_3D('',#1566,#1292,#1293);
#1071=AXIS2_PLACEMENT_3D('',#1567,#1294,#1295);
#1072=AXIS2_PLACEMENT_3D('',#1570,#1296,#1297);
#1073=AXIS2_PLACEMENT_3D('',#1571,#1298,#1299);
#1074=AXIS2_PLACEMENT_3D('',#1573,#1301,#1302);
#1075=AXIS2_PLACEMENT_3D('',#1582,#1307,#1308);
#1076=AXIS2_PLACEMENT_3D('',#1588,#1312,#1313);
#1077=AXIS2_PLACEMENT_3D('',#1594,#1317,#1318);
#1078=AXIS2_PLACEMENT_3D('',#1600,#1322,#1323);
#1079=AXIS2_PLACEMENT_3D('',#1606,#1327,#1328);
#1080=AXIS2_PLACEMENT_3D('',#1612,#1332,#1333);
#1081=AXIS2_PLACEMENT_3D('',#1619,#1338,#1339);
#1082=AXIS2_PLACEMENT_3D('',#1625,#1343,#1344);
#1083=AXIS2_PLACEMENT_3D('',#1631,#1348,#1349);
#1084=AXIS2_PLACEMENT_3D('',#1633,#1351,#1352);
#1085=AXIS2_PLACEMENT_3D('',#1635,#1354,#1355);
#1086=DIRECTION('',(0.,0.,1.));
#1087=DIRECTION('',(1.,0.,0.));
#1088=DIRECTION('',(-5.273559366969E-16,-1.228184220992E-15,1.));
#1089=DIRECTION('',(1.,-6.661338147751E-16,-1.471045507628E-15));
#1090=DIRECTION('',(1.,-1.110223024625E-15,-1.443289932013E-15));
#1091=DIRECTION('',(8.881784197001E-16,-1.,7.771561172376E-16));
#1092=DIRECTION('',(-1.,1.110223024625E-15,1.443289932013E-15));
#1093=DIRECTION('',(-8.881784197001E-16,1.,-7.771561172376E-16));
#1094=DIRECTION('',(-5.273559366969E-16,-1.228184220992E-15,1.));
#1095=DIRECTION('',(1.,-6.661338147751E-16,-1.471045507628E-15));
#1096=DIRECTION('',(1.,4.440892098501E-16,5.27355936696901E-16));
#1097=DIRECTION('',(-6.661338147751E-16,-1.,-1.228184220992E-15));
#1098=DIRECTION('',(-1.,-4.440892098501E-16,-5.27355936696901E-16));
#1099=DIRECTION('',(6.661338147751E-16,1.,1.228184220992E-15));
#1100=DIRECTION('',(-5.273559366969E-16,-1.228184220992E-15,1.));
#1101=DIRECTION('',(1.,-6.661338147751E-16,-1.471045507628E-15));
#1102=DIRECTION('',(1.,4.440892098501E-16,5.27355936696901E-16));
#1103=DIRECTION('',(-6.661338147751E-16,-1.,-1.228184220992E-15));
#1104=DIRECTION('',(-1.,-4.440892098501E-16,-5.27355936696901E-16));
#1105=DIRECTION('',(6.661338147751E-16,1.,1.228184220992E-15));
#1106=DIRECTION('',(-5.273559366969E-16,-1.228184220992E-15,1.));
#1107=DIRECTION('',(1.,-6.661338147751E-16,-1.471045507628E-15));
#1108=DIRECTION('',(1.,4.440892098501E-16,5.27355936696901E-16));
#1109=DIRECTION('',(-6.661338147751E-16,-1.,-1.228184220992E-15));
#1110=DIRECTION('',(-1.,-4.440892098501E-16,-5.27355936696901E-16));
#1111=DIRECTION('',(6.661338147751E-16,1.,1.228184220992E-15));
#1112=DIRECTION('',(-4.440892098501E-16,-8.881784197001E-16,1.));
#1113=DIRECTION('',(1.,-4.440892098501E-16,-8.881784197001E-16));
#1114=DIRECTION('',(1.,4.440892098501E-16,4.440892098501E-16));
#1115=DIRECTION('',(9.992007221626E-16,3.330669073875E-16,1.));
#1116=DIRECTION('',(6.661338147751E-16,-1.,3.330669073875E-16));
#1117=DIRECTION('',(-4.440892098501E-16,1.,-3.330669073875E-16));
#1118=DIRECTION('',(-1.,8.881784197001E-16,1.221245327088E-15));
#1119=DIRECTION('',(-1.110223024625E-16,5.551115123126E-16,-1.));
#1120=DIRECTION('',(1.,4.440892098501E-16,2.22044604925E-16));
#1121=DIRECTION('',(-1.110223024625E-16,5.551115123126E-16,-1.));
#1122=DIRECTION('',(2.22044604925E-16,4.440892098501E-16,-1.));
#1123=DIRECTION('',(-1.,2.22044604925E-16,4.440892098501E-16));
#1124=DIRECTION('',(-3.330669073875E-16,3.330669073875E-16,-1.));
#1125=DIRECTION('',(2.22044604925E-16,-1.,-3.330669073875E-16));
#1126=DIRECTION('',(-1.,-4.440892098501E-16,-2.22044604925E-16));
#1127=DIRECTION('',(-3.330669073875E-16,3.330669073875E-16,-1.));
#1128=DIRECTION('',(2.22044604925E-16,-1.,-3.330669073875E-16));
#1129=DIRECTION('',(4.440892098501E-16,-1.,3.330669073875E-16));
#1130=DIRECTION('',(1.,-8.881784197001E-16,-1.221245327088E-15));
#1131=DIRECTION('',(-1.,-4.440892098501E-16,-4.440892098501E-16));
#1132=DIRECTION('',(-1.110223024625E-16,5.551115123126E-16,-1.));
#1133=DIRECTION('',(-1.110223024625E-16,5.551115123126E-16,-1.));
#1134=DIRECTION('',(-4.440892098501E-16,-8.881784197001E-16,1.));
#1135=DIRECTION('',(1.,-4.440892098501E-16,-8.881784197001E-16));
#1136=DIRECTION('',(9.992007221626E-16,3.330669073875E-16,1.));
#1137=DIRECTION('',(6.661338147751E-16,-1.,3.330669073875E-16));
#1138=DIRECTION('',(-4.440892098501E-16,-8.881784197001E-16,1.));
#1139=DIRECTION('',(1.,-4.440892098501E-16,-8.881784197001E-16));
#1140=DIRECTION('',(1.,4.440892098501E-16,4.440892098501E-16));
#1141=DIRECTION('',(-4.440892098501E-16,-8.881784197001E-16,1.));
#1142=DIRECTION('',(0.,-1.,-8.881784197001E-16));
#1143=DIRECTION('',(-4.440892098501E-16,1.,-3.330669073875E-16));
#1144=DIRECTION('',(-1.,8.881784197001E-16,1.221245327088E-15));
#1145=DIRECTION('',(1.110223024625E-16,3.330669073875E-16,-1.));
#1146=DIRECTION('',(1.,4.440892098501E-16,2.22044604925E-16));
#1147=DIRECTION('',(1.110223024625E-16,3.330669073875E-16,-1.));
#1148=DIRECTION('',(2.22044604925E-16,4.440892098501E-16,-1.));
#1149=DIRECTION('',(-1.,2.22044604925E-16,4.440892098501E-16));
#1150=DIRECTION('',(2.22044604925E-16,4.440892098501E-16,-1.));
#1151=DIRECTION('',(0.,1.,4.440892098501E-16));
#1152=DIRECTION('',(-1.,-4.440892098501E-16,-2.22044604925E-16));
#1153=DIRECTION('',(2.22044604925E-16,4.440892098501E-16,-1.));
#1154=DIRECTION('',(0.,1.,4.440892098501E-16));
#1155=DIRECTION('',(4.440892098501E-16,-1.,3.330669073875E-16));
#1156=DIRECTION('',(1.,-8.881784197001E-16,-1.221245327088E-15));
#1157=DIRECTION('',(-1.,-4.440892098501E-16,-4.440892098501E-16));
#1158=DIRECTION('',(1.110223024625E-16,3.330669073875E-16,-1.));
#1159=DIRECTION('',(1.110223024625E-16,3.330669073875E-16,-1.));
#1160=DIRECTION('',(-4.440892098501E-16,-8.881784197001E-16,1.));
#1161=DIRECTION('',(1.,-4.440892098501E-16,-8.881784197001E-16));
#1162=DIRECTION('',(-4.440892098501E-16,-8.881784197001E-16,1.));
#1163=DIRECTION('',(0.,-1.,-8.881784197001E-16));
#1164=DIRECTION('',(-4.440892098501E-16,-8.881784197001E-16,1.));
#1165=DIRECTION('',(1.,-4.440892098501E-16,-8.881784197001E-16));
#1166=DIRECTION('',(1.,4.440892098501E-16,4.440892098501E-16));
#1167=DIRECTION('',(-4.440892098501E-16,-8.881784197001E-16,1.));
#1168=DIRECTION('',(0.,-1.,-8.881784197001E-16));
#1169=DIRECTION('',(-4.440892098501E-16,1.,-3.330669073875E-16));
#1170=DIRECTION('',(-1.,8.881784197001E-16,1.221245327088E-15));
#1171=DIRECTION('',(1.110223024625E-16,3.330669073875E-16,-1.));
#1172=DIRECTION('',(1.,4.440892098501E-16,2.22044604925E-16));
#1173=DIRECTION('',(1.110223024625E-16,3.330669073875E-16,-1.));
#1174=DIRECTION('',(2.22044604925E-16,4.440892098501E-16,-1.));
#1175=DIRECTION('',(-1.,2.22044604925E-16,4.440892098501E-16));
#1176=DIRECTION('',(2.22044604925E-16,4.440892098501E-16,-1.));
#1177=DIRECTION('',(0.,1.,4.440892098501E-16));
#1178=DIRECTION('',(-1.,-4.440892098501E-16,-2.22044604925E-16));
#1179=DIRECTION('',(2.22044604925E-16,4.440892098501E-16,-1.));
#1180=DIRECTION('',(0.,1.,4.440892098501E-16));
#1181=DIRECTION('',(4.440892098501E-16,-1.,3.330669073875E-16));
#1182=DIRECTION('',(1.,-8.881784197001E-16,-1.221245327088E-15));
#1183=DIRECTION('',(-1.,-4.440892098501E-16,-4.440892098501E-16));
#1184=DIRECTION('',(1.110223024625E-16,3.330669073875E-16,-1.));
#1185=DIRECTION('',(1.110223024625E-16,3.330669073875E-16,-1.));
#1186=DIRECTION('',(-4.440892098501E-16,-8.881784197001E-16,1.));
#1187=DIRECTION('',(1.,-4.440892098501E-16,-8.881784197001E-16));
#1188=DIRECTION('',(-4.440892098501E-16,-8.881784197001E-16,1.));
#1189=DIRECTION('',(0.,-1.,-8.881784197001E-16));
#1190=DIRECTION('',(-4.440892098501E-16,-8.881784197001E-16,1.));
#1191=DIRECTION('',(1.,-4.440892098501E-16,-8.881784197001E-16));
#1192=DIRECTION('',(1.,4.440892098501E-16,4.440892098501E-16));
#1193=DIRECTION('',(-4.440892098501E-16,-8.881784197001E-16,1.));
#1194=DIRECTION('',(0.,-1.,-8.881784197001E-16));
#1195=DIRECTION('',(-4.440892098501E-16,1.,-3.330669073875E-16));
#1196=DIRECTION('',(-1.,8.881784197001E-16,1.221245327088E-15));
#1197=DIRECTION('',(1.110223024625E-16,3.330669073875E-16,-1.));
#1198=DIRECTION('',(1.,4.440892098501E-16,2.22044604925E-16));
#1199=DIRECTION('',(1.110223024625E-16,3.330669073875E-16,-1.));
#1200=DIRECTION('',(2.22044604925E-16,4.440892098501E-16,-1.));
#1201=DIRECTION('',(-1.,2.22044604925E-16,4.440892098501E-16));
#1202=DIRECTION('',(2.22044604925E-16,4.440892098501E-16,-1.));
#1203=DIRECTION('',(0.,1.,4.440892098501E-16));
#1204=DIRECTION('',(-1.,-4.440892098501E-16,-2.22044604925E-16));
#1205=DIRECTION('',(2.22044604925E-16,4.440892098501E-16,-1.));
#1206=DIRECTION('',(0.,1.,4.440892098501E-16));
#1207=DIRECTION('',(4.440892098501E-16,-1.,3.330669073875E-16));
#1208=DIRECTION('',(1.,-8.881784197001E-16,-1.221245327088E-15));
#1209=DIRECTION('',(-1.,-4.440892098501E-16,-4.440892098501E-16));
#1210=DIRECTION('',(1.110223024625E-16,3.330669073875E-16,-1.));
#1211=DIRECTION('',(1.110223024625E-16,3.330669073875E-16,-1.));
#1212=DIRECTION('',(-4.440892098501E-16,-8.881784197001E-16,1.));
#1213=DIRECTION('',(1.,-4.440892098501E-16,-8.881784197001E-16));
#1214=DIRECTION('',(-4.440892098501E-16,-8.881784197001E-16,1.));
#1215=DIRECTION('',(0.,-1.,-8.881784197001E-16));
#1216=DIRECTION('',(-4.440892098501E-16,1.,-3.330669073875E-16));
#1217=DIRECTION('',(-1.,8.881784197001E-16,1.221245327088E-15));
#1218=DIRECTION('',(3.330669073875E-16,9.992007221626E-16,-1.));
#1219=DIRECTION('',(3.330669073875E-16,9.992007221626E-16,-1.));
#1220=DIRECTION('',(-1.,1.110223024625E-15,1.443289932013E-15));
#1221=DIRECTION('',(1.,-6.661338147751E-16,-9.992007221626E-16));
#1222=DIRECTION('',(-6.661338147751E-16,1.,-5.551115123126E-16));
#1223=DIRECTION('',(3.330669073875E-16,9.992007221626E-16,-1.));
#1224=DIRECTION('',(-8.881784197001E-16,1.,-7.771561172376E-16));
#1225=DIRECTION('',(-1.,6.661338147751E-16,9.992007221626E-16));
#1226=DIRECTION('',(6.661338147751E-16,-1.,5.551115123126E-16));
#1227=DIRECTION('',(3.330669073875E-16,9.992007221626E-16,-1.));
#1228=DIRECTION('',(8.881784197001E-16,-1.,7.771561172376E-16));
#1229=DIRECTION('',(4.440892098501E-16,-1.,3.330669073875E-16));
#1230=DIRECTION('',(1.,-8.881784197001E-16,-1.221245327088E-15));
#1231=DIRECTION('',(1.,-1.110223024625E-15,-1.443289932013E-15));
#1232=DIRECTION('',(-4.440892098501E-16,1.,-3.330669073875E-16));
#1233=DIRECTION('',(-1.,8.881784197001E-16,1.221245327088E-15));
#1234=DIRECTION('',(-3.330669073875E-16,-3.330669073875E-16,-1.));
#1235=DIRECTION('',(-3.330669073875E-16,-3.330669073875E-16,-1.));
#1236=DIRECTION('',(-1.,-4.440892098501E-16,-5.55111512312601E-16));
#1237=DIRECTION('',(1.,-6.661338147751E-16,-3.330669073875E-16));
#1238=DIRECTION('',(2.84638750566E-46,1.,-5.551115123126E-16));
#1239=DIRECTION('',(-3.330669073875E-16,-3.330669073875E-16,-1.));
#1240=DIRECTION('',(-2.22044604925E-16,1.,-7.771561172376E-16));
#1241=DIRECTION('',(-1.,6.661338147751E-16,3.330669073875E-16));
#1242=DIRECTION('',(-2.84638750566E-46,-1.,5.551115123126E-16));
#1243=DIRECTION('',(-3.330669073875E-16,-3.330669073875E-16,-1.));
#1244=DIRECTION('',(2.22044604925E-16,-1.,7.771561172376E-16));
#1245=DIRECTION('',(4.440892098501E-16,-1.,3.330669073875E-16));
#1246=DIRECTION('',(1.,-8.881784197001E-16,-1.221245327088E-15));
#1247=DIRECTION('',(1.,4.440892098501E-16,5.55111512312601E-16));
#1248=DIRECTION('',(-4.440892098501E-16,1.,-3.330669073875E-16));
#1249=DIRECTION('',(-1.,8.881784197001E-16,1.221245327088E-15));
#1250=DIRECTION('',(-3.330669073875E-16,-3.330669073875E-16,-1.));
#1251=DIRECTION('',(-3.330669073875E-16,-3.330669073875E-16,-1.));
#1252=DIRECTION('',(-1.,-4.440892098501E-16,-5.55111512312601E-16));
#1253=DIRECTION('',(1.,-6.661338147751E-16,-3.330669073875E-16));
#1254=DIRECTION('',(2.84638750566E-46,1.,-5.551115123126E-16));
#1255=DIRECTION('',(-3.330669073875E-16,-3.330669073875E-16,-1.));
#1256=DIRECTION('',(-2.22044604925E-16,1.,-7.771561172376E-16));
#1257=DIRECTION('',(-1.,6.661338147751E-16,3.330669073875E-16));
#1258=DIRECTION('',(-2.84638750566E-46,-1.,5.551115123126E-16));
#1259=DIRECTION('',(-3.330669073875E-16,-3.330669073875E-16,-1.));
#1260=DIRECTION('',(2.22044604925E-16,-1.,7.771561172376E-16));
#1261=DIRECTION('',(4.440892098501E-16,-1.,3.330669073875E-16));
#1262=DIRECTION('',(1.,-8.881784197001E-16,-1.221245327088E-15));
#1263=DIRECTION('',(1.,4.440892098501E-16,5.55111512312601E-16));
#1264=DIRECTION('',(1.,-6.661338147751E-16,-3.330669073875E-16));
#1265=DIRECTION('',(2.84638750566E-46,1.,-5.551115123126E-16));
#1266=DIRECTION('',(-3.330669073875E-16,-3.330669073875E-16,-1.));
#1267=DIRECTION('',(-3.330669073875E-16,-3.330669073875E-16,-1.));
#1268=DIRECTION('',(-2.22044604925E-16,1.,-7.771561172376E-16));
#1269=DIRECTION('',(-4.440892098501E-16,1.,-3.330669073875E-16));
#1270=DIRECTION('',(-1.,8.881784197001E-16,1.221245327088E-15));
#1271=DIRECTION('',(-3.330669073875E-16,-3.330669073875E-16,-1.));
#1272=DIRECTION('',(-1.,-4.440892098501E-16,-5.55111512312601E-16));
#1273=DIRECTION('',(-1.,6.661338147751E-16,3.330669073875E-16));
#1274=DIRECTION('',(-2.84638750566E-46,-1.,5.551115123126E-16));
#1275=DIRECTION('',(-3.330669073875E-16,-3.330669073875E-16,-1.));
#1276=DIRECTION('',(2.22044604925E-16,-1.,7.771561172376E-16));
#1277=DIRECTION('',(4.440892098501E-16,-1.,3.330669073875E-16));
#1278=DIRECTION('',(1.,-8.881784197001E-16,-1.221245327088E-15));
#1279=DIRECTION('',(1.,4.440892098501E-16,5.55111512312601E-16));
#1280=DIRECTION('',(-1.110223024625E-16,5.551115123126E-16,-1.));
#1281=DIRECTION('',(4.440892098501E-16,-1.,1.110223024625E-16));
#1282=DIRECTION('',(9.992007221626E-16,3.330669073875E-16,1.));
#1283=DIRECTION('',(6.661338147751E-16,-1.,3.330669073875E-16));
#1284=DIRECTION('',(1.110223024625E-16,3.330669073875E-16,-1.));
#1285=DIRECTION('',(2.22044604925E-16,-1.,3.330669073875E-16));
#1286=DIRECTION('',(7.771561172376E-16,5.551115123126E-16,1.));
#1287=DIRECTION('',(4.440892098501E-16,-1.,5.551115123126E-16));
#1288=DIRECTION('',(1.110223024625E-16,3.330669073875E-16,-1.));
#1289=DIRECTION('',(2.22044604925E-16,-1.,3.330669073875E-16));
#1290=DIRECTION('',(7.771561172376E-16,5.551115123126E-16,1.));
#1291=DIRECTION('',(4.440892098501E-16,-1.,5.551115123126E-16));
#1292=DIRECTION('',(1.110223024625E-16,3.330669073875E-16,-1.));
#1293=DIRECTION('',(2.22044604925E-16,-1.,3.330669073875E-16));
#1294=DIRECTION('',(-5.551115123126E-16,-1.221245327088E-15,1.));
#1295=DIRECTION('',(0.,-1.,-1.221245327088E-15));
#1296=DIRECTION('',(7.771561172376E-16,5.551115123126E-16,1.));
#1297=DIRECTION('',(4.440892098501E-16,-1.,5.551115123126E-16));
#1298=DIRECTION('',(-5.551115123126E-16,-1.221245327088E-15,1.));
#1299=DIRECTION('',(-1.554312234475E-15,1.,-7.771561172376E-16));
#1300=DIRECTION('',(8.88178419700102E-16,1.,1.221245327088E-15));
#1301=DIRECTION('',(5.551115123126E-16,1.221245327088E-15,-1.));
#1302=DIRECTION('',(1.554312234475E-15,-1.,7.771561172376E-16));
#1303=DIRECTION('',(1.7763568394E-15,-1.,9.992007221626E-16));
#1304=DIRECTION('',(1.,1.221245327088E-15,5.55111512312601E-16));
#1305=DIRECTION('',(1.7763568394E-15,-1.,9.992007221626E-16));
#1306=DIRECTION('',(1.,-7.771561172376E-16,-1.443289932013E-15));
#1307=DIRECTION('',(-1.221245327088E-15,1.,-5.551115123126E-16));
#1308=DIRECTION('',(7.771561172376E-16,1.443289932013E-15,-1.));
#1309=DIRECTION('',(-1.665334536938E-15,-5.55111512312602E-16,-1.));
#1310=DIRECTION('',(1.,1.221245327088E-15,5.55111512312601E-16));
#1311=DIRECTION('',(-1.665334536938E-15,-5.55111512312602E-16,-1.));
#1312=DIRECTION('',(5.551115123126E-16,1.221245327088E-15,-1.));
#1313=DIRECTION('',(1.554312234475E-15,-1.,7.771561172376E-16));
#1314=DIRECTION('',(1.,-7.771561172376E-16,-1.443289932013E-15));
#1315=DIRECTION('',(1.7763568394E-15,-1.,9.992007221626E-16));
#1316=DIRECTION('',(1.7763568394E-15,-1.,9.992007221626E-16));
#1317=DIRECTION('',(-1.221245327088E-15,1.,-5.551115123126E-16));
#1318=DIRECTION('',(7.771561172376E-16,1.443289932013E-15,-1.));
#1319=DIRECTION('',(1.,-7.771561172376E-16,-1.443289932013E-15));
#1320=DIRECTION('',(9.992007221626E-16,1.665334536938E-15,-1.));
#1321=DIRECTION('',(9.992007221626E-16,1.665334536938E-15,-1.));
#1322=DIRECTION('',(-1.34056844275387E-15,0.894427190999916,0.447213595499958));
#1323=DIRECTION('',(8.29921890886422E-32,0.447213595499958,-0.894427190999916));
#1324=DIRECTION('',(1.,-7.771561172376E-16,-1.443289932013E-15));
#1325=DIRECTION('',(9.93013661298807E-17,0.447213595499958,-0.894427190999916));
#1326=DIRECTION('',(9.93013661298807E-17,0.447213595499958,-0.894427190999916));
#1327=DIRECTION('',(-1.221245327088E-15,1.,-5.551115123126E-16));
#1328=DIRECTION('',(7.771561172376E-16,1.443289932013E-15,-1.));
#1329=DIRECTION('',(9.992007221626E-16,1.665334536938E-15,-1.));
#1330=DIRECTION('',(9.992007221626E-16,1.665334536938E-15,-1.));
#1331=DIRECTION('',(1.,-7.771561172376E-16,-1.443289932013E-15));
#1332=DIRECTION('',(-5.551115123126E-16,-1.221245327088E-15,1.));
#1333=DIRECTION('',(-1.554312234475E-15,1.,-7.771561172376E-16));
#1334=DIRECTION('',(-1.7763568394E-15,1.,-9.992007221626E-16));
#1335=DIRECTION('',(1.,-7.771561172376E-16,-1.443289932013E-15));
#1336=DIRECTION('',(-1.7763568394E-15,1.,-9.992007221626E-16));
#1337=DIRECTION('',(-1.7763568394E-15,1.,-9.992007221626E-16));
#1338=DIRECTION('',(-1.,8.881784197001E-16,1.665334536938E-15));
#1339=DIRECTION('',(9.992007221626E-16,1.7763568394E-15,-1.));
#1340=DIRECTION('',(-1.7763568394E-15,1.,-9.992007221626E-16));
#1341=DIRECTION('',(-1.58745694807545E-15,0.371390676354104,0.928476690885259));
#1342=DIRECTION('',(9.992007221626E-16,1.665334536938E-15,-1.));
#1343=DIRECTION('',(-1.,8.881784197001E-16,1.665334536938E-15));
#1344=DIRECTION('',(9.992007221626E-16,1.7763568394E-15,-1.));
#1345=DIRECTION('',(9.992007221626E-16,1.665334536938E-15,-1.));
#1346=DIRECTION('',(-1.58745694807545E-15,0.371390676354104,0.928476690885259));
#1347=DIRECTION('',(-1.7763568394E-15,1.,-9.992007221626E-16));
#1348=DIRECTION('',(-5.551115123126E-16,-1.221245327088E-15,1.));
#1349=DIRECTION('',(-1.554312234475E-15,1.,-7.771561172376E-16));
#1350=DIRECTION('',(1.,-7.771561172376E-16,-1.443289932013E-15));
#1351=DIRECTION('',(9.27734580043959E-16,-0.928476690885259,0.371390676354104));
#1352=DIRECTION('',(-1.29882841206136E-15,0.371390676354104,0.928476690885259));
#1353=DIRECTION('',(1.,-7.771561172376E-16,-1.443289932013E-15));
#1354=DIRECTION('',(-1.221245327088E-15,1.,-5.551115123126E-16));
#1355=DIRECTION('',(7.771561172376E-16,1.443289932013E-15,-1.));
#1356=CARTESIAN_POINT('',(0.,0.,0.));
#1357=CARTESIAN_POINT('',(0.00147,8.881784197001E-18,-0.00375));
#1358=CARTESIAN_POINT('',(0.00112,-0.0002,-0.00375));
#1359=CARTESIAN_POINT('',(0.00112,-0.0002,-0.00375));
#1360=CARTESIAN_POINT('',(0.00182,-0.0002,-0.00375));
#1361=CARTESIAN_POINT('',(0.00112,0.0002,-0.00375));
#1362=CARTESIAN_POINT('',(0.00112,0.0002,-0.00375));
#1363=CARTESIAN_POINT('',(0.00182,0.0002,-0.00375));
#1364=CARTESIAN_POINT('',(0.00182,0.0002,-0.00375));
#1365=CARTESIAN_POINT('',(0.00182,-0.0002,-0.00375));
#1366=CARTESIAN_POINT('',(0.00147,8.881784197001E-18,-0.00375));
#1367=CARTESIAN_POINT('',(0.00112,-0.0002,-0.00375));
#1368=CARTESIAN_POINT('',(0.00366,-0.0002,-0.00375));
#1369=CARTESIAN_POINT('',(0.00436,-0.0002,-0.00375));
#1370=CARTESIAN_POINT('',(0.00366,0.000200000000000005,-0.00375));
#1371=CARTESIAN_POINT('',(0.00366,0.0002,-0.00375));
#1372=CARTESIAN_POINT('',(0.00182,0.0002,-0.00375));
#1373=CARTESIAN_POINT('',(0.00436,0.0002,-0.00375));
#1374=CARTESIAN_POINT('',(0.00436,-0.000199999999999995,-0.00375));
#1375=CARTESIAN_POINT('',(0.00147,8.881784197001E-18,-0.00375));
#1376=CARTESIAN_POINT('',(0.00112,-0.0002,-0.00375));
#1377=CARTESIAN_POINT('',(0.0062,-0.0002,-0.00375));
#1378=CARTESIAN_POINT('',(0.0069,-0.0002,-0.00375));
#1379=CARTESIAN_POINT('',(0.0062,0.000200000000000005,-0.00375));
#1380=CARTESIAN_POINT('',(0.0062,0.0002,-0.00375));
#1381=CARTESIAN_POINT('',(0.00182,0.0002,-0.00375));
#1382=CARTESIAN_POINT('',(0.0069,0.0002,-0.00375));
#1383=CARTESIAN_POINT('',(0.0069,-0.000199999999999995,-0.00375));
#1384=CARTESIAN_POINT('',(0.00147,8.881784197001E-18,-0.00375));
#1385=CARTESIAN_POINT('',(0.00112,-0.0002,-0.00375));
#1386=CARTESIAN_POINT('',(0.00874,-0.0002,-0.00375));
#1387=CARTESIAN_POINT('',(0.00944,-0.0002,-0.00375));
#1388=CARTESIAN_POINT('',(0.00874,0.000200000000000005,-0.00375));
#1389=CARTESIAN_POINT('',(0.00874,0.0002,-0.00375));
#1390=CARTESIAN_POINT('',(0.00182,0.0002,-0.00375));
#1391=CARTESIAN_POINT('',(0.00944,0.0002,-0.00375));
#1392=CARTESIAN_POINT('',(0.00944,-0.000199999999999995,-0.00375));
#1393=CARTESIAN_POINT('',(0.00147,-1.06581410364E-17,0.00825));
#1394=CARTESIAN_POINT('',(0.00147,0.000200000000000003,0.00825));
#1395=CARTESIAN_POINT('',(0.000592503561260861,0.0002,0.00825));
#1396=CARTESIAN_POINT('',(0.00234749643873914,0.0002,0.00825));
#1397=CARTESIAN_POINT('',(0.00147,-1.59872115546E-17,0.00825));
#1398=CARTESIAN_POINT('',(0.00182,0.0002,0.00025));
#1399=CARTESIAN_POINT('',(0.00059250356126079,0.0002,0.00675));
#1400=CARTESIAN_POINT('',(0.000592503561260859,0.0002,0.00705));
#1401=CARTESIAN_POINT('',(0.00182,0.000200000000000003,0.00705));
#1402=CARTESIAN_POINT('',(0.00234749643873914,0.0002,0.00705));
#1403=CARTESIAN_POINT('',(0.00234749643873921,0.000200000000000003,0.00675));
#1404=CARTESIAN_POINT('',(0.00147,-5.107025913276E-18,0.00705));
#1405=CARTESIAN_POINT('',(0.00147,-4.173328349566E-18,0.00705));
#1406=CARTESIAN_POINT('',(0.000592503561260894,-0.0002,0.00705));
#1407=CARTESIAN_POINT('',(0.00112,-0.000199999999999998,0.00705));
#1408=CARTESIAN_POINT('',(0.00234749643873914,-0.0002,0.00705));
#1409=CARTESIAN_POINT('',(0.00147,-4.173328349566E-18,0.00705));
#1410=CARTESIAN_POINT('',(0.00112,-0.0002,0.00025));
#1411=CARTESIAN_POINT('',(0.00147,-0.000199999999999997,0.00825));
#1412=CARTESIAN_POINT('',(0.00234749643873914,-0.0002,0.00825));
#1413=CARTESIAN_POINT('',(0.000592503561260892,-0.0002,0.00825));
#1414=CARTESIAN_POINT('',(0.00234749643873922,-0.000199999999999998,0.00675));
#1415=CARTESIAN_POINT('',(0.000592503561260786,-0.0002,0.00675));
#1416=CARTESIAN_POINT('',(0.00147,-1.06581410364E-17,0.00825));
#1417=CARTESIAN_POINT('',(0.00147,-1.59872115546E-17,0.00825));
#1418=CARTESIAN_POINT('',(0.00147,-1.06581410364E-17,0.00825));
#1419=CARTESIAN_POINT('',(0.00147,0.000200000000000003,0.00825));
#1420=CARTESIAN_POINT('',(0.00313250356126086,0.0002,0.00825));
#1421=CARTESIAN_POINT('',(0.0048874964387391,0.0002,0.00825));
#1422=CARTESIAN_POINT('',(0.00401,-6.36490860017625E-18,0.00825));
#1423=CARTESIAN_POINT('',(0.00182,0.0002,0.00025));
#1424=CARTESIAN_POINT('',(0.00313250356126079,0.000200000000000003,0.00675));
#1425=CARTESIAN_POINT('',(0.00313250356126086,0.0002,0.00705));
#1426=CARTESIAN_POINT('',(0.00182,0.000200000000000003,0.00705));
#1427=CARTESIAN_POINT('',(0.00488749643873914,0.0002,0.00705));
#1428=CARTESIAN_POINT('',(0.00488749643873921,0.000200000000000004,0.00675));
#1429=CARTESIAN_POINT('',(0.00147,-5.107025913276E-18,0.00705));
#1430=CARTESIAN_POINT('',(0.00401,-5.96522831131125E-18,0.00705));
#1431=CARTESIAN_POINT('',(0.00313250356126086,-0.0002,0.00705));
#1432=CARTESIAN_POINT('',(0.00112,-0.000199999999999998,0.00705));
#1433=CARTESIAN_POINT('',(0.00488749643873914,-0.0002,0.00705));
#1434=CARTESIAN_POINT('',(0.00401,-5.96522831131125E-18,0.00705));
#1435=CARTESIAN_POINT('',(0.00112,-0.0002,0.00025));
#1436=CARTESIAN_POINT('',(0.00147,-0.000199999999999997,0.00825));
#1437=CARTESIAN_POINT('',(0.00488749643873914,-0.0002,0.00825));
#1438=CARTESIAN_POINT('',(0.00313250356126089,-0.0002,0.00825));
#1439=CARTESIAN_POINT('',(0.00488749643873921,-0.000199999999999996,0.00675));
#1440=CARTESIAN_POINT('',(0.00313250356126078,-0.000199999999999997,0.00675));
#1441=CARTESIAN_POINT('',(0.00147,-1.06581410364E-17,0.00825));
#1442=CARTESIAN_POINT('',(0.00401,-6.36490860017625E-18,0.00825));
#1443=CARTESIAN_POINT('',(0.00147,-1.06581410364E-17,0.00825));
#1444=CARTESIAN_POINT('',(0.00147,0.000200000000000003,0.00825));
#1445=CARTESIAN_POINT('',(0.00567250356126086,0.0002,0.00825));
#1446=CARTESIAN_POINT('',(0.0074274964387391,0.0002,0.00825));
#1447=CARTESIAN_POINT('',(0.00655,-7.49289519319525E-18,0.00825));
#1448=CARTESIAN_POINT('',(0.00182,0.0002,0.00025));
#1449=CARTESIAN_POINT('',(0.00567250356126079,0.000200000000000004,0.00675));
#1450=CARTESIAN_POINT('',(0.00567250356126086,0.0002,0.00705));
#1451=CARTESIAN_POINT('',(0.00182,0.000200000000000003,0.00705));
#1452=CARTESIAN_POINT('',(0.00742749643873914,0.0002,0.00705));
#1453=CARTESIAN_POINT('',(0.00742749643873921,0.000200000000000005,0.00675));
#1454=CARTESIAN_POINT('',(0.00147,-5.107025913276E-18,0.00705));
#1455=CARTESIAN_POINT('',(0.00655,-7.09321490433025E-18,0.00705));
#1456=CARTESIAN_POINT('',(0.00567250356126086,-0.0002,0.00705));
#1457=CARTESIAN_POINT('',(0.00112,-0.000199999999999998,0.00705));
#1458=CARTESIAN_POINT('',(0.00742749643873914,-0.0002,0.00705));
#1459=CARTESIAN_POINT('',(0.00655,-7.09321490433025E-18,0.00705));
#1460=CARTESIAN_POINT('',(0.00112,-0.0002,0.00025));
#1461=CARTESIAN_POINT('',(0.00147,-0.000199999999999997,0.00825));
#1462=CARTESIAN_POINT('',(0.00742749643873914,-0.0002,0.00825));
#1463=CARTESIAN_POINT('',(0.00567250356126089,-0.0002,0.00825));
#1464=CARTESIAN_POINT('',(0.00742749643873921,-0.000199999999999995,0.00675));
#1465=CARTESIAN_POINT('',(0.00567250356126079,-0.000199999999999996,0.00675));
#1466=CARTESIAN_POINT('',(0.00147,-1.06581410364E-17,0.00825));
#1467=CARTESIAN_POINT('',(0.00655,-7.49289519319525E-18,0.00825));
#1468=CARTESIAN_POINT('',(0.00147,-1.06581410364E-17,0.00825));
#1469=CARTESIAN_POINT('',(0.00147,0.000200000000000003,0.00825));
#1470=CARTESIAN_POINT('',(0.00821250356126086,0.0002,0.00825));
#1471=CARTESIAN_POINT('',(0.0099674964387391,0.0002,0.00825));
#1472=CARTESIAN_POINT('',(0.00909,-8.62088178621425E-18,0.00825));
#1473=CARTESIAN_POINT('',(0.00182,0.0002,0.00025));
#1474=CARTESIAN_POINT('',(0.00821250356126079,0.000200000000000005,0.00675));
#1475=CARTESIAN_POINT('',(0.00821250356126086,0.0002,0.00705));
#1476=CARTESIAN_POINT('',(0.00182,0.000200000000000003,0.00705));
#1477=CARTESIAN_POINT('',(0.00996749643873914,0.0002,0.00705));
#1478=CARTESIAN_POINT('',(0.00996749643873921,0.000200000000000006,0.00675));
#1479=CARTESIAN_POINT('',(0.00147,-5.107025913276E-18,0.00705));
#1480=CARTESIAN_POINT('',(0.00909,-8.22120149734925E-18,0.00705));
#1481=CARTESIAN_POINT('',(0.00821250356126086,-0.0002,0.00705));
#1482=CARTESIAN_POINT('',(0.00112,-0.000199999999999998,0.00705));
#1483=CARTESIAN_POINT('',(0.00996749643873914,-0.0002,0.00705));
#1484=CARTESIAN_POINT('',(0.00909,-8.22120149734925E-18,0.00705));
#1485=CARTESIAN_POINT('',(0.00112,-0.0002,0.00025));
#1486=CARTESIAN_POINT('',(0.00147,-0.000199999999999997,0.00825));
#1487=CARTESIAN_POINT('',(0.00996749643873914,-0.0002,0.00825));
#1488=CARTESIAN_POINT('',(0.00821250356126089,-0.0002,0.00825));
#1489=CARTESIAN_POINT('',(0.00996749643873921,-0.000199999999999994,0.00675));
#1490=CARTESIAN_POINT('',(0.00821250356126078,-0.000199999999999995,0.00675));
#1491=CARTESIAN_POINT('',(0.00147,-1.06581410364E-17,0.00825));
#1492=CARTESIAN_POINT('',(0.00909,-8.62088178621425E-18,0.00825));
#1493=CARTESIAN_POINT('',(0.00182,0.0002,0.00025));
#1494=CARTESIAN_POINT('',(0.00182,0.0002,0.00025));
#1495=CARTESIAN_POINT('',(0.00182,0.0002,0.00025));
#1496=CARTESIAN_POINT('',(0.00112,0.0002,0.00025));
#1497=CARTESIAN_POINT('',(0.00112,0.0002,0.00025));
#1498=CARTESIAN_POINT('',(0.00182,0.0002,0.00025));
#1499=CARTESIAN_POINT('',(0.00182,-0.0002,0.00025));
#1500=CARTESIAN_POINT('',(0.00182,-0.0002,0.00025));
#1501=CARTESIAN_POINT('',(0.00182,-0.0002,0.00025));
#1502=CARTESIAN_POINT('',(0.00182,-0.0002,0.00025));
#1503=CARTESIAN_POINT('',(0.00112,0.0002,0.00025));
#1504=CARTESIAN_POINT('',(0.00112,-0.0002,0.00025));
#1505=CARTESIAN_POINT('',(0.00112,-0.0002,0.00025));
#1506=CARTESIAN_POINT('',(0.00112,0.0002,0.00025));
#1507=CARTESIAN_POINT('',(0.00112,-0.0002,0.00025));
#1508=CARTESIAN_POINT('',(0.00112,-0.0002,0.00025));
#1509=CARTESIAN_POINT('',(0.00182,0.0002,0.00025));
#1510=CARTESIAN_POINT('',(0.00436,0.0002,0.00025));
#1511=CARTESIAN_POINT('',(0.00436,0.0002,0.00025));
#1512=CARTESIAN_POINT('',(0.00366,0.0002,0.00025));
#1513=CARTESIAN_POINT('',(0.00366,0.0002,0.00025));
#1514=CARTESIAN_POINT('',(0.0002,0.0002,0.000249999999999998));
#1515=CARTESIAN_POINT('',(0.00436,-0.0002,0.00025));
#1516=CARTESIAN_POINT('',(0.00436,-0.0002,0.00025));
#1517=CARTESIAN_POINT('',(0.00436,-0.0002,0.00025));
#1518=CARTESIAN_POINT('',(0.00436,-0.0002,0.00025));
#1519=CARTESIAN_POINT('',(0.00366,0.0002,0.00025));
#1520=CARTESIAN_POINT('',(0.00366,-0.0002,0.00025));
#1521=CARTESIAN_POINT('',(0.00366,-0.0002,0.00025));
#1522=CARTESIAN_POINT('',(0.00366,0.0002,0.00025));
#1523=CARTESIAN_POINT('',(0.00112,-0.0002,0.00025));
#1524=CARTESIAN_POINT('',(0.0002,-0.0002,0.000249999999999997));
#1525=CARTESIAN_POINT('',(0.00182,0.0002,0.00025));
#1526=CARTESIAN_POINT('',(0.0069,0.000200000000000003,0.00025));
#1527=CARTESIAN_POINT('',(0.0069,0.0002,0.00025));
#1528=CARTESIAN_POINT('',(0.0062,0.0002,0.00025));
#1529=CARTESIAN_POINT('',(0.0062,0.0002,0.00025));
#1530=CARTESIAN_POINT('',(0.0002,0.0002,0.000249999999999998));
#1531=CARTESIAN_POINT('',(0.0069,-0.0002,0.00025));
#1532=CARTESIAN_POINT('',(0.0069,-0.000199999999999998,0.00025));
#1533=CARTESIAN_POINT('',(0.0069,-0.0002,0.00025));
#1534=CARTESIAN_POINT('',(0.0069,-0.0002,0.00025));
#1535=CARTESIAN_POINT('',(0.0062,0.0002,0.00025));
#1536=CARTESIAN_POINT('',(0.0062,-0.0002,0.00025));
#1537=CARTESIAN_POINT('',(0.0062,-0.0002,0.00025));
#1538=CARTESIAN_POINT('',(0.0062,0.0002,0.00025));
#1539=CARTESIAN_POINT('',(0.00112,-0.0002,0.00025));
#1540=CARTESIAN_POINT('',(0.0002,-0.0002,0.000249999999999997));
#1541=CARTESIAN_POINT('',(0.00944,-0.0002,0.00025));
#1542=CARTESIAN_POINT('',(0.00944,-0.000199999999999997,0.00025));
#1543=CARTESIAN_POINT('',(0.00944,-0.0002,0.00025));
#1544=CARTESIAN_POINT('',(0.00944,0.000200000000000004,0.000249999999999998));
#1545=CARTESIAN_POINT('',(0.00944,0.0002,0.00025));
#1546=CARTESIAN_POINT('',(0.00944,-0.0002,0.00025));
#1547=CARTESIAN_POINT('',(0.00182,0.0002,0.00025));
#1548=CARTESIAN_POINT('',(0.00874,0.000200000000000003,0.00025));
#1549=CARTESIAN_POINT('',(0.00874,0.0002,0.00025));
#1550=CARTESIAN_POINT('',(0.0002,0.0002,0.000249999999999998));
#1551=CARTESIAN_POINT('',(0.00874,0.0002,0.00025));
#1552=CARTESIAN_POINT('',(0.00874,-0.000199999999999997,0.000249999999999998));
#1553=CARTESIAN_POINT('',(0.00874,-0.0002,0.00025));
#1554=CARTESIAN_POINT('',(0.00874,0.0002,0.00025));
#1555=CARTESIAN_POINT('',(0.00112,-0.0002,0.00025));
#1556=CARTESIAN_POINT('',(0.0002,-0.0002,0.000249999999999997));
#1557=CARTESIAN_POINT('',(0.00147,-5.898614929833E-18,0.00675));
#1558=CARTESIAN_POINT('',(0.00147,-1.24344978758E-17,0.00675));
#1559=CARTESIAN_POINT('',(0.00147,-0.000900000000000012,0.00675));
#1560=CARTESIAN_POINT('',(0.00401,-5.865308239095E-18,0.00675));
#1561=CARTESIAN_POINT('',(0.00401,-1.24344978758E-17,0.00675));
#1562=CARTESIAN_POINT('',(0.00401,-0.000900000000000012,0.00675));
#1563=CARTESIAN_POINT('',(0.00655,-6.993294832114E-18,0.00675));
#1564=CARTESIAN_POINT('',(0.00655,-1.33226762955E-17,0.00675));
#1565=CARTESIAN_POINT('',(0.00655,-0.000900000000000013,0.00675));
#1566=CARTESIAN_POINT('',(0.00909,-8.121281425133E-18,0.00675));
#1567=CARTESIAN_POINT('',(0.00909,-8.121281425133E-18,0.00675));
#1568=CARTESIAN_POINT('',(0.00986,-0.000465939910288887,0.00675));
#1569=CARTESIAN_POINT('',(0.00986,0.000465939910288862,0.00675));
#1570=CARTESIAN_POINT('',(0.00909,-1.42108547152E-17,0.00675));
#1571=CARTESIAN_POINT('',(0.0002,-0.0015,0.00675));
#1572=CARTESIAN_POINT('',(0.00986,-0.0015,0.00675));
#1573=CARTESIAN_POINT('',(0.0002,0.00075,0.00125));
#1574=CARTESIAN_POINT('',(0.0002,0.00075,0.00125));
#1575=CARTESIAN_POINT('',(0.0002,0.00075,0.00125));
#1576=CARTESIAN_POINT('',(0.0002,-0.0025,0.00125));
#1577=CARTESIAN_POINT('',(0.000200000000000004,-0.0025,0.00125));
#1578=CARTESIAN_POINT('',(0.00986,-0.0025,0.00125));
#1579=CARTESIAN_POINT('',(0.00986,0.00075,0.00125));
#1580=CARTESIAN_POINT('',(0.00986,0.00075,0.00125));
#1581=CARTESIAN_POINT('',(0.0002,0.00075,0.00125));
#1582=CARTESIAN_POINT('',(0.0002,-0.0025,0.00425));
#1583=CARTESIAN_POINT('',(0.0002,-0.0025,0.00425));
#1584=CARTESIAN_POINT('',(0.000200000000000003,-0.0025,0.00025));
#1585=CARTESIAN_POINT('',(0.0002,-0.0025,0.000249999999999994));
#1586=CARTESIAN_POINT('',(0.00986,-0.0025,0.000249999999999997));
#1587=CARTESIAN_POINT('',(0.00986,-0.0025,0.002971039042028));
#1588=CARTESIAN_POINT('',(0.0002,0.00225,0.00025));
#1589=CARTESIAN_POINT('',(0.0002,0.00225,0.00025));
#1590=CARTESIAN_POINT('',(0.0002,0.00225,0.00025));
#1591=CARTESIAN_POINT('',(0.00986,0.00225,0.00025));
#1592=CARTESIAN_POINT('',(0.00986,0.00225,0.00025));
#1593=CARTESIAN_POINT('',(0.0002,0.00225,0.00025));
#1594=CARTESIAN_POINT('',(0.0002,0.00225,0.00525));
#1595=CARTESIAN_POINT('',(0.0002,0.00225,0.00525));
#1596=CARTESIAN_POINT('',(0.0002,0.00225,0.00525));
#1597=CARTESIAN_POINT('',(0.00986,0.00225,0.00525));
#1598=CARTESIAN_POINT('',(0.00986,0.00225,0.00525));
#1599=CARTESIAN_POINT('',(0.0002,0.00225,0.00525));
#1600=CARTESIAN_POINT('',(0.0002,0.0015,0.00675));
#1601=CARTESIAN_POINT('',(0.0002,0.0015,0.00675));
#1602=CARTESIAN_POINT('',(0.0002,0.0015,0.00675));
#1603=CARTESIAN_POINT('',(0.00986,0.0015,0.00675));
#1604=CARTESIAN_POINT('',(0.00986,0.0015,0.00675));
#1605=CARTESIAN_POINT('',(0.0002,0.0015,0.00675));
#1606=CARTESIAN_POINT('',(0.0002,0.00075,0.00275));
#1607=CARTESIAN_POINT('',(0.0002,0.00075,0.00275));
#1608=CARTESIAN_POINT('',(0.0002,0.00075,0.00275));
#1609=CARTESIAN_POINT('',(0.00986,0.00075,0.00275));
#1610=CARTESIAN_POINT('',(0.00986,0.00075,0.00275));
#1611=CARTESIAN_POINT('',(0.0002,0.00075,0.00275));
#1612=CARTESIAN_POINT('',(0.0002,-0.0015,0.00675));
#1613=CARTESIAN_POINT('',(0.0002,-0.0015,0.00675));
#1614=CARTESIAN_POINT('',(0.0002,-0.0015,0.00675));
#1615=CARTESIAN_POINT('',(0.0002,-0.0015,0.00675));
#1616=CARTESIAN_POINT('',(0.00986,-0.0015,0.00675));
#1617=CARTESIAN_POINT('',(0.00986,-0.0015,0.00675));
#1618=CARTESIAN_POINT('',(0.00986,-0.0015,0.00675));
#1619=CARTESIAN_POINT('',(0.00986,-8.678407059996E-5,0.002971039042028));
#1620=CARTESIAN_POINT('',(0.00986,-0.0025,0.00275));
#1621=CARTESIAN_POINT('',(0.00986,-0.0025,0.00275));
#1622=CARTESIAN_POINT('',(0.00986,-0.0025,0.00425));
#1623=CARTESIAN_POINT('',(0.00986,-0.0025,0.00425));
#1624=CARTESIAN_POINT('',(0.00986,-0.0025,0.00425));
#1625=CARTESIAN_POINT('',(0.0002,-8.678407059996E-5,0.002971039042028));
#1626=CARTESIAN_POINT('',(0.0002,-0.0025,0.00425));
#1627=CARTESIAN_POINT('',(0.0002,-0.0025,0.00425));
#1628=CARTESIAN_POINT('',(0.0002,-0.0025,0.00275));
#1629=CARTESIAN_POINT('',(0.0002,-0.0025,0.00425));
#1630=CARTESIAN_POINT('',(0.0002,-0.0025,0.00275));
#1631=CARTESIAN_POINT('',(0.0002,-0.0025,0.00275));
#1632=CARTESIAN_POINT('',(0.0002,-0.0025,0.00275));
#1633=CARTESIAN_POINT('',(0.0002,-0.0025,0.00425));
#1634=CARTESIAN_POINT('',(0.0002,-0.0025,0.00425));
#1635=CARTESIAN_POINT('',(0.0002,-0.0025,0.00425));
#1636=MECHANICAL_DESIGN_GEOMETRIC_PRESENTATION_REPRESENTATION('',(#996),
#1637);
#1637=(
GEOMETRIC_REPRESENTATION_CONTEXT(3)
GLOBAL_UNCERTAINTY_ASSIGNED_CONTEXT((#1638))
GLOBAL_UNIT_ASSIGNED_CONTEXT((#1641,#1640,#1639))
REPRESENTATION_CONTEXT('Housing','TOP_LEVEL_ASSEMBLY_PART')
);
#1638=UNCERTAINTY_MEASURE_WITH_UNIT(LENGTH_MEASURE(1.E-6),#1641,
'DISTANCE_ACCURACY_VALUE','Maximum Tolerance applied to model');
#1639=(
NAMED_UNIT(*)
SI_UNIT($,.STERADIAN.)
SOLID_ANGLE_UNIT()
);
#1640=(
NAMED_UNIT(*)
PLANE_ANGLE_UNIT()
SI_UNIT($,.RADIAN.)
);
#1641=(
LENGTH_UNIT()
NAMED_UNIT(*)
SI_UNIT($,.METRE.)
);
#1642=PRODUCT_DEFINITION_SHAPE('','',#1643);
#1643=PRODUCT_DEFINITION('','',#1645,#1644);
#1644=PRODUCT_DEFINITION_CONTEXT('',#1651,'design');
#1645=PRODUCT_DEFINITION_FORMATION_WITH_SPECIFIED_SOURCE('','',#1647,
 .NOT_KNOWN.);
#1646=PRODUCT_RELATED_PRODUCT_CATEGORY('','',(#1647));
#1647=PRODUCT('Housing','Housing','Housing',(#1649));
#1648=PRODUCT_CATEGORY('','');
#1649=PRODUCT_CONTEXT('',#1651,'mechanical');
#1650=APPLICATION_PROTOCOL_DEFINITION('international standard',
'ap242_managed_model_based_3d_engineering',2011,#1651);
#1651=APPLICATION_CONTEXT('managed model based 3d engineering');
ENDSEC;
END-ISO-10303-21;
