ISO-10303-21;
HEADER;
/* Generated by software containing ST-Developer
 * from STEP Tools, Inc. (www.steptools.com) 
 */
/* OPTION: using custom renumber hook */

FILE_DESCRIPTION(
/* description */ ('STEP AP242',
'CAx-IF Rec.Pracs.---Representation and Presentation of Product Manufa
cturing Information (PMI)---4.0---2014-10-13',
'CAx-IF Rec.Pracs.---3D Tessellated Geometry---0.4---2014-09-14','2;1'),

/* implementation_level */ '2;1');

FILE_NAME(
/* name */ 'KF128-2.54-4P parts - PlasticBody',
/* time_stamp */ '2025-10-05T05:29:17Z',
/* author */ (''),
/* organization */ (''),
/* preprocessor_version */ 'ST-DEVELOPER v20',
/* originating_system */ 'ONSHAPE BY PTC INC, 1.204',
/* authorisation */ '  ');

FILE_SCHEMA (('AP242_MANAGED_MODEL_BASED_3D_ENGINEERING_MIM_LF { 1 0 10303 442 1 1 4 }'));
ENDSEC;

DATA;
#10=SHAPE_REPRESENTATION_RELATIONSHIP('','',#1406,#11);
#11=ADVANCED_BREP_SHAPE_REPRESENTATION('',(#1404),#2232);
#12=CYLINDRICAL_SURFACE('',#1440,0.0009);
#13=CYLINDRICAL_SURFACE('',#1442,0.0009);
#14=CYLINDRICAL_SURFACE('',#1444,0.0009);
#15=CYLINDRICAL_SURFACE('',#1446,0.0009);
#16=CIRCLE('',#1413,0.0009);
#17=CIRCLE('',#1415,0.0009);
#18=CIRCLE('',#1417,0.0009);
#19=CIRCLE('',#1419,0.0009);
#20=CIRCLE('',#1441,0.0009);
#21=CIRCLE('',#1443,0.0009);
#22=CIRCLE('',#1445,0.0009);
#23=CIRCLE('',#1447,0.0009);
#24=ORIENTED_EDGE('',*,*,#394,.F.);
#25=ORIENTED_EDGE('',*,*,#395,.F.);
#26=ORIENTED_EDGE('',*,*,#396,.F.);
#27=ORIENTED_EDGE('',*,*,#397,.F.);
#28=ORIENTED_EDGE('',*,*,#398,.F.);
#29=ORIENTED_EDGE('',*,*,#399,.F.);
#30=ORIENTED_EDGE('',*,*,#400,.F.);
#31=ORIENTED_EDGE('',*,*,#401,.F.);
#32=ORIENTED_EDGE('',*,*,#402,.F.);
#33=ORIENTED_EDGE('',*,*,#403,.F.);
#34=ORIENTED_EDGE('',*,*,#404,.F.);
#35=ORIENTED_EDGE('',*,*,#405,.F.);
#36=ORIENTED_EDGE('',*,*,#406,.F.);
#37=ORIENTED_EDGE('',*,*,#407,.F.);
#38=ORIENTED_EDGE('',*,*,#408,.F.);
#39=ORIENTED_EDGE('',*,*,#409,.F.);
#40=ORIENTED_EDGE('',*,*,#410,.T.);
#41=ORIENTED_EDGE('',*,*,#411,.T.);
#42=ORIENTED_EDGE('',*,*,#412,.T.);
#43=ORIENTED_EDGE('',*,*,#413,.T.);
#44=ORIENTED_EDGE('',*,*,#414,.T.);
#45=ORIENTED_EDGE('',*,*,#415,.T.);
#46=ORIENTED_EDGE('',*,*,#416,.F.);
#47=ORIENTED_EDGE('',*,*,#417,.F.);
#48=ORIENTED_EDGE('',*,*,#418,.T.);
#49=ORIENTED_EDGE('',*,*,#419,.T.);
#50=ORIENTED_EDGE('',*,*,#420,.F.);
#51=ORIENTED_EDGE('',*,*,#421,.F.);
#52=ORIENTED_EDGE('',*,*,#422,.T.);
#53=ORIENTED_EDGE('',*,*,#423,.T.);
#54=ORIENTED_EDGE('',*,*,#424,.F.);
#55=ORIENTED_EDGE('',*,*,#425,.F.);
#56=ORIENTED_EDGE('',*,*,#426,.T.);
#57=ORIENTED_EDGE('',*,*,#427,.T.);
#58=ORIENTED_EDGE('',*,*,#428,.F.);
#59=ORIENTED_EDGE('',*,*,#429,.F.);
#60=ORIENTED_EDGE('',*,*,#430,.T.);
#61=ORIENTED_EDGE('',*,*,#397,.T.);
#62=ORIENTED_EDGE('',*,*,#431,.F.);
#63=ORIENTED_EDGE('',*,*,#432,.F.);
#64=ORIENTED_EDGE('',*,*,#431,.T.);
#65=ORIENTED_EDGE('',*,*,#396,.T.);
#66=ORIENTED_EDGE('',*,*,#433,.F.);
#67=ORIENTED_EDGE('',*,*,#434,.F.);
#68=ORIENTED_EDGE('',*,*,#433,.T.);
#69=ORIENTED_EDGE('',*,*,#395,.T.);
#70=ORIENTED_EDGE('',*,*,#435,.F.);
#71=ORIENTED_EDGE('',*,*,#436,.F.);
#72=ORIENTED_EDGE('',*,*,#435,.T.);
#73=ORIENTED_EDGE('',*,*,#394,.T.);
#74=ORIENTED_EDGE('',*,*,#430,.F.);
#75=ORIENTED_EDGE('',*,*,#437,.F.);
#76=ORIENTED_EDGE('',*,*,#438,.T.);
#77=ORIENTED_EDGE('',*,*,#401,.T.);
#78=ORIENTED_EDGE('',*,*,#439,.F.);
#79=ORIENTED_EDGE('',*,*,#440,.F.);
#80=ORIENTED_EDGE('',*,*,#439,.T.);
#81=ORIENTED_EDGE('',*,*,#400,.T.);
#82=ORIENTED_EDGE('',*,*,#441,.F.);
#83=ORIENTED_EDGE('',*,*,#442,.F.);
#84=ORIENTED_EDGE('',*,*,#441,.T.);
#85=ORIENTED_EDGE('',*,*,#399,.T.);
#86=ORIENTED_EDGE('',*,*,#443,.F.);
#87=ORIENTED_EDGE('',*,*,#444,.F.);
#88=ORIENTED_EDGE('',*,*,#443,.T.);
#89=ORIENTED_EDGE('',*,*,#398,.T.);
#90=ORIENTED_EDGE('',*,*,#438,.F.);
#91=ORIENTED_EDGE('',*,*,#445,.F.);
#92=ORIENTED_EDGE('',*,*,#446,.T.);
#93=ORIENTED_EDGE('',*,*,#405,.T.);
#94=ORIENTED_EDGE('',*,*,#447,.F.);
#95=ORIENTED_EDGE('',*,*,#448,.F.);
#96=ORIENTED_EDGE('',*,*,#447,.T.);
#97=ORIENTED_EDGE('',*,*,#404,.T.);
#98=ORIENTED_EDGE('',*,*,#449,.F.);
#99=ORIENTED_EDGE('',*,*,#450,.F.);
#100=ORIENTED_EDGE('',*,*,#449,.T.);
#101=ORIENTED_EDGE('',*,*,#403,.T.);
#102=ORIENTED_EDGE('',*,*,#451,.F.);
#103=ORIENTED_EDGE('',*,*,#452,.F.);
#104=ORIENTED_EDGE('',*,*,#451,.T.);
#105=ORIENTED_EDGE('',*,*,#402,.T.);
#106=ORIENTED_EDGE('',*,*,#446,.F.);
#107=ORIENTED_EDGE('',*,*,#453,.F.);
#108=ORIENTED_EDGE('',*,*,#454,.T.);
#109=ORIENTED_EDGE('',*,*,#409,.T.);
#110=ORIENTED_EDGE('',*,*,#455,.F.);
#111=ORIENTED_EDGE('',*,*,#456,.F.);
#112=ORIENTED_EDGE('',*,*,#455,.T.);
#113=ORIENTED_EDGE('',*,*,#408,.T.);
#114=ORIENTED_EDGE('',*,*,#457,.F.);
#115=ORIENTED_EDGE('',*,*,#458,.F.);
#116=ORIENTED_EDGE('',*,*,#457,.T.);
#117=ORIENTED_EDGE('',*,*,#407,.T.);
#118=ORIENTED_EDGE('',*,*,#459,.F.);
#119=ORIENTED_EDGE('',*,*,#460,.F.);
#120=ORIENTED_EDGE('',*,*,#459,.T.);
#121=ORIENTED_EDGE('',*,*,#406,.T.);
#122=ORIENTED_EDGE('',*,*,#454,.F.);
#123=ORIENTED_EDGE('',*,*,#461,.F.);
#124=ORIENTED_EDGE('',*,*,#410,.F.);
#125=ORIENTED_EDGE('',*,*,#462,.T.);
#126=ORIENTED_EDGE('',*,*,#411,.F.);
#127=ORIENTED_EDGE('',*,*,#463,.T.);
#128=ORIENTED_EDGE('',*,*,#412,.F.);
#129=ORIENTED_EDGE('',*,*,#464,.T.);
#130=ORIENTED_EDGE('',*,*,#413,.F.);
#131=ORIENTED_EDGE('',*,*,#465,.T.);
#132=ORIENTED_EDGE('',*,*,#466,.F.);
#133=ORIENTED_EDGE('',*,*,#467,.T.);
#134=ORIENTED_EDGE('',*,*,#417,.T.);
#135=ORIENTED_EDGE('',*,*,#468,.T.);
#136=ORIENTED_EDGE('',*,*,#469,.F.);
#137=ORIENTED_EDGE('',*,*,#470,.T.);
#138=ORIENTED_EDGE('',*,*,#421,.T.);
#139=ORIENTED_EDGE('',*,*,#471,.T.);
#140=ORIENTED_EDGE('',*,*,#472,.F.);
#141=ORIENTED_EDGE('',*,*,#473,.T.);
#142=ORIENTED_EDGE('',*,*,#425,.T.);
#143=ORIENTED_EDGE('',*,*,#474,.T.);
#144=ORIENTED_EDGE('',*,*,#475,.F.);
#145=ORIENTED_EDGE('',*,*,#476,.T.);
#146=ORIENTED_EDGE('',*,*,#429,.T.);
#147=ORIENTED_EDGE('',*,*,#477,.T.);
#148=ORIENTED_EDGE('',*,*,#467,.F.);
#149=ORIENTED_EDGE('',*,*,#478,.F.);
#150=ORIENTED_EDGE('',*,*,#479,.T.);
#151=ORIENTED_EDGE('',*,*,#480,.T.);
#152=ORIENTED_EDGE('',*,*,#414,.F.);
#153=ORIENTED_EDGE('',*,*,#481,.F.);
#154=ORIENTED_EDGE('',*,*,#415,.F.);
#155=ORIENTED_EDGE('',*,*,#480,.F.);
#156=ORIENTED_EDGE('',*,*,#482,.F.);
#157=ORIENTED_EDGE('',*,*,#468,.F.);
#158=ORIENTED_EDGE('',*,*,#416,.T.);
#159=ORIENTED_EDGE('',*,*,#481,.T.);
#160=ORIENTED_EDGE('',*,*,#483,.T.);
#161=ORIENTED_EDGE('',*,*,#484,.F.);
#162=ORIENTED_EDGE('',*,*,#470,.F.);
#163=ORIENTED_EDGE('',*,*,#485,.F.);
#164=ORIENTED_EDGE('',*,*,#486,.T.);
#165=ORIENTED_EDGE('',*,*,#487,.T.);
#166=ORIENTED_EDGE('',*,*,#418,.F.);
#167=ORIENTED_EDGE('',*,*,#488,.F.);
#168=ORIENTED_EDGE('',*,*,#419,.F.);
#169=ORIENTED_EDGE('',*,*,#487,.F.);
#170=ORIENTED_EDGE('',*,*,#489,.F.);
#171=ORIENTED_EDGE('',*,*,#471,.F.);
#172=ORIENTED_EDGE('',*,*,#420,.T.);
#173=ORIENTED_EDGE('',*,*,#488,.T.);
#174=ORIENTED_EDGE('',*,*,#490,.T.);
#175=ORIENTED_EDGE('',*,*,#491,.F.);
#176=ORIENTED_EDGE('',*,*,#473,.F.);
#177=ORIENTED_EDGE('',*,*,#492,.F.);
#178=ORIENTED_EDGE('',*,*,#493,.T.);
#179=ORIENTED_EDGE('',*,*,#494,.T.);
#180=ORIENTED_EDGE('',*,*,#422,.F.);
#181=ORIENTED_EDGE('',*,*,#495,.F.);
#182=ORIENTED_EDGE('',*,*,#423,.F.);
#183=ORIENTED_EDGE('',*,*,#494,.F.);
#184=ORIENTED_EDGE('',*,*,#496,.F.);
#185=ORIENTED_EDGE('',*,*,#474,.F.);
#186=ORIENTED_EDGE('',*,*,#424,.T.);
#187=ORIENTED_EDGE('',*,*,#495,.T.);
#188=ORIENTED_EDGE('',*,*,#497,.T.);
#189=ORIENTED_EDGE('',*,*,#498,.F.);
#190=ORIENTED_EDGE('',*,*,#476,.F.);
#191=ORIENTED_EDGE('',*,*,#499,.F.);
#192=ORIENTED_EDGE('',*,*,#500,.T.);
#193=ORIENTED_EDGE('',*,*,#501,.T.);
#194=ORIENTED_EDGE('',*,*,#426,.F.);
#195=ORIENTED_EDGE('',*,*,#502,.F.);
#196=ORIENTED_EDGE('',*,*,#427,.F.);
#197=ORIENTED_EDGE('',*,*,#501,.F.);
#198=ORIENTED_EDGE('',*,*,#503,.F.);
#199=ORIENTED_EDGE('',*,*,#477,.F.);
#200=ORIENTED_EDGE('',*,*,#428,.T.);
#201=ORIENTED_EDGE('',*,*,#502,.T.);
#202=ORIENTED_EDGE('',*,*,#504,.T.);
#203=ORIENTED_EDGE('',*,*,#505,.F.);
#204=ORIENTED_EDGE('',*,*,#437,.T.);
#205=ORIENTED_EDGE('',*,*,#432,.T.);
#206=ORIENTED_EDGE('',*,*,#434,.T.);
#207=ORIENTED_EDGE('',*,*,#436,.T.);
#208=ORIENTED_EDGE('',*,*,#506,.T.);
#209=ORIENTED_EDGE('',*,*,#507,.T.);
#210=ORIENTED_EDGE('',*,*,#508,.T.);
#211=ORIENTED_EDGE('',*,*,#509,.T.);
#212=ORIENTED_EDGE('',*,*,#445,.T.);
#213=ORIENTED_EDGE('',*,*,#440,.T.);
#214=ORIENTED_EDGE('',*,*,#442,.T.);
#215=ORIENTED_EDGE('',*,*,#444,.T.);
#216=ORIENTED_EDGE('',*,*,#510,.T.);
#217=ORIENTED_EDGE('',*,*,#511,.T.);
#218=ORIENTED_EDGE('',*,*,#512,.T.);
#219=ORIENTED_EDGE('',*,*,#513,.T.);
#220=ORIENTED_EDGE('',*,*,#453,.T.);
#221=ORIENTED_EDGE('',*,*,#448,.T.);
#222=ORIENTED_EDGE('',*,*,#450,.T.);
#223=ORIENTED_EDGE('',*,*,#452,.T.);
#224=ORIENTED_EDGE('',*,*,#514,.T.);
#225=ORIENTED_EDGE('',*,*,#515,.T.);
#226=ORIENTED_EDGE('',*,*,#516,.T.);
#227=ORIENTED_EDGE('',*,*,#517,.T.);
#228=ORIENTED_EDGE('',*,*,#461,.T.);
#229=ORIENTED_EDGE('',*,*,#456,.T.);
#230=ORIENTED_EDGE('',*,*,#458,.T.);
#231=ORIENTED_EDGE('',*,*,#460,.T.);
#232=ORIENTED_EDGE('',*,*,#518,.T.);
#233=ORIENTED_EDGE('',*,*,#519,.T.);
#234=ORIENTED_EDGE('',*,*,#520,.T.);
#235=ORIENTED_EDGE('',*,*,#521,.T.);
#236=ORIENTED_EDGE('',*,*,#522,.T.);
#237=ORIENTED_EDGE('',*,*,#523,.T.);
#238=ORIENTED_EDGE('',*,*,#524,.F.);
#239=ORIENTED_EDGE('',*,*,#525,.F.);
#240=ORIENTED_EDGE('',*,*,#462,.F.);
#241=ORIENTED_EDGE('',*,*,#463,.F.);
#242=ORIENTED_EDGE('',*,*,#464,.F.);
#243=ORIENTED_EDGE('',*,*,#465,.F.);
#244=ORIENTED_EDGE('',*,*,#524,.T.);
#245=ORIENTED_EDGE('',*,*,#526,.T.);
#246=ORIENTED_EDGE('',*,*,#527,.F.);
#247=ORIENTED_EDGE('',*,*,#528,.F.);
#248=ORIENTED_EDGE('',*,*,#529,.F.);
#249=ORIENTED_EDGE('',*,*,#527,.T.);
#250=ORIENTED_EDGE('',*,*,#530,.T.);
#251=ORIENTED_EDGE('',*,*,#531,.F.);
#252=ORIENTED_EDGE('',*,*,#478,.T.);
#253=ORIENTED_EDGE('',*,*,#466,.T.);
#254=ORIENTED_EDGE('',*,*,#484,.T.);
#255=ORIENTED_EDGE('',*,*,#532,.F.);
#256=ORIENTED_EDGE('',*,*,#485,.T.);
#257=ORIENTED_EDGE('',*,*,#469,.T.);
#258=ORIENTED_EDGE('',*,*,#491,.T.);
#259=ORIENTED_EDGE('',*,*,#533,.F.);
#260=ORIENTED_EDGE('',*,*,#492,.T.);
#261=ORIENTED_EDGE('',*,*,#472,.T.);
#262=ORIENTED_EDGE('',*,*,#498,.T.);
#263=ORIENTED_EDGE('',*,*,#534,.F.);
#264=ORIENTED_EDGE('',*,*,#499,.T.);
#265=ORIENTED_EDGE('',*,*,#475,.T.);
#266=ORIENTED_EDGE('',*,*,#505,.T.);
#267=ORIENTED_EDGE('',*,*,#535,.F.);
#268=ORIENTED_EDGE('',*,*,#535,.T.);
#269=ORIENTED_EDGE('',*,*,#504,.F.);
#270=ORIENTED_EDGE('',*,*,#503,.T.);
#271=ORIENTED_EDGE('',*,*,#500,.F.);
#272=ORIENTED_EDGE('',*,*,#534,.T.);
#273=ORIENTED_EDGE('',*,*,#497,.F.);
#274=ORIENTED_EDGE('',*,*,#496,.T.);
#275=ORIENTED_EDGE('',*,*,#493,.F.);
#276=ORIENTED_EDGE('',*,*,#533,.T.);
#277=ORIENTED_EDGE('',*,*,#490,.F.);
#278=ORIENTED_EDGE('',*,*,#489,.T.);
#279=ORIENTED_EDGE('',*,*,#486,.F.);
#280=ORIENTED_EDGE('',*,*,#532,.T.);
#281=ORIENTED_EDGE('',*,*,#483,.F.);
#282=ORIENTED_EDGE('',*,*,#482,.T.);
#283=ORIENTED_EDGE('',*,*,#479,.F.);
#284=ORIENTED_EDGE('',*,*,#531,.T.);
#285=ORIENTED_EDGE('',*,*,#536,.F.);
#286=ORIENTED_EDGE('',*,*,#537,.F.);
#287=ORIENTED_EDGE('',*,*,#538,.T.);
#288=ORIENTED_EDGE('',*,*,#539,.T.);
#289=ORIENTED_EDGE('',*,*,#540,.T.);
#290=ORIENTED_EDGE('',*,*,#508,.F.);
#291=ORIENTED_EDGE('',*,*,#541,.F.);
#292=ORIENTED_EDGE('',*,*,#542,.T.);
#293=ORIENTED_EDGE('',*,*,#541,.T.);
#294=ORIENTED_EDGE('',*,*,#507,.F.);
#295=ORIENTED_EDGE('',*,*,#543,.F.);
#296=ORIENTED_EDGE('',*,*,#544,.T.);
#297=ORIENTED_EDGE('',*,*,#545,.T.);
#298=ORIENTED_EDGE('',*,*,#509,.F.);
#299=ORIENTED_EDGE('',*,*,#540,.F.);
#300=ORIENTED_EDGE('',*,*,#546,.T.);
#301=ORIENTED_EDGE('',*,*,#543,.T.);
#302=ORIENTED_EDGE('',*,*,#506,.F.);
#303=ORIENTED_EDGE('',*,*,#545,.F.);
#304=ORIENTED_EDGE('',*,*,#547,.T.);
#305=ORIENTED_EDGE('',*,*,#548,.T.);
#306=ORIENTED_EDGE('',*,*,#512,.F.);
#307=ORIENTED_EDGE('',*,*,#549,.F.);
#308=ORIENTED_EDGE('',*,*,#550,.T.);
#309=ORIENTED_EDGE('',*,*,#549,.T.);
#310=ORIENTED_EDGE('',*,*,#511,.F.);
#311=ORIENTED_EDGE('',*,*,#551,.F.);
#312=ORIENTED_EDGE('',*,*,#552,.T.);
#313=ORIENTED_EDGE('',*,*,#553,.T.);
#314=ORIENTED_EDGE('',*,*,#513,.F.);
#315=ORIENTED_EDGE('',*,*,#548,.F.);
#316=ORIENTED_EDGE('',*,*,#554,.T.);
#317=ORIENTED_EDGE('',*,*,#551,.T.);
#318=ORIENTED_EDGE('',*,*,#510,.F.);
#319=ORIENTED_EDGE('',*,*,#553,.F.);
#320=ORIENTED_EDGE('',*,*,#555,.T.);
#321=ORIENTED_EDGE('',*,*,#556,.T.);
#322=ORIENTED_EDGE('',*,*,#516,.F.);
#323=ORIENTED_EDGE('',*,*,#557,.F.);
#324=ORIENTED_EDGE('',*,*,#558,.T.);
#325=ORIENTED_EDGE('',*,*,#557,.T.);
#326=ORIENTED_EDGE('',*,*,#515,.F.);
#327=ORIENTED_EDGE('',*,*,#559,.F.);
#328=ORIENTED_EDGE('',*,*,#560,.T.);
#329=ORIENTED_EDGE('',*,*,#561,.T.);
#330=ORIENTED_EDGE('',*,*,#517,.F.);
#331=ORIENTED_EDGE('',*,*,#556,.F.);
#332=ORIENTED_EDGE('',*,*,#562,.T.);
#333=ORIENTED_EDGE('',*,*,#559,.T.);
#334=ORIENTED_EDGE('',*,*,#514,.F.);
#335=ORIENTED_EDGE('',*,*,#561,.F.);
#336=ORIENTED_EDGE('',*,*,#563,.T.);
#337=ORIENTED_EDGE('',*,*,#564,.T.);
#338=ORIENTED_EDGE('',*,*,#521,.F.);
#339=ORIENTED_EDGE('',*,*,#565,.F.);
#340=ORIENTED_EDGE('',*,*,#566,.T.);
#341=ORIENTED_EDGE('',*,*,#565,.T.);
#342=ORIENTED_EDGE('',*,*,#520,.F.);
#343=ORIENTED_EDGE('',*,*,#567,.F.);
#344=ORIENTED_EDGE('',*,*,#568,.T.);
#345=ORIENTED_EDGE('',*,*,#567,.T.);
#346=ORIENTED_EDGE('',*,*,#519,.F.);
#347=ORIENTED_EDGE('',*,*,#569,.F.);
#348=ORIENTED_EDGE('',*,*,#570,.T.);
#349=ORIENTED_EDGE('',*,*,#569,.T.);
#350=ORIENTED_EDGE('',*,*,#518,.F.);
#351=ORIENTED_EDGE('',*,*,#564,.F.);
#352=ORIENTED_EDGE('',*,*,#571,.T.);
#353=ORIENTED_EDGE('',*,*,#572,.T.);
#354=ORIENTED_EDGE('',*,*,#522,.F.);
#355=ORIENTED_EDGE('',*,*,#573,.F.);
#356=ORIENTED_EDGE('',*,*,#574,.F.);
#357=ORIENTED_EDGE('',*,*,#575,.T.);
#358=ORIENTED_EDGE('',*,*,#536,.T.);
#359=ORIENTED_EDGE('',*,*,#530,.F.);
#360=ORIENTED_EDGE('',*,*,#526,.F.);
#361=ORIENTED_EDGE('',*,*,#523,.F.);
#362=ORIENTED_EDGE('',*,*,#572,.F.);
#363=ORIENTED_EDGE('',*,*,#573,.T.);
#364=ORIENTED_EDGE('',*,*,#525,.T.);
#365=ORIENTED_EDGE('',*,*,#528,.T.);
#366=ORIENTED_EDGE('',*,*,#529,.T.);
#367=ORIENTED_EDGE('',*,*,#538,.F.);
#368=ORIENTED_EDGE('',*,*,#576,.F.);
#369=ORIENTED_EDGE('',*,*,#577,.T.);
#370=ORIENTED_EDGE('',*,*,#576,.T.);
#371=ORIENTED_EDGE('',*,*,#537,.T.);
#372=ORIENTED_EDGE('',*,*,#575,.F.);
#373=ORIENTED_EDGE('',*,*,#578,.F.);
#374=ORIENTED_EDGE('',*,*,#546,.F.);
#375=ORIENTED_EDGE('',*,*,#544,.F.);
#376=ORIENTED_EDGE('',*,*,#539,.F.);
#377=ORIENTED_EDGE('',*,*,#542,.F.);
#378=ORIENTED_EDGE('',*,*,#554,.F.);
#379=ORIENTED_EDGE('',*,*,#552,.F.);
#380=ORIENTED_EDGE('',*,*,#547,.F.);
#381=ORIENTED_EDGE('',*,*,#550,.F.);
#382=ORIENTED_EDGE('',*,*,#562,.F.);
#383=ORIENTED_EDGE('',*,*,#560,.F.);
#384=ORIENTED_EDGE('',*,*,#555,.F.);
#385=ORIENTED_EDGE('',*,*,#558,.F.);
#386=ORIENTED_EDGE('',*,*,#570,.F.);
#387=ORIENTED_EDGE('',*,*,#563,.F.);
#388=ORIENTED_EDGE('',*,*,#566,.F.);
#389=ORIENTED_EDGE('',*,*,#568,.F.);
#390=ORIENTED_EDGE('',*,*,#578,.T.);
#391=ORIENTED_EDGE('',*,*,#574,.T.);
#392=ORIENTED_EDGE('',*,*,#571,.F.);
#393=ORIENTED_EDGE('',*,*,#577,.F.);
#394=EDGE_CURVE('',#579,#580,#705,.T.);
#395=EDGE_CURVE('',#581,#579,#706,.T.);
#396=EDGE_CURVE('',#582,#581,#707,.T.);
#397=EDGE_CURVE('',#580,#582,#708,.T.);
#398=EDGE_CURVE('',#583,#584,#709,.T.);
#399=EDGE_CURVE('',#585,#583,#710,.T.);
#400=EDGE_CURVE('',#586,#585,#711,.T.);
#401=EDGE_CURVE('',#584,#586,#712,.T.);
#402=EDGE_CURVE('',#587,#588,#713,.T.);
#403=EDGE_CURVE('',#589,#587,#714,.T.);
#404=EDGE_CURVE('',#590,#589,#715,.T.);
#405=EDGE_CURVE('',#588,#590,#716,.T.);
#406=EDGE_CURVE('',#591,#592,#717,.T.);
#407=EDGE_CURVE('',#593,#591,#718,.T.);
#408=EDGE_CURVE('',#594,#593,#719,.T.);
#409=EDGE_CURVE('',#592,#594,#720,.T.);
#410=EDGE_CURVE('',#595,#595,#16,.T.);
#411=EDGE_CURVE('',#596,#596,#17,.T.);
#412=EDGE_CURVE('',#597,#597,#18,.T.);
#413=EDGE_CURVE('',#598,#598,#19,.T.);
#414=EDGE_CURVE('',#599,#600,#721,.T.);
#415=EDGE_CURVE('',#600,#601,#722,.T.);
#416=EDGE_CURVE('',#602,#601,#723,.T.);
#417=EDGE_CURVE('',#599,#602,#724,.T.);
#418=EDGE_CURVE('',#603,#604,#725,.T.);
#419=EDGE_CURVE('',#604,#605,#726,.T.);
#420=EDGE_CURVE('',#606,#605,#727,.T.);
#421=EDGE_CURVE('',#603,#606,#728,.T.);
#422=EDGE_CURVE('',#607,#608,#729,.T.);
#423=EDGE_CURVE('',#608,#609,#730,.T.);
#424=EDGE_CURVE('',#610,#609,#731,.T.);
#425=EDGE_CURVE('',#607,#610,#732,.T.);
#426=EDGE_CURVE('',#611,#612,#733,.T.);
#427=EDGE_CURVE('',#612,#613,#734,.T.);
#428=EDGE_CURVE('',#614,#613,#735,.T.);
#429=EDGE_CURVE('',#611,#614,#736,.T.);
#430=EDGE_CURVE('',#615,#580,#737,.T.);
#431=EDGE_CURVE('',#616,#582,#738,.T.);
#432=EDGE_CURVE('',#615,#616,#739,.T.);
#433=EDGE_CURVE('',#617,#581,#740,.T.);
#434=EDGE_CURVE('',#616,#617,#741,.T.);
#435=EDGE_CURVE('',#618,#579,#742,.T.);
#436=EDGE_CURVE('',#617,#618,#743,.T.);
#437=EDGE_CURVE('',#618,#615,#744,.T.);
#438=EDGE_CURVE('',#619,#584,#745,.T.);
#439=EDGE_CURVE('',#620,#586,#746,.T.);
#440=EDGE_CURVE('',#619,#620,#747,.T.);
#441=EDGE_CURVE('',#621,#585,#748,.T.);
#442=EDGE_CURVE('',#620,#621,#749,.T.);
#443=EDGE_CURVE('',#622,#583,#750,.T.);
#444=EDGE_CURVE('',#621,#622,#751,.T.);
#445=EDGE_CURVE('',#622,#619,#752,.T.);
#446=EDGE_CURVE('',#623,#588,#753,.T.);
#447=EDGE_CURVE('',#624,#590,#754,.T.);
#448=EDGE_CURVE('',#623,#624,#755,.T.);
#449=EDGE_CURVE('',#625,#589,#756,.T.);
#450=EDGE_CURVE('',#624,#625,#757,.T.);
#451=EDGE_CURVE('',#626,#587,#758,.T.);
#452=EDGE_CURVE('',#625,#626,#759,.T.);
#453=EDGE_CURVE('',#626,#623,#760,.T.);
#454=EDGE_CURVE('',#627,#592,#761,.T.);
#455=EDGE_CURVE('',#628,#594,#762,.T.);
#456=EDGE_CURVE('',#627,#628,#763,.T.);
#457=EDGE_CURVE('',#629,#593,#764,.T.);
#458=EDGE_CURVE('',#628,#629,#765,.T.);
#459=EDGE_CURVE('',#630,#591,#766,.T.);
#460=EDGE_CURVE('',#629,#630,#767,.T.);
#461=EDGE_CURVE('',#630,#627,#768,.T.);
#462=EDGE_CURVE('',#631,#631,#20,.T.);
#463=EDGE_CURVE('',#632,#632,#21,.T.);
#464=EDGE_CURVE('',#633,#633,#22,.T.);
#465=EDGE_CURVE('',#634,#634,#23,.T.);
#466=EDGE_CURVE('',#635,#636,#769,.T.);
#467=EDGE_CURVE('',#635,#599,#770,.T.);
#468=EDGE_CURVE('',#602,#636,#771,.T.);
#469=EDGE_CURVE('',#637,#638,#772,.T.);
#470=EDGE_CURVE('',#637,#603,#773,.T.);
#471=EDGE_CURVE('',#606,#638,#774,.T.);
#472=EDGE_CURVE('',#639,#640,#775,.T.);
#473=EDGE_CURVE('',#639,#607,#776,.T.);
#474=EDGE_CURVE('',#610,#640,#777,.T.);
#475=EDGE_CURVE('',#641,#642,#778,.T.);
#476=EDGE_CURVE('',#641,#611,#779,.T.);
#477=EDGE_CURVE('',#614,#642,#780,.T.);
#478=EDGE_CURVE('',#643,#635,#781,.T.);
#479=EDGE_CURVE('',#643,#644,#782,.T.);
#480=EDGE_CURVE('',#644,#600,#783,.T.);
#481=EDGE_CURVE('',#601,#645,#784,.T.);
#482=EDGE_CURVE('',#645,#644,#785,.T.);
#483=EDGE_CURVE('',#645,#646,#786,.T.);
#484=EDGE_CURVE('',#636,#646,#787,.T.);
#485=EDGE_CURVE('',#647,#637,#788,.T.);
#486=EDGE_CURVE('',#647,#648,#789,.T.);
#487=EDGE_CURVE('',#648,#604,#790,.T.);
#488=EDGE_CURVE('',#605,#649,#791,.T.);
#489=EDGE_CURVE('',#649,#648,#792,.T.);
#490=EDGE_CURVE('',#649,#650,#793,.T.);
#491=EDGE_CURVE('',#638,#650,#794,.T.);
#492=EDGE_CURVE('',#651,#639,#795,.T.);
#493=EDGE_CURVE('',#651,#652,#796,.T.);
#494=EDGE_CURVE('',#652,#608,#797,.T.);
#495=EDGE_CURVE('',#609,#653,#798,.T.);
#496=EDGE_CURVE('',#653,#652,#799,.T.);
#497=EDGE_CURVE('',#653,#654,#800,.T.);
#498=EDGE_CURVE('',#640,#654,#801,.T.);
#499=EDGE_CURVE('',#655,#641,#802,.T.);
#500=EDGE_CURVE('',#655,#656,#803,.T.);
#501=EDGE_CURVE('',#656,#612,#804,.T.);
#502=EDGE_CURVE('',#613,#657,#805,.T.);
#503=EDGE_CURVE('',#657,#656,#806,.T.);
#504=EDGE_CURVE('',#657,#658,#807,.T.);
#505=EDGE_CURVE('',#642,#658,#808,.T.);
#506=EDGE_CURVE('',#659,#660,#809,.T.);
#507=EDGE_CURVE('',#660,#661,#810,.T.);
#508=EDGE_CURVE('',#661,#662,#811,.T.);
#509=EDGE_CURVE('',#662,#659,#812,.T.);
#510=EDGE_CURVE('',#663,#664,#813,.T.);
#511=EDGE_CURVE('',#664,#665,#814,.T.);
#512=EDGE_CURVE('',#665,#666,#815,.T.);
#513=EDGE_CURVE('',#666,#663,#816,.T.);
#514=EDGE_CURVE('',#667,#668,#817,.T.);
#515=EDGE_CURVE('',#668,#669,#818,.T.);
#516=EDGE_CURVE('',#669,#670,#819,.T.);
#517=EDGE_CURVE('',#670,#667,#820,.T.);
#518=EDGE_CURVE('',#671,#672,#821,.T.);
#519=EDGE_CURVE('',#672,#673,#822,.T.);
#520=EDGE_CURVE('',#673,#674,#823,.T.);
#521=EDGE_CURVE('',#674,#671,#824,.T.);
#522=EDGE_CURVE('',#675,#676,#825,.T.);
#523=EDGE_CURVE('',#676,#677,#826,.T.);
#524=EDGE_CURVE('',#678,#677,#827,.T.);
#525=EDGE_CURVE('',#675,#678,#828,.T.);
#526=EDGE_CURVE('',#677,#679,#829,.T.);
#527=EDGE_CURVE('',#680,#679,#830,.T.);
#528=EDGE_CURVE('',#678,#680,#831,.T.);
#529=EDGE_CURVE('',#680,#681,#832,.T.);
#530=EDGE_CURVE('',#679,#682,#833,.T.);
#531=EDGE_CURVE('',#643,#682,#834,.T.);
#532=EDGE_CURVE('',#647,#646,#835,.T.);
#533=EDGE_CURVE('',#651,#650,#836,.T.);
#534=EDGE_CURVE('',#655,#654,#837,.T.);
#535=EDGE_CURVE('',#681,#658,#838,.T.);
#536=EDGE_CURVE('',#683,#682,#839,.T.);
#537=EDGE_CURVE('',#684,#683,#840,.T.);
#538=EDGE_CURVE('',#684,#681,#841,.T.);
#539=EDGE_CURVE('',#685,#686,#842,.T.);
#540=EDGE_CURVE('',#686,#662,#843,.T.);
#541=EDGE_CURVE('',#685,#661,#844,.T.);
#542=EDGE_CURVE('',#687,#685,#845,.T.);
#543=EDGE_CURVE('',#687,#660,#846,.T.);
#544=EDGE_CURVE('',#686,#688,#847,.T.);
#545=EDGE_CURVE('',#688,#659,#848,.T.);
#546=EDGE_CURVE('',#688,#687,#849,.T.);
#547=EDGE_CURVE('',#689,#690,#850,.T.);
#548=EDGE_CURVE('',#690,#666,#851,.T.);
#549=EDGE_CURVE('',#689,#665,#852,.T.);
#550=EDGE_CURVE('',#691,#689,#853,.T.);
#551=EDGE_CURVE('',#691,#664,#854,.T.);
#552=EDGE_CURVE('',#690,#692,#855,.T.);
#553=EDGE_CURVE('',#692,#663,#856,.T.);
#554=EDGE_CURVE('',#692,#691,#857,.T.);
#555=EDGE_CURVE('',#693,#694,#858,.T.);
#556=EDGE_CURVE('',#694,#670,#859,.T.);
#557=EDGE_CURVE('',#693,#669,#860,.T.);
#558=EDGE_CURVE('',#695,#693,#861,.T.);
#559=EDGE_CURVE('',#695,#668,#862,.T.);
#560=EDGE_CURVE('',#694,#696,#863,.T.);
#561=EDGE_CURVE('',#696,#667,#864,.T.);
#562=EDGE_CURVE('',#696,#695,#865,.T.);
#563=EDGE_CURVE('',#697,#698,#866,.T.);
#564=EDGE_CURVE('',#698,#671,#867,.T.);
#565=EDGE_CURVE('',#697,#674,#868,.T.);
#566=EDGE_CURVE('',#699,#697,#869,.T.);
#567=EDGE_CURVE('',#699,#673,#870,.T.);
#568=EDGE_CURVE('',#700,#699,#871,.T.);
#569=EDGE_CURVE('',#700,#672,#872,.T.);
#570=EDGE_CURVE('',#698,#700,#873,.T.);
#571=EDGE_CURVE('',#701,#702,#874,.T.);
#572=EDGE_CURVE('',#702,#676,#875,.T.);
#573=EDGE_CURVE('',#701,#675,#876,.T.);
#574=EDGE_CURVE('',#703,#702,#877,.T.);
#575=EDGE_CURVE('',#703,#683,#878,.T.);
#576=EDGE_CURVE('',#704,#684,#879,.T.);
#577=EDGE_CURVE('',#704,#701,#880,.T.);
#578=EDGE_CURVE('',#704,#703,#881,.T.);
#579=VERTEX_POINT('',#1845);
#580=VERTEX_POINT('',#1846);
#581=VERTEX_POINT('',#1848);
#582=VERTEX_POINT('',#1850);
#583=VERTEX_POINT('',#1854);
#584=VERTEX_POINT('',#1855);
#585=VERTEX_POINT('',#1857);
#586=VERTEX_POINT('',#1859);
#587=VERTEX_POINT('',#1863);
#588=VERTEX_POINT('',#1864);
#589=VERTEX_POINT('',#1866);
#590=VERTEX_POINT('',#1868);
#591=VERTEX_POINT('',#1872);
#592=VERTEX_POINT('',#1873);
#593=VERTEX_POINT('',#1875);
#594=VERTEX_POINT('',#1877);
#595=VERTEX_POINT('',#1881);
#596=VERTEX_POINT('',#1884);
#597=VERTEX_POINT('',#1887);
#598=VERTEX_POINT('',#1890);
#599=VERTEX_POINT('',#1893);
#600=VERTEX_POINT('',#1894);
#601=VERTEX_POINT('',#1896);
#602=VERTEX_POINT('',#1898);
#603=VERTEX_POINT('',#1902);
#604=VERTEX_POINT('',#1903);
#605=VERTEX_POINT('',#1905);
#606=VERTEX_POINT('',#1907);
#607=VERTEX_POINT('',#1911);
#608=VERTEX_POINT('',#1912);
#609=VERTEX_POINT('',#1914);
#610=VERTEX_POINT('',#1916);
#611=VERTEX_POINT('',#1920);
#612=VERTEX_POINT('',#1921);
#613=VERTEX_POINT('',#1923);
#614=VERTEX_POINT('',#1925);
#615=VERTEX_POINT('',#1929);
#616=VERTEX_POINT('',#1931);
#617=VERTEX_POINT('',#1935);
#618=VERTEX_POINT('',#1939);
#619=VERTEX_POINT('',#1945);
#620=VERTEX_POINT('',#1947);
#621=VERTEX_POINT('',#1951);
#622=VERTEX_POINT('',#1955);
#623=VERTEX_POINT('',#1961);
#624=VERTEX_POINT('',#1963);
#625=VERTEX_POINT('',#1967);
#626=VERTEX_POINT('',#1971);
#627=VERTEX_POINT('',#1977);
#628=VERTEX_POINT('',#1979);
#629=VERTEX_POINT('',#1983);
#630=VERTEX_POINT('',#1987);
#631=VERTEX_POINT('',#1993);
#632=VERTEX_POINT('',#1996);
#633=VERTEX_POINT('',#1999);
#634=VERTEX_POINT('',#2002);
#635=VERTEX_POINT('',#2005);
#636=VERTEX_POINT('',#2006);
#637=VERTEX_POINT('',#2011);
#638=VERTEX_POINT('',#2012);
#639=VERTEX_POINT('',#2017);
#640=VERTEX_POINT('',#2018);
#641=VERTEX_POINT('',#2023);
#642=VERTEX_POINT('',#2024);
#643=VERTEX_POINT('',#2029);
#644=VERTEX_POINT('',#2031);
#645=VERTEX_POINT('',#2035);
#646=VERTEX_POINT('',#2039);
#647=VERTEX_POINT('',#2043);
#648=VERTEX_POINT('',#2045);
#649=VERTEX_POINT('',#2049);
#650=VERTEX_POINT('',#2053);
#651=VERTEX_POINT('',#2057);
#652=VERTEX_POINT('',#2059);
#653=VERTEX_POINT('',#2063);
#654=VERTEX_POINT('',#2067);
#655=VERTEX_POINT('',#2071);
#656=VERTEX_POINT('',#2073);
#657=VERTEX_POINT('',#2077);
#658=VERTEX_POINT('',#2081);
#659=VERTEX_POINT('',#2085);
#660=VERTEX_POINT('',#2086);
#661=VERTEX_POINT('',#2088);
#662=VERTEX_POINT('',#2090);
#663=VERTEX_POINT('',#2094);
#664=VERTEX_POINT('',#2095);
#665=VERTEX_POINT('',#2097);
#666=VERTEX_POINT('',#2099);
#667=VERTEX_POINT('',#2103);
#668=VERTEX_POINT('',#2104);
#669=VERTEX_POINT('',#2106);
#670=VERTEX_POINT('',#2108);
#671=VERTEX_POINT('',#2112);
#672=VERTEX_POINT('',#2113);
#673=VERTEX_POINT('',#2115);
#674=VERTEX_POINT('',#2117);
#675=VERTEX_POINT('',#2121);
#676=VERTEX_POINT('',#2122);
#677=VERTEX_POINT('',#2124);
#678=VERTEX_POINT('',#2126);
#679=VERTEX_POINT('',#2130);
#680=VERTEX_POINT('',#2132);
#681=VERTEX_POINT('',#2136);
#682=VERTEX_POINT('',#2138);
#683=VERTEX_POINT('',#2146);
#684=VERTEX_POINT('',#2148);
#685=VERTEX_POINT('',#2152);
#686=VERTEX_POINT('',#2153);
#687=VERTEX_POINT('',#2158);
#688=VERTEX_POINT('',#2162);
#689=VERTEX_POINT('',#2168);
#690=VERTEX_POINT('',#2169);
#691=VERTEX_POINT('',#2174);
#692=VERTEX_POINT('',#2178);
#693=VERTEX_POINT('',#2184);
#694=VERTEX_POINT('',#2185);
#695=VERTEX_POINT('',#2190);
#696=VERTEX_POINT('',#2194);
#697=VERTEX_POINT('',#2200);
#698=VERTEX_POINT('',#2201);
#699=VERTEX_POINT('',#2206);
#700=VERTEX_POINT('',#2210);
#701=VERTEX_POINT('',#2216);
#702=VERTEX_POINT('',#2217);
#703=VERTEX_POINT('',#2222);
#704=VERTEX_POINT('',#2226);
#705=LINE('',#1844,#882);
#706=LINE('',#1847,#883);
#707=LINE('',#1849,#884);
#708=LINE('',#1851,#885);
#709=LINE('',#1853,#886);
#710=LINE('',#1856,#887);
#711=LINE('',#1858,#888);
#712=LINE('',#1860,#889);
#713=LINE('',#1862,#890);
#714=LINE('',#1865,#891);
#715=LINE('',#1867,#892);
#716=LINE('',#1869,#893);
#717=LINE('',#1871,#894);
#718=LINE('',#1874,#895);
#719=LINE('',#1876,#896);
#720=LINE('',#1878,#897);
#721=LINE('',#1892,#898);
#722=LINE('',#1895,#899);
#723=LINE('',#1897,#900);
#724=LINE('',#1899,#901);
#725=LINE('',#1901,#902);
#726=LINE('',#1904,#903);
#727=LINE('',#1906,#904);
#728=LINE('',#1908,#905);
#729=LINE('',#1910,#906);
#730=LINE('',#1913,#907);
#731=LINE('',#1915,#908);
#732=LINE('',#1917,#909);
#733=LINE('',#1919,#910);
#734=LINE('',#1922,#911);
#735=LINE('',#1924,#912);
#736=LINE('',#1926,#913);
#737=LINE('',#1928,#914);
#738=LINE('',#1930,#915);
#739=LINE('',#1932,#916);
#740=LINE('',#1934,#917);
#741=LINE('',#1936,#918);
#742=LINE('',#1938,#919);
#743=LINE('',#1940,#920);
#744=LINE('',#1942,#921);
#745=LINE('',#1944,#922);
#746=LINE('',#1946,#923);
#747=LINE('',#1948,#924);
#748=LINE('',#1950,#925);
#749=LINE('',#1952,#926);
#750=LINE('',#1954,#927);
#751=LINE('',#1956,#928);
#752=LINE('',#1958,#929);
#753=LINE('',#1960,#930);
#754=LINE('',#1962,#931);
#755=LINE('',#1964,#932);
#756=LINE('',#1966,#933);
#757=LINE('',#1968,#934);
#758=LINE('',#1970,#935);
#759=LINE('',#1972,#936);
#760=LINE('',#1974,#937);
#761=LINE('',#1976,#938);
#762=LINE('',#1978,#939);
#763=LINE('',#1980,#940);
#764=LINE('',#1982,#941);
#765=LINE('',#1984,#942);
#766=LINE('',#1986,#943);
#767=LINE('',#1988,#944);
#768=LINE('',#1990,#945);
#769=LINE('',#2004,#946);
#770=LINE('',#2007,#947);
#771=LINE('',#2008,#948);
#772=LINE('',#2010,#949);
#773=LINE('',#2013,#950);
#774=LINE('',#2014,#951);
#775=LINE('',#2016,#952);
#776=LINE('',#2019,#953);
#777=LINE('',#2020,#954);
#778=LINE('',#2022,#955);
#779=LINE('',#2025,#956);
#780=LINE('',#2026,#957);
#781=LINE('',#2028,#958);
#782=LINE('',#2030,#959);
#783=LINE('',#2032,#960);
#784=LINE('',#2034,#961);
#785=LINE('',#2036,#962);
#786=LINE('',#2038,#963);
#787=LINE('',#2040,#964);
#788=LINE('',#2042,#965);
#789=LINE('',#2044,#966);
#790=LINE('',#2046,#967);
#791=LINE('',#2048,#968);
#792=LINE('',#2050,#969);
#793=LINE('',#2052,#970);
#794=LINE('',#2054,#971);
#795=LINE('',#2056,#972);
#796=LINE('',#2058,#973);
#797=LINE('',#2060,#974);
#798=LINE('',#2062,#975);
#799=LINE('',#2064,#976);
#800=LINE('',#2066,#977);
#801=LINE('',#2068,#978);
#802=LINE('',#2070,#979);
#803=LINE('',#2072,#980);
#804=LINE('',#2074,#981);
#805=LINE('',#2076,#982);
#806=LINE('',#2078,#983);
#807=LINE('',#2080,#984);
#808=LINE('',#2082,#985);
#809=LINE('',#2084,#986);
#810=LINE('',#2087,#987);
#811=LINE('',#2089,#988);
#812=LINE('',#2091,#989);
#813=LINE('',#2093,#990);
#814=LINE('',#2096,#991);
#815=LINE('',#2098,#992);
#816=LINE('',#2100,#993);
#817=LINE('',#2102,#994);
#818=LINE('',#2105,#995);
#819=LINE('',#2107,#996);
#820=LINE('',#2109,#997);
#821=LINE('',#2111,#998);
#822=LINE('',#2114,#999);
#823=LINE('',#2116,#1000);
#824=LINE('',#2118,#1001);
#825=LINE('',#2120,#1002);
#826=LINE('',#2123,#1003);
#827=LINE('',#2125,#1004);
#828=LINE('',#2127,#1005);
#829=LINE('',#2129,#1006);
#830=LINE('',#2131,#1007);
#831=LINE('',#2133,#1008);
#832=LINE('',#2135,#1009);
#833=LINE('',#2137,#1010);
#834=LINE('',#2139,#1011);
#835=LINE('',#2140,#1012);
#836=LINE('',#2141,#1013);
#837=LINE('',#2142,#1014);
#838=LINE('',#2143,#1015);
#839=LINE('',#2145,#1016);
#840=LINE('',#2147,#1017);
#841=LINE('',#2149,#1018);
#842=LINE('',#2151,#1019);
#843=LINE('',#2154,#1020);
#844=LINE('',#2155,#1021);
#845=LINE('',#2157,#1022);
#846=LINE('',#2159,#1023);
#847=LINE('',#2161,#1024);
#848=LINE('',#2163,#1025);
#849=LINE('',#2165,#1026);
#850=LINE('',#2167,#1027);
#851=LINE('',#2170,#1028);
#852=LINE('',#2171,#1029);
#853=LINE('',#2173,#1030);
#854=LINE('',#2175,#1031);
#855=LINE('',#2177,#1032);
#856=LINE('',#2179,#1033);
#857=LINE('',#2181,#1034);
#858=LINE('',#2183,#1035);
#859=LINE('',#2186,#1036);
#860=LINE('',#2187,#1037);
#861=LINE('',#2189,#1038);
#862=LINE('',#2191,#1039);
#863=LINE('',#2193,#1040);
#864=LINE('',#2195,#1041);
#865=LINE('',#2197,#1042);
#866=LINE('',#2199,#1043);
#867=LINE('',#2202,#1044);
#868=LINE('',#2203,#1045);
#869=LINE('',#2205,#1046);
#870=LINE('',#2207,#1047);
#871=LINE('',#2209,#1048);
#872=LINE('',#2211,#1049);
#873=LINE('',#2213,#1050);
#874=LINE('',#2215,#1051);
#875=LINE('',#2218,#1052);
#876=LINE('',#2219,#1053);
#877=LINE('',#2221,#1054);
#878=LINE('',#2223,#1055);
#879=LINE('',#2225,#1056);
#880=LINE('',#2227,#1057);
#881=LINE('',#2229,#1058);
#882=VECTOR('',#1497,1.);
#883=VECTOR('',#1498,1.);
#884=VECTOR('',#1499,1.);
#885=VECTOR('',#1500,1.);
#886=VECTOR('',#1503,1.);
#887=VECTOR('',#1504,1.);
#888=VECTOR('',#1505,1.);
#889=VECTOR('',#1506,1.);
#890=VECTOR('',#1509,1.);
#891=VECTOR('',#1510,1.);
#892=VECTOR('',#1511,1.);
#893=VECTOR('',#1512,1.);
#894=VECTOR('',#1515,1.);
#895=VECTOR('',#1516,1.);
#896=VECTOR('',#1517,1.);
#897=VECTOR('',#1518,1.);
#898=VECTOR('',#1537,1.);
#899=VECTOR('',#1538,1.);
#900=VECTOR('',#1539,1.);
#901=VECTOR('',#1540,1.);
#902=VECTOR('',#1543,1.);
#903=VECTOR('',#1544,1.);
#904=VECTOR('',#1545,1.);
#905=VECTOR('',#1546,1.);
#906=VECTOR('',#1549,1.);
#907=VECTOR('',#1550,1.);
#908=VECTOR('',#1551,1.);
#909=VECTOR('',#1552,1.);
#910=VECTOR('',#1555,1.);
#911=VECTOR('',#1556,1.);
#912=VECTOR('',#1557,1.);
#913=VECTOR('',#1558,1.);
#914=VECTOR('',#1561,1.);
#915=VECTOR('',#1562,1.);
#916=VECTOR('',#1563,1.);
#917=VECTOR('',#1566,1.);
#918=VECTOR('',#1567,1.);
#919=VECTOR('',#1570,1.);
#920=VECTOR('',#1571,1.);
#921=VECTOR('',#1574,1.);
#922=VECTOR('',#1577,1.);
#923=VECTOR('',#1578,1.);
#924=VECTOR('',#1579,1.);
#925=VECTOR('',#1582,1.);
#926=VECTOR('',#1583,1.);
#927=VECTOR('',#1586,1.);
#928=VECTOR('',#1587,1.);
#929=VECTOR('',#1590,1.);
#930=VECTOR('',#1593,1.);
#931=VECTOR('',#1594,1.);
#932=VECTOR('',#1595,1.);
#933=VECTOR('',#1598,1.);
#934=VECTOR('',#1599,1.);
#935=VECTOR('',#1602,1.);
#936=VECTOR('',#1603,1.);
#937=VECTOR('',#1606,1.);
#938=VECTOR('',#1609,1.);
#939=VECTOR('',#1610,1.);
#940=VECTOR('',#1611,1.);
#941=VECTOR('',#1614,1.);
#942=VECTOR('',#1615,1.);
#943=VECTOR('',#1618,1.);
#944=VECTOR('',#1619,1.);
#945=VECTOR('',#1622,1.);
#946=VECTOR('',#1641,1.);
#947=VECTOR('',#1642,1.);
#948=VECTOR('',#1643,1.);
#949=VECTOR('',#1646,1.);
#950=VECTOR('',#1647,1.);
#951=VECTOR('',#1648,1.);
#952=VECTOR('',#1651,1.);
#953=VECTOR('',#1652,1.);
#954=VECTOR('',#1653,1.);
#955=VECTOR('',#1656,1.);
#956=VECTOR('',#1657,1.);
#957=VECTOR('',#1658,1.);
#958=VECTOR('',#1661,1.);
#959=VECTOR('',#1662,1.);
#960=VECTOR('',#1663,1.);
#961=VECTOR('',#1666,1.);
#962=VECTOR('',#1667,1.);
#963=VECTOR('',#1670,1.);
#964=VECTOR('',#1671,1.);
#965=VECTOR('',#1674,1.);
#966=VECTOR('',#1675,1.);
#967=VECTOR('',#1676,1.);
#968=VECTOR('',#1679,1.);
#969=VECTOR('',#1680,1.);
#970=VECTOR('',#1683,1.);
#971=VECTOR('',#1684,1.);
#972=VECTOR('',#1687,1.);
#973=VECTOR('',#1688,1.);
#974=VECTOR('',#1689,1.);
#975=VECTOR('',#1692,1.);
#976=VECTOR('',#1693,1.);
#977=VECTOR('',#1696,1.);
#978=VECTOR('',#1697,1.);
#979=VECTOR('',#1700,1.);
#980=VECTOR('',#1701,1.);
#981=VECTOR('',#1702,1.);
#982=VECTOR('',#1705,1.);
#983=VECTOR('',#1706,1.);
#984=VECTOR('',#1709,1.);
#985=VECTOR('',#1710,1.);
#986=VECTOR('',#1713,1.);
#987=VECTOR('',#1714,1.);
#988=VECTOR('',#1715,1.);
#989=VECTOR('',#1716,1.);
#990=VECTOR('',#1719,1.);
#991=VECTOR('',#1720,1.);
#992=VECTOR('',#1721,1.);
#993=VECTOR('',#1722,1.);
#994=VECTOR('',#1725,1.);
#995=VECTOR('',#1726,1.);
#996=VECTOR('',#1727,1.);
#997=VECTOR('',#1728,1.);
#998=VECTOR('',#1731,1.);
#999=VECTOR('',#1732,1.);
#1000=VECTOR('',#1733,1.);
#1001=VECTOR('',#1734,1.);
#1002=VECTOR('',#1737,1.);
#1003=VECTOR('',#1738,1.);
#1004=VECTOR('',#1739,1.);
#1005=VECTOR('',#1740,1.);
#1006=VECTOR('',#1743,1.);
#1007=VECTOR('',#1744,1.);
#1008=VECTOR('',#1745,1.);
#1009=VECTOR('',#1748,1.);
#1010=VECTOR('',#1749,1.);
#1011=VECTOR('',#1750,1.);
#1012=VECTOR('',#1751,1.);
#1013=VECTOR('',#1752,1.);
#1014=VECTOR('',#1753,1.);
#1015=VECTOR('',#1754,1.);
#1016=VECTOR('',#1757,1.);
#1017=VECTOR('',#1758,1.);
#1018=VECTOR('',#1759,1.);
#1019=VECTOR('',#1762,1.);
#1020=VECTOR('',#1763,1.);
#1021=VECTOR('',#1764,1.);
#1022=VECTOR('',#1767,1.);
#1023=VECTOR('',#1768,1.);
#1024=VECTOR('',#1771,1.);
#1025=VECTOR('',#1772,1.);
#1026=VECTOR('',#1775,1.);
#1027=VECTOR('',#1778,1.);
#1028=VECTOR('',#1779,1.);
#1029=VECTOR('',#1780,1.);
#1030=VECTOR('',#1783,1.);
#1031=VECTOR('',#1784,1.);
#1032=VECTOR('',#1787,1.);
#1033=VECTOR('',#1788,1.);
#1034=VECTOR('',#1791,1.);
#1035=VECTOR('',#1794,1.);
#1036=VECTOR('',#1795,1.);
#1037=VECTOR('',#1796,1.);
#1038=VECTOR('',#1799,1.);
#1039=VECTOR('',#1800,1.);
#1040=VECTOR('',#1803,1.);
#1041=VECTOR('',#1804,1.);
#1042=VECTOR('',#1807,1.);
#1043=VECTOR('',#1810,1.);
#1044=VECTOR('',#1811,1.);
#1045=VECTOR('',#1812,1.);
#1046=VECTOR('',#1815,1.);
#1047=VECTOR('',#1816,1.);
#1048=VECTOR('',#1819,1.);
#1049=VECTOR('',#1820,1.);
#1050=VECTOR('',#1823,1.);
#1051=VECTOR('',#1826,1.);
#1052=VECTOR('',#1827,1.);
#1053=VECTOR('',#1828,1.);
#1054=VECTOR('',#1831,1.);
#1055=VECTOR('',#1832,1.);
#1056=VECTOR('',#1835,1.);
#1057=VECTOR('',#1836,1.);
#1058=VECTOR('',#1839,1.);
#1059=EDGE_LOOP('',(#24,#25,#26,#27));
#1060=EDGE_LOOP('',(#28,#29,#30,#31));
#1061=EDGE_LOOP('',(#32,#33,#34,#35));
#1062=EDGE_LOOP('',(#36,#37,#38,#39));
#1063=EDGE_LOOP('',(#40));
#1064=EDGE_LOOP('',(#41));
#1065=EDGE_LOOP('',(#42));
#1066=EDGE_LOOP('',(#43));
#1067=EDGE_LOOP('',(#44,#45,#46,#47));
#1068=EDGE_LOOP('',(#48,#49,#50,#51));
#1069=EDGE_LOOP('',(#52,#53,#54,#55));
#1070=EDGE_LOOP('',(#56,#57,#58,#59));
#1071=EDGE_LOOP('',(#60,#61,#62,#63));
#1072=EDGE_LOOP('',(#64,#65,#66,#67));
#1073=EDGE_LOOP('',(#68,#69,#70,#71));
#1074=EDGE_LOOP('',(#72,#73,#74,#75));
#1075=EDGE_LOOP('',(#76,#77,#78,#79));
#1076=EDGE_LOOP('',(#80,#81,#82,#83));
#1077=EDGE_LOOP('',(#84,#85,#86,#87));
#1078=EDGE_LOOP('',(#88,#89,#90,#91));
#1079=EDGE_LOOP('',(#92,#93,#94,#95));
#1080=EDGE_LOOP('',(#96,#97,#98,#99));
#1081=EDGE_LOOP('',(#100,#101,#102,#103));
#1082=EDGE_LOOP('',(#104,#105,#106,#107));
#1083=EDGE_LOOP('',(#108,#109,#110,#111));
#1084=EDGE_LOOP('',(#112,#113,#114,#115));
#1085=EDGE_LOOP('',(#116,#117,#118,#119));
#1086=EDGE_LOOP('',(#120,#121,#122,#123));
#1087=EDGE_LOOP('',(#124));
#1088=EDGE_LOOP('',(#125));
#1089=EDGE_LOOP('',(#126));
#1090=EDGE_LOOP('',(#127));
#1091=EDGE_LOOP('',(#128));
#1092=EDGE_LOOP('',(#129));
#1093=EDGE_LOOP('',(#130));
#1094=EDGE_LOOP('',(#131));
#1095=EDGE_LOOP('',(#132,#133,#134,#135));
#1096=EDGE_LOOP('',(#136,#137,#138,#139));
#1097=EDGE_LOOP('',(#140,#141,#142,#143));
#1098=EDGE_LOOP('',(#144,#145,#146,#147));
#1099=EDGE_LOOP('',(#148,#149,#150,#151,#152));
#1100=EDGE_LOOP('',(#153,#154,#155,#156));
#1101=EDGE_LOOP('',(#157,#158,#159,#160,#161));
#1102=EDGE_LOOP('',(#162,#163,#164,#165,#166));
#1103=EDGE_LOOP('',(#167,#168,#169,#170));
#1104=EDGE_LOOP('',(#171,#172,#173,#174,#175));
#1105=EDGE_LOOP('',(#176,#177,#178,#179,#180));
#1106=EDGE_LOOP('',(#181,#182,#183,#184));
#1107=EDGE_LOOP('',(#185,#186,#187,#188,#189));
#1108=EDGE_LOOP('',(#190,#191,#192,#193,#194));
#1109=EDGE_LOOP('',(#195,#196,#197,#198));
#1110=EDGE_LOOP('',(#199,#200,#201,#202,#203));
#1111=EDGE_LOOP('',(#204,#205,#206,#207));
#1112=EDGE_LOOP('',(#208,#209,#210,#211));
#1113=EDGE_LOOP('',(#212,#213,#214,#215));
#1114=EDGE_LOOP('',(#216,#217,#218,#219));
#1115=EDGE_LOOP('',(#220,#221,#222,#223));
#1116=EDGE_LOOP('',(#224,#225,#226,#227));
#1117=EDGE_LOOP('',(#228,#229,#230,#231));
#1118=EDGE_LOOP('',(#232,#233,#234,#235));
#1119=EDGE_LOOP('',(#236,#237,#238,#239));
#1120=EDGE_LOOP('',(#240));
#1121=EDGE_LOOP('',(#241));
#1122=EDGE_LOOP('',(#242));
#1123=EDGE_LOOP('',(#243));
#1124=EDGE_LOOP('',(#244,#245,#246,#247));
#1125=EDGE_LOOP('',(#248,#249,#250,#251,#252,#253,#254,#255,#256,#257,#258,
#259,#260,#261,#262,#263,#264,#265,#266,#267));
#1126=EDGE_LOOP('',(#268,#269,#270,#271,#272,#273,#274,#275,#276,#277,#278,
#279,#280,#281,#282,#283,#284,#285,#286,#287));
#1127=EDGE_LOOP('',(#288,#289,#290,#291));
#1128=EDGE_LOOP('',(#292,#293,#294,#295));
#1129=EDGE_LOOP('',(#296,#297,#298,#299));
#1130=EDGE_LOOP('',(#300,#301,#302,#303));
#1131=EDGE_LOOP('',(#304,#305,#306,#307));
#1132=EDGE_LOOP('',(#308,#309,#310,#311));
#1133=EDGE_LOOP('',(#312,#313,#314,#315));
#1134=EDGE_LOOP('',(#316,#317,#318,#319));
#1135=EDGE_LOOP('',(#320,#321,#322,#323));
#1136=EDGE_LOOP('',(#324,#325,#326,#327));
#1137=EDGE_LOOP('',(#328,#329,#330,#331));
#1138=EDGE_LOOP('',(#332,#333,#334,#335));
#1139=EDGE_LOOP('',(#336,#337,#338,#339));
#1140=EDGE_LOOP('',(#340,#341,#342,#343));
#1141=EDGE_LOOP('',(#344,#345,#346,#347));
#1142=EDGE_LOOP('',(#348,#349,#350,#351));
#1143=EDGE_LOOP('',(#352,#353,#354,#355));
#1144=EDGE_LOOP('',(#356,#357,#358,#359,#360,#361,#362));
#1145=EDGE_LOOP('',(#363,#364,#365,#366,#367,#368,#369));
#1146=EDGE_LOOP('',(#370,#371,#372,#373));
#1147=EDGE_LOOP('',(#374,#375,#376,#377));
#1148=EDGE_LOOP('',(#378,#379,#380,#381));
#1149=EDGE_LOOP('',(#382,#383,#384,#385));
#1150=EDGE_LOOP('',(#386,#387,#388,#389));
#1151=EDGE_LOOP('',(#390,#391,#392,#393));
#1152=FACE_BOUND('',#1059,.T.);
#1153=FACE_BOUND('',#1060,.T.);
#1154=FACE_BOUND('',#1061,.T.);
#1155=FACE_BOUND('',#1062,.T.);
#1156=FACE_BOUND('',#1063,.T.);
#1157=FACE_BOUND('',#1064,.T.);
#1158=FACE_BOUND('',#1065,.T.);
#1159=FACE_BOUND('',#1066,.T.);
#1160=FACE_BOUND('',#1067,.T.);
#1161=FACE_BOUND('',#1068,.T.);
#1162=FACE_BOUND('',#1069,.T.);
#1163=FACE_BOUND('',#1070,.T.);
#1164=FACE_BOUND('',#1071,.T.);
#1165=FACE_BOUND('',#1072,.T.);
#1166=FACE_BOUND('',#1073,.T.);
#1167=FACE_BOUND('',#1074,.T.);
#1168=FACE_BOUND('',#1075,.T.);
#1169=FACE_BOUND('',#1076,.T.);
#1170=FACE_BOUND('',#1077,.T.);
#1171=FACE_BOUND('',#1078,.T.);
#1172=FACE_BOUND('',#1079,.T.);
#1173=FACE_BOUND('',#1080,.T.);
#1174=FACE_BOUND('',#1081,.T.);
#1175=FACE_BOUND('',#1082,.T.);
#1176=FACE_BOUND('',#1083,.T.);
#1177=FACE_BOUND('',#1084,.T.);
#1178=FACE_BOUND('',#1085,.T.);
#1179=FACE_BOUND('',#1086,.T.);
#1180=FACE_BOUND('',#1087,.T.);
#1181=FACE_BOUND('',#1088,.T.);
#1182=FACE_BOUND('',#1089,.T.);
#1183=FACE_BOUND('',#1090,.T.);
#1184=FACE_BOUND('',#1091,.T.);
#1185=FACE_BOUND('',#1092,.T.);
#1186=FACE_BOUND('',#1093,.T.);
#1187=FACE_BOUND('',#1094,.T.);
#1188=FACE_BOUND('',#1095,.T.);
#1189=FACE_BOUND('',#1096,.T.);
#1190=FACE_BOUND('',#1097,.T.);
#1191=FACE_BOUND('',#1098,.T.);
#1192=FACE_BOUND('',#1099,.T.);
#1193=FACE_BOUND('',#1100,.T.);
#1194=FACE_BOUND('',#1101,.T.);
#1195=FACE_BOUND('',#1102,.T.);
#1196=FACE_BOUND('',#1103,.T.);
#1197=FACE_BOUND('',#1104,.T.);
#1198=FACE_BOUND('',#1105,.T.);
#1199=FACE_BOUND('',#1106,.T.);
#1200=FACE_BOUND('',#1107,.T.);
#1201=FACE_BOUND('',#1108,.T.);
#1202=FACE_BOUND('',#1109,.T.);
#1203=FACE_BOUND('',#1110,.T.);
#1204=FACE_BOUND('',#1111,.T.);
#1205=FACE_BOUND('',#1112,.T.);
#1206=FACE_BOUND('',#1113,.T.);
#1207=FACE_BOUND('',#1114,.T.);
#1208=FACE_BOUND('',#1115,.T.);
#1209=FACE_BOUND('',#1116,.T.);
#1210=FACE_BOUND('',#1117,.T.);
#1211=FACE_BOUND('',#1118,.T.);
#1212=FACE_BOUND('',#1119,.T.);
#1213=FACE_BOUND('',#1120,.T.);
#1214=FACE_BOUND('',#1121,.T.);
#1215=FACE_BOUND('',#1122,.T.);
#1216=FACE_BOUND('',#1123,.T.);
#1217=FACE_BOUND('',#1124,.T.);
#1218=FACE_BOUND('',#1125,.T.);
#1219=FACE_BOUND('',#1126,.T.);
#1220=FACE_BOUND('',#1127,.T.);
#1221=FACE_BOUND('',#1128,.T.);
#1222=FACE_BOUND('',#1129,.T.);
#1223=FACE_BOUND('',#1130,.T.);
#1224=FACE_BOUND('',#1131,.T.);
#1225=FACE_BOUND('',#1132,.T.);
#1226=FACE_BOUND('',#1133,.T.);
#1227=FACE_BOUND('',#1134,.T.);
#1228=FACE_BOUND('',#1135,.T.);
#1229=FACE_BOUND('',#1136,.T.);
#1230=FACE_BOUND('',#1137,.T.);
#1231=FACE_BOUND('',#1138,.T.);
#1232=FACE_BOUND('',#1139,.T.);
#1233=FACE_BOUND('',#1140,.T.);
#1234=FACE_BOUND('',#1141,.T.);
#1235=FACE_BOUND('',#1142,.T.);
#1236=FACE_BOUND('',#1143,.T.);
#1237=FACE_BOUND('',#1144,.T.);
#1238=FACE_BOUND('',#1145,.T.);
#1239=FACE_BOUND('',#1146,.T.);
#1240=FACE_BOUND('',#1147,.T.);
#1241=FACE_BOUND('',#1148,.T.);
#1242=FACE_BOUND('',#1149,.T.);
#1243=FACE_BOUND('',#1150,.T.);
#1244=FACE_BOUND('',#1151,.T.);
#1245=PLANE('',#1408);
#1246=PLANE('',#1409);
#1247=PLANE('',#1410);
#1248=PLANE('',#1411);
#1249=PLANE('',#1412);
#1250=PLANE('',#1414);
#1251=PLANE('',#1416);
#1252=PLANE('',#1418);
#1253=PLANE('',#1420);
#1254=PLANE('',#1421);
#1255=PLANE('',#1422);
#1256=PLANE('',#1423);
#1257=PLANE('',#1424);
#1258=PLANE('',#1425);
#1259=PLANE('',#1426);
#1260=PLANE('',#1427);
#1261=PLANE('',#1428);
#1262=PLANE('',#1429);
#1263=PLANE('',#1430);
#1264=PLANE('',#1431);
#1265=PLANE('',#1432);
#1266=PLANE('',#1433);
#1267=PLANE('',#1434);
#1268=PLANE('',#1435);
#1269=PLANE('',#1436);
#1270=PLANE('',#1437);
#1271=PLANE('',#1438);
#1272=PLANE('',#1439);
#1273=PLANE('',#1448);
#1274=PLANE('',#1449);
#1275=PLANE('',#1450);
#1276=PLANE('',#1451);
#1277=PLANE('',#1452);
#1278=PLANE('',#1453);
#1279=PLANE('',#1454);
#1280=PLANE('',#1455);
#1281=PLANE('',#1456);
#1282=PLANE('',#1457);
#1283=PLANE('',#1458);
#1284=PLANE('',#1459);
#1285=PLANE('',#1460);
#1286=PLANE('',#1461);
#1287=PLANE('',#1462);
#1288=PLANE('',#1463);
#1289=PLANE('',#1464);
#1290=PLANE('',#1465);
#1291=PLANE('',#1466);
#1292=PLANE('',#1467);
#1293=PLANE('',#1468);
#1294=PLANE('',#1469);
#1295=PLANE('',#1470);
#1296=PLANE('',#1471);
#1297=PLANE('',#1472);
#1298=PLANE('',#1473);
#1299=PLANE('',#1474);
#1300=PLANE('',#1475);
#1301=PLANE('',#1476);
#1302=PLANE('',#1477);
#1303=PLANE('',#1478);
#1304=PLANE('',#1479);
#1305=PLANE('',#1480);
#1306=PLANE('',#1481);
#1307=PLANE('',#1482);
#1308=PLANE('',#1483);
#1309=PLANE('',#1484);
#1310=PLANE('',#1485);
#1311=PLANE('',#1486);
#1312=PLANE('',#1487);
#1313=PLANE('',#1488);
#1314=PLANE('',#1489);
#1315=PLANE('',#1490);
#1316=PLANE('',#1491);
#1317=PLANE('',#1492);
#1318=ADVANCED_FACE('',(#1152),#1245,.F.);
#1319=ADVANCED_FACE('',(#1153),#1246,.F.);
#1320=ADVANCED_FACE('',(#1154),#1247,.F.);
#1321=ADVANCED_FACE('',(#1155),#1248,.F.);
#1322=ADVANCED_FACE('',(#1156),#1249,.T.);
#1323=ADVANCED_FACE('',(#1157),#1250,.T.);
#1324=ADVANCED_FACE('',(#1158),#1251,.T.);
#1325=ADVANCED_FACE('',(#1159),#1252,.T.);
#1326=ADVANCED_FACE('',(#1160),#1253,.T.);
#1327=ADVANCED_FACE('',(#1161),#1254,.T.);
#1328=ADVANCED_FACE('',(#1162),#1255,.T.);
#1329=ADVANCED_FACE('',(#1163),#1256,.T.);
#1330=ADVANCED_FACE('',(#1164),#1257,.T.);
#1331=ADVANCED_FACE('',(#1165),#1258,.T.);
#1332=ADVANCED_FACE('',(#1166),#1259,.T.);
#1333=ADVANCED_FACE('',(#1167),#1260,.T.);
#1334=ADVANCED_FACE('',(#1168),#1261,.T.);
#1335=ADVANCED_FACE('',(#1169),#1262,.T.);
#1336=ADVANCED_FACE('',(#1170),#1263,.T.);
#1337=ADVANCED_FACE('',(#1171),#1264,.T.);
#1338=ADVANCED_FACE('',(#1172),#1265,.T.);
#1339=ADVANCED_FACE('',(#1173),#1266,.T.);
#1340=ADVANCED_FACE('',(#1174),#1267,.T.);
#1341=ADVANCED_FACE('',(#1175),#1268,.T.);
#1342=ADVANCED_FACE('',(#1176),#1269,.T.);
#1343=ADVANCED_FACE('',(#1177),#1270,.T.);
#1344=ADVANCED_FACE('',(#1178),#1271,.T.);
#1345=ADVANCED_FACE('',(#1179),#1272,.T.);
#1346=ADVANCED_FACE('',(#1180,#1181),#12,.F.);
#1347=ADVANCED_FACE('',(#1182,#1183),#13,.F.);
#1348=ADVANCED_FACE('',(#1184,#1185),#14,.F.);
#1349=ADVANCED_FACE('',(#1186,#1187),#15,.F.);
#1350=ADVANCED_FACE('',(#1188),#1273,.F.);
#1351=ADVANCED_FACE('',(#1189),#1274,.F.);
#1352=ADVANCED_FACE('',(#1190),#1275,.F.);
#1353=ADVANCED_FACE('',(#1191),#1276,.F.);
#1354=ADVANCED_FACE('',(#1192),#1277,.T.);
#1355=ADVANCED_FACE('',(#1193),#1278,.F.);
#1356=ADVANCED_FACE('',(#1194),#1279,.T.);
#1357=ADVANCED_FACE('',(#1195),#1280,.T.);
#1358=ADVANCED_FACE('',(#1196),#1281,.F.);
#1359=ADVANCED_FACE('',(#1197),#1282,.T.);
#1360=ADVANCED_FACE('',(#1198),#1283,.T.);
#1361=ADVANCED_FACE('',(#1199),#1284,.F.);
#1362=ADVANCED_FACE('',(#1200),#1285,.T.);
#1363=ADVANCED_FACE('',(#1201),#1286,.T.);
#1364=ADVANCED_FACE('',(#1202),#1287,.F.);
#1365=ADVANCED_FACE('',(#1203),#1288,.T.);
#1366=ADVANCED_FACE('',(#1204,#1205),#1289,.T.);
#1367=ADVANCED_FACE('',(#1206,#1207),#1290,.T.);
#1368=ADVANCED_FACE('',(#1208,#1209),#1291,.T.);
#1369=ADVANCED_FACE('',(#1210,#1211),#1292,.T.);
#1370=ADVANCED_FACE('',(#1212),#1293,.T.);
#1371=ADVANCED_FACE('',(#1213,#1214,#1215,#1216,#1217),#1294,.T.);
#1372=ADVANCED_FACE('',(#1218),#1295,.T.);
#1373=ADVANCED_FACE('',(#1219),#1296,.F.);
#1374=ADVANCED_FACE('',(#1220),#1297,.F.);
#1375=ADVANCED_FACE('',(#1221),#1298,.F.);
#1376=ADVANCED_FACE('',(#1222),#1299,.F.);
#1377=ADVANCED_FACE('',(#1223),#1300,.F.);
#1378=ADVANCED_FACE('',(#1224),#1301,.F.);
#1379=ADVANCED_FACE('',(#1225),#1302,.F.);
#1380=ADVANCED_FACE('',(#1226),#1303,.F.);
#1381=ADVANCED_FACE('',(#1227),#1304,.F.);
#1382=ADVANCED_FACE('',(#1228),#1305,.F.);
#1383=ADVANCED_FACE('',(#1229),#1306,.F.);
#1384=ADVANCED_FACE('',(#1230),#1307,.F.);
#1385=ADVANCED_FACE('',(#1231),#1308,.F.);
#1386=ADVANCED_FACE('',(#1232),#1309,.F.);
#1387=ADVANCED_FACE('',(#1233),#1310,.F.);
#1388=ADVANCED_FACE('',(#1234),#1311,.F.);
#1389=ADVANCED_FACE('',(#1235),#1312,.F.);
#1390=ADVANCED_FACE('',(#1236),#1313,.T.);
#1391=ADVANCED_FACE('',(#1237),#1314,.T.);
#1392=ADVANCED_FACE('',(#1238),#1315,.F.);
#1393=ADVANCED_FACE('',(#1239),#1316,.F.);
#1394=ADVANCED_FACE('',(#1240,#1241,#1242,#1243,#1244),#1317,.T.);
#1395=CLOSED_SHELL('',(#1318,#1319,#1320,#1321,#1322,#1323,#1324,#1325,
#1326,#1327,#1328,#1329,#1330,#1331,#1332,#1333,#1334,#1335,#1336,#1337,
#1338,#1339,#1340,#1341,#1342,#1343,#1344,#1345,#1346,#1347,#1348,#1349,
#1350,#1351,#1352,#1353,#1354,#1355,#1356,#1357,#1358,#1359,#1360,#1361,
#1362,#1363,#1364,#1365,#1366,#1367,#1368,#1369,#1370,#1371,#1372,#1373,
#1374,#1375,#1376,#1377,#1378,#1379,#1380,#1381,#1382,#1383,#1384,#1385,
#1386,#1387,#1388,#1389,#1390,#1391,#1392,#1393,#1394));
#1396=STYLED_ITEM('',(#1397),#1404);
#1397=PRESENTATION_STYLE_ASSIGNMENT((#1398));
#1398=SURFACE_STYLE_USAGE(.BOTH.,#1399);
#1399=SURFACE_SIDE_STYLE('',(#1400));
#1400=SURFACE_STYLE_FILL_AREA(#1401);
#1401=FILL_AREA_STYLE('',(#1402));
#1402=FILL_AREA_STYLE_COLOUR('',#1403);
#1403=COLOUR_RGB('',0.513725490196078,0.737254901960784,0.407843137254902);
#1404=MANIFOLD_SOLID_BREP('PlasticBody',#1395);
#1405=SHAPE_DEFINITION_REPRESENTATION(#2237,#1406);
#1406=SHAPE_REPRESENTATION('PlasticBody',(#1407),#2232);
#1407=AXIS2_PLACEMENT_3D('',#1842,#1493,#1494);
#1408=AXIS2_PLACEMENT_3D('',#1843,#1495,#1496);
#1409=AXIS2_PLACEMENT_3D('',#1852,#1501,#1502);
#1410=AXIS2_PLACEMENT_3D('',#1861,#1507,#1508);
#1411=AXIS2_PLACEMENT_3D('',#1870,#1513,#1514);
#1412=AXIS2_PLACEMENT_3D('',#1879,#1519,#1520);
#1413=AXIS2_PLACEMENT_3D('',#1880,#1521,#1522);
#1414=AXIS2_PLACEMENT_3D('',#1882,#1523,#1524);
#1415=AXIS2_PLACEMENT_3D('',#1883,#1525,#1526);
#1416=AXIS2_PLACEMENT_3D('',#1885,#1527,#1528);
#1417=AXIS2_PLACEMENT_3D('',#1886,#1529,#1530);
#1418=AXIS2_PLACEMENT_3D('',#1888,#1531,#1532);
#1419=AXIS2_PLACEMENT_3D('',#1889,#1533,#1534);
#1420=AXIS2_PLACEMENT_3D('',#1891,#1535,#1536);
#1421=AXIS2_PLACEMENT_3D('',#1900,#1541,#1542);
#1422=AXIS2_PLACEMENT_3D('',#1909,#1547,#1548);
#1423=AXIS2_PLACEMENT_3D('',#1918,#1553,#1554);
#1424=AXIS2_PLACEMENT_3D('',#1927,#1559,#1560);
#1425=AXIS2_PLACEMENT_3D('',#1933,#1564,#1565);
#1426=AXIS2_PLACEMENT_3D('',#1937,#1568,#1569);
#1427=AXIS2_PLACEMENT_3D('',#1941,#1572,#1573);
#1428=AXIS2_PLACEMENT_3D('',#1943,#1575,#1576);
#1429=AXIS2_PLACEMENT_3D('',#1949,#1580,#1581);
#1430=AXIS2_PLACEMENT_3D('',#1953,#1584,#1585);
#1431=AXIS2_PLACEMENT_3D('',#1957,#1588,#1589);
#1432=AXIS2_PLACEMENT_3D('',#1959,#1591,#1592);
#1433=AXIS2_PLACEMENT_3D('',#1965,#1596,#1597);
#1434=AXIS2_PLACEMENT_3D('',#1969,#1600,#1601);
#1435=AXIS2_PLACEMENT_3D('',#1973,#1604,#1605);
#1436=AXIS2_PLACEMENT_3D('',#1975,#1607,#1608);
#1437=AXIS2_PLACEMENT_3D('',#1981,#1612,#1613);
#1438=AXIS2_PLACEMENT_3D('',#1985,#1616,#1617);
#1439=AXIS2_PLACEMENT_3D('',#1989,#1620,#1621);
#1440=AXIS2_PLACEMENT_3D('',#1991,#1623,#1624);
#1441=AXIS2_PLACEMENT_3D('',#1992,#1625,#1626);
#1442=AXIS2_PLACEMENT_3D('',#1994,#1627,#1628);
#1443=AXIS2_PLACEMENT_3D('',#1995,#1629,#1630);
#1444=AXIS2_PLACEMENT_3D('',#1997,#1631,#1632);
#1445=AXIS2_PLACEMENT_3D('',#1998,#1633,#1634);
#1446=AXIS2_PLACEMENT_3D('',#2000,#1635,#1636);
#1447=AXIS2_PLACEMENT_3D('',#2001,#1637,#1638);
#1448=AXIS2_PLACEMENT_3D('',#2003,#1639,#1640);
#1449=AXIS2_PLACEMENT_3D('',#2009,#1644,#1645);
#1450=AXIS2_PLACEMENT_3D('',#2015,#1649,#1650);
#1451=AXIS2_PLACEMENT_3D('',#2021,#1654,#1655);
#1452=AXIS2_PLACEMENT_3D('',#2027,#1659,#1660);
#1453=AXIS2_PLACEMENT_3D('',#2033,#1664,#1665);
#1454=AXIS2_PLACEMENT_3D('',#2037,#1668,#1669);
#1455=AXIS2_PLACEMENT_3D('',#2041,#1672,#1673);
#1456=AXIS2_PLACEMENT_3D('',#2047,#1677,#1678);
#1457=AXIS2_PLACEMENT_3D('',#2051,#1681,#1682);
#1458=AXIS2_PLACEMENT_3D('',#2055,#1685,#1686);
#1459=AXIS2_PLACEMENT_3D('',#2061,#1690,#1691);
#1460=AXIS2_PLACEMENT_3D('',#2065,#1694,#1695);
#1461=AXIS2_PLACEMENT_3D('',#2069,#1698,#1699);
#1462=AXIS2_PLACEMENT_3D('',#2075,#1703,#1704);
#1463=AXIS2_PLACEMENT_3D('',#2079,#1707,#1708);
#1464=AXIS2_PLACEMENT_3D('',#2083,#1711,#1712);
#1465=AXIS2_PLACEMENT_3D('',#2092,#1717,#1718);
#1466=AXIS2_PLACEMENT_3D('',#2101,#1723,#1724);
#1467=AXIS2_PLACEMENT_3D('',#2110,#1729,#1730);
#1468=AXIS2_PLACEMENT_3D('',#2119,#1735,#1736);
#1469=AXIS2_PLACEMENT_3D('',#2128,#1741,#1742);
#1470=AXIS2_PLACEMENT_3D('',#2134,#1746,#1747);
#1471=AXIS2_PLACEMENT_3D('',#2144,#1755,#1756);
#1472=AXIS2_PLACEMENT_3D('',#2150,#1760,#1761);
#1473=AXIS2_PLACEMENT_3D('',#2156,#1765,#1766);
#1474=AXIS2_PLACEMENT_3D('',#2160,#1769,#1770);
#1475=AXIS2_PLACEMENT_3D('',#2164,#1773,#1774);
#1476=AXIS2_PLACEMENT_3D('',#2166,#1776,#1777);
#1477=AXIS2_PLACEMENT_3D('',#2172,#1781,#1782);
#1478=AXIS2_PLACEMENT_3D('',#2176,#1785,#1786);
#1479=AXIS2_PLACEMENT_3D('',#2180,#1789,#1790);
#1480=AXIS2_PLACEMENT_3D('',#2182,#1792,#1793);
#1481=AXIS2_PLACEMENT_3D('',#2188,#1797,#1798);
#1482=AXIS2_PLACEMENT_3D('',#2192,#1801,#1802);
#1483=AXIS2_PLACEMENT_3D('',#2196,#1805,#1806);
#1484=AXIS2_PLACEMENT_3D('',#2198,#1808,#1809);
#1485=AXIS2_PLACEMENT_3D('',#2204,#1813,#1814);
#1486=AXIS2_PLACEMENT_3D('',#2208,#1817,#1818);
#1487=AXIS2_PLACEMENT_3D('',#2212,#1821,#1822);
#1488=AXIS2_PLACEMENT_3D('',#2214,#1824,#1825);
#1489=AXIS2_PLACEMENT_3D('',#2220,#1829,#1830);
#1490=AXIS2_PLACEMENT_3D('',#2224,#1833,#1834);
#1491=AXIS2_PLACEMENT_3D('',#2228,#1837,#1838);
#1492=AXIS2_PLACEMENT_3D('',#2230,#1840,#1841);
#1493=DIRECTION('',(0.,0.,1.));
#1494=DIRECTION('',(1.,0.,0.));
#1495=DIRECTION('',(-1.903239470786E-16,1.,-2.312964634636E-15));
#1496=DIRECTION('',(-1.665334536938E-15,3.145631903105E-16,1.));
#1497=DIRECTION('',(1.,-1.7763568394E-15,-2.22044604925E-16));
#1498=DIRECTION('',(-1.7763568394E-15,2.775557561563E-16,1.));
#1499=DIRECTION('',(-1.,1.7763568394E-15,2.22044604925E-16));
#1500=DIRECTION('',(1.7763568394E-15,-2.775557561563E-16,-1.));
#1501=DIRECTION('',(-1.903239470786E-16,1.,-2.312964634636E-15));
#1502=DIRECTION('',(-1.665334536938E-15,3.145631903105E-16,1.));
#1503=DIRECTION('',(1.,1.90323947078603E-16,1.33226762955E-15));
#1504=DIRECTION('',(1.11022302462501E-16,2.312964634636E-15,1.));
#1505=DIRECTION('',(-1.,-1.90323947078603E-16,-1.33226762955E-15));
#1506=DIRECTION('',(-1.11022302462501E-16,-2.312964634636E-15,-1.));
#1507=DIRECTION('',(-1.903239470786E-16,1.,-2.312964634636E-15));
#1508=DIRECTION('',(-1.665334536938E-15,3.145631903105E-16,1.));
#1509=DIRECTION('',(1.,1.90323947078603E-16,1.33226762955E-15));
#1510=DIRECTION('',(1.11022302462501E-16,2.312964634636E-15,1.));
#1511=DIRECTION('',(-1.,-1.90323947078603E-16,-1.33226762955E-15));
#1512=DIRECTION('',(-1.11022302462501E-16,-2.312964634636E-15,-1.));
#1513=DIRECTION('',(-1.903239470786E-16,1.,-2.312964634636E-15));
#1514=DIRECTION('',(-1.665334536938E-15,3.145631903105E-16,1.));
#1515=DIRECTION('',(1.,1.90323947078603E-16,1.33226762955E-15));
#1516=DIRECTION('',(1.11022302462501E-16,2.312964634636E-15,1.));
#1517=DIRECTION('',(-1.,-1.90323947078603E-16,-1.33226762955E-15));
#1518=DIRECTION('',(-1.11022302462501E-16,-2.312964634636E-15,-1.));
#1519=DIRECTION('',(-2.249756468408E-15,4.358653355936E-16,1.));
#1520=DIRECTION('',(1.,-8.881784197001E-16,9.174888388578E-16));
#1521=DIRECTION('',(-8.326672684689E-16,1.887379141863E-15,1.));
#1522=DIRECTION('',(2.22044604925E-16,-1.,1.887379141863E-15));
#1523=DIRECTION('',(-2.249756468408E-15,4.358653355936E-16,1.));
#1524=DIRECTION('',(1.,-8.881784197001E-16,9.174888388578E-16));
#1525=DIRECTION('',(-2.249756468408E-15,4.358653355936E-16,1.));
#1526=DIRECTION('',(1.,0.,2.249756468408E-15));
#1527=DIRECTION('',(-2.249756468408E-15,4.358653355936E-16,1.));
#1528=DIRECTION('',(1.,-8.881784197001E-16,9.174888388578E-16));
#1529=DIRECTION('',(-2.249756468408E-15,4.358653355936E-16,1.));
#1530=DIRECTION('',(1.,0.,2.249756468408E-15));
#1531=DIRECTION('',(-2.249756468408E-15,4.358653355936E-16,1.));
#1532=DIRECTION('',(1.,-8.881784197001E-16,9.174888388578E-16));
#1533=DIRECTION('',(-2.249756468408E-15,4.358653355936E-16,1.));
#1534=DIRECTION('',(1.,0.,2.249756468408E-15));
#1535=DIRECTION('',(4.440892098501E-16,1.,-9.992007221626E-16));
#1536=DIRECTION('',(-1.,4.440892098501E-16,-1.498801083244E-15));
#1537=DIRECTION('',(1.165734175856E-15,-9.99200722162601E-16,-1.));
#1538=DIRECTION('',(-1.,4.44089209850098E-16,-1.739349405246E-15));
#1539=DIRECTION('',(1.165734175856E-15,-9.99200722162601E-16,-1.));
#1540=DIRECTION('',(-1.,4.44089209850098E-16,-2.609024107869E-15));
#1541=DIRECTION('',(4.440892098501E-16,1.,-9.992007221626E-16));
#1542=DIRECTION('',(-1.,4.440892098501E-16,-1.498801083244E-15));
#1543=DIRECTION('',(1.165734175856E-15,-9.99200722162601E-16,-1.));
#1544=DIRECTION('',(-1.,4.44089209850098E-16,-1.739349405246E-15));
#1545=DIRECTION('',(1.165734175856E-15,-9.99200722162601E-16,-1.));
#1546=DIRECTION('',(-1.,4.44089209850098E-16,-2.609024107869E-15));
#1547=DIRECTION('',(4.440892098501E-16,1.,-9.992007221626E-16));
#1548=DIRECTION('',(-1.,4.440892098501E-16,-1.498801083244E-15));
#1549=DIRECTION('',(1.165734175856E-15,-9.99200722162601E-16,-1.));
#1550=DIRECTION('',(-1.,4.44089209850098E-16,-1.739349405246E-15));
#1551=DIRECTION('',(1.165734175856E-15,-9.99200722162601E-16,-1.));
#1552=DIRECTION('',(-1.,4.44089209850098E-16,-2.609024107869E-15));
#1553=DIRECTION('',(4.440892098501E-16,1.,-9.992007221626E-16));
#1554=DIRECTION('',(-1.,4.440892098501E-16,-1.498801083244E-15));
#1555=DIRECTION('',(1.720845688169E-15,-9.992007221626E-16,-1.));
#1556=DIRECTION('',(-1.,6.661338147751E-16,-1.276756478319E-15));
#1557=DIRECTION('',(1.720845688169E-15,-9.992007221626E-16,-1.));
#1558=DIRECTION('',(-1.,4.44089209850098E-16,-2.609024107869E-15));
#1559=DIRECTION('',(-1.,1.276756478319E-15,-2.22044604925E-16));
#1560=DIRECTION('',(1.554312234475E-15,-4.996003610813E-16,-1.));
#1561=DIRECTION('',(-5.551115123126E-17,1.,-2.053912595557E-15));
#1562=DIRECTION('',(-5.551115123126E-17,1.,-2.053912595557E-15));
#1563=DIRECTION('',(1.7763568394E-15,-2.775557561563E-16,-1.));
#1564=DIRECTION('',(-1.33226762955E-15,7.216449660064E-16,1.));
#1565=DIRECTION('',(-1.,1.554312234475E-15,-1.737959181815E-30));
#1566=DIRECTION('',(-5.551115123126E-17,1.,-2.053912595557E-15));
#1567=DIRECTION('',(-1.,1.7763568394E-15,2.22044604925E-16));
#1568=DIRECTION('',(1.,-1.276756478319E-15,2.22044604925E-16));
#1569=DIRECTION('',(-1.554312234475E-15,4.996003610813E-16,1.));
#1570=DIRECTION('',(-5.551115123126E-17,1.,-2.053912595557E-15));
#1571=DIRECTION('',(-1.7763568394E-15,2.775557561563E-16,1.));
#1572=DIRECTION('',(1.33226762955E-15,-7.216449660064E-16,-1.));
#1573=DIRECTION('',(1.,-1.554312234475E-15,1.737959181815E-30));
#1574=DIRECTION('',(1.,-1.7763568394E-15,-2.22044604925E-16));
#1575=DIRECTION('',(-1.,4.996003610813E-16,1.110223024625E-16));
#1576=DIRECTION('',(5.551115123126E-16,-2.775557561563E-16,-1.));
#1577=DIRECTION('',(4.996003610813E-16,1.,-7.21644966006399E-16));
#1578=DIRECTION('',(4.996003610813E-16,1.,-7.21644966006399E-16));
#1579=DIRECTION('',(-1.11022302462501E-16,-2.484784864637E-15,-1.));
#1580=DIRECTION('',(-1.33226762955E-15,7.216449660064E-16,1.));
#1581=DIRECTION('',(-1.,1.554312234475E-15,-1.737959181815E-30));
#1582=DIRECTION('',(4.996003610813E-16,1.,-7.21644966006399E-16));
#1583=DIRECTION('',(-1.,-5.55111512312603E-16,-1.33226762955E-15));
#1584=DIRECTION('',(1.,-4.996003610813E-16,-1.110223024625E-16));
#1585=DIRECTION('',(-5.551115123126E-16,2.775557561563E-16,1.));
#1586=DIRECTION('',(4.996003610813E-16,1.,-7.21644966006399E-16));
#1587=DIRECTION('',(1.11022302462501E-16,2.484784864637E-15,1.));
#1588=DIRECTION('',(1.33226762955E-15,-7.216449660064E-16,-1.));
#1589=DIRECTION('',(1.,-1.554312234475E-15,1.737959181815E-30));
#1590=DIRECTION('',(1.,5.55111512312603E-16,1.33226762955E-15));
#1591=DIRECTION('',(-1.,4.996003610813E-16,1.110223024625E-16));
#1592=DIRECTION('',(5.551115123126E-16,-2.775557561563E-16,-1.));
#1593=DIRECTION('',(4.996003610813E-16,1.,-7.21644966006399E-16));
#1594=DIRECTION('',(4.996003610813E-16,1.,-7.21644966006399E-16));
#1595=DIRECTION('',(-1.11022302462501E-16,-2.484784864637E-15,-1.));
#1596=DIRECTION('',(-1.33226762955E-15,7.216449660064E-16,1.));
#1597=DIRECTION('',(-1.,1.554312234475E-15,-1.737959181815E-30));
#1598=DIRECTION('',(4.996003610813E-16,1.,-7.21644966006399E-16));
#1599=DIRECTION('',(-1.,-5.55111512312603E-16,-1.33226762955E-15));
#1600=DIRECTION('',(1.,-4.996003610813E-16,-1.110223024625E-16));
#1601=DIRECTION('',(-5.551115123126E-16,2.775557561563E-16,1.));
#1602=DIRECTION('',(4.996003610813E-16,1.,-7.21644966006399E-16));
#1603=DIRECTION('',(1.11022302462501E-16,2.484784864637E-15,1.));
#1604=DIRECTION('',(1.33226762955E-15,-7.216449660064E-16,-1.));
#1605=DIRECTION('',(1.,-1.554312234475E-15,1.737959181815E-30));
#1606=DIRECTION('',(1.,5.55111512312603E-16,1.33226762955E-15));
#1607=DIRECTION('',(-1.,4.996003610813E-16,1.110223024625E-16));
#1608=DIRECTION('',(5.551115123126E-16,-2.775557561563E-16,-1.));
#1609=DIRECTION('',(4.996003610813E-16,1.,-7.21644966006399E-16));
#1610=DIRECTION('',(4.996003610813E-16,1.,-7.21644966006399E-16));
#1611=DIRECTION('',(-1.11022302462501E-16,-2.484784864637E-15,-1.));
#1612=DIRECTION('',(-1.33226762955E-15,7.216449660064E-16,1.));
#1613=DIRECTION('',(-1.,1.554312234475E-15,-1.737959181815E-30));
#1614=DIRECTION('',(4.996003610813E-16,1.,-7.21644966006399E-16));
#1615=DIRECTION('',(-1.,-5.55111512312603E-16,-1.33226762955E-15));
#1616=DIRECTION('',(1.,-4.996003610813E-16,-1.110223024625E-16));
#1617=DIRECTION('',(-5.551115123126E-16,2.775557561563E-16,1.));
#1618=DIRECTION('',(4.996003610813E-16,1.,-7.21644966006399E-16));
#1619=DIRECTION('',(1.11022302462501E-16,2.484784864637E-15,1.));
#1620=DIRECTION('',(1.33226762955E-15,-7.216449660064E-16,-1.));
#1621=DIRECTION('',(1.,-1.554312234475E-15,1.737959181815E-30));
#1622=DIRECTION('',(1.,5.55111512312603E-16,1.33226762955E-15));
#1623=DIRECTION('',(-1.720845688169E-15,9.992007221626E-16,1.));
#1624=DIRECTION('',(-1.060031841391E-30,-1.,1.665334536938E-15));
#1625=DIRECTION('',(-8.326672684689E-16,1.887379141863E-15,1.));
#1626=DIRECTION('',(2.22044604925E-16,-1.,1.887379141863E-15));
#1627=DIRECTION('',(-1.276756478319E-15,6.661338147751E-16,1.));
#1628=DIRECTION('',(3.330669073875E-16,-1.,1.33226762955E-15));
#1629=DIRECTION('',(-3.885780586188E-16,1.554312234475E-15,1.));
#1630=DIRECTION('',(5.551115123126E-16,-1.,1.554312234475E-15));
#1631=DIRECTION('',(-1.276756478319E-15,6.661338147751E-16,1.));
#1632=DIRECTION('',(3.330669073875E-16,-1.,1.33226762955E-15));
#1633=DIRECTION('',(-3.885780586188E-16,1.554312234475E-15,1.));
#1634=DIRECTION('',(5.551115123126E-16,-1.,1.554312234475E-15));
#1635=DIRECTION('',(-1.276756478319E-15,6.661338147751E-16,1.));
#1636=DIRECTION('',(3.330669073875E-16,-1.,1.33226762955E-15));
#1637=DIRECTION('',(-3.885780586188E-16,1.554312234475E-15,1.));
#1638=DIRECTION('',(5.551115123126E-16,-1.,1.554312234475E-15));
#1639=DIRECTION('',(-2.609024107869E-15,1.110223024625E-16,1.));
#1640=DIRECTION('',(-6.661338147751E-16,1.,-2.775557561563E-15));
#1641=DIRECTION('',(-1.,-4.44089209850221E-16,-2.609024107869E-15));
#1642=DIRECTION('',(-3.330669073875E-16,-1.,1.11022302462499E-16));
#1643=DIRECTION('',(3.330669073875E-16,1.,-1.11022302462499E-16));
#1644=DIRECTION('',(-2.609024107869E-15,1.110223024625E-16,1.));
#1645=DIRECTION('',(-6.661338147751E-16,1.,-2.775557561563E-15));
#1646=DIRECTION('',(-1.,-4.44089209850221E-16,-2.609024107869E-15));
#1647=DIRECTION('',(-3.330669073875E-16,-1.,1.11022302462499E-16));
#1648=DIRECTION('',(3.330669073875E-16,1.,-1.11022302462499E-16));
#1649=DIRECTION('',(-2.609024107869E-15,1.110223024625E-16,1.));
#1650=DIRECTION('',(-6.661338147751E-16,1.,-2.775557561563E-15));
#1651=DIRECTION('',(-1.,-4.44089209850221E-16,-2.609024107869E-15));
#1652=DIRECTION('',(-3.330669073875E-16,-1.,1.11022302462499E-16));
#1653=DIRECTION('',(3.330669073875E-16,1.,-1.11022302462499E-16));
#1654=DIRECTION('',(-2.609024107869E-15,1.110223024625E-16,1.));
#1655=DIRECTION('',(-6.661338147751E-16,1.,-2.775557561563E-15));
#1656=DIRECTION('',(-1.,-4.44089209850221E-16,-2.609024107869E-15));
#1657=DIRECTION('',(-2.22044604925E-16,-1.,1.11022302462499E-16));
#1658=DIRECTION('',(2.22044604925E-16,1.,-1.11022302462499E-16));
#1659=DIRECTION('',(-1.,3.330669073875E-16,-1.165734175856E-15));
#1660=DIRECTION('',(3.330669073875E-16,-1.,1.443289932013E-15));
#1661=DIRECTION('',(-1.35499942431443E-15,-0.306544102571872,0.951856456183602));
#1662=DIRECTION('',(1.387778780781E-15,-1.665334536938E-15,-1.));
#1663=DIRECTION('',(-3.33066907387501E-16,-1.,6.96412624537599E-16));
#1664=DIRECTION('',(1.739349405246E-15,-6.964126245376E-16,-1.));
#1665=DIRECTION('',(-1.,4.440892098501E-16,-1.073215590471E-15));
#1666=DIRECTION('',(3.33066907387501E-16,1.,-6.96412624537599E-16));
#1667=DIRECTION('',(1.,4.44089209850105E-16,1.739349405246E-15));
#1668=DIRECTION('',(1.,-3.330669073875E-16,1.165734175856E-15));
#1669=DIRECTION('',(-3.330669073875E-16,1.,-1.443289932013E-15));
#1670=DIRECTION('',(-1.387778780781E-15,1.665334536938E-15,1.));
#1671=DIRECTION('',(1.35499942431443E-15,0.306544102571872,-0.951856456183602));
#1672=DIRECTION('',(-1.,3.330669073875E-16,-1.165734175856E-15));
#1673=DIRECTION('',(3.330669073875E-16,-1.,1.443289932013E-15));
#1674=DIRECTION('',(-1.35499942431443E-15,-0.306544102571872,0.951856456183602));
#1675=DIRECTION('',(1.387778780781E-15,-1.665334536938E-15,-1.));
#1676=DIRECTION('',(-3.33066907387501E-16,-1.,6.96412624537599E-16));
#1677=DIRECTION('',(1.739349405246E-15,-6.964126245376E-16,-1.));
#1678=DIRECTION('',(-1.,4.440892098501E-16,-1.073215590471E-15));
#1679=DIRECTION('',(3.33066907387501E-16,1.,-6.96412624537599E-16));
#1680=DIRECTION('',(1.,4.44089209850105E-16,1.739349405246E-15));
#1681=DIRECTION('',(1.,-3.330669073875E-16,1.165734175856E-15));
#1682=DIRECTION('',(-3.330669073875E-16,1.,-1.443289932013E-15));
#1683=DIRECTION('',(-1.387778780781E-15,1.665334536938E-15,1.));
#1684=DIRECTION('',(1.35499942431443E-15,0.306544102571872,-0.951856456183602));
#1685=DIRECTION('',(-1.,3.330669073875E-16,-1.165734175856E-15));
#1686=DIRECTION('',(3.330669073875E-16,-1.,1.443289932013E-15));
#1687=DIRECTION('',(-1.35499942431443E-15,-0.306544102571872,0.951856456183602));
#1688=DIRECTION('',(1.387778780781E-15,-1.665334536938E-15,-1.));
#1689=DIRECTION('',(-3.33066907387501E-16,-1.,6.96412624537599E-16));
#1690=DIRECTION('',(1.739349405246E-15,-6.964126245376E-16,-1.));
#1691=DIRECTION('',(-1.,4.440892098501E-16,-1.073215590471E-15));
#1692=DIRECTION('',(3.33066907387501E-16,1.,-6.96412624537599E-16));
#1693=DIRECTION('',(1.,4.44089209850105E-16,1.739349405246E-15));
#1694=DIRECTION('',(1.,-3.330669073875E-16,1.165734175856E-15));
#1695=DIRECTION('',(-3.330669073875E-16,1.,-1.443289932013E-15));
#1696=DIRECTION('',(-1.387778780781E-15,1.665334536938E-15,1.));
#1697=DIRECTION('',(1.35499942431443E-15,0.306544102571872,-0.951856456183602));
#1698=DIRECTION('',(-1.,2.22044604925E-16,-1.720845688169E-15));
#1699=DIRECTION('',(-2.22044604925E-16,-1.,1.221245327088E-15));
#1700=DIRECTION('',(-1.70606454252628E-15,-0.306544102571872,0.951856456183602));
#1701=DIRECTION('',(1.720845688169E-15,-1.665334536938E-15,-1.));
#1702=DIRECTION('',(-9.860761315263E-31,-1.,1.443289932013E-15));
#1703=DIRECTION('',(1.739349405246E-15,-6.964126245376E-16,-1.));
#1704=DIRECTION('',(-1.,4.440892098501E-16,-1.073215590471E-15));
#1705=DIRECTION('',(9.860761315263E-31,1.,-1.443289932013E-15));
#1706=DIRECTION('',(1.,-4.440892098501E-16,1.517304800321E-15));
#1707=DIRECTION('',(1.,-2.22044604925E-16,1.720845688169E-15));
#1708=DIRECTION('',(2.22044604925E-16,1.,-1.221245327088E-15));
#1709=DIRECTION('',(-1.720845688169E-15,1.665334536938E-15,1.));
#1710=DIRECTION('',(1.70606454252628E-15,0.306544102571872,-0.951856456183602));
#1711=DIRECTION('',(5.551115123126E-16,-1.,2.484784864637E-15));
#1712=DIRECTION('',(-1.,2.109423746788E-15,4.440892098501E-16));
#1713=DIRECTION('',(1.,-2.090375331137E-15,-2.870799639817E-16));
#1714=DIRECTION('',(-2.377455295119E-15,-2.22044604925E-16,1.));
#1715=DIRECTION('',(-1.,2.090375331137E-15,2.870799639817E-16));
#1716=DIRECTION('',(2.377455295119E-15,2.22044604925E-16,-1.));
#1717=DIRECTION('',(5.551115123126E-16,-1.,2.484784864637E-15));
#1718=DIRECTION('',(-1.,2.109423746788E-15,4.440892098501E-16));
#1719=DIRECTION('',(1.,5.55111512312605E-16,1.933366085269E-15));
#1720=DIRECTION('',(6.50353590566511E-17,2.484784864637E-15,1.));
#1721=DIRECTION('',(-1.,-5.55111512312605E-16,-1.933366085269E-15));
#1722=DIRECTION('',(-6.50353590566511E-17,-2.484784864637E-15,-1.));
#1723=DIRECTION('',(5.551115123126E-16,-1.,2.484784864637E-15));
#1724=DIRECTION('',(-1.,2.109423746788E-15,4.440892098501E-16));
#1725=DIRECTION('',(1.,5.55111512312605E-16,1.933366085269E-15));
#1726=DIRECTION('',(6.50353590566511E-17,2.484784864637E-15,1.));
#1727=DIRECTION('',(-1.,-5.55111512312605E-16,-1.933366085269E-15));
#1728=DIRECTION('',(-6.50353590566511E-17,-2.484784864637E-15,-1.));
#1729=DIRECTION('',(5.551115123126E-16,-1.,2.484784864637E-15));
#1730=DIRECTION('',(-1.,2.109423746788E-15,4.440892098501E-16));
#1731=DIRECTION('',(1.,5.55111512312605E-16,1.933366085269E-15));
#1732=DIRECTION('',(6.50353590566511E-17,2.484784864637E-15,1.));
#1733=DIRECTION('',(-1.,-5.55111512312605E-16,-1.933366085269E-15));
#1734=DIRECTION('',(-6.50353590566511E-17,-2.484784864637E-15,-1.));
#1735=DIRECTION('',(-3.24874915644798E-16,-0.95776744341929,0.287543951990087));
#1736=DIRECTION('',(-2.84988141945687E-15,0.287543951990087,0.95776744341929));
#1737=DIRECTION('',(1.,-2.22044604925E-15,-5.551115123125E-17));
#1738=DIRECTION('',(-3.12639609625895E-15,0.287543951990087,0.95776744341929));
#1739=DIRECTION('',(1.,-2.22044604925E-15,-5.551115123125E-17));
#1740=DIRECTION('',(-3.12639609625895E-15,0.287543951990087,0.95776744341929));
#1741=DIRECTION('',(-2.609024107869E-15,1.110223024625E-16,1.));
#1742=DIRECTION('',(-6.661338147751E-16,1.,-2.775557561563E-15));
#1743=DIRECTION('',(-8.881784197001E-16,1.,-2.997602166488E-15));
#1744=DIRECTION('',(1.,-2.22044604925E-15,-5.551115123125E-17));
#1745=DIRECTION('',(-8.881784197001E-16,1.,-2.997602166488E-15));
#1746=DIRECTION('',(-1.22249013525249E-15,0.951856456183602,0.306544102571872));
#1747=DIRECTION('',(2.43773299203898E-15,0.306544102571872,-0.951856456183602));
#1748=DIRECTION('',(2.58102111864992E-15,0.306544102571872,-0.951856456183602));
#1749=DIRECTION('',(2.58102111864992E-15,0.306544102571872,-0.951856456183602));
#1750=DIRECTION('',(1.,-2.22044604925E-15,-5.551115123125E-17));
#1751=DIRECTION('',(1.,-2.22044604925E-15,-5.551115123125E-17));
#1752=DIRECTION('',(1.,-2.22044604925E-15,-5.551115123125E-17));
#1753=DIRECTION('',(1.,-2.22044604925E-15,-5.551115123125E-17));
#1754=DIRECTION('',(1.,-2.22044604925E-15,-5.551115123125E-17));
#1755=DIRECTION('',(4.440892098501E-16,-1.,2.553512956638E-15));
#1756=DIRECTION('',(-2.775557561563E-15,-1.110223024625E-16,1.));
#1757=DIRECTION('',(-2.997602166488E-15,-3.330669073875E-16,1.));
#1758=DIRECTION('',(1.,-2.22044604925E-15,-5.551115123125E-17));
#1759=DIRECTION('',(-2.997602166488E-15,-3.330669073875E-16,1.));
#1760=DIRECTION('',(-1.933366085269E-15,2.22044604925E-16,1.));
#1761=DIRECTION('',(-1.,1.868330726212E-15,6.503535905665E-17));
#1762=DIRECTION('',(-1.,2.090375331137E-15,2.870799639817E-16));
#1763=DIRECTION('',(-3.521153230383E-16,1.,-2.22044604925E-15));
#1764=DIRECTION('',(-3.521153230383E-16,1.,-2.22044604925E-15));
#1765=DIRECTION('',(1.,-1.646286121287E-15,1.570092458684E-16));
#1766=DIRECTION('',(-2.155410690194E-15,2.218671295934E-30,1.));
#1767=DIRECTION('',(-2.377455295119E-15,-2.22044604925E-16,1.));
#1768=DIRECTION('',(-3.521153230383E-16,1.,-2.22044604925E-15));
#1769=DIRECTION('',(-1.,1.646286121287E-15,-1.570092458684E-16));
#1770=DIRECTION('',(2.155410690194E-15,-2.218671295934E-30,-1.));
#1771=DIRECTION('',(2.377455295119E-15,2.22044604925E-16,-1.));
#1772=DIRECTION('',(-3.521153230383E-16,1.,-2.22044604925E-15));
#1773=DIRECTION('',(1.933366085269E-15,-2.22044604925E-16,-1.));
#1774=DIRECTION('',(1.,-1.868330726212E-15,-6.503535905665E-17));
#1775=DIRECTION('',(1.,-2.090375331137E-15,-2.870799639817E-16));
#1776=DIRECTION('',(-1.933366085269E-15,2.22044604925E-16,1.));
#1777=DIRECTION('',(-1.,1.868330726212E-15,6.503535905665E-17));
#1778=DIRECTION('',(-1.,-4.44089209850105E-16,-1.933366085269E-15));
#1779=DIRECTION('',(4.250407941993E-16,1.,-2.22044604924999E-16));
#1780=DIRECTION('',(4.250407941993E-16,1.,-2.22044604924999E-16));
#1781=DIRECTION('',(1.,-4.250407941993E-16,-6.503535905665E-17));
#1782=DIRECTION('',(-6.010984557184E-16,-1.110223024625E-16,1.));
#1783=DIRECTION('',(-8.231430606435E-16,-3.330669073875E-16,1.));
#1784=DIRECTION('',(4.250407941993E-16,1.,-2.22044604924999E-16));
#1785=DIRECTION('',(-1.,4.250407941993E-16,6.503535905665E-17));
#1786=DIRECTION('',(6.010984557184E-16,1.110223024625E-16,-1.));
#1787=DIRECTION('',(8.231430606435E-16,3.330669073875E-16,-1.));
#1788=DIRECTION('',(4.250407941993E-16,1.,-2.22044604924999E-16));
#1789=DIRECTION('',(1.933366085269E-15,-2.22044604925E-16,-1.));
#1790=DIRECTION('',(1.,-1.868330726212E-15,-6.503535905665E-17));
#1791=DIRECTION('',(1.,4.44089209850105E-16,1.933366085269E-15));
#1792=DIRECTION('',(-1.933366085269E-15,2.22044604925E-16,1.));
#1793=DIRECTION('',(-1.,1.868330726212E-15,6.503535905665E-17));
#1794=DIRECTION('',(-1.,-4.44089209850105E-16,-1.933366085269E-15));
#1795=DIRECTION('',(4.250407941993E-16,1.,-2.22044604924999E-16));
#1796=DIRECTION('',(4.250407941993E-16,1.,-2.22044604924999E-16));
#1797=DIRECTION('',(1.,-4.250407941993E-16,-6.503535905665E-17));
#1798=DIRECTION('',(-6.010984557184E-16,-1.110223024625E-16,1.));
#1799=DIRECTION('',(-8.231430606435E-16,-3.330669073875E-16,1.));
#1800=DIRECTION('',(4.250407941993E-16,1.,-2.22044604924999E-16));
#1801=DIRECTION('',(-1.,4.250407941993E-16,6.503535905665E-17));
#1802=DIRECTION('',(6.010984557184E-16,1.110223024625E-16,-1.));
#1803=DIRECTION('',(8.231430606435E-16,3.330669073875E-16,-1.));
#1804=DIRECTION('',(4.250407941993E-16,1.,-2.22044604924999E-16));
#1805=DIRECTION('',(1.933366085269E-15,-2.22044604925E-16,-1.));
#1806=DIRECTION('',(1.,-1.868330726212E-15,-6.503535905665E-17));
#1807=DIRECTION('',(1.,4.44089209850105E-16,1.933366085269E-15));
#1808=DIRECTION('',(-1.,4.250407941993E-16,6.503535905665E-17));
#1809=DIRECTION('',(6.010984557184E-16,1.110223024625E-16,-1.));
#1810=DIRECTION('',(8.231430606435E-16,3.330669073875E-16,-1.));
#1811=DIRECTION('',(4.250407941993E-16,1.,-2.22044604924999E-16));
#1812=DIRECTION('',(4.250407941993E-16,1.,-2.22044604924999E-16));
#1813=DIRECTION('',(-1.933366085269E-15,2.22044604925E-16,1.));
#1814=DIRECTION('',(-1.,1.868330726212E-15,6.503535905665E-17));
#1815=DIRECTION('',(-1.,-4.44089209850105E-16,-1.933366085269E-15));
#1816=DIRECTION('',(4.250407941993E-16,1.,-2.22044604924999E-16));
#1817=DIRECTION('',(1.,-4.250407941993E-16,-6.503535905665E-17));
#1818=DIRECTION('',(-6.010984557184E-16,-1.110223024625E-16,1.));
#1819=DIRECTION('',(-8.231430606435E-16,-3.330669073875E-16,1.));
#1820=DIRECTION('',(4.250407941993E-16,1.,-2.22044604924999E-16));
#1821=DIRECTION('',(1.933366085269E-15,-2.22044604925E-16,-1.));
#1822=DIRECTION('',(1.,-1.868330726212E-15,-6.503535905665E-17));
#1823=DIRECTION('',(1.,4.44089209850105E-16,1.933366085269E-15));
#1824=DIRECTION('',(-2.609024107869E-15,1.110223024625E-16,1.));
#1825=DIRECTION('',(-6.661338147751E-16,1.,-2.775557561563E-15));
#1826=DIRECTION('',(1.,-2.22044604925E-15,-5.551115123125E-17));
#1827=DIRECTION('',(-8.881784197001E-16,1.,-2.997602166488E-15));
#1828=DIRECTION('',(-8.881784197001E-16,1.,-2.997602166488E-15));
#1829=DIRECTION('',(1.,-2.442490654175E-15,-3.330669073875E-16));
#1830=DIRECTION('',(-2.997602166488E-15,-5.551115123126E-16,1.));
#1831=DIRECTION('',(-2.997602166488E-15,-3.330669073875E-16,1.));
#1832=DIRECTION('',(-8.881784197001E-16,1.,-2.997602166488E-15));
#1833=DIRECTION('',(1.,-2.442490654175E-15,-3.330669073875E-16));
#1834=DIRECTION('',(-2.997602166488E-15,-5.551115123126E-16,1.));
#1835=DIRECTION('',(-8.881784197001E-16,1.,-2.997602166488E-15));
#1836=DIRECTION('',(-2.997602166488E-15,-3.330669073875E-16,1.));
#1837=DIRECTION('',(-2.609024107869E-15,1.110223024625E-16,1.));
#1838=DIRECTION('',(-6.661338147751E-16,1.,-2.775557561563E-15));
#1839=DIRECTION('',(1.,-2.22044604925E-15,-5.551115123125E-17));
#1840=DIRECTION('',(4.440892098501E-16,-1.,2.553512956638E-15));
#1841=DIRECTION('',(-2.775557561563E-15,-1.110223024625E-16,1.));
#1842=CARTESIAN_POINT('',(0.,0.,0.));
#1843=CARTESIAN_POINT('',(0.00147,0.0009,0.0023111));
#1844=CARTESIAN_POINT('',(0.00077,0.0009,0.0035111));
#1845=CARTESIAN_POINT('',(0.00077,0.0009,0.0035111));
#1846=CARTESIAN_POINT('',(0.00217,0.0009,0.0035111));
#1847=CARTESIAN_POINT('',(0.00077,0.0009,0.0011111));
#1848=CARTESIAN_POINT('',(0.00077,0.0009,0.0011111));
#1849=CARTESIAN_POINT('',(0.00217,0.0009,0.0011111));
#1850=CARTESIAN_POINT('',(0.00217,0.0009,0.0011111));
#1851=CARTESIAN_POINT('',(0.00217,0.0009,0.0035111));
#1852=CARTESIAN_POINT('',(0.00147,0.0009,0.0023111));
#1853=CARTESIAN_POINT('',(0.00077,0.0009,0.0035111));
#1854=CARTESIAN_POINT('',(0.00331,0.0009,0.0035111));
#1855=CARTESIAN_POINT('',(0.00471,0.0009,0.0035111));
#1856=CARTESIAN_POINT('',(0.00331,0.0009,0.0011111));
#1857=CARTESIAN_POINT('',(0.00331,0.0009,0.0011111));
#1858=CARTESIAN_POINT('',(0.00217,0.0009,0.0011111));
#1859=CARTESIAN_POINT('',(0.00471,0.0009,0.0011111));
#1860=CARTESIAN_POINT('',(0.00471,0.0009,0.0035111));
#1861=CARTESIAN_POINT('',(0.00147,0.0009,0.0023111));
#1862=CARTESIAN_POINT('',(0.00077,0.0009,0.0035111));
#1863=CARTESIAN_POINT('',(0.00585,0.0009,0.0035111));
#1864=CARTESIAN_POINT('',(0.00725,0.0009,0.0035111));
#1865=CARTESIAN_POINT('',(0.00585,0.0009,0.0011111));
#1866=CARTESIAN_POINT('',(0.00585,0.0009,0.0011111));
#1867=CARTESIAN_POINT('',(0.00217,0.0009,0.0011111));
#1868=CARTESIAN_POINT('',(0.00725,0.0009,0.0011111));
#1869=CARTESIAN_POINT('',(0.00725,0.0009,0.0035111));
#1870=CARTESIAN_POINT('',(0.00147,0.0009,0.0023111));
#1871=CARTESIAN_POINT('',(0.00077,0.0009,0.0035111));
#1872=CARTESIAN_POINT('',(0.00839,0.0009,0.0035111));
#1873=CARTESIAN_POINT('',(0.00979,0.0009,0.0035111));
#1874=CARTESIAN_POINT('',(0.00839,0.0009,0.0011111));
#1875=CARTESIAN_POINT('',(0.00839,0.0009,0.0011111));
#1876=CARTESIAN_POINT('',(0.00217,0.0009,0.0011111));
#1877=CARTESIAN_POINT('',(0.00979,0.0009,0.0011111));
#1878=CARTESIAN_POINT('',(0.00979,0.0009,0.0035111));
#1879=CARTESIAN_POINT('',(0.00147,4.440892098501E-18,0.0055));
#1880=CARTESIAN_POINT('',(0.00147,-4.440892098501E-18,0.0055));
#1881=CARTESIAN_POINT('',(0.00147,-0.000900000000000004,0.0055));
#1882=CARTESIAN_POINT('',(0.00147,4.440892098501E-18,0.0055));
#1883=CARTESIAN_POINT('',(0.00401,-4.01257349220297E-19,0.0055));
#1884=CARTESIAN_POINT('',(0.00491,-4.01257349220297E-19,0.0055));
#1885=CARTESIAN_POINT('',(0.00147,4.440892098501E-18,0.0055));
#1886=CARTESIAN_POINT('',(0.00655,-1.7628576147411E-18,0.0055));
#1887=CARTESIAN_POINT('',(0.00745,-1.7628576147411E-18,0.0055));
#1888=CARTESIAN_POINT('',(0.00147,4.440892098501E-18,0.0055));
#1889=CARTESIAN_POINT('',(0.00909,-3.12445788026229E-18,0.0055));
#1890=CARTESIAN_POINT('',(0.00999,-3.12445788026229E-18,0.0055));
#1891=CARTESIAN_POINT('',(0.00202,0.002,0.005));
#1892=CARTESIAN_POINT('',(0.00964,0.002,0.005));
#1893=CARTESIAN_POINT('',(0.00964,0.002,0.005));
#1894=CARTESIAN_POINT('',(0.00964,0.002,0.0012));
#1895=CARTESIAN_POINT('',(0.00202,0.002,0.0012));
#1896=CARTESIAN_POINT('',(0.00814,0.002,0.0012));
#1897=CARTESIAN_POINT('',(0.00814,0.002,0.005));
#1898=CARTESIAN_POINT('',(0.00814,0.002,0.005));
#1899=CARTESIAN_POINT('',(-9.10382880192446E-18,0.002,0.005));
#1900=CARTESIAN_POINT('',(0.00202,0.002,0.005));
#1901=CARTESIAN_POINT('',(0.0071,0.002,0.005));
#1902=CARTESIAN_POINT('',(0.0071,0.002,0.005));
#1903=CARTESIAN_POINT('',(0.0071,0.002,0.0012));
#1904=CARTESIAN_POINT('',(0.00202,0.002,0.0012));
#1905=CARTESIAN_POINT('',(0.0056,0.002,0.0012));
#1906=CARTESIAN_POINT('',(0.0056,0.002,0.005));
#1907=CARTESIAN_POINT('',(0.0056,0.002,0.005));
#1908=CARTESIAN_POINT('',(-9.10382880192446E-18,0.002,0.005));
#1909=CARTESIAN_POINT('',(0.00202,0.002,0.005));
#1910=CARTESIAN_POINT('',(0.00456,0.002,0.005));
#1911=CARTESIAN_POINT('',(0.00456,0.002,0.005));
#1912=CARTESIAN_POINT('',(0.00456,0.002,0.0012));
#1913=CARTESIAN_POINT('',(0.00202,0.002,0.0012));
#1914=CARTESIAN_POINT('',(0.00306,0.002,0.0012));
#1915=CARTESIAN_POINT('',(0.00306,0.002,0.005));
#1916=CARTESIAN_POINT('',(0.00306,0.002,0.005));
#1917=CARTESIAN_POINT('',(-9.10382880192446E-18,0.002,0.005));
#1918=CARTESIAN_POINT('',(0.00202,0.002,0.005));
#1919=CARTESIAN_POINT('',(0.00202,0.002,0.005));
#1920=CARTESIAN_POINT('',(0.00202,0.002,0.005));
#1921=CARTESIAN_POINT('',(0.00202,0.002,0.0012));
#1922=CARTESIAN_POINT('',(0.00202,0.002,0.0012));
#1923=CARTESIAN_POINT('',(0.00052,0.002,0.0012));
#1924=CARTESIAN_POINT('',(0.00052,0.002,0.005));
#1925=CARTESIAN_POINT('',(0.00052,0.002,0.005));
#1926=CARTESIAN_POINT('',(-9.10382880192446E-18,0.002,0.005));
#1927=CARTESIAN_POINT('',(0.00217,-0.0031,0.0035111));
#1928=CARTESIAN_POINT('',(0.00217,-0.0031,0.0035111));
#1929=CARTESIAN_POINT('',(0.00217,-0.0031,0.0035111));
#1930=CARTESIAN_POINT('',(0.00217,-0.0031,0.0011111));
#1931=CARTESIAN_POINT('',(0.00217,-0.0031,0.0011111));
#1932=CARTESIAN_POINT('',(0.00217,-0.0031,0.0035111));
#1933=CARTESIAN_POINT('',(0.00217,-0.0031,0.0011111));
#1934=CARTESIAN_POINT('',(0.00077,-0.0031,0.0011111));
#1935=CARTESIAN_POINT('',(0.00077,-0.0031,0.0011111));
#1936=CARTESIAN_POINT('',(0.00217,-0.0031,0.0011111));
#1937=CARTESIAN_POINT('',(0.00077,-0.0031,0.0011111));
#1938=CARTESIAN_POINT('',(0.00077,-0.0031,0.0035111));
#1939=CARTESIAN_POINT('',(0.00077,-0.0031,0.0035111));
#1940=CARTESIAN_POINT('',(0.00077,-0.0031,0.0011111));
#1941=CARTESIAN_POINT('',(0.00077,-0.0031,0.0035111));
#1942=CARTESIAN_POINT('',(0.00077,-0.0031,0.0035111));
#1943=CARTESIAN_POINT('',(0.00471,-0.0031,0.0035111));
#1944=CARTESIAN_POINT('',(0.00471,-0.0031,0.0035111));
#1945=CARTESIAN_POINT('',(0.00471,-0.0031,0.0035111));
#1946=CARTESIAN_POINT('',(0.00471,-0.0031,0.0011111));
#1947=CARTESIAN_POINT('',(0.00471,-0.0031,0.0011111));
#1948=CARTESIAN_POINT('',(0.00471,-0.0031,0.0025));
#1949=CARTESIAN_POINT('',(0.00217,-0.0031,0.0011111));
#1950=CARTESIAN_POINT('',(0.00331,-0.0031,0.0011111));
#1951=CARTESIAN_POINT('',(0.00331,-0.0031,0.0011111));
#1952=CARTESIAN_POINT('',(0.00147,-0.0031,0.0011111));
#1953=CARTESIAN_POINT('',(0.00331,-0.0031,0.0011111));
#1954=CARTESIAN_POINT('',(0.00331,-0.0031,0.0035111));
#1955=CARTESIAN_POINT('',(0.00331,-0.0031,0.0035111));
#1956=CARTESIAN_POINT('',(0.00331,-0.0031,0.0025));
#1957=CARTESIAN_POINT('',(0.00077,-0.0031,0.0035111));
#1958=CARTESIAN_POINT('',(0.00147,-0.0031,0.0035111));
#1959=CARTESIAN_POINT('',(0.00725,-0.0031,0.0035111));
#1960=CARTESIAN_POINT('',(0.00725,-0.0031,0.0035111));
#1961=CARTESIAN_POINT('',(0.00725,-0.0031,0.0035111));
#1962=CARTESIAN_POINT('',(0.00725,-0.0031,0.0011111));
#1963=CARTESIAN_POINT('',(0.00725,-0.0031,0.0011111));
#1964=CARTESIAN_POINT('',(0.00725,-0.0031,0.0025));
#1965=CARTESIAN_POINT('',(0.00217,-0.0031,0.0011111));
#1966=CARTESIAN_POINT('',(0.00585,-0.0031,0.0011111));
#1967=CARTESIAN_POINT('',(0.00585,-0.0031,0.0011111));
#1968=CARTESIAN_POINT('',(0.00147,-0.0031,0.0011111));
#1969=CARTESIAN_POINT('',(0.00585,-0.0031,0.0011111));
#1970=CARTESIAN_POINT('',(0.00585,-0.0031,0.0035111));
#1971=CARTESIAN_POINT('',(0.00585,-0.0031,0.0035111));
#1972=CARTESIAN_POINT('',(0.00585,-0.0031,0.0025));
#1973=CARTESIAN_POINT('',(0.00077,-0.0031,0.0035111));
#1974=CARTESIAN_POINT('',(0.00147,-0.0031,0.0035111));
#1975=CARTESIAN_POINT('',(0.00979,-0.0031,0.0035111));
#1976=CARTESIAN_POINT('',(0.00979,-0.0031,0.0035111));
#1977=CARTESIAN_POINT('',(0.00979,-0.0031,0.0035111));
#1978=CARTESIAN_POINT('',(0.00979,-0.0031,0.0011111));
#1979=CARTESIAN_POINT('',(0.00979,-0.0031,0.0011111));
#1980=CARTESIAN_POINT('',(0.00979,-0.0031,0.0025));
#1981=CARTESIAN_POINT('',(0.00217,-0.0031,0.0011111));
#1982=CARTESIAN_POINT('',(0.00839,-0.0031,0.0011111));
#1983=CARTESIAN_POINT('',(0.00839,-0.0031,0.0011111));
#1984=CARTESIAN_POINT('',(0.00147,-0.0031,0.0011111));
#1985=CARTESIAN_POINT('',(0.00839,-0.0031,0.0011111));
#1986=CARTESIAN_POINT('',(0.00839,-0.0031,0.0035111));
#1987=CARTESIAN_POINT('',(0.00839,-0.0031,0.0035111));
#1988=CARTESIAN_POINT('',(0.00839,-0.0031,0.0025));
#1989=CARTESIAN_POINT('',(0.00077,-0.0031,0.0035111));
#1990=CARTESIAN_POINT('',(0.00147,-0.0031,0.0035111));
#1991=CARTESIAN_POINT('',(0.00147,5.300204719561E-18,0.0085));
#1992=CARTESIAN_POINT('',(0.00147,-5.329070518201E-18,0.0085));
#1993=CARTESIAN_POINT('',(0.00147,-0.000900000000000005,0.0085));
#1994=CARTESIAN_POINT('',(0.00401,1.597144095105E-18,0.0085));
#1995=CARTESIAN_POINT('',(0.00401,-7.105427357601E-18,0.0085));
#1996=CARTESIAN_POINT('',(0.00401,-0.000900000000000007,0.0085));
#1997=CARTESIAN_POINT('',(0.00655,2.355438295842E-19,0.0085));
#1998=CARTESIAN_POINT('',(0.00655,-8.881784197001E-18,0.0085));
#1999=CARTESIAN_POINT('',(0.00655,-0.000900000000000009,0.0085));
#2000=CARTESIAN_POINT('',(0.00909,-1.126056435937E-18,0.0085));
#2001=CARTESIAN_POINT('',(0.00909,-1.06581410364E-17,0.0085));
#2002=CARTESIAN_POINT('',(0.00909,-0.000900000000000011,0.0085));
#2003=CARTESIAN_POINT('',(-1.15463194561E-17,-0.0035,0.005));
#2004=CARTESIAN_POINT('',(-1.59942467418549E-17,0.00267795133333291,0.005));
#2005=CARTESIAN_POINT('',(0.00964,0.00267795133333302,0.005));
#2006=CARTESIAN_POINT('',(0.00814,0.00267795133333295,0.005));
#2007=CARTESIAN_POINT('',(0.00964,-0.0035,0.005));
#2008=CARTESIAN_POINT('',(0.00814,-0.0035,0.005));
#2009=CARTESIAN_POINT('',(-1.15463194561E-17,-0.0035,0.005));
#2010=CARTESIAN_POINT('',(-1.59942467418549E-17,0.00267795133333291,0.005));
#2011=CARTESIAN_POINT('',(0.0071,0.00267795133333302,0.005));
#2012=CARTESIAN_POINT('',(0.0056,0.00267795133333296,0.005));
#2013=CARTESIAN_POINT('',(0.0071,-0.0035,0.005));
#2014=CARTESIAN_POINT('',(0.0056,-0.0035,0.005));
#2015=CARTESIAN_POINT('',(-1.15463194561E-17,-0.0035,0.005));
#2016=CARTESIAN_POINT('',(-1.59942467418549E-17,0.00267795133333291,0.005));
#2017=CARTESIAN_POINT('',(0.00456,0.00267795133333302,0.005));
#2018=CARTESIAN_POINT('',(0.00306,0.00267795133333296,0.005));
#2019=CARTESIAN_POINT('',(0.00456,-0.0035,0.005));
#2020=CARTESIAN_POINT('',(0.00306,-0.0035,0.005));
#2021=CARTESIAN_POINT('',(-1.15463194561E-17,-0.0035,0.005));
#2022=CARTESIAN_POINT('',(-1.59942467418549E-17,0.00267795133333291,0.005));
#2023=CARTESIAN_POINT('',(0.00202,0.00267795133333302,0.005));
#2024=CARTESIAN_POINT('',(0.00052,0.00267795133333296,0.005));
#2025=CARTESIAN_POINT('',(0.00202,-0.0035,0.005));
#2026=CARTESIAN_POINT('',(0.00052,-0.0035,0.005));
#2027=CARTESIAN_POINT('',(0.00964,0.0031,0.005));
#2028=CARTESIAN_POINT('',(0.00964,0.002134195972772,0.006688426057432));
#2029=CARTESIAN_POINT('',(0.00964,0.003,0.004));
#2030=CARTESIAN_POINT('',(0.00964,0.003,0.0025));
#2031=CARTESIAN_POINT('',(0.00964,0.003,0.0012));
#2032=CARTESIAN_POINT('',(0.00964,0.0031,0.00120000000000001));
#2033=CARTESIAN_POINT('',(0.00127,0.00255,0.0012));
#2034=CARTESIAN_POINT('',(0.00814,0.002,0.00120000000000001));
#2035=CARTESIAN_POINT('',(0.00814,0.003,0.0012));
#2036=CARTESIAN_POINT('',(-4.08562073062021E-18,0.003,0.0012));
#2037=CARTESIAN_POINT('',(0.00814,0.002,0.005));
#2038=CARTESIAN_POINT('',(0.00814,0.003,0.0025));
#2039=CARTESIAN_POINT('',(0.00814,0.003,0.004));
#2040=CARTESIAN_POINT('',(0.00814,0.00208251286502,0.006848908348158));
#2041=CARTESIAN_POINT('',(0.0071,0.0031,0.005));
#2042=CARTESIAN_POINT('',(0.0071,0.002134195972772,0.006688426057432));
#2043=CARTESIAN_POINT('',(0.0071,0.003,0.004));
#2044=CARTESIAN_POINT('',(0.0071,0.003,0.0025));
#2045=CARTESIAN_POINT('',(0.0071,0.003,0.0012));
#2046=CARTESIAN_POINT('',(0.0071,0.0031,0.0012));
#2047=CARTESIAN_POINT('',(0.00127,0.00255,0.0012));
#2048=CARTESIAN_POINT('',(0.0056,0.002,0.0012));
#2049=CARTESIAN_POINT('',(0.0056,0.003,0.0012));
#2050=CARTESIAN_POINT('',(-4.08562073062021E-18,0.003,0.0012));
#2051=CARTESIAN_POINT('',(0.0056,0.002,0.005));
#2052=CARTESIAN_POINT('',(0.0056,0.003,0.0025));
#2053=CARTESIAN_POINT('',(0.0056,0.003,0.004));
#2054=CARTESIAN_POINT('',(0.0056,0.00208251286502,0.006848908348158));
#2055=CARTESIAN_POINT('',(0.00456,0.0031,0.005));
#2056=CARTESIAN_POINT('',(0.00456,0.002134195972772,0.006688426057432));
#2057=CARTESIAN_POINT('',(0.00456,0.003,0.004));
#2058=CARTESIAN_POINT('',(0.00456,0.003,0.0025));
#2059=CARTESIAN_POINT('',(0.00456,0.003,0.0012));
#2060=CARTESIAN_POINT('',(0.00456,0.0031,0.0012));
#2061=CARTESIAN_POINT('',(0.00127,0.00255,0.0012));
#2062=CARTESIAN_POINT('',(0.00306,0.002,0.0012));
#2063=CARTESIAN_POINT('',(0.00306,0.003,0.0012));
#2064=CARTESIAN_POINT('',(-4.08562073062021E-18,0.003,0.0012));
#2065=CARTESIAN_POINT('',(0.00306,0.002,0.005));
#2066=CARTESIAN_POINT('',(0.00306,0.003,0.0025));
#2067=CARTESIAN_POINT('',(0.00306,0.003,0.004));
#2068=CARTESIAN_POINT('',(0.00306,0.00208251286502,0.006848908348158));
#2069=CARTESIAN_POINT('',(0.00202,0.0031,0.005));
#2070=CARTESIAN_POINT('',(0.00202,0.002134195972772,0.006688426057432));
#2071=CARTESIAN_POINT('',(0.00202,0.003,0.004));
#2072=CARTESIAN_POINT('',(0.00202,0.003,0.0025));
#2073=CARTESIAN_POINT('',(0.00202,0.003,0.0012));
#2074=CARTESIAN_POINT('',(0.00202,0.0031,0.0012));
#2075=CARTESIAN_POINT('',(0.00127,0.00255,0.0012));
#2076=CARTESIAN_POINT('',(0.00052,0.002,0.0012));
#2077=CARTESIAN_POINT('',(0.00052,0.003,0.0012));
#2078=CARTESIAN_POINT('',(0.000635,0.003,0.0012));
#2079=CARTESIAN_POINT('',(0.00052,0.002,0.005));
#2080=CARTESIAN_POINT('',(0.00052,0.003,0.0025));
#2081=CARTESIAN_POINT('',(0.00052,0.003,0.004));
#2082=CARTESIAN_POINT('',(0.00052,0.00208251286502,0.006848908348158));
#2083=CARTESIAN_POINT('',(0.00147,-0.0031,0.0025));
#2084=CARTESIAN_POINT('',(0.00047,-0.0031,0.0004));
#2085=CARTESIAN_POINT('',(0.00047,-0.0031,0.0004));
#2086=CARTESIAN_POINT('',(0.00247,-0.0031,0.0004));
#2087=CARTESIAN_POINT('',(0.00247,-0.0031,0.0004));
#2088=CARTESIAN_POINT('',(0.00247,-0.0031,0.0046));
#2089=CARTESIAN_POINT('',(0.00247,-0.0031,0.0046));
#2090=CARTESIAN_POINT('',(0.00047,-0.0031,0.0046));
#2091=CARTESIAN_POINT('',(0.00047,-0.0031,0.0046));
#2092=CARTESIAN_POINT('',(0.00147,-0.0031,0.0025));
#2093=CARTESIAN_POINT('',(0.00147,-0.0031,0.0004));
#2094=CARTESIAN_POINT('',(0.00301,-0.0031,0.0004));
#2095=CARTESIAN_POINT('',(0.00501,-0.0031,0.0004));
#2096=CARTESIAN_POINT('',(0.00501,-0.0031,0.0025));
#2097=CARTESIAN_POINT('',(0.00501,-0.0031,0.0046));
#2098=CARTESIAN_POINT('',(0.00147,-0.0031,0.0046));
#2099=CARTESIAN_POINT('',(0.00301,-0.0031,0.0046));
#2100=CARTESIAN_POINT('',(0.00301,-0.0031,0.0025));
#2101=CARTESIAN_POINT('',(0.00147,-0.0031,0.0025));
#2102=CARTESIAN_POINT('',(0.00147,-0.0031,0.0004));
#2103=CARTESIAN_POINT('',(0.00555,-0.0031,0.0004));
#2104=CARTESIAN_POINT('',(0.00755,-0.0031,0.0004));
#2105=CARTESIAN_POINT('',(0.00755,-0.0031,0.0025));
#2106=CARTESIAN_POINT('',(0.00755,-0.0031,0.0046));
#2107=CARTESIAN_POINT('',(0.00147,-0.0031,0.0046));
#2108=CARTESIAN_POINT('',(0.00555,-0.0031,0.0046));
#2109=CARTESIAN_POINT('',(0.00555,-0.0031,0.0025));
#2110=CARTESIAN_POINT('',(0.00147,-0.0031,0.0025));
#2111=CARTESIAN_POINT('',(0.00147,-0.0031,0.0004));
#2112=CARTESIAN_POINT('',(0.00809,-0.0031,0.0004));
#2113=CARTESIAN_POINT('',(0.01009,-0.0031,0.0004));
#2114=CARTESIAN_POINT('',(0.01009,-0.0031,0.0025));
#2115=CARTESIAN_POINT('',(0.01009,-0.0031,0.0046));
#2116=CARTESIAN_POINT('',(0.00147,-0.0031,0.0046));
#2117=CARTESIAN_POINT('',(0.00809,-0.0031,0.0046));
#2118=CARTESIAN_POINT('',(0.00809,-0.0031,0.0025));
#2119=CARTESIAN_POINT('',(-1.221245327088E-17,-0.0025,0.005));
#2120=CARTESIAN_POINT('',(-1.221245327088E-17,-0.0025,0.005));
#2121=CARTESIAN_POINT('',(-9.992007221626E-18,-0.0025,0.005));
#2122=CARTESIAN_POINT('',(0.01056,-0.0025,0.005));
#2123=CARTESIAN_POINT('',(0.01056,-0.0025,0.005));
#2124=CARTESIAN_POINT('',(0.01056,-0.001449219,0.0085));
#2125=CARTESIAN_POINT('',(-2.262686549237E-17,-0.001449219,0.0085));
#2126=CARTESIAN_POINT('',(-1.636451396614E-17,-0.001449219,0.0085));
#2127=CARTESIAN_POINT('',(-1.276756478319E-17,-0.0025,0.005));
#2128=CARTESIAN_POINT('',(-2.262686549237E-17,-0.001449219,0.0085));
#2129=CARTESIAN_POINT('',(0.01056,-0.001449219,0.0085));
#2130=CARTESIAN_POINT('',(0.01056,0.001550781,0.0085));
#2131=CARTESIAN_POINT('',(-2.46252669367E-17,0.001550781,0.0085));
#2132=CARTESIAN_POINT('',(-1.569838015136E-17,0.001550781,0.0085));
#2133=CARTESIAN_POINT('',(-2.419245337393E-17,-0.001449219,0.0085));
#2134=CARTESIAN_POINT('',(-2.46252669367E-17,0.001550781,0.0085));
#2135=CARTESIAN_POINT('',(-2.685698863303E-17,0.001550781,0.0085));
#2136=CARTESIAN_POINT('',(-6.883382752676E-18,0.003,0.004));
#2137=CARTESIAN_POINT('',(0.01056,0.001550781,0.0085));
#2138=CARTESIAN_POINT('',(0.01056,0.003,0.004));
#2139=CARTESIAN_POINT('',(-1.310063169058E-17,0.003,0.004));
#2140=CARTESIAN_POINT('',(-1.310063169058E-17,0.003,0.004));
#2141=CARTESIAN_POINT('',(-1.310063169058E-17,0.003,0.004));
#2142=CARTESIAN_POINT('',(-1.310063169058E-17,0.003,0.004));
#2143=CARTESIAN_POINT('',(-1.310063169058E-17,0.003,0.004));
#2144=CARTESIAN_POINT('',(-1.998401444325E-18,0.003,-8.326672684689E-18));
#2145=CARTESIAN_POINT('',(0.01056,0.003,-3.730349362741E-17));
#2146=CARTESIAN_POINT('',(0.01056,0.003,3.130828929443E-18));
#2147=CARTESIAN_POINT('',(-1.998401444325E-18,0.003,-8.326672684689E-18));
#2148=CARTESIAN_POINT('',(6.661338147751E-19,0.003,-5.662137425588E-18));
#2149=CARTESIAN_POINT('',(-2.6645352591E-18,0.003,-8.992806499464E-18));
#2150=CARTESIAN_POINT('',(0.00247,-0.0035,0.0046));
#2151=CARTESIAN_POINT('',(0.00247,-0.0035,0.0046));
#2152=CARTESIAN_POINT('',(0.00247,-0.0035,0.0046));
#2153=CARTESIAN_POINT('',(0.00047,-0.0035,0.0046));
#2154=CARTESIAN_POINT('',(0.00047,-0.0035,0.0046));
#2155=CARTESIAN_POINT('',(0.00247,-0.0035,0.0046));
#2156=CARTESIAN_POINT('',(0.00247,-0.0035,0.0004));
#2157=CARTESIAN_POINT('',(0.00247,-0.0035,0.0004));
#2158=CARTESIAN_POINT('',(0.00247,-0.0035,0.0004));
#2159=CARTESIAN_POINT('',(0.00247,-0.0035,0.0004));
#2160=CARTESIAN_POINT('',(0.00047,-0.0035,0.0046));
#2161=CARTESIAN_POINT('',(0.00047,-0.0035,0.0046));
#2162=CARTESIAN_POINT('',(0.00047,-0.0035,0.0004));
#2163=CARTESIAN_POINT('',(0.00047,-0.0035,0.0004));
#2164=CARTESIAN_POINT('',(0.00047,-0.0035,0.0004));
#2165=CARTESIAN_POINT('',(0.00047,-0.0035,0.0004));
#2166=CARTESIAN_POINT('',(0.00247,-0.0035,0.0046));
#2167=CARTESIAN_POINT('',(0.00247,-0.0035,0.0046));
#2168=CARTESIAN_POINT('',(0.00501,-0.0035,0.0046));
#2169=CARTESIAN_POINT('',(0.00301,-0.0035,0.0046));
#2170=CARTESIAN_POINT('',(0.00301,-0.0035,0.0046));
#2171=CARTESIAN_POINT('',(0.00501,-0.0035,0.0046));
#2172=CARTESIAN_POINT('',(0.00501,-0.0035,0.0004));
#2173=CARTESIAN_POINT('',(0.00501,-0.0035,0.0004));
#2174=CARTESIAN_POINT('',(0.00501,-0.0035,0.0004));
#2175=CARTESIAN_POINT('',(0.00501,-0.0035,0.000400000000000009));
#2176=CARTESIAN_POINT('',(0.00301,-0.0035,0.0046));
#2177=CARTESIAN_POINT('',(0.00301,-0.0035,0.0046));
#2178=CARTESIAN_POINT('',(0.00301,-0.0035,0.0004));
#2179=CARTESIAN_POINT('',(0.00301,-0.0035,0.000400000000000005));
#2180=CARTESIAN_POINT('',(0.00047,-0.0035,0.0004));
#2181=CARTESIAN_POINT('',(0.00047,-0.0035,0.0004));
#2182=CARTESIAN_POINT('',(0.00247,-0.0035,0.0046));
#2183=CARTESIAN_POINT('',(0.00247,-0.0035,0.0046));
#2184=CARTESIAN_POINT('',(0.00755,-0.0035,0.0046));
#2185=CARTESIAN_POINT('',(0.00555,-0.0035,0.0046));
#2186=CARTESIAN_POINT('',(0.00555,-0.0035,0.0046));
#2187=CARTESIAN_POINT('',(0.00755,-0.0035,0.0046));
#2188=CARTESIAN_POINT('',(0.00755,-0.0035,0.0004));
#2189=CARTESIAN_POINT('',(0.00755,-0.0035,0.0004));
#2190=CARTESIAN_POINT('',(0.00755,-0.0035,0.0004));
#2191=CARTESIAN_POINT('',(0.00755,-0.0035,0.000400000000000014));
#2192=CARTESIAN_POINT('',(0.00555,-0.0035,0.0046));
#2193=CARTESIAN_POINT('',(0.00555,-0.0035,0.0046));
#2194=CARTESIAN_POINT('',(0.00555,-0.0035,0.0004));
#2195=CARTESIAN_POINT('',(0.00555,-0.0035,0.00040000000000001));
#2196=CARTESIAN_POINT('',(0.00047,-0.0035,0.0004));
#2197=CARTESIAN_POINT('',(0.00047,-0.0035,0.0004));
#2198=CARTESIAN_POINT('',(0.00809,-0.0035,0.0046));
#2199=CARTESIAN_POINT('',(0.00809,-0.0035,0.0046));
#2200=CARTESIAN_POINT('',(0.00809,-0.0035,0.0046));
#2201=CARTESIAN_POINT('',(0.00809,-0.0035,0.0004));
#2202=CARTESIAN_POINT('',(0.00809,-0.0035,0.000400000000000015));
#2203=CARTESIAN_POINT('',(0.00809,-0.0035,0.0046));
#2204=CARTESIAN_POINT('',(0.00247,-0.0035,0.0046));
#2205=CARTESIAN_POINT('',(0.00247,-0.0035,0.0046));
#2206=CARTESIAN_POINT('',(0.01009,-0.0035,0.0046));
#2207=CARTESIAN_POINT('',(0.01009,-0.0035,0.0046));
#2208=CARTESIAN_POINT('',(0.01009,-0.0035,0.0004));
#2209=CARTESIAN_POINT('',(0.01009,-0.0035,0.0004));
#2210=CARTESIAN_POINT('',(0.01009,-0.0035,0.0004));
#2211=CARTESIAN_POINT('',(0.01009,-0.0035,0.000400000000000019));
#2212=CARTESIAN_POINT('',(0.00047,-0.0035,0.0004));
#2213=CARTESIAN_POINT('',(0.00047,-0.0035,0.0004));
#2214=CARTESIAN_POINT('',(-1.15463194561E-17,-0.0035,0.005));
#2215=CARTESIAN_POINT('',(-1.15463194561E-17,-0.0035,0.005));
#2216=CARTESIAN_POINT('',(-1.021405182655E-17,-0.0035,0.005));
#2217=CARTESIAN_POINT('',(0.01056,-0.0035,0.005));
#2218=CARTESIAN_POINT('',(0.01056,-0.0035,0.005));
#2219=CARTESIAN_POINT('',(-1.187938636349E-17,-0.0035,0.005));
#2220=CARTESIAN_POINT('',(0.01056,-0.000230665154842,0.00377356379814));
#2221=CARTESIAN_POINT('',(0.01056,-0.0035,-1.7763568394E-17));
#2222=CARTESIAN_POINT('',(0.01056,-0.0035,1.539879335155E-17));
#2223=CARTESIAN_POINT('',(0.01056,-0.0035,-1.7763568394E-17));
#2224=CARTESIAN_POINT('',(-1.110677120398E-17,-0.000230665154842,0.00377356379814));
#2225=CARTESIAN_POINT('',(3.10862446895E-18,-0.0035,1.049160758271E-17));
#2226=CARTESIAN_POINT('',(-7.771561172376E-19,-0.0035,6.60582699652E-18));
#2227=CARTESIAN_POINT('',(3.10862446895E-18,-0.0035,1.049160758271E-17));
#2228=CARTESIAN_POINT('',(2.331468351713E-18,-0.0035,9.71445146547E-18));
#2229=CARTESIAN_POINT('',(2.331468351713E-18,-0.0035,9.71445146547E-18));
#2230=CARTESIAN_POINT('',(2.331468351713E-18,-0.0035,9.71445146547E-18));
#2231=MECHANICAL_DESIGN_GEOMETRIC_PRESENTATION_REPRESENTATION('',(#1396),
#2232);
#2232=(
GEOMETRIC_REPRESENTATION_CONTEXT(3)
GLOBAL_UNCERTAINTY_ASSIGNED_CONTEXT((#2233))
GLOBAL_UNIT_ASSIGNED_CONTEXT((#2236,#2235,#2234))
REPRESENTATION_CONTEXT('PlasticBody','TOP_LEVEL_ASSEMBLY_PART')
);
#2233=UNCERTAINTY_MEASURE_WITH_UNIT(LENGTH_MEASURE(1.E-6),#2236,
'DISTANCE_ACCURACY_VALUE','Maximum Tolerance applied to model');
#2234=(
NAMED_UNIT(*)
SI_UNIT($,.STERADIAN.)
SOLID_ANGLE_UNIT()
);
#2235=(
NAMED_UNIT(*)
PLANE_ANGLE_UNIT()
SI_UNIT($,.RADIAN.)
);
#2236=(
LENGTH_UNIT()
NAMED_UNIT(*)
SI_UNIT($,.METRE.)
);
#2237=PRODUCT_DEFINITION_SHAPE('','',#2238);
#2238=PRODUCT_DEFINITION('','',#2240,#2239);
#2239=PRODUCT_DEFINITION_CONTEXT('',#2246,'design');
#2240=PRODUCT_DEFINITION_FORMATION_WITH_SPECIFIED_SOURCE('','',#2242,
 .NOT_KNOWN.);
#2241=PRODUCT_RELATED_PRODUCT_CATEGORY('','',(#2242));
#2242=PRODUCT('PlasticBody','PlasticBody','PlasticBody',(#2244));
#2243=PRODUCT_CATEGORY('','');
#2244=PRODUCT_CONTEXT('',#2246,'mechanical');
#2245=APPLICATION_PROTOCOL_DEFINITION('international standard',
'ap242_managed_model_based_3d_engineering',2011,#2246);
#2246=APPLICATION_CONTEXT('managed model based 3d engineering');
ENDSEC;
END-ISO-10303-21;
