ISO-10303-21;
HEADER;
/* Generated by software containing ST-Developer
 * from STEP Tools, Inc. (www.steptools.com) 
 */

FILE_DESCRIPTION(
/* description */ (''),
/* implementation_level */ '2;1');

FILE_NAME(
/* name */ 'main.stp',
/* time_stamp */ '2025-09-02T01:15:16+09:00',
/* author */ ('ka0n7'),
/* organization */ (''),
/* preprocessor_version */ 'ST-DEVELOPER v20.1',
/* originating_system */ 'Autodesk Inventor 2026',
/* authorisation */ '');

FILE_SCHEMA (('AUTOMOTIVE_DESIGN { 1 0 10303 214 3 1 1 }'));
ENDSEC;

DATA;
#10=MECHANICAL_DESIGN_GEOMETRIC_PRESENTATION_REPRESENTATION('',(#13),#868);
#11=SHAPE_REPRESENTATION_RELATIONSHIP('SRR','None',#875,#12);
#12=ADVANCED_BREP_SHAPE_REPRESENTATION('',(#14),#867);
#13=STYLED_ITEM('',(#884),#14);
#14=MANIFOLD_SOLID_BREP('\X2\30BD30EA30C330C9\X0\1',#527);
#15=FACE_BOUND('',#84,.T.);
#16=FACE_BOUND('',#86,.T.);
#17=FACE_BOUND('',#88,.T.);
#18=FACE_BOUND('',#90,.T.);
#19=PLANE('',#553);
#20=PLANE('',#554);
#21=PLANE('',#561);
#22=PLANE('',#562);
#23=PLANE('',#566);
#24=PLANE('',#567);
#25=PLANE('',#568);
#26=PLANE('',#569);
#27=PLANE('',#570);
#28=PLANE('',#571);
#29=PLANE('',#572);
#30=PLANE('',#573);
#31=PLANE('',#574);
#32=PLANE('',#575);
#33=PLANE('',#576);
#34=PLANE('',#577);
#35=PLANE('',#578);
#36=PLANE('',#579);
#37=PLANE('',#580);
#38=PLANE('',#581);
#39=PLANE('',#582);
#40=PLANE('',#583);
#41=FACE_OUTER_BOUND('',#67,.T.);
#42=FACE_OUTER_BOUND('',#68,.T.);
#43=FACE_OUTER_BOUND('',#69,.T.);
#44=FACE_OUTER_BOUND('',#70,.T.);
#45=FACE_OUTER_BOUND('',#71,.T.);
#46=FACE_OUTER_BOUND('',#72,.T.);
#47=FACE_OUTER_BOUND('',#73,.T.);
#48=FACE_OUTER_BOUND('',#74,.T.);
#49=FACE_OUTER_BOUND('',#75,.T.);
#50=FACE_OUTER_BOUND('',#76,.T.);
#51=FACE_OUTER_BOUND('',#77,.T.);
#52=FACE_OUTER_BOUND('',#78,.T.);
#53=FACE_OUTER_BOUND('',#79,.T.);
#54=FACE_OUTER_BOUND('',#80,.T.);
#55=FACE_OUTER_BOUND('',#81,.T.);
#56=FACE_OUTER_BOUND('',#82,.T.);
#57=FACE_OUTER_BOUND('',#83,.T.);
#58=FACE_OUTER_BOUND('',#85,.T.);
#59=FACE_OUTER_BOUND('',#87,.T.);
#60=FACE_OUTER_BOUND('',#89,.T.);
#61=FACE_OUTER_BOUND('',#91,.T.);
#62=FACE_OUTER_BOUND('',#92,.T.);
#63=FACE_OUTER_BOUND('',#93,.T.);
#64=FACE_OUTER_BOUND('',#94,.T.);
#65=FACE_OUTER_BOUND('',#95,.T.);
#66=FACE_OUTER_BOUND('',#96,.T.);
#67=EDGE_LOOP('',(#353,#354,#355,#356));
#68=EDGE_LOOP('',(#357,#358,#359,#360));
#69=EDGE_LOOP('',(#361,#362,#363,#364));
#70=EDGE_LOOP('',(#365,#366,#367,#368));
#71=EDGE_LOOP('',(#369,#370,#371,#372));
#72=EDGE_LOOP('',(#373,#374,#375,#376));
#73=EDGE_LOOP('',(#377,#378,#379,#380));
#74=EDGE_LOOP('',(#381,#382,#383,#384));
#75=EDGE_LOOP('',(#385,#386,#387,#388));
#76=EDGE_LOOP('',(#389,#390,#391,#392));
#77=EDGE_LOOP('',(#393,#394,#395,#396));
#78=EDGE_LOOP('',(#397,#398,#399,#400));
#79=EDGE_LOOP('',(#401,#402,#403,#404));
#80=EDGE_LOOP('',(#405,#406,#407,#408));
#81=EDGE_LOOP('',(#409,#410,#411,#412));
#82=EDGE_LOOP('',(#413,#414,#415,#416));
#83=EDGE_LOOP('',(#417,#418,#419,#420,#421,#422,#423,#424));
#84=EDGE_LOOP('',(#425,#426,#427,#428));
#85=EDGE_LOOP('',(#429,#430,#431,#432,#433,#434,#435,#436));
#86=EDGE_LOOP('',(#437,#438,#439,#440));
#87=EDGE_LOOP('',(#441,#442,#443,#444,#445,#446,#447,#448));
#88=EDGE_LOOP('',(#449,#450,#451,#452));
#89=EDGE_LOOP('',(#453,#454,#455,#456,#457,#458,#459,#460));
#90=EDGE_LOOP('',(#461,#462,#463,#464));
#91=EDGE_LOOP('',(#465,#466,#467,#468));
#92=EDGE_LOOP('',(#469,#470,#471,#472));
#93=EDGE_LOOP('',(#473,#474,#475,#476,#477,#478,#479,#480));
#94=EDGE_LOOP('',(#481,#482,#483,#484,#485,#486,#487,#488));
#95=EDGE_LOOP('',(#489,#490,#491,#492));
#96=EDGE_LOOP('',(#493,#494,#495,#496));
#97=LINE('',#724,#161);
#98=LINE('',#727,#162);
#99=LINE('',#730,#163);
#100=LINE('',#732,#164);
#101=LINE('',#733,#165);
#102=LINE('',#736,#166);
#103=LINE('',#738,#167);
#104=LINE('',#739,#168);
#105=LINE('',#748,#169);
#106=LINE('',#751,#170);
#107=LINE('',#754,#171);
#108=LINE('',#756,#172);
#109=LINE('',#757,#173);
#110=LINE('',#760,#174);
#111=LINE('',#762,#175);
#112=LINE('',#763,#176);
#113=LINE('',#770,#177);
#114=LINE('',#772,#178);
#115=LINE('',#774,#179);
#116=LINE('',#775,#180);
#117=LINE('',#779,#181);
#118=LINE('',#781,#182);
#119=LINE('',#783,#183);
#120=LINE('',#784,#184);
#121=LINE('',#787,#185);
#122=LINE('',#789,#186);
#123=LINE('',#790,#187);
#124=LINE('',#793,#188);
#125=LINE('',#795,#189);
#126=LINE('',#796,#190);
#127=LINE('',#799,#191);
#128=LINE('',#801,#192);
#129=LINE('',#802,#193);
#130=LINE('',#805,#194);
#131=LINE('',#807,#195);
#132=LINE('',#808,#196);
#133=LINE('',#811,#197);
#134=LINE('',#813,#198);
#135=LINE('',#814,#199);
#136=LINE('',#817,#200);
#137=LINE('',#819,#201);
#138=LINE('',#820,#202);
#139=LINE('',#823,#203);
#140=LINE('',#825,#204);
#141=LINE('',#827,#205);
#142=LINE('',#828,#206);
#143=LINE('',#831,#207);
#144=LINE('',#833,#208);
#145=LINE('',#835,#209);
#146=LINE('',#836,#210);
#147=LINE('',#839,#211);
#148=LINE('',#841,#212);
#149=LINE('',#843,#213);
#150=LINE('',#844,#214);
#151=LINE('',#847,#215);
#152=LINE('',#849,#216);
#153=LINE('',#851,#217);
#154=LINE('',#852,#218);
#155=LINE('',#854,#219);
#156=LINE('',#856,#220);
#157=LINE('',#858,#221);
#158=LINE('',#859,#222);
#159=LINE('',#861,#223);
#160=LINE('',#862,#224);
#161=VECTOR('',#590,10.);
#162=VECTOR('',#593,10.);
#163=VECTOR('',#596,10.);
#164=VECTOR('',#597,10.);
#165=VECTOR('',#598,10.);
#166=VECTOR('',#601,10.);
#167=VECTOR('',#602,10.);
#168=VECTOR('',#603,10.);
#169=VECTOR('',#614,10.);
#170=VECTOR('',#617,10.);
#171=VECTOR('',#620,10.);
#172=VECTOR('',#621,10.);
#173=VECTOR('',#622,10.);
#174=VECTOR('',#625,10.);
#175=VECTOR('',#626,10.);
#176=VECTOR('',#627,10.);
#177=VECTOR('',#636,10.);
#178=VECTOR('',#637,10.);
#179=VECTOR('',#638,10.);
#180=VECTOR('',#639,10.);
#181=VECTOR('',#642,10.);
#182=VECTOR('',#643,10.);
#183=VECTOR('',#644,10.);
#184=VECTOR('',#645,10.);
#185=VECTOR('',#648,10.);
#186=VECTOR('',#649,10.);
#187=VECTOR('',#650,10.);
#188=VECTOR('',#653,10.);
#189=VECTOR('',#654,10.);
#190=VECTOR('',#655,10.);
#191=VECTOR('',#658,10.);
#192=VECTOR('',#659,10.);
#193=VECTOR('',#660,10.);
#194=VECTOR('',#663,10.);
#195=VECTOR('',#664,10.);
#196=VECTOR('',#665,10.);
#197=VECTOR('',#668,10.);
#198=VECTOR('',#669,10.);
#199=VECTOR('',#670,10.);
#200=VECTOR('',#673,10.);
#201=VECTOR('',#674,10.);
#202=VECTOR('',#675,10.);
#203=VECTOR('',#678,10.);
#204=VECTOR('',#679,10.);
#205=VECTOR('',#680,10.);
#206=VECTOR('',#681,10.);
#207=VECTOR('',#684,10.);
#208=VECTOR('',#685,10.);
#209=VECTOR('',#686,10.);
#210=VECTOR('',#687,10.);
#211=VECTOR('',#690,10.);
#212=VECTOR('',#691,10.);
#213=VECTOR('',#692,10.);
#214=VECTOR('',#693,10.);
#215=VECTOR('',#696,10.);
#216=VECTOR('',#697,10.);
#217=VECTOR('',#698,10.);
#218=VECTOR('',#699,10.);
#219=VECTOR('',#702,10.);
#220=VECTOR('',#705,10.);
#221=VECTOR('',#708,10.);
#222=VECTOR('',#709,10.);
#223=VECTOR('',#712,10.);
#224=VECTOR('',#713,10.);
#225=CIRCLE('',#551,4.25);
#226=CIRCLE('',#552,4.25);
#227=CIRCLE('',#556,4.25);
#228=CIRCLE('',#557,4.25);
#229=CIRCLE('',#559,4.25);
#230=CIRCLE('',#560,4.25);
#231=CIRCLE('',#564,4.25);
#232=CIRCLE('',#565,4.25);
#233=VERTEX_POINT('',#720);
#234=VERTEX_POINT('',#721);
#235=VERTEX_POINT('',#723);
#236=VERTEX_POINT('',#725);
#237=VERTEX_POINT('',#729);
#238=VERTEX_POINT('',#731);
#239=VERTEX_POINT('',#735);
#240=VERTEX_POINT('',#737);
#241=VERTEX_POINT('',#744);
#242=VERTEX_POINT('',#745);
#243=VERTEX_POINT('',#747);
#244=VERTEX_POINT('',#749);
#245=VERTEX_POINT('',#753);
#246=VERTEX_POINT('',#755);
#247=VERTEX_POINT('',#759);
#248=VERTEX_POINT('',#761);
#249=VERTEX_POINT('',#768);
#250=VERTEX_POINT('',#769);
#251=VERTEX_POINT('',#771);
#252=VERTEX_POINT('',#773);
#253=VERTEX_POINT('',#777);
#254=VERTEX_POINT('',#778);
#255=VERTEX_POINT('',#780);
#256=VERTEX_POINT('',#782);
#257=VERTEX_POINT('',#786);
#258=VERTEX_POINT('',#788);
#259=VERTEX_POINT('',#792);
#260=VERTEX_POINT('',#794);
#261=VERTEX_POINT('',#798);
#262=VERTEX_POINT('',#800);
#263=VERTEX_POINT('',#804);
#264=VERTEX_POINT('',#806);
#265=VERTEX_POINT('',#810);
#266=VERTEX_POINT('',#812);
#267=VERTEX_POINT('',#816);
#268=VERTEX_POINT('',#818);
#269=VERTEX_POINT('',#822);
#270=VERTEX_POINT('',#824);
#271=VERTEX_POINT('',#826);
#272=VERTEX_POINT('',#830);
#273=VERTEX_POINT('',#832);
#274=VERTEX_POINT('',#834);
#275=VERTEX_POINT('',#838);
#276=VERTEX_POINT('',#840);
#277=VERTEX_POINT('',#842);
#278=VERTEX_POINT('',#846);
#279=VERTEX_POINT('',#848);
#280=VERTEX_POINT('',#850);
#281=EDGE_CURVE('',#233,#234,#225,.T.);
#282=EDGE_CURVE('',#234,#235,#97,.T.);
#283=EDGE_CURVE('',#235,#236,#226,.T.);
#284=EDGE_CURVE('',#236,#233,#98,.T.);
#285=EDGE_CURVE('',#237,#234,#99,.T.);
#286=EDGE_CURVE('',#238,#237,#100,.T.);
#287=EDGE_CURVE('',#235,#238,#101,.T.);
#288=EDGE_CURVE('',#239,#236,#102,.T.);
#289=EDGE_CURVE('',#240,#239,#103,.T.);
#290=EDGE_CURVE('',#233,#240,#104,.T.);
#291=EDGE_CURVE('',#237,#240,#227,.T.);
#292=EDGE_CURVE('',#239,#238,#228,.T.);
#293=EDGE_CURVE('',#241,#242,#229,.T.);
#294=EDGE_CURVE('',#242,#243,#105,.T.);
#295=EDGE_CURVE('',#243,#244,#230,.T.);
#296=EDGE_CURVE('',#244,#241,#106,.T.);
#297=EDGE_CURVE('',#245,#242,#107,.T.);
#298=EDGE_CURVE('',#246,#245,#108,.T.);
#299=EDGE_CURVE('',#243,#246,#109,.T.);
#300=EDGE_CURVE('',#247,#244,#110,.T.);
#301=EDGE_CURVE('',#248,#247,#111,.T.);
#302=EDGE_CURVE('',#241,#248,#112,.T.);
#303=EDGE_CURVE('',#245,#248,#231,.T.);
#304=EDGE_CURVE('',#247,#246,#232,.T.);
#305=EDGE_CURVE('',#249,#250,#113,.T.);
#306=EDGE_CURVE('',#251,#249,#114,.T.);
#307=EDGE_CURVE('',#252,#251,#115,.T.);
#308=EDGE_CURVE('',#252,#250,#116,.T.);
#309=EDGE_CURVE('',#253,#254,#117,.T.);
#310=EDGE_CURVE('',#253,#255,#118,.T.);
#311=EDGE_CURVE('',#256,#255,#119,.T.);
#312=EDGE_CURVE('',#254,#256,#120,.T.);
#313=EDGE_CURVE('',#257,#249,#121,.T.);
#314=EDGE_CURVE('',#258,#257,#122,.T.);
#315=EDGE_CURVE('',#251,#258,#123,.T.);
#316=EDGE_CURVE('',#254,#259,#124,.T.);
#317=EDGE_CURVE('',#260,#256,#125,.T.);
#318=EDGE_CURVE('',#259,#260,#126,.T.);
#319=EDGE_CURVE('',#250,#261,#127,.T.);
#320=EDGE_CURVE('',#262,#252,#128,.T.);
#321=EDGE_CURVE('',#261,#262,#129,.T.);
#322=EDGE_CURVE('',#263,#253,#130,.T.);
#323=EDGE_CURVE('',#264,#263,#131,.T.);
#324=EDGE_CURVE('',#255,#264,#132,.T.);
#325=EDGE_CURVE('',#260,#265,#133,.T.);
#326=EDGE_CURVE('',#265,#266,#134,.T.);
#327=EDGE_CURVE('',#266,#259,#135,.T.);
#328=EDGE_CURVE('',#262,#267,#136,.T.);
#329=EDGE_CURVE('',#267,#268,#137,.T.);
#330=EDGE_CURVE('',#268,#261,#138,.T.);
#331=EDGE_CURVE('',#269,#268,#139,.T.);
#332=EDGE_CURVE('',#270,#269,#140,.T.);
#333=EDGE_CURVE('',#270,#271,#141,.T.);
#334=EDGE_CURVE('',#257,#271,#142,.T.);
#335=EDGE_CURVE('',#272,#266,#143,.T.);
#336=EDGE_CURVE('',#273,#272,#144,.T.);
#337=EDGE_CURVE('',#273,#274,#145,.T.);
#338=EDGE_CURVE('',#263,#274,#146,.T.);
#339=EDGE_CURVE('',#275,#264,#147,.T.);
#340=EDGE_CURVE('',#276,#275,#148,.T.);
#341=EDGE_CURVE('',#276,#277,#149,.T.);
#342=EDGE_CURVE('',#277,#265,#150,.T.);
#343=EDGE_CURVE('',#278,#258,#151,.T.);
#344=EDGE_CURVE('',#279,#278,#152,.T.);
#345=EDGE_CURVE('',#279,#280,#153,.T.);
#346=EDGE_CURVE('',#280,#267,#154,.T.);
#347=EDGE_CURVE('',#271,#278,#155,.T.);
#348=EDGE_CURVE('',#274,#275,#156,.T.);
#349=EDGE_CURVE('',#280,#276,#157,.T.);
#350=EDGE_CURVE('',#269,#273,#158,.T.);
#351=EDGE_CURVE('',#277,#279,#159,.T.);
#352=EDGE_CURVE('',#272,#270,#160,.T.);
#353=ORIENTED_EDGE('',*,*,#281,.T.);
#354=ORIENTED_EDGE('',*,*,#282,.T.);
#355=ORIENTED_EDGE('',*,*,#283,.T.);
#356=ORIENTED_EDGE('',*,*,#284,.T.);
#357=ORIENTED_EDGE('',*,*,#282,.F.);
#358=ORIENTED_EDGE('',*,*,#285,.F.);
#359=ORIENTED_EDGE('',*,*,#286,.F.);
#360=ORIENTED_EDGE('',*,*,#287,.F.);
#361=ORIENTED_EDGE('',*,*,#284,.F.);
#362=ORIENTED_EDGE('',*,*,#288,.F.);
#363=ORIENTED_EDGE('',*,*,#289,.F.);
#364=ORIENTED_EDGE('',*,*,#290,.F.);
#365=ORIENTED_EDGE('',*,*,#291,.T.);
#366=ORIENTED_EDGE('',*,*,#289,.T.);
#367=ORIENTED_EDGE('',*,*,#292,.T.);
#368=ORIENTED_EDGE('',*,*,#286,.T.);
#369=ORIENTED_EDGE('',*,*,#293,.T.);
#370=ORIENTED_EDGE('',*,*,#294,.T.);
#371=ORIENTED_EDGE('',*,*,#295,.T.);
#372=ORIENTED_EDGE('',*,*,#296,.T.);
#373=ORIENTED_EDGE('',*,*,#294,.F.);
#374=ORIENTED_EDGE('',*,*,#297,.F.);
#375=ORIENTED_EDGE('',*,*,#298,.F.);
#376=ORIENTED_EDGE('',*,*,#299,.F.);
#377=ORIENTED_EDGE('',*,*,#296,.F.);
#378=ORIENTED_EDGE('',*,*,#300,.F.);
#379=ORIENTED_EDGE('',*,*,#301,.F.);
#380=ORIENTED_EDGE('',*,*,#302,.F.);
#381=ORIENTED_EDGE('',*,*,#303,.T.);
#382=ORIENTED_EDGE('',*,*,#301,.T.);
#383=ORIENTED_EDGE('',*,*,#304,.T.);
#384=ORIENTED_EDGE('',*,*,#298,.T.);
#385=ORIENTED_EDGE('',*,*,#305,.F.);
#386=ORIENTED_EDGE('',*,*,#306,.F.);
#387=ORIENTED_EDGE('',*,*,#307,.F.);
#388=ORIENTED_EDGE('',*,*,#308,.T.);
#389=ORIENTED_EDGE('',*,*,#309,.F.);
#390=ORIENTED_EDGE('',*,*,#310,.T.);
#391=ORIENTED_EDGE('',*,*,#311,.F.);
#392=ORIENTED_EDGE('',*,*,#312,.F.);
#393=ORIENTED_EDGE('',*,*,#313,.F.);
#394=ORIENTED_EDGE('',*,*,#314,.F.);
#395=ORIENTED_EDGE('',*,*,#315,.F.);
#396=ORIENTED_EDGE('',*,*,#306,.T.);
#397=ORIENTED_EDGE('',*,*,#316,.F.);
#398=ORIENTED_EDGE('',*,*,#312,.T.);
#399=ORIENTED_EDGE('',*,*,#317,.F.);
#400=ORIENTED_EDGE('',*,*,#318,.F.);
#401=ORIENTED_EDGE('',*,*,#319,.F.);
#402=ORIENTED_EDGE('',*,*,#308,.F.);
#403=ORIENTED_EDGE('',*,*,#320,.F.);
#404=ORIENTED_EDGE('',*,*,#321,.F.);
#405=ORIENTED_EDGE('',*,*,#322,.F.);
#406=ORIENTED_EDGE('',*,*,#323,.F.);
#407=ORIENTED_EDGE('',*,*,#324,.F.);
#408=ORIENTED_EDGE('',*,*,#310,.F.);
#409=ORIENTED_EDGE('',*,*,#318,.T.);
#410=ORIENTED_EDGE('',*,*,#325,.T.);
#411=ORIENTED_EDGE('',*,*,#326,.T.);
#412=ORIENTED_EDGE('',*,*,#327,.T.);
#413=ORIENTED_EDGE('',*,*,#321,.T.);
#414=ORIENTED_EDGE('',*,*,#328,.T.);
#415=ORIENTED_EDGE('',*,*,#329,.T.);
#416=ORIENTED_EDGE('',*,*,#330,.T.);
#417=ORIENTED_EDGE('',*,*,#313,.T.);
#418=ORIENTED_EDGE('',*,*,#305,.T.);
#419=ORIENTED_EDGE('',*,*,#319,.T.);
#420=ORIENTED_EDGE('',*,*,#330,.F.);
#421=ORIENTED_EDGE('',*,*,#331,.F.);
#422=ORIENTED_EDGE('',*,*,#332,.F.);
#423=ORIENTED_EDGE('',*,*,#333,.T.);
#424=ORIENTED_EDGE('',*,*,#334,.F.);
#425=ORIENTED_EDGE('',*,*,#300,.T.);
#426=ORIENTED_EDGE('',*,*,#295,.F.);
#427=ORIENTED_EDGE('',*,*,#299,.T.);
#428=ORIENTED_EDGE('',*,*,#304,.F.);
#429=ORIENTED_EDGE('',*,*,#322,.T.);
#430=ORIENTED_EDGE('',*,*,#309,.T.);
#431=ORIENTED_EDGE('',*,*,#316,.T.);
#432=ORIENTED_EDGE('',*,*,#327,.F.);
#433=ORIENTED_EDGE('',*,*,#335,.F.);
#434=ORIENTED_EDGE('',*,*,#336,.F.);
#435=ORIENTED_EDGE('',*,*,#337,.T.);
#436=ORIENTED_EDGE('',*,*,#338,.F.);
#437=ORIENTED_EDGE('',*,*,#291,.F.);
#438=ORIENTED_EDGE('',*,*,#285,.T.);
#439=ORIENTED_EDGE('',*,*,#281,.F.);
#440=ORIENTED_EDGE('',*,*,#290,.T.);
#441=ORIENTED_EDGE('',*,*,#317,.T.);
#442=ORIENTED_EDGE('',*,*,#311,.T.);
#443=ORIENTED_EDGE('',*,*,#324,.T.);
#444=ORIENTED_EDGE('',*,*,#339,.F.);
#445=ORIENTED_EDGE('',*,*,#340,.F.);
#446=ORIENTED_EDGE('',*,*,#341,.T.);
#447=ORIENTED_EDGE('',*,*,#342,.T.);
#448=ORIENTED_EDGE('',*,*,#325,.F.);
#449=ORIENTED_EDGE('',*,*,#288,.T.);
#450=ORIENTED_EDGE('',*,*,#283,.F.);
#451=ORIENTED_EDGE('',*,*,#287,.T.);
#452=ORIENTED_EDGE('',*,*,#292,.F.);
#453=ORIENTED_EDGE('',*,*,#320,.T.);
#454=ORIENTED_EDGE('',*,*,#307,.T.);
#455=ORIENTED_EDGE('',*,*,#315,.T.);
#456=ORIENTED_EDGE('',*,*,#343,.F.);
#457=ORIENTED_EDGE('',*,*,#344,.F.);
#458=ORIENTED_EDGE('',*,*,#345,.T.);
#459=ORIENTED_EDGE('',*,*,#346,.T.);
#460=ORIENTED_EDGE('',*,*,#328,.F.);
#461=ORIENTED_EDGE('',*,*,#303,.F.);
#462=ORIENTED_EDGE('',*,*,#297,.T.);
#463=ORIENTED_EDGE('',*,*,#293,.F.);
#464=ORIENTED_EDGE('',*,*,#302,.T.);
#465=ORIENTED_EDGE('',*,*,#314,.T.);
#466=ORIENTED_EDGE('',*,*,#334,.T.);
#467=ORIENTED_EDGE('',*,*,#347,.T.);
#468=ORIENTED_EDGE('',*,*,#343,.T.);
#469=ORIENTED_EDGE('',*,*,#323,.T.);
#470=ORIENTED_EDGE('',*,*,#338,.T.);
#471=ORIENTED_EDGE('',*,*,#348,.T.);
#472=ORIENTED_EDGE('',*,*,#339,.T.);
#473=ORIENTED_EDGE('',*,*,#349,.T.);
#474=ORIENTED_EDGE('',*,*,#340,.T.);
#475=ORIENTED_EDGE('',*,*,#348,.F.);
#476=ORIENTED_EDGE('',*,*,#337,.F.);
#477=ORIENTED_EDGE('',*,*,#350,.F.);
#478=ORIENTED_EDGE('',*,*,#331,.T.);
#479=ORIENTED_EDGE('',*,*,#329,.F.);
#480=ORIENTED_EDGE('',*,*,#346,.F.);
#481=ORIENTED_EDGE('',*,*,#351,.T.);
#482=ORIENTED_EDGE('',*,*,#344,.T.);
#483=ORIENTED_EDGE('',*,*,#347,.F.);
#484=ORIENTED_EDGE('',*,*,#333,.F.);
#485=ORIENTED_EDGE('',*,*,#352,.F.);
#486=ORIENTED_EDGE('',*,*,#335,.T.);
#487=ORIENTED_EDGE('',*,*,#326,.F.);
#488=ORIENTED_EDGE('',*,*,#342,.F.);
#489=ORIENTED_EDGE('',*,*,#332,.T.);
#490=ORIENTED_EDGE('',*,*,#350,.T.);
#491=ORIENTED_EDGE('',*,*,#336,.T.);
#492=ORIENTED_EDGE('',*,*,#352,.T.);
#493=ORIENTED_EDGE('',*,*,#351,.F.);
#494=ORIENTED_EDGE('',*,*,#341,.F.);
#495=ORIENTED_EDGE('',*,*,#349,.F.);
#496=ORIENTED_EDGE('',*,*,#345,.F.);
#497=CYLINDRICAL_SURFACE('',#550,4.25);
#498=CYLINDRICAL_SURFACE('',#555,4.25);
#499=CYLINDRICAL_SURFACE('',#558,4.25);
#500=CYLINDRICAL_SURFACE('',#563,4.25);
#501=ADVANCED_FACE('',(#41),#497,.F.);
#502=ADVANCED_FACE('',(#42),#19,.F.);
#503=ADVANCED_FACE('',(#43),#20,.F.);
#504=ADVANCED_FACE('',(#44),#498,.F.);
#505=ADVANCED_FACE('',(#45),#499,.F.);
#506=ADVANCED_FACE('',(#46),#21,.F.);
#507=ADVANCED_FACE('',(#47),#22,.F.);
#508=ADVANCED_FACE('',(#48),#500,.F.);
#509=ADVANCED_FACE('',(#49),#23,.F.);
#510=ADVANCED_FACE('',(#50),#24,.F.);
#511=ADVANCED_FACE('',(#51),#25,.F.);
#512=ADVANCED_FACE('',(#52),#26,.F.);
#513=ADVANCED_FACE('',(#53),#27,.F.);
#514=ADVANCED_FACE('',(#54),#28,.F.);
#515=ADVANCED_FACE('',(#55),#29,.T.);
#516=ADVANCED_FACE('',(#56),#30,.T.);
#517=ADVANCED_FACE('',(#57,#15),#31,.T.);
#518=ADVANCED_FACE('',(#58,#16),#32,.T.);
#519=ADVANCED_FACE('',(#59,#17),#33,.T.);
#520=ADVANCED_FACE('',(#60,#18),#34,.T.);
#521=ADVANCED_FACE('',(#61),#35,.T.);
#522=ADVANCED_FACE('',(#62),#36,.T.);
#523=ADVANCED_FACE('',(#63),#37,.T.);
#524=ADVANCED_FACE('',(#64),#38,.T.);
#525=ADVANCED_FACE('',(#65),#39,.T.);
#526=ADVANCED_FACE('',(#66),#40,.F.);
#527=CLOSED_SHELL('',(#501,#502,#503,#504,#505,#506,#507,#508,#509,#510,
#511,#512,#513,#514,#515,#516,#517,#518,#519,#520,#521,#522,#523,#524,#525,
#526));
#528=DERIVED_UNIT_ELEMENT(#531,1.);
#529=DERIVED_UNIT_ELEMENT(#870,-3.);
#530=DIMENSIONAL_EXPONENTS(0.,1.,0.,0.,0.,0.,0.);
#531=(
CONVERSION_BASED_UNIT('gram',#533)
MASS_UNIT()
NAMED_UNIT(#530)
);
#532=(
MASS_UNIT()
NAMED_UNIT(*)
SI_UNIT(.KILO.,.GRAM.)
);
#533=MASS_MEASURE_WITH_UNIT(MASS_MEASURE(0.001),#532);
#534=DERIVED_UNIT((#528,#529));
#535=MEASURE_REPRESENTATION_ITEM('density measure',
POSITIVE_RATIO_MEASURE(1.),#534);
#536=PROPERTY_DEFINITION_REPRESENTATION(#541,#538);
#537=PROPERTY_DEFINITION_REPRESENTATION(#542,#539);
#538=REPRESENTATION('material name',(#540),#867);
#539=REPRESENTATION('density',(#535),#867);
#540=DESCRIPTIVE_REPRESENTATION_ITEM('\X2\4E00822C\X0\','\X2\4E00822C\X0\');
#541=PROPERTY_DEFINITION('material property','material name',#877);
#542=PROPERTY_DEFINITION('material property','density of part',#877);
#543=DATE_TIME_ROLE('creation_date');
#544=APPLIED_DATE_AND_TIME_ASSIGNMENT(#545,#543,(#877));
#545=DATE_AND_TIME(#546,#547);
#546=CALENDAR_DATE(2025,2,9);
#547=LOCAL_TIME(0,0,0.,#548);
#548=COORDINATED_UNIVERSAL_TIME_OFFSET(0,0,.BEHIND.);
#549=AXIS2_PLACEMENT_3D('',#718,#584,#585);
#550=AXIS2_PLACEMENT_3D('',#719,#586,#587);
#551=AXIS2_PLACEMENT_3D('',#722,#588,#589);
#552=AXIS2_PLACEMENT_3D('',#726,#591,#592);
#553=AXIS2_PLACEMENT_3D('',#728,#594,#595);
#554=AXIS2_PLACEMENT_3D('',#734,#599,#600);
#555=AXIS2_PLACEMENT_3D('',#740,#604,#605);
#556=AXIS2_PLACEMENT_3D('',#741,#606,#607);
#557=AXIS2_PLACEMENT_3D('',#742,#608,#609);
#558=AXIS2_PLACEMENT_3D('',#743,#610,#611);
#559=AXIS2_PLACEMENT_3D('',#746,#612,#613);
#560=AXIS2_PLACEMENT_3D('',#750,#615,#616);
#561=AXIS2_PLACEMENT_3D('',#752,#618,#619);
#562=AXIS2_PLACEMENT_3D('',#758,#623,#624);
#563=AXIS2_PLACEMENT_3D('',#764,#628,#629);
#564=AXIS2_PLACEMENT_3D('',#765,#630,#631);
#565=AXIS2_PLACEMENT_3D('',#766,#632,#633);
#566=AXIS2_PLACEMENT_3D('',#767,#634,#635);
#567=AXIS2_PLACEMENT_3D('',#776,#640,#641);
#568=AXIS2_PLACEMENT_3D('',#785,#646,#647);
#569=AXIS2_PLACEMENT_3D('',#791,#651,#652);
#570=AXIS2_PLACEMENT_3D('',#797,#656,#657);
#571=AXIS2_PLACEMENT_3D('',#803,#661,#662);
#572=AXIS2_PLACEMENT_3D('',#809,#666,#667);
#573=AXIS2_PLACEMENT_3D('',#815,#671,#672);
#574=AXIS2_PLACEMENT_3D('',#821,#676,#677);
#575=AXIS2_PLACEMENT_3D('',#829,#682,#683);
#576=AXIS2_PLACEMENT_3D('',#837,#688,#689);
#577=AXIS2_PLACEMENT_3D('',#845,#694,#695);
#578=AXIS2_PLACEMENT_3D('',#853,#700,#701);
#579=AXIS2_PLACEMENT_3D('',#855,#703,#704);
#580=AXIS2_PLACEMENT_3D('',#857,#706,#707);
#581=AXIS2_PLACEMENT_3D('',#860,#710,#711);
#582=AXIS2_PLACEMENT_3D('',#863,#714,#715);
#583=AXIS2_PLACEMENT_3D('',#864,#716,#717);
#584=DIRECTION('axis',(0.,0.,1.));
#585=DIRECTION('refdir',(1.,0.,0.));
#586=DIRECTION('center_axis',(-1.,-1.11022302462516E-16,0.));
#587=DIRECTION('ref_axis',(0.,-0.707106781186547,-0.707106781186548));
#588=DIRECTION('center_axis',(1.,0.,0.));
#589=DIRECTION('ref_axis',(0.,-0.707106781186547,0.707106781186548));
#590=DIRECTION('',(-1.,-1.11022302462516E-16,0.));
#591=DIRECTION('center_axis',(-1.,-2.22044604925031E-16,0.));
#592=DIRECTION('ref_axis',(0.,-0.707106781186547,-0.707106781186548));
#593=DIRECTION('',(1.,1.11022302462516E-16,0.));
#594=DIRECTION('center_axis',(0.,0.,-1.));
#595=DIRECTION('ref_axis',(1.11022302462516E-16,-1.,0.));
#596=DIRECTION('',(0.,-1.,0.));
#597=DIRECTION('',(1.,1.11022302462516E-16,0.));
#598=DIRECTION('',(-2.22044604925031E-16,1.,0.));
#599=DIRECTION('center_axis',(0.,0.,1.));
#600=DIRECTION('ref_axis',(-1.11022302462516E-16,1.,0.));
#601=DIRECTION('',(2.22044604925031E-16,-1.,0.));
#602=DIRECTION('',(-1.,-1.11022302462516E-16,0.));
#603=DIRECTION('',(0.,1.,0.));
#604=DIRECTION('center_axis',(-1.,-1.11022302462516E-16,0.));
#605=DIRECTION('ref_axis',(0.,0.707106781186548,-0.707106781186548));
#606=DIRECTION('center_axis',(1.,0.,0.));
#607=DIRECTION('ref_axis',(0.,0.707106781186548,-0.707106781186548));
#608=DIRECTION('center_axis',(-1.,-2.22044604925031E-16,0.));
#609=DIRECTION('ref_axis',(0.,0.707106781186548,0.707106781186548));
#610=DIRECTION('center_axis',(-1.,-1.11022302462516E-16,0.));
#611=DIRECTION('ref_axis',(0.,-0.707106781186547,-0.707106781186548));
#612=DIRECTION('center_axis',(1.,1.11022302462516E-16,0.));
#613=DIRECTION('ref_axis',(0.,-0.707106781186547,0.707106781186548));
#614=DIRECTION('',(-1.,-1.11022302462516E-16,0.));
#615=DIRECTION('center_axis',(-1.,-3.33066907387547E-16,0.));
#616=DIRECTION('ref_axis',(0.,-0.707106781186547,-0.707106781186548));
#617=DIRECTION('',(1.,1.11022302462516E-16,0.));
#618=DIRECTION('center_axis',(0.,0.,-1.));
#619=DIRECTION('ref_axis',(1.11022302462516E-16,-1.,0.));
#620=DIRECTION('',(1.11022302462516E-16,-1.,0.));
#621=DIRECTION('',(1.,1.11022302462516E-16,0.));
#622=DIRECTION('',(-3.33066907387547E-16,1.,0.));
#623=DIRECTION('center_axis',(0.,0.,1.));
#624=DIRECTION('ref_axis',(-1.11022302462516E-16,1.,0.));
#625=DIRECTION('',(3.33066907387547E-16,-1.,0.));
#626=DIRECTION('',(-1.,-1.11022302462516E-16,0.));
#627=DIRECTION('',(-1.11022302462516E-16,1.,0.));
#628=DIRECTION('center_axis',(-1.,-1.11022302462516E-16,0.));
#629=DIRECTION('ref_axis',(0.,0.707106781186548,-0.707106781186548));
#630=DIRECTION('center_axis',(1.,1.11022302462516E-16,0.));
#631=DIRECTION('ref_axis',(0.,0.707106781186548,-0.707106781186548));
#632=DIRECTION('center_axis',(-1.,-3.33066907387547E-16,0.));
#633=DIRECTION('ref_axis',(0.,0.707106781186548,0.707106781186548));
#634=DIRECTION('center_axis',(0.,0.,-1.));
#635=DIRECTION('ref_axis',(1.11022302462516E-16,-1.,0.));
#636=DIRECTION('',(-3.33066907387547E-16,1.,0.));
#637=DIRECTION('',(-1.,-1.11022302462516E-16,0.));
#638=DIRECTION('',(1.11022302462516E-16,-1.,0.));
#639=DIRECTION('',(-1.,-1.11022302462516E-16,0.));
#640=DIRECTION('center_axis',(0.,0.,-1.));
#641=DIRECTION('ref_axis',(1.11022302462516E-16,-1.,0.));
#642=DIRECTION('',(0.,-1.,0.));
#643=DIRECTION('',(-1.,-1.11022302462516E-16,0.));
#644=DIRECTION('',(-2.22044604925031E-16,1.,0.));
#645=DIRECTION('',(-1.,-1.11022302462516E-16,0.));
#646=DIRECTION('center_axis',(1.11022302462516E-16,-1.,-2.77555756156289E-16));
#647=DIRECTION('ref_axis',(3.08148791101957E-32,-2.77555756156289E-16,1.));
#648=DIRECTION('',(-9.24446373305872E-32,2.77555756156289E-16,-1.));
#649=DIRECTION('',(-1.,-1.11022302462516E-16,0.));
#650=DIRECTION('',(3.08148791101957E-32,-2.77555756156289E-16,1.));
#651=DIRECTION('center_axis',(1.11022302462516E-16,-1.,-2.77555756156289E-16));
#652=DIRECTION('ref_axis',(3.08148791101957E-32,-2.77555756156289E-16,1.));
#653=DIRECTION('',(0.,-2.77555756156289E-16,1.));
#654=DIRECTION('',(-6.16297582203915E-32,2.77555756156289E-16,-1.));
#655=DIRECTION('',(-1.,-1.11022302462516E-16,0.));
#656=DIRECTION('center_axis',(-1.11022302462516E-16,1.,5.55111512312578E-16));
#657=DIRECTION('ref_axis',(-6.16297582203916E-32,5.55111512312578E-16,-1.));
#658=DIRECTION('',(1.84889274661175E-31,-5.55111512312578E-16,1.));
#659=DIRECTION('',(-6.16297582203916E-32,5.55111512312578E-16,-1.));
#660=DIRECTION('',(1.,1.11022302462516E-16,0.));
#661=DIRECTION('center_axis',(-1.11022302462516E-16,1.,5.55111512312578E-16));
#662=DIRECTION('ref_axis',(-6.16297582203916E-32,5.55111512312578E-16,-1.));
#663=DIRECTION('',(0.,5.55111512312578E-16,-1.));
#664=DIRECTION('',(1.,1.11022302462516E-16,0.));
#665=DIRECTION('',(1.23259516440783E-31,-5.55111512312578E-16,1.));
#666=DIRECTION('center_axis',(0.,0.,1.));
#667=DIRECTION('ref_axis',(1.,0.,0.));
#668=DIRECTION('',(0.,-1.,0.));
#669=DIRECTION('',(1.,-1.43254583822601E-16,0.));
#670=DIRECTION('',(0.,1.,0.));
#671=DIRECTION('center_axis',(0.,0.,1.));
#672=DIRECTION('ref_axis',(1.,0.,0.));
#673=DIRECTION('',(-2.22044604925031E-16,1.,0.));
#674=DIRECTION('',(-1.,-7.16272919113004E-17,0.));
#675=DIRECTION('',(3.33066907387547E-16,-1.,0.));
#676=DIRECTION('center_axis',(-1.,-3.33066907387547E-16,0.));
#677=DIRECTION('ref_axis',(3.33066907387547E-16,-1.,0.));
#678=DIRECTION('',(0.,0.,1.));
#679=DIRECTION('',(-3.33066907387547E-16,1.,0.));
#680=DIRECTION('',(0.,0.,1.));
#681=DIRECTION('',(3.33066907387547E-16,-1.,0.));
#682=DIRECTION('center_axis',(1.,0.,0.));
#683=DIRECTION('ref_axis',(0.,1.,0.));
#684=DIRECTION('',(0.,0.,1.));
#685=DIRECTION('',(0.,-1.,0.));
#686=DIRECTION('',(0.,0.,1.));
#687=DIRECTION('',(0.,1.,0.));
#688=DIRECTION('center_axis',(-1.,-2.22044604925031E-16,0.));
#689=DIRECTION('ref_axis',(2.22044604925031E-16,-1.,0.));
#690=DIRECTION('',(0.,-1.,0.));
#691=DIRECTION('',(0.,0.,1.));
#692=DIRECTION('',(2.22044604925031E-16,-1.,0.));
#693=DIRECTION('',(0.,0.,1.));
#694=DIRECTION('center_axis',(1.,1.11022302462516E-16,0.));
#695=DIRECTION('ref_axis',(-1.11022302462516E-16,1.,0.));
#696=DIRECTION('',(-2.22044604925031E-16,1.,0.));
#697=DIRECTION('',(0.,0.,1.));
#698=DIRECTION('',(-1.11022302462516E-16,1.,0.));
#699=DIRECTION('',(0.,0.,1.));
#700=DIRECTION('center_axis',(0.,0.,1.));
#701=DIRECTION('ref_axis',(1.,0.,0.));
#702=DIRECTION('',(1.,-1.43254583822601E-16,0.));
#703=DIRECTION('center_axis',(0.,0.,1.));
#704=DIRECTION('ref_axis',(1.,0.,0.));
#705=DIRECTION('',(-1.,-7.16272919113004E-17,0.));
#706=DIRECTION('center_axis',(-7.16272919113004E-17,1.,0.));
#707=DIRECTION('ref_axis',(-1.,-7.16272919113004E-17,0.));
#708=DIRECTION('',(-1.,-7.16272919113004E-17,0.));
#709=DIRECTION('',(-1.,-7.16272919113004E-17,0.));
#710=DIRECTION('center_axis',(-1.43254583822601E-16,-1.,0.));
#711=DIRECTION('ref_axis',(1.,-1.43254583822601E-16,0.));
#712=DIRECTION('',(1.,-1.43254583822601E-16,0.));
#713=DIRECTION('',(1.,-1.43254583822601E-16,0.));
#714=DIRECTION('center_axis',(0.,0.,1.));
#715=DIRECTION('ref_axis',(1.,0.,0.));
#716=DIRECTION('center_axis',(0.,0.,1.));
#717=DIRECTION('ref_axis',(1.,0.,0.));
#718=CARTESIAN_POINT('',(0.,0.,0.));
#719=CARTESIAN_POINT('Origin',(31.,-11.0870162418,16.));
#720=CARTESIAN_POINT('',(-25.,-11.0870162418,20.25));
#721=CARTESIAN_POINT('',(-25.,-11.0870162418,11.75));
#722=CARTESIAN_POINT('Origin',(-25.,-11.0870162418,16.));
#723=CARTESIAN_POINT('',(-31.,-11.0870162418,11.75));
#724=CARTESIAN_POINT('',(31.,-11.0870162418,11.75));
#725=CARTESIAN_POINT('',(-31.,-11.0870162418,20.25));
#726=CARTESIAN_POINT('Origin',(-31.,-11.0870162418,16.));
#727=CARTESIAN_POINT('',(31.,-11.0870162418,20.25));
#728=CARTESIAN_POINT('Origin',(31.,15.3370162418,11.75));
#729=CARTESIAN_POINT('',(-25.,11.0870162418,11.75));
#730=CARTESIAN_POINT('',(-25.,-2.3314918791,11.75));
#731=CARTESIAN_POINT('',(-31.,11.0870162418,11.75));
#732=CARTESIAN_POINT('',(31.,11.0870162418,11.75));
#733=CARTESIAN_POINT('',(-31.,17.6685081209,11.75));
#734=CARTESIAN_POINT('Origin',(31.,-15.3370162418,20.25));
#735=CARTESIAN_POINT('',(-31.,11.0870162418,20.25));
#736=CARTESIAN_POINT('',(-31.,2.33149187909999,20.25));
#737=CARTESIAN_POINT('',(-25.,11.0870162418,20.25));
#738=CARTESIAN_POINT('',(31.,11.0870162418,20.25));
#739=CARTESIAN_POINT('',(-25.,-17.6685081209,20.25));
#740=CARTESIAN_POINT('Origin',(31.,11.0870162418,16.));
#741=CARTESIAN_POINT('Origin',(-25.,11.0870162418,16.));
#742=CARTESIAN_POINT('Origin',(-31.,11.0870162418,16.));
#743=CARTESIAN_POINT('Origin',(31.,-11.0870162418,16.));
#744=CARTESIAN_POINT('',(31.,-11.0870162418,20.25));
#745=CARTESIAN_POINT('',(31.,-11.0870162418,11.75));
#746=CARTESIAN_POINT('Origin',(31.,-11.0870162418,16.));
#747=CARTESIAN_POINT('',(25.,-11.0870162418,11.75));
#748=CARTESIAN_POINT('',(31.,-11.0870162418,11.75));
#749=CARTESIAN_POINT('',(25.,-11.0870162418,20.25));
#750=CARTESIAN_POINT('Origin',(25.,-11.0870162418,16.));
#751=CARTESIAN_POINT('',(31.,-11.0870162418,20.25));
#752=CARTESIAN_POINT('Origin',(31.,15.3370162418,11.75));
#753=CARTESIAN_POINT('',(31.,11.0870162418,11.75));
#754=CARTESIAN_POINT('',(31.,-2.3314918791,11.75));
#755=CARTESIAN_POINT('',(25.,11.0870162418,11.75));
#756=CARTESIAN_POINT('',(31.,11.0870162418,11.75));
#757=CARTESIAN_POINT('',(25.,17.6685081209,11.75));
#758=CARTESIAN_POINT('Origin',(31.,-15.3370162418,20.25));
#759=CARTESIAN_POINT('',(25.,11.0870162418,20.25));
#760=CARTESIAN_POINT('',(25.,2.33149187909999,20.25));
#761=CARTESIAN_POINT('',(31.,11.0870162418,20.25));
#762=CARTESIAN_POINT('',(31.,11.0870162418,20.25));
#763=CARTESIAN_POINT('',(31.,-17.6685081209,20.25));
#764=CARTESIAN_POINT('Origin',(31.,11.0870162418,16.));
#765=CARTESIAN_POINT('Origin',(31.,11.0870162418,16.));
#766=CARTESIAN_POINT('Origin',(25.,11.0870162418,16.));
#767=CARTESIAN_POINT('Origin',(31.,13.7,32.));
#768=CARTESIAN_POINT('',(25.,-13.7,32.));
#769=CARTESIAN_POINT('',(25.,13.7,32.));
#770=CARTESIAN_POINT('',(25.,16.85,32.));
#771=CARTESIAN_POINT('',(31.,-13.7,32.));
#772=CARTESIAN_POINT('',(31.,-13.7,32.));
#773=CARTESIAN_POINT('',(31.,13.7,32.));
#774=CARTESIAN_POINT('',(31.,-3.15,32.));
#775=CARTESIAN_POINT('',(31.,13.7,32.));
#776=CARTESIAN_POINT('Origin',(31.,13.7,32.));
#777=CARTESIAN_POINT('',(-25.,13.7,32.));
#778=CARTESIAN_POINT('',(-25.,-13.7,32.));
#779=CARTESIAN_POINT('',(-25.,-3.15,32.));
#780=CARTESIAN_POINT('',(-31.,13.7,32.));
#781=CARTESIAN_POINT('',(31.,13.7,32.));
#782=CARTESIAN_POINT('',(-31.,-13.7,32.));
#783=CARTESIAN_POINT('',(-31.,16.85,32.));
#784=CARTESIAN_POINT('',(31.,-13.7,32.));
#785=CARTESIAN_POINT('Origin',(31.,-13.7,32.));
#786=CARTESIAN_POINT('',(25.,-13.7,36.));
#787=CARTESIAN_POINT('',(25.,-13.7,19.));
#788=CARTESIAN_POINT('',(31.,-13.7,36.));
#789=CARTESIAN_POINT('',(29.5,-13.7,36.));
#790=CARTESIAN_POINT('',(31.,-13.7,16.));
#791=CARTESIAN_POINT('Origin',(31.,-13.7,32.));
#792=CARTESIAN_POINT('',(-25.,-13.7,36.));
#793=CARTESIAN_POINT('',(-25.,-13.7,19.));
#794=CARTESIAN_POINT('',(-31.,-13.7,36.));
#795=CARTESIAN_POINT('',(-31.,-13.7,16.));
#796=CARTESIAN_POINT('',(1.5,-13.7,36.));
#797=CARTESIAN_POINT('Origin',(31.,13.7,36.));
#798=CARTESIAN_POINT('',(25.,13.7,36.));
#799=CARTESIAN_POINT('',(25.,13.7,21.));
#800=CARTESIAN_POINT('',(31.,13.7,36.));
#801=CARTESIAN_POINT('',(31.,13.7,18.));
#802=CARTESIAN_POINT('',(29.5,13.7,36.));
#803=CARTESIAN_POINT('Origin',(31.,13.7,36.));
#804=CARTESIAN_POINT('',(-25.,13.7,36.));
#805=CARTESIAN_POINT('',(-25.,13.7,21.));
#806=CARTESIAN_POINT('',(-31.,13.7,36.));
#807=CARTESIAN_POINT('',(1.49999999999999,13.7,36.));
#808=CARTESIAN_POINT('',(-31.,13.7,18.));
#809=CARTESIAN_POINT('Origin',(-28.,2.22044604925031E-15,36.));
#810=CARTESIAN_POINT('',(-31.,-20.,36.));
#811=CARTESIAN_POINT('',(-31.,20.,36.));
#812=CARTESIAN_POINT('',(-25.,-20.,36.));
#813=CARTESIAN_POINT('',(-31.,-20.,36.));
#814=CARTESIAN_POINT('',(-25.,-20.,36.));
#815=CARTESIAN_POINT('Origin',(28.,0.,36.));
#816=CARTESIAN_POINT('',(31.,20.,36.));
#817=CARTESIAN_POINT('',(31.,-20.,36.));
#818=CARTESIAN_POINT('',(25.,20.,36.));
#819=CARTESIAN_POINT('',(31.,20.,36.));
#820=CARTESIAN_POINT('',(25.,20.,36.));
#821=CARTESIAN_POINT('Origin',(25.,20.,6.));
#822=CARTESIAN_POINT('',(25.,20.,6.));
#823=CARTESIAN_POINT('',(25.,20.,6.));
#824=CARTESIAN_POINT('',(25.,-20.,6.));
#825=CARTESIAN_POINT('',(25.,10.,6.));
#826=CARTESIAN_POINT('',(25.,-20.,36.));
#827=CARTESIAN_POINT('',(25.,-20.,6.));
#828=CARTESIAN_POINT('',(25.,20.,36.));
#829=CARTESIAN_POINT('Origin',(-25.,-20.,6.));
#830=CARTESIAN_POINT('',(-25.,-20.,6.));
#831=CARTESIAN_POINT('',(-25.,-20.,6.));
#832=CARTESIAN_POINT('',(-25.,20.,6.));
#833=CARTESIAN_POINT('',(-25.,-10.,6.));
#834=CARTESIAN_POINT('',(-25.,20.,36.));
#835=CARTESIAN_POINT('',(-25.,20.,6.));
#836=CARTESIAN_POINT('',(-25.,-20.,36.));
#837=CARTESIAN_POINT('Origin',(-31.,20.,0.));
#838=CARTESIAN_POINT('',(-31.,20.,36.));
#839=CARTESIAN_POINT('',(-31.,20.,36.));
#840=CARTESIAN_POINT('',(-31.,20.,0.));
#841=CARTESIAN_POINT('',(-31.,20.,0.));
#842=CARTESIAN_POINT('',(-31.,-20.,0.));
#843=CARTESIAN_POINT('',(-31.,20.,0.));
#844=CARTESIAN_POINT('',(-31.,-20.,0.));
#845=CARTESIAN_POINT('Origin',(31.,-20.,0.));
#846=CARTESIAN_POINT('',(31.,-20.,36.));
#847=CARTESIAN_POINT('',(31.,-20.,36.));
#848=CARTESIAN_POINT('',(31.,-20.,0.));
#849=CARTESIAN_POINT('',(31.,-20.,0.));
#850=CARTESIAN_POINT('',(31.,20.,0.));
#851=CARTESIAN_POINT('',(31.,-20.,0.));
#852=CARTESIAN_POINT('',(31.,20.,0.));
#853=CARTESIAN_POINT('Origin',(28.,0.,36.));
#854=CARTESIAN_POINT('',(-31.,-20.,36.));
#855=CARTESIAN_POINT('Origin',(-28.,2.22044604925031E-15,36.));
#856=CARTESIAN_POINT('',(31.,20.,36.));
#857=CARTESIAN_POINT('Origin',(31.,20.,0.));
#858=CARTESIAN_POINT('',(31.,20.,0.));
#859=CARTESIAN_POINT('',(31.,20.,6.));
#860=CARTESIAN_POINT('Origin',(-31.,-20.,0.));
#861=CARTESIAN_POINT('',(-31.,-20.,0.));
#862=CARTESIAN_POINT('',(-31.,-20.,6.));
#863=CARTESIAN_POINT('Origin',(-4.44089209850063E-15,0.,6.));
#864=CARTESIAN_POINT('Origin',(-4.44089209850063E-15,0.,0.));
#865=UNCERTAINTY_MEASURE_WITH_UNIT(LENGTH_MEASURE(0.01),#869,
'DISTANCE_ACCURACY_VALUE',
'Maximum model space distance between geometric entities at asserted c
onnectivities');
#866=UNCERTAINTY_MEASURE_WITH_UNIT(LENGTH_MEASURE(0.01),#869,
'DISTANCE_ACCURACY_VALUE',
'Maximum model space distance between geometric entities at asserted c
onnectivities');
#867=(
GEOMETRIC_REPRESENTATION_CONTEXT(3)
GLOBAL_UNCERTAINTY_ASSIGNED_CONTEXT((#865))
GLOBAL_UNIT_ASSIGNED_CONTEXT((#869,#871,#872))
REPRESENTATION_CONTEXT('','3D')
);
#868=(
GEOMETRIC_REPRESENTATION_CONTEXT(3)
GLOBAL_UNCERTAINTY_ASSIGNED_CONTEXT((#866))
GLOBAL_UNIT_ASSIGNED_CONTEXT((#869,#871,#872))
REPRESENTATION_CONTEXT('','3D')
);
#869=(
LENGTH_UNIT()
NAMED_UNIT(*)
SI_UNIT(.MILLI.,.METRE.)
);
#870=(
LENGTH_UNIT()
NAMED_UNIT(*)
SI_UNIT(.CENTI.,.METRE.)
);
#871=(
NAMED_UNIT(*)
PLANE_ANGLE_UNIT()
SI_UNIT($,.RADIAN.)
);
#872=(
NAMED_UNIT(*)
SI_UNIT($,.STERADIAN.)
SOLID_ANGLE_UNIT()
);
#873=SHAPE_DEFINITION_REPRESENTATION(#874,#875);
#874=PRODUCT_DEFINITION_SHAPE('',$,#877);
#875=SHAPE_REPRESENTATION('',(#549),#867);
#876=PRODUCT_DEFINITION_CONTEXT('part definition',#881,'design');
#877=PRODUCT_DEFINITION('main','main',#878,#876);
#878=PRODUCT_DEFINITION_FORMATION('',$,#883);
#879=PRODUCT_RELATED_PRODUCT_CATEGORY('main','main',(#883));
#880=APPLICATION_PROTOCOL_DEFINITION('international standard',
'automotive_design',2009,#881);
#881=APPLICATION_CONTEXT(
'Core Data for Automotive Mechanical Design Process');
#882=PRODUCT_CONTEXT('part definition',#881,'mechanical');
#883=PRODUCT('main','main',$,(#882));
#884=PRESENTATION_STYLE_ASSIGNMENT((#885));
#885=SURFACE_STYLE_USAGE(.BOTH.,#888);
#886=SURFACE_STYLE_RENDERING_WITH_PROPERTIES($,#892,(#887));
#887=SURFACE_STYLE_TRANSPARENT(0.);
#888=SURFACE_SIDE_STYLE('',(#889,#886));
#889=SURFACE_STYLE_FILL_AREA(#890);
#890=FILL_AREA_STYLE('',(#891));
#891=FILL_AREA_STYLE_COLOUR('',#892);
#892=COLOUR_RGB('',0.749019607843137,0.749019607843137,0.749019607843137);
ENDSEC;
END-ISO-10303-21;
