ISO-10303-21;
HEADER;
/* Generated by software containing ST-Developer
 * from STEP Tools, Inc. (www.steptools.com) 
 */

FILE_DESCRIPTION(
/* description */ (''),
/* implementation_level */ '2;1');

FILE_NAME(
/* name */ 'slidev.stp',
/* time_stamp */ '2025-09-02T01:22:01+09:00',
/* author */ ('ka0n7'),
/* organization */ (''),
/* preprocessor_version */ 'ST-DEVELOPER v20.1',
/* originating_system */ 'Autodesk Inventor 2026',
/* authorisation */ '');

FILE_SCHEMA (('AUTOMOTIVE_DESIGN { 1 0 10303 214 3 1 1 }'));
ENDSEC;

DATA;
#10=MECHANICAL_DESIGN_GEOMETRIC_PRESENTATION_REPRESENTATION('',(#13),#524);
#11=SHAPE_REPRESENTATION_RELATIONSHIP('SRR','None',#531,#12);
#12=ADVANCED_BREP_SHAPE_REPRESENTATION('',(#14),#523);
#13=STYLED_ITEM('',(#540),#14);
#14=MANIFOLD_SOLID_BREP('\X2\30BD30EA30C330C9\X0\1',#277);
#15=TOROIDAL_SURFACE('',#321,5.2,1.2);
#16=B_SPLINE_CURVE_WITH_KNOTS('',3,(#426,#427,#428,#429,#430,#431,#432,
#433,#434,#435),.UNSPECIFIED.,.F.,.F.,(4,2,2,2,4),(0.720793300309141,0.760647760478928,
0.854708806217635,0.948769851956343,0.98862431212613),.UNSPECIFIED.);
#17=B_SPLINE_CURVE_WITH_KNOTS('',3,(#463,#464,#465,#466,#467,#468),
 .UNSPECIFIED.,.F.,.F.,(4,2,4),(0.854708806217637,0.948769851956345,0.988624312126132),
 .UNSPECIFIED.);
#18=B_SPLINE_CURVE_WITH_KNOTS('',3,(#469,#470,#471,#472,#473,#474),
 .UNSPECIFIED.,.F.,.F.,(4,2,4),(0.720793300309141,0.760647760478928,0.854708806217637),
 .UNSPECIFIED.);
#19=B_SPLINE_CURVE_WITH_KNOTS('',3,(#485,#486,#487,#488,#489,#490,#491,
#492,#493,#494),.UNSPECIFIED.,.F.,.F.,(4,2,2,2,4),(0.722767721252162,0.802236017153846,
0.968440751441569,1.13464548572929,1.21411378163098),.UNSPECIFIED.);
#20=PLANE('',#303);
#21=PLANE('',#304);
#22=PLANE('',#309);
#23=PLANE('',#313);
#24=PLANE('',#314);
#25=PLANE('',#319);
#26=PLANE('',#327);
#27=PLANE('',#328);
#28=PLANE('',#329);
#29=FACE_OUTER_BOUND('',#44,.T.);
#30=FACE_OUTER_BOUND('',#45,.T.);
#31=FACE_OUTER_BOUND('',#46,.T.);
#32=FACE_OUTER_BOUND('',#47,.T.);
#33=FACE_OUTER_BOUND('',#48,.T.);
#34=FACE_OUTER_BOUND('',#49,.T.);
#35=FACE_OUTER_BOUND('',#50,.T.);
#36=FACE_OUTER_BOUND('',#51,.T.);
#37=FACE_OUTER_BOUND('',#52,.T.);
#38=FACE_OUTER_BOUND('',#53,.T.);
#39=FACE_OUTER_BOUND('',#54,.T.);
#40=FACE_OUTER_BOUND('',#55,.T.);
#41=FACE_OUTER_BOUND('',#56,.T.);
#42=FACE_OUTER_BOUND('',#57,.T.);
#43=FACE_OUTER_BOUND('',#58,.T.);
#44=EDGE_LOOP('',(#179,#180,#181,#182));
#45=EDGE_LOOP('',(#183,#184,#185,#186,#187,#188));
#46=EDGE_LOOP('',(#189,#190,#191,#192,#193,#194));
#47=EDGE_LOOP('',(#195,#196,#197,#198));
#48=EDGE_LOOP('',(#199,#200,#201,#202,#203,#204,#205));
#49=EDGE_LOOP('',(#206,#207,#208,#209));
#50=EDGE_LOOP('',(#210,#211,#212,#213,#214,#215));
#51=EDGE_LOOP('',(#216,#217,#218,#219));
#52=EDGE_LOOP('',(#220,#221,#222,#223));
#53=EDGE_LOOP('',(#224,#225,#226,#227));
#54=EDGE_LOOP('',(#228,#229,#230,#231,#232,#233,#234,#235,#236,#237,#238));
#55=EDGE_LOOP('',(#239,#240,#241,#242,#243));
#56=EDGE_LOOP('',(#244));
#57=EDGE_LOOP('',(#245,#246,#247,#248));
#58=EDGE_LOOP('',(#249,#250,#251,#252,#253,#254,#255,#256));
#59=LINE('',#418,#79);
#60=LINE('',#421,#80);
#61=LINE('',#424,#81);
#62=LINE('',#437,#82);
#63=LINE('',#439,#83);
#64=LINE('',#440,#84);
#65=LINE('',#443,#85);
#66=LINE('',#447,#86);
#67=LINE('',#451,#87);
#68=LINE('',#454,#88);
#69=LINE('',#457,#89);
#70=LINE('',#459,#90);
#71=LINE('',#461,#91);
#72=LINE('',#479,#92);
#73=LINE('',#483,#93);
#74=LINE('',#496,#94);
#75=LINE('',#498,#95);
#76=LINE('',#499,#96);
#77=LINE('',#516,#97);
#78=LINE('',#519,#98);
#79=VECTOR('',#336,10.);
#80=VECTOR('',#339,10.);
#81=VECTOR('',#342,10.);
#82=VECTOR('',#343,10.);
#83=VECTOR('',#344,10.);
#84=VECTOR('',#345,10.);
#85=VECTOR('',#348,10.);
#86=VECTOR('',#351,10.);
#87=VECTOR('',#356,10.);
#88=VECTOR('',#359,10.);
#89=VECTOR('',#362,10.);
#90=VECTOR('',#363,10.);
#91=VECTOR('',#364,10.);
#92=VECTOR('',#369,10.);
#93=VECTOR('',#374,10.);
#94=VECTOR('',#375,10.);
#95=VECTOR('',#376,10.);
#96=VECTOR('',#377,10.);
#97=VECTOR('',#404,4.);
#98=VECTOR('',#409,10.);
#99=CIRCLE('',#301,1.5);
#100=CIRCLE('',#302,1.5);
#101=CIRCLE('',#305,1.5);
#102=CIRCLE('',#306,5.2);
#103=CIRCLE('',#308,1.5);
#104=CIRCLE('',#311,1.5);
#105=CIRCLE('',#312,1.5);
#106=CIRCLE('',#315,5.2);
#107=CIRCLE('',#317,1.5);
#108=CIRCLE('',#318,1.5);
#109=CIRCLE('',#320,5.2);
#110=CIRCLE('',#322,4.);
#111=CIRCLE('',#323,4.);
#112=CIRCLE('',#324,1.2);
#113=CIRCLE('',#326,4.);
#114=VERTEX_POINT('',#414);
#115=VERTEX_POINT('',#415);
#116=VERTEX_POINT('',#417);
#117=VERTEX_POINT('',#419);
#118=VERTEX_POINT('',#423);
#119=VERTEX_POINT('',#425);
#120=VERTEX_POINT('',#436);
#121=VERTEX_POINT('',#438);
#122=VERTEX_POINT('',#442);
#123=VERTEX_POINT('',#444);
#124=VERTEX_POINT('',#446);
#125=VERTEX_POINT('',#450);
#126=VERTEX_POINT('',#452);
#127=VERTEX_POINT('',#456);
#128=VERTEX_POINT('',#458);
#129=VERTEX_POINT('',#460);
#130=VERTEX_POINT('',#462);
#131=VERTEX_POINT('',#476);
#132=VERTEX_POINT('',#478);
#133=VERTEX_POINT('',#482);
#134=VERTEX_POINT('',#484);
#135=VERTEX_POINT('',#495);
#136=VERTEX_POINT('',#497);
#137=VERTEX_POINT('',#508);
#138=VERTEX_POINT('',#509);
#139=VERTEX_POINT('',#514);
#140=EDGE_CURVE('',#114,#115,#99,.T.);
#141=EDGE_CURVE('',#115,#116,#59,.T.);
#142=EDGE_CURVE('',#116,#117,#100,.T.);
#143=EDGE_CURVE('',#117,#114,#60,.T.);
#144=EDGE_CURVE('',#118,#115,#61,.T.);
#145=EDGE_CURVE('',#118,#119,#16,.F.);
#146=EDGE_CURVE('',#120,#119,#62,.T.);
#147=EDGE_CURVE('',#121,#120,#63,.T.);
#148=EDGE_CURVE('',#121,#116,#64,.T.);
#149=EDGE_CURVE('',#114,#122,#65,.T.);
#150=EDGE_CURVE('',#123,#122,#101,.T.);
#151=EDGE_CURVE('',#123,#124,#66,.T.);
#152=EDGE_CURVE('',#118,#124,#102,.T.);
#153=EDGE_CURVE('',#122,#125,#67,.T.);
#154=EDGE_CURVE('',#125,#126,#103,.T.);
#155=EDGE_CURVE('',#126,#123,#68,.T.);
#156=EDGE_CURVE('',#126,#127,#69,.T.);
#157=EDGE_CURVE('',#128,#127,#70,.T.);
#158=EDGE_CURVE('',#129,#128,#71,.T.);
#159=EDGE_CURVE('',#129,#130,#17,.F.);
#160=EDGE_CURVE('',#130,#124,#18,.F.);
#161=EDGE_CURVE('',#120,#131,#104,.T.);
#162=EDGE_CURVE('',#131,#132,#72,.T.);
#163=EDGE_CURVE('',#132,#121,#105,.T.);
#164=EDGE_CURVE('',#133,#131,#73,.T.);
#165=EDGE_CURVE('',#133,#134,#19,.F.);
#166=EDGE_CURVE('',#135,#134,#74,.T.);
#167=EDGE_CURVE('',#136,#135,#75,.T.);
#168=EDGE_CURVE('',#136,#132,#76,.T.);
#169=EDGE_CURVE('',#133,#119,#106,.T.);
#170=EDGE_CURVE('',#135,#128,#107,.T.);
#171=EDGE_CURVE('',#127,#136,#108,.T.);
#172=EDGE_CURVE('',#129,#134,#109,.T.);
#173=EDGE_CURVE('',#137,#138,#110,.T.);
#174=EDGE_CURVE('',#138,#137,#111,.T.);
#175=EDGE_CURVE('',#137,#130,#112,.T.);
#176=EDGE_CURVE('',#139,#139,#113,.T.);
#177=EDGE_CURVE('',#139,#138,#77,.T.);
#178=EDGE_CURVE('',#117,#125,#78,.T.);
#179=ORIENTED_EDGE('',*,*,#140,.T.);
#180=ORIENTED_EDGE('',*,*,#141,.T.);
#181=ORIENTED_EDGE('',*,*,#142,.T.);
#182=ORIENTED_EDGE('',*,*,#143,.T.);
#183=ORIENTED_EDGE('',*,*,#141,.F.);
#184=ORIENTED_EDGE('',*,*,#144,.F.);
#185=ORIENTED_EDGE('',*,*,#145,.T.);
#186=ORIENTED_EDGE('',*,*,#146,.F.);
#187=ORIENTED_EDGE('',*,*,#147,.F.);
#188=ORIENTED_EDGE('',*,*,#148,.T.);
#189=ORIENTED_EDGE('',*,*,#140,.F.);
#190=ORIENTED_EDGE('',*,*,#149,.T.);
#191=ORIENTED_EDGE('',*,*,#150,.F.);
#192=ORIENTED_EDGE('',*,*,#151,.T.);
#193=ORIENTED_EDGE('',*,*,#152,.F.);
#194=ORIENTED_EDGE('',*,*,#144,.T.);
#195=ORIENTED_EDGE('',*,*,#150,.T.);
#196=ORIENTED_EDGE('',*,*,#153,.T.);
#197=ORIENTED_EDGE('',*,*,#154,.T.);
#198=ORIENTED_EDGE('',*,*,#155,.T.);
#199=ORIENTED_EDGE('',*,*,#155,.F.);
#200=ORIENTED_EDGE('',*,*,#156,.T.);
#201=ORIENTED_EDGE('',*,*,#157,.F.);
#202=ORIENTED_EDGE('',*,*,#158,.F.);
#203=ORIENTED_EDGE('',*,*,#159,.T.);
#204=ORIENTED_EDGE('',*,*,#160,.T.);
#205=ORIENTED_EDGE('',*,*,#151,.F.);
#206=ORIENTED_EDGE('',*,*,#161,.T.);
#207=ORIENTED_EDGE('',*,*,#162,.T.);
#208=ORIENTED_EDGE('',*,*,#163,.T.);
#209=ORIENTED_EDGE('',*,*,#147,.T.);
#210=ORIENTED_EDGE('',*,*,#162,.F.);
#211=ORIENTED_EDGE('',*,*,#164,.F.);
#212=ORIENTED_EDGE('',*,*,#165,.T.);
#213=ORIENTED_EDGE('',*,*,#166,.F.);
#214=ORIENTED_EDGE('',*,*,#167,.F.);
#215=ORIENTED_EDGE('',*,*,#168,.T.);
#216=ORIENTED_EDGE('',*,*,#161,.F.);
#217=ORIENTED_EDGE('',*,*,#146,.T.);
#218=ORIENTED_EDGE('',*,*,#169,.F.);
#219=ORIENTED_EDGE('',*,*,#164,.T.);
#220=ORIENTED_EDGE('',*,*,#170,.T.);
#221=ORIENTED_EDGE('',*,*,#157,.T.);
#222=ORIENTED_EDGE('',*,*,#171,.T.);
#223=ORIENTED_EDGE('',*,*,#167,.T.);
#224=ORIENTED_EDGE('',*,*,#170,.F.);
#225=ORIENTED_EDGE('',*,*,#166,.T.);
#226=ORIENTED_EDGE('',*,*,#172,.F.);
#227=ORIENTED_EDGE('',*,*,#158,.T.);
#228=ORIENTED_EDGE('',*,*,#173,.T.);
#229=ORIENTED_EDGE('',*,*,#174,.T.);
#230=ORIENTED_EDGE('',*,*,#175,.T.);
#231=ORIENTED_EDGE('',*,*,#159,.F.);
#232=ORIENTED_EDGE('',*,*,#172,.T.);
#233=ORIENTED_EDGE('',*,*,#165,.F.);
#234=ORIENTED_EDGE('',*,*,#169,.T.);
#235=ORIENTED_EDGE('',*,*,#145,.F.);
#236=ORIENTED_EDGE('',*,*,#152,.T.);
#237=ORIENTED_EDGE('',*,*,#160,.F.);
#238=ORIENTED_EDGE('',*,*,#175,.F.);
#239=ORIENTED_EDGE('',*,*,#176,.F.);
#240=ORIENTED_EDGE('',*,*,#177,.T.);
#241=ORIENTED_EDGE('',*,*,#173,.F.);
#242=ORIENTED_EDGE('',*,*,#174,.F.);
#243=ORIENTED_EDGE('',*,*,#177,.F.);
#244=ORIENTED_EDGE('',*,*,#176,.T.);
#245=ORIENTED_EDGE('',*,*,#143,.F.);
#246=ORIENTED_EDGE('',*,*,#178,.T.);
#247=ORIENTED_EDGE('',*,*,#153,.F.);
#248=ORIENTED_EDGE('',*,*,#149,.F.);
#249=ORIENTED_EDGE('',*,*,#142,.F.);
#250=ORIENTED_EDGE('',*,*,#148,.F.);
#251=ORIENTED_EDGE('',*,*,#163,.F.);
#252=ORIENTED_EDGE('',*,*,#168,.F.);
#253=ORIENTED_EDGE('',*,*,#171,.F.);
#254=ORIENTED_EDGE('',*,*,#156,.F.);
#255=ORIENTED_EDGE('',*,*,#154,.F.);
#256=ORIENTED_EDGE('',*,*,#178,.F.);
#257=CYLINDRICAL_SURFACE('',#300,1.5);
#258=CYLINDRICAL_SURFACE('',#307,1.5);
#259=CYLINDRICAL_SURFACE('',#310,1.5);
#260=CYLINDRICAL_SURFACE('',#316,1.5);
#261=CYLINDRICAL_SURFACE('',#325,4.);
#262=ADVANCED_FACE('',(#29),#257,.T.);
#263=ADVANCED_FACE('',(#30),#20,.T.);
#264=ADVANCED_FACE('',(#31),#21,.T.);
#265=ADVANCED_FACE('',(#32),#258,.T.);
#266=ADVANCED_FACE('',(#33),#22,.T.);
#267=ADVANCED_FACE('',(#34),#259,.T.);
#268=ADVANCED_FACE('',(#35),#23,.T.);
#269=ADVANCED_FACE('',(#36),#24,.T.);
#270=ADVANCED_FACE('',(#37),#260,.T.);
#271=ADVANCED_FACE('',(#38),#25,.T.);
#272=ADVANCED_FACE('',(#39),#15,.F.);
#273=ADVANCED_FACE('',(#40),#261,.T.);
#274=ADVANCED_FACE('',(#41),#26,.T.);
#275=ADVANCED_FACE('',(#42),#27,.T.);
#276=ADVANCED_FACE('',(#43),#28,.F.);
#277=CLOSED_SHELL('',(#262,#263,#264,#265,#266,#267,#268,#269,#270,#271,
#272,#273,#274,#275,#276));
#278=DERIVED_UNIT_ELEMENT(#281,1.);
#279=DERIVED_UNIT_ELEMENT(#526,-3.);
#280=DIMENSIONAL_EXPONENTS(0.,1.,0.,0.,0.,0.,0.);
#281=(
CONVERSION_BASED_UNIT('gram',#283)
MASS_UNIT()
NAMED_UNIT(#280)
);
#282=(
MASS_UNIT()
NAMED_UNIT(*)
SI_UNIT(.KILO.,.GRAM.)
);
#283=MASS_MEASURE_WITH_UNIT(MASS_MEASURE(0.001),#282);
#284=DERIVED_UNIT((#278,#279));
#285=MEASURE_REPRESENTATION_ITEM('density measure',
POSITIVE_RATIO_MEASURE(1.),#284);
#286=PROPERTY_DEFINITION_REPRESENTATION(#291,#288);
#287=PROPERTY_DEFINITION_REPRESENTATION(#292,#289);
#288=REPRESENTATION('material name',(#290),#523);
#289=REPRESENTATION('density',(#285),#523);
#290=DESCRIPTIVE_REPRESENTATION_ITEM('\X2\4E00822C\X0\','\X2\4E00822C\X0\');
#291=PROPERTY_DEFINITION('material property','material name',#533);
#292=PROPERTY_DEFINITION('material property','density of part',#533);
#293=DATE_TIME_ROLE('creation_date');
#294=APPLIED_DATE_AND_TIME_ASSIGNMENT(#295,#293,(#533));
#295=DATE_AND_TIME(#296,#297);
#296=CALENDAR_DATE(2025,2,9);
#297=LOCAL_TIME(0,0,0.,#298);
#298=COORDINATED_UNIVERSAL_TIME_OFFSET(0,0,.BEHIND.);
#299=AXIS2_PLACEMENT_3D('',#412,#330,#331);
#300=AXIS2_PLACEMENT_3D('',#413,#332,#333);
#301=AXIS2_PLACEMENT_3D('',#416,#334,#335);
#302=AXIS2_PLACEMENT_3D('',#420,#337,#338);
#303=AXIS2_PLACEMENT_3D('',#422,#340,#341);
#304=AXIS2_PLACEMENT_3D('',#441,#346,#347);
#305=AXIS2_PLACEMENT_3D('',#445,#349,#350);
#306=AXIS2_PLACEMENT_3D('',#448,#352,#353);
#307=AXIS2_PLACEMENT_3D('',#449,#354,#355);
#308=AXIS2_PLACEMENT_3D('',#453,#357,#358);
#309=AXIS2_PLACEMENT_3D('',#455,#360,#361);
#310=AXIS2_PLACEMENT_3D('',#475,#365,#366);
#311=AXIS2_PLACEMENT_3D('',#477,#367,#368);
#312=AXIS2_PLACEMENT_3D('',#480,#370,#371);
#313=AXIS2_PLACEMENT_3D('',#481,#372,#373);
#314=AXIS2_PLACEMENT_3D('',#500,#378,#379);
#315=AXIS2_PLACEMENT_3D('',#501,#380,#381);
#316=AXIS2_PLACEMENT_3D('',#502,#382,#383);
#317=AXIS2_PLACEMENT_3D('',#503,#384,#385);
#318=AXIS2_PLACEMENT_3D('',#504,#386,#387);
#319=AXIS2_PLACEMENT_3D('',#505,#388,#389);
#320=AXIS2_PLACEMENT_3D('',#506,#390,#391);
#321=AXIS2_PLACEMENT_3D('',#507,#392,#393);
#322=AXIS2_PLACEMENT_3D('',#510,#394,#395);
#323=AXIS2_PLACEMENT_3D('',#511,#396,#397);
#324=AXIS2_PLACEMENT_3D('',#512,#398,#399);
#325=AXIS2_PLACEMENT_3D('',#513,#400,#401);
#326=AXIS2_PLACEMENT_3D('',#515,#402,#403);
#327=AXIS2_PLACEMENT_3D('',#517,#405,#406);
#328=AXIS2_PLACEMENT_3D('',#518,#407,#408);
#329=AXIS2_PLACEMENT_3D('',#520,#410,#411);
#330=DIRECTION('axis',(0.,0.,1.));
#331=DIRECTION('refdir',(1.,0.,0.));
#332=DIRECTION('center_axis',(0.,0.,1.));
#333=DIRECTION('ref_axis',(-0.707106781186547,-0.707106781186548,0.));
#334=DIRECTION('center_axis',(0.,0.,-1.));
#335=DIRECTION('ref_axis',(-0.707106781186547,-0.707106781186548,0.));
#336=DIRECTION('',(0.,0.,-1.));
#337=DIRECTION('center_axis',(0.,0.,1.));
#338=DIRECTION('ref_axis',(-0.707106781186547,-0.707106781186548,0.));
#339=DIRECTION('',(0.,0.,1.));
#340=DIRECTION('center_axis',(-1.,-3.70074341541719E-16,0.));
#341=DIRECTION('ref_axis',(3.70074341541719E-16,-1.,0.));
#342=DIRECTION('',(3.70074341541719E-16,-1.,0.));
#343=DIRECTION('',(3.70074341541719E-16,-1.,0.));
#344=DIRECTION('',(0.,0.,1.));
#345=DIRECTION('',(3.70074341541719E-16,-1.,0.));
#346=DIRECTION('center_axis',(0.,0.,1.));
#347=DIRECTION('ref_axis',(1.,0.,0.));
#348=DIRECTION('',(1.,0.,0.));
#349=DIRECTION('center_axis',(0.,0.,-1.));
#350=DIRECTION('ref_axis',(0.707106781186548,-0.707106781186547,0.));
#351=DIRECTION('',(-4.07081775695891E-16,1.,0.));
#352=DIRECTION('center_axis',(0.,0.,1.));
#353=DIRECTION('ref_axis',(-1.,-1.38777878078145E-16,0.));
#354=DIRECTION('center_axis',(0.,0.,1.));
#355=DIRECTION('ref_axis',(0.707106781186548,-0.707106781186547,0.));
#356=DIRECTION('',(0.,0.,-1.));
#357=DIRECTION('center_axis',(0.,0.,1.));
#358=DIRECTION('ref_axis',(0.707106781186548,-0.707106781186547,0.));
#359=DIRECTION('',(0.,0.,1.));
#360=DIRECTION('center_axis',(1.,4.07081775695891E-16,0.));
#361=DIRECTION('ref_axis',(-4.07081775695891E-16,1.,0.));
#362=DIRECTION('',(-4.07081775695891E-16,1.,0.));
#363=DIRECTION('',(0.,0.,-1.));
#364=DIRECTION('',(-4.07081775695891E-16,1.,0.));
#365=DIRECTION('center_axis',(0.,0.,1.));
#366=DIRECTION('ref_axis',(-0.707106781186548,0.707106781186547,0.));
#367=DIRECTION('center_axis',(0.,0.,-1.));
#368=DIRECTION('ref_axis',(-0.707106781186548,0.707106781186547,0.));
#369=DIRECTION('',(0.,0.,-1.));
#370=DIRECTION('center_axis',(0.,0.,1.));
#371=DIRECTION('ref_axis',(-0.707106781186548,0.707106781186547,0.));
#372=DIRECTION('center_axis',(-1.11022302462516E-16,1.,0.));
#373=DIRECTION('ref_axis',(-1.,-1.11022302462516E-16,0.));
#374=DIRECTION('',(-1.,-1.11022302462516E-16,0.));
#375=DIRECTION('',(-1.,-1.11022302462516E-16,0.));
#376=DIRECTION('',(0.,0.,1.));
#377=DIRECTION('',(-1.,-1.11022302462516E-16,0.));
#378=DIRECTION('center_axis',(0.,0.,1.));
#379=DIRECTION('ref_axis',(1.,0.,0.));
#380=DIRECTION('center_axis',(0.,0.,1.));
#381=DIRECTION('ref_axis',(-1.,-1.38777878078145E-16,0.));
#382=DIRECTION('center_axis',(0.,0.,1.));
#383=DIRECTION('ref_axis',(0.707106781186547,0.707106781186548,0.));
#384=DIRECTION('center_axis',(0.,0.,-1.));
#385=DIRECTION('ref_axis',(0.707106781186547,0.707106781186548,0.));
#386=DIRECTION('center_axis',(0.,0.,1.));
#387=DIRECTION('ref_axis',(0.707106781186547,0.707106781186548,0.));
#388=DIRECTION('center_axis',(0.,0.,1.));
#389=DIRECTION('ref_axis',(1.,0.,0.));
#390=DIRECTION('center_axis',(0.,0.,1.));
#391=DIRECTION('ref_axis',(-1.,-1.38777878078145E-16,0.));
#392=DIRECTION('center_axis',(0.,0.,-1.));
#393=DIRECTION('ref_axis',(-1.,0.,0.));
#394=DIRECTION('center_axis',(0.,0.,-1.));
#395=DIRECTION('ref_axis',(-1.,-1.38777878078145E-16,0.));
#396=DIRECTION('center_axis',(0.,0.,-1.));
#397=DIRECTION('ref_axis',(-1.,-1.38777878078145E-16,0.));
#398=DIRECTION('center_axis',(-8.67361737988404E-17,-1.,0.));
#399=DIRECTION('ref_axis',(1.,-8.67361737988404E-17,0.));
#400=DIRECTION('center_axis',(0.,0.,1.));
#401=DIRECTION('ref_axis',(1.,0.,0.));
#402=DIRECTION('center_axis',(0.,0.,1.));
#403=DIRECTION('ref_axis',(1.,0.,0.));
#404=DIRECTION('',(0.,0.,-1.));
#405=DIRECTION('center_axis',(0.,0.,1.));
#406=DIRECTION('ref_axis',(1.,0.,0.));
#407=DIRECTION('center_axis',(0.,-1.,0.));
#408=DIRECTION('ref_axis',(1.,0.,0.));
#409=DIRECTION('',(1.,0.,0.));
#410=DIRECTION('center_axis',(0.,0.,1.));
#411=DIRECTION('ref_axis',(1.,0.,0.));
#412=CARTESIAN_POINT('',(0.,0.,0.));
#413=CARTESIAN_POINT('Origin',(-3.5,-6.,0.));
#414=CARTESIAN_POINT('',(-3.5,-7.5,5.));
#415=CARTESIAN_POINT('',(-5.,-6.,5.));
#416=CARTESIAN_POINT('Origin',(-3.5,-6.,5.));
#417=CARTESIAN_POINT('',(-5.,-6.,0.));
#418=CARTESIAN_POINT('',(-5.,-6.,0.));
#419=CARTESIAN_POINT('',(-3.5,-7.5,0.));
#420=CARTESIAN_POINT('Origin',(-3.5,-6.,0.));
#421=CARTESIAN_POINT('',(-3.5,-7.5,0.));
#422=CARTESIAN_POINT('Origin',(-5.,7.5,0.));
#423=CARTESIAN_POINT('',(-5.,1.57171431429143,5.));
#424=CARTESIAN_POINT('',(-5.,7.5,5.));
#425=CARTESIAN_POINT('',(-5.,4.42828568570857,5.));
#426=CARTESIAN_POINT('Ctrl Pts',(-5.,4.42828568570857,5.));
#427=CARTESIAN_POINT('Ctrl Pts',(-5.,4.29543748514261,5.));
#428=CARTESIAN_POINT('Ctrl Pts',(-5.,4.13603232282164,5.00201051043925));
#429=CARTESIAN_POINT('Ctrl Pts',(-5.,3.6897081195027,5.00937877616487));
#430=CARTESIAN_POINT('Ctrl Pts',(-5.,3.31353681912902,5.01678404338008));
#431=CARTESIAN_POINT('Ctrl Pts',(-5.,2.68646318087097,5.01678404338008));
#432=CARTESIAN_POINT('Ctrl Pts',(-5.,2.3102918804973,5.00937877616487));
#433=CARTESIAN_POINT('Ctrl Pts',(-5.,1.86396767717836,5.00201051043925));
#434=CARTESIAN_POINT('Ctrl Pts',(-5.,1.70456251485739,5.));
#435=CARTESIAN_POINT('Ctrl Pts',(-5.,1.57171431429143,5.));
#436=CARTESIAN_POINT('',(-5.,6.,5.));
#437=CARTESIAN_POINT('',(-5.,7.5,5.));
#438=CARTESIAN_POINT('',(-5.,6.,0.));
#439=CARTESIAN_POINT('',(-5.,6.,0.));
#440=CARTESIAN_POINT('',(-5.,7.5,0.));
#441=CARTESIAN_POINT('Origin',(-1.11022302462516E-15,-1.11022302462516E-15,
5.));
#442=CARTESIAN_POINT('',(3.5,-7.5,5.));
#443=CARTESIAN_POINT('',(-5.,-7.5,5.));
#444=CARTESIAN_POINT('',(5.,-6.,5.));
#445=CARTESIAN_POINT('Origin',(3.5,-6.,5.));
#446=CARTESIAN_POINT('',(5.,1.57171431429142,5.));
#447=CARTESIAN_POINT('',(5.,-7.5,5.));
#448=CARTESIAN_POINT('Origin',(0.,3.,5.));
#449=CARTESIAN_POINT('Origin',(3.5,-6.,0.));
#450=CARTESIAN_POINT('',(3.5,-7.5,0.));
#451=CARTESIAN_POINT('',(3.5,-7.5,0.));
#452=CARTESIAN_POINT('',(5.,-6.,0.));
#453=CARTESIAN_POINT('Origin',(3.5,-6.,0.));
#454=CARTESIAN_POINT('',(5.,-6.,0.));
#455=CARTESIAN_POINT('Origin',(5.,-7.5,0.));
#456=CARTESIAN_POINT('',(5.,6.,0.));
#457=CARTESIAN_POINT('',(5.,-7.5,0.));
#458=CARTESIAN_POINT('',(5.,6.,5.));
#459=CARTESIAN_POINT('',(5.,6.,0.));
#460=CARTESIAN_POINT('',(5.,4.42828568570858,5.));
#461=CARTESIAN_POINT('',(5.,-7.5,5.));
#462=CARTESIAN_POINT('',(5.,3.,5.01678404338008));
#463=CARTESIAN_POINT('Ctrl Pts',(5.,3.,5.01678404338008));
#464=CARTESIAN_POINT('Ctrl Pts',(5.,3.31353681912903,5.01678404338008));
#465=CARTESIAN_POINT('Ctrl Pts',(5.,3.68970811950271,5.00937877616487));
#466=CARTESIAN_POINT('Ctrl Pts',(5.,4.13603232282165,5.00201051043925));
#467=CARTESIAN_POINT('Ctrl Pts',(5.,4.29543748514262,5.));
#468=CARTESIAN_POINT('Ctrl Pts',(5.,4.42828568570858,5.));
#469=CARTESIAN_POINT('Ctrl Pts',(5.,1.57171431429142,5.));
#470=CARTESIAN_POINT('Ctrl Pts',(5.,1.70456251485738,5.));
#471=CARTESIAN_POINT('Ctrl Pts',(5.,1.86396767717836,5.00201051043925));
#472=CARTESIAN_POINT('Ctrl Pts',(5.,2.3102918804973,5.00937877616487));
#473=CARTESIAN_POINT('Ctrl Pts',(5.,2.68646318087097,5.01678404338008));
#474=CARTESIAN_POINT('Ctrl Pts',(5.,3.,5.01678404338008));
#475=CARTESIAN_POINT('Origin',(-3.5,6.,0.));
#476=CARTESIAN_POINT('',(-3.5,7.5,5.));
#477=CARTESIAN_POINT('Origin',(-3.5,6.,5.));
#478=CARTESIAN_POINT('',(-3.5,7.5,0.));
#479=CARTESIAN_POINT('',(-3.5,7.5,0.));
#480=CARTESIAN_POINT('Origin',(-3.5,6.,0.));
#481=CARTESIAN_POINT('Origin',(5.,7.5,0.));
#482=CARTESIAN_POINT('',(-2.60576284415908,7.5,5.));
#483=CARTESIAN_POINT('',(5.,7.5,5.));
#484=CARTESIAN_POINT('',(2.60576284415908,7.5,5.));
#485=CARTESIAN_POINT('Ctrl Pts',(2.60576284415908,7.5,5.));
#486=CARTESIAN_POINT('Ctrl Pts',(2.3408685244868,7.5,5.));
#487=CARTESIAN_POINT('Ctrl Pts',(2.02413188818162,7.5,5.02685636011009));
#488=CARTESIAN_POINT('Ctrl Pts',(1.21079860579673,7.5,5.12226456039221));
#489=CARTESIAN_POINT('Ctrl Pts',(0.554015780959076,7.5,5.2253205655191));
#490=CARTESIAN_POINT('Ctrl Pts',(-0.554015780959077,7.5,5.2253205655191));
#491=CARTESIAN_POINT('Ctrl Pts',(-1.21079860579673,7.5,5.12226456039221));
#492=CARTESIAN_POINT('Ctrl Pts',(-2.02413188818162,7.5,5.02685636011009));
#493=CARTESIAN_POINT('Ctrl Pts',(-2.3408685244868,7.5,5.));
#494=CARTESIAN_POINT('Ctrl Pts',(-2.60576284415908,7.5,5.));
#495=CARTESIAN_POINT('',(3.5,7.5,5.));
#496=CARTESIAN_POINT('',(5.,7.5,5.));
#497=CARTESIAN_POINT('',(3.5,7.5,0.));
#498=CARTESIAN_POINT('',(3.5,7.5,0.));
#499=CARTESIAN_POINT('',(5.,7.5,0.));
#500=CARTESIAN_POINT('Origin',(-1.11022302462516E-15,-1.11022302462516E-15,
5.));
#501=CARTESIAN_POINT('Origin',(0.,3.,5.));
#502=CARTESIAN_POINT('Origin',(3.5,6.,0.));
#503=CARTESIAN_POINT('Origin',(3.5,6.,5.));
#504=CARTESIAN_POINT('Origin',(3.5,6.,0.));
#505=CARTESIAN_POINT('Origin',(-1.11022302462516E-15,-1.11022302462516E-15,
5.));
#506=CARTESIAN_POINT('Origin',(0.,3.,5.));
#507=CARTESIAN_POINT('Origin',(0.,3.,6.2));
#508=CARTESIAN_POINT('',(4.,3.,6.2));
#509=CARTESIAN_POINT('',(-4.,3.,6.2));
#510=CARTESIAN_POINT('Origin',(0.,3.,6.2));
#511=CARTESIAN_POINT('Origin',(0.,3.,6.2));
#512=CARTESIAN_POINT('Origin',(5.2,3.,6.2));
#513=CARTESIAN_POINT('Origin',(0.,3.,5.));
#514=CARTESIAN_POINT('',(-4.,3.,55.));
#515=CARTESIAN_POINT('Origin',(0.,3.,55.));
#516=CARTESIAN_POINT('',(-4.,3.,5.));
#517=CARTESIAN_POINT('Origin',(0.,3.,55.));
#518=CARTESIAN_POINT('Origin',(-5.,-7.5,0.));
#519=CARTESIAN_POINT('',(-5.,-7.5,0.));
#520=CARTESIAN_POINT('Origin',(-1.11022302462516E-15,-5.55111512312578E-16,
0.));
#521=UNCERTAINTY_MEASURE_WITH_UNIT(LENGTH_MEASURE(0.01),#525,
'DISTANCE_ACCURACY_VALUE',
'Maximum model space distance between geometric entities at asserted c
onnectivities');
#522=UNCERTAINTY_MEASURE_WITH_UNIT(LENGTH_MEASURE(0.01),#525,
'DISTANCE_ACCURACY_VALUE',
'Maximum model space distance between geometric entities at asserted c
onnectivities');
#523=(
GEOMETRIC_REPRESENTATION_CONTEXT(3)
GLOBAL_UNCERTAINTY_ASSIGNED_CONTEXT((#521))
GLOBAL_UNIT_ASSIGNED_CONTEXT((#525,#527,#528))
REPRESENTATION_CONTEXT('','3D')
);
#524=(
GEOMETRIC_REPRESENTATION_CONTEXT(3)
GLOBAL_UNCERTAINTY_ASSIGNED_CONTEXT((#522))
GLOBAL_UNIT_ASSIGNED_CONTEXT((#525,#527,#528))
REPRESENTATION_CONTEXT('','3D')
);
#525=(
LENGTH_UNIT()
NAMED_UNIT(*)
SI_UNIT(.MILLI.,.METRE.)
);
#526=(
LENGTH_UNIT()
NAMED_UNIT(*)
SI_UNIT(.CENTI.,.METRE.)
);
#527=(
NAMED_UNIT(*)
PLANE_ANGLE_UNIT()
SI_UNIT($,.RADIAN.)
);
#528=(
NAMED_UNIT(*)
SI_UNIT($,.STERADIAN.)
SOLID_ANGLE_UNIT()
);
#529=SHAPE_DEFINITION_REPRESENTATION(#530,#531);
#530=PRODUCT_DEFINITION_SHAPE('',$,#533);
#531=SHAPE_REPRESENTATION('',(#299),#523);
#532=PRODUCT_DEFINITION_CONTEXT('part definition',#537,'design');
#533=PRODUCT_DEFINITION('slidev','slidev',#534,#532);
#534=PRODUCT_DEFINITION_FORMATION('',$,#539);
#535=PRODUCT_RELATED_PRODUCT_CATEGORY('slidev','slidev',(#539));
#536=APPLICATION_PROTOCOL_DEFINITION('international standard',
'automotive_design',2009,#537);
#537=APPLICATION_CONTEXT(
'Core Data for Automotive Mechanical Design Process');
#538=PRODUCT_CONTEXT('part definition',#537,'mechanical');
#539=PRODUCT('slidev','slidev',$,(#538));
#540=PRESENTATION_STYLE_ASSIGNMENT((#541));
#541=SURFACE_STYLE_USAGE(.BOTH.,#544);
#542=SURFACE_STYLE_RENDERING_WITH_PROPERTIES($,#548,(#543));
#543=SURFACE_STYLE_TRANSPARENT(0.);
#544=SURFACE_SIDE_STYLE('',(#545,#542));
#545=SURFACE_STYLE_FILL_AREA(#546);
#546=FILL_AREA_STYLE('',(#547));
#547=FILL_AREA_STYLE_COLOUR('',#548);
#548=COLOUR_RGB('',0.749019607843137,0.749019607843137,0.749019607843137);
ENDSEC;
END-ISO-10303-21;
