ISO-10303-21;
HEADER;
/* Generated by software containing ST-Developer
 * from STEP Tools, Inc. (www.steptools.com) 
 */

FILE_DESCRIPTION(
/* description */ (''),
/* implementation_level */ '2;1');

FILE_NAME(
/* name */ 'top.stp',
/* time_stamp */ '2025-09-02T01:15:45+09:00',
/* author */ ('ka0n7'),
/* organization */ (''),
/* preprocessor_version */ 'ST-DEVELOPER v20.1',
/* originating_system */ 'Autodesk Inventor 2026',
/* authorisation */ '');

FILE_SCHEMA (('AUTOMOTIVE_DESIGN { 1 0 10303 214 3 1 1 }'));
ENDSEC;

DATA;
#10=MECHANICAL_DESIGN_GEOMETRIC_PRESENTATION_REPRESENTATION('',(#13),#1012);
#11=SHAPE_REPRESENTATION_RELATIONSHIP('SRR','None',#1019,#12);
#12=ADVANCED_BREP_SHAPE_REPRESENTATION('',(#14),#1011);
#13=STYLED_ITEM('',(#1028),#14);
#14=MANIFOLD_SOLID_BREP('\X2\30BD30EA30C330C9\X0\1',#591);
#15=FACE_BOUND('',#68,.T.);
#16=FACE_BOUND('',#96,.T.);
#17=PLANE('',#617);
#18=PLANE('',#618);
#19=PLANE('',#632);
#20=PLANE('',#637);
#21=PLANE('',#640);
#22=PLANE('',#643);
#23=PLANE('',#646);
#24=PLANE('',#649);
#25=PLANE('',#652);
#26=PLANE('',#655);
#27=PLANE('',#658);
#28=PLANE('',#661);
#29=PLANE('',#662);
#30=PLANE('',#663);
#31=PLANE('',#664);
#32=PLANE('',#665);
#33=PLANE('',#666);
#34=PLANE('',#667);
#35=FACE_OUTER_BOUND('',#65,.T.);
#36=FACE_OUTER_BOUND('',#66,.T.);
#37=FACE_OUTER_BOUND('',#67,.T.);
#38=FACE_OUTER_BOUND('',#69,.T.);
#39=FACE_OUTER_BOUND('',#70,.T.);
#40=FACE_OUTER_BOUND('',#71,.T.);
#41=FACE_OUTER_BOUND('',#72,.T.);
#42=FACE_OUTER_BOUND('',#73,.T.);
#43=FACE_OUTER_BOUND('',#74,.T.);
#44=FACE_OUTER_BOUND('',#75,.T.);
#45=FACE_OUTER_BOUND('',#76,.T.);
#46=FACE_OUTER_BOUND('',#77,.T.);
#47=FACE_OUTER_BOUND('',#78,.T.);
#48=FACE_OUTER_BOUND('',#79,.T.);
#49=FACE_OUTER_BOUND('',#80,.T.);
#50=FACE_OUTER_BOUND('',#81,.T.);
#51=FACE_OUTER_BOUND('',#82,.T.);
#52=FACE_OUTER_BOUND('',#83,.T.);
#53=FACE_OUTER_BOUND('',#84,.T.);
#54=FACE_OUTER_BOUND('',#85,.T.);
#55=FACE_OUTER_BOUND('',#86,.T.);
#56=FACE_OUTER_BOUND('',#87,.T.);
#57=FACE_OUTER_BOUND('',#88,.T.);
#58=FACE_OUTER_BOUND('',#89,.T.);
#59=FACE_OUTER_BOUND('',#90,.T.);
#60=FACE_OUTER_BOUND('',#91,.T.);
#61=FACE_OUTER_BOUND('',#92,.T.);
#62=FACE_OUTER_BOUND('',#93,.T.);
#63=FACE_OUTER_BOUND('',#94,.T.);
#64=FACE_OUTER_BOUND('',#95,.T.);
#65=EDGE_LOOP('',(#381,#382,#383,#384));
#66=EDGE_LOOP('',(#385,#386,#387,#388));
#67=EDGE_LOOP('',(#389,#390,#391,#392,#393,#394,#395,#396,#397,#398,#399,
#400,#401,#402,#403,#404,#405,#406,#407,#408));
#68=EDGE_LOOP('',(#409,#410,#411,#412,#413,#414,#415,#416));
#69=EDGE_LOOP('',(#417,#418,#419,#420));
#70=EDGE_LOOP('',(#421,#422,#423,#424));
#71=EDGE_LOOP('',(#425,#426,#427,#428));
#72=EDGE_LOOP('',(#429,#430,#431,#432));
#73=EDGE_LOOP('',(#433,#434,#435,#436));
#74=EDGE_LOOP('',(#437,#438,#439,#440));
#75=EDGE_LOOP('',(#441,#442,#443,#444));
#76=EDGE_LOOP('',(#445,#446,#447,#448));
#77=EDGE_LOOP('',(#449,#450,#451,#452));
#78=EDGE_LOOP('',(#453,#454,#455,#456));
#79=EDGE_LOOP('',(#457,#458,#459,#460));
#80=EDGE_LOOP('',(#461,#462,#463,#464));
#81=EDGE_LOOP('',(#465,#466,#467,#468));
#82=EDGE_LOOP('',(#469,#470,#471,#472));
#83=EDGE_LOOP('',(#473,#474,#475,#476));
#84=EDGE_LOOP('',(#477,#478,#479,#480));
#85=EDGE_LOOP('',(#481,#482,#483,#484));
#86=EDGE_LOOP('',(#485,#486,#487,#488));
#87=EDGE_LOOP('',(#489,#490,#491,#492));
#88=EDGE_LOOP('',(#493,#494,#495,#496));
#89=EDGE_LOOP('',(#497,#498,#499,#500));
#90=EDGE_LOOP('',(#501,#502,#503,#504));
#91=EDGE_LOOP('',(#505,#506,#507,#508));
#92=EDGE_LOOP('',(#509,#510,#511,#512));
#93=EDGE_LOOP('',(#513,#514,#515,#516));
#94=EDGE_LOOP('',(#517,#518,#519,#520));
#95=EDGE_LOOP('',(#521,#522,#523,#524,#525,#526,#527,#528,#529,#530,#531,
#532,#533,#534,#535,#536,#537,#538,#539,#540));
#96=EDGE_LOOP('',(#541,#542,#543,#544,#545,#546,#547,#548));
#97=LINE('',#844,#157);
#98=LINE('',#847,#158);
#99=LINE('',#850,#159);
#100=LINE('',#852,#160);
#101=LINE('',#853,#161);
#102=LINE('',#856,#162);
#103=LINE('',#858,#163);
#104=LINE('',#862,#164);
#105=LINE('',#866,#165);
#106=LINE('',#868,#166);
#107=LINE('',#872,#167);
#108=LINE('',#876,#168);
#109=LINE('',#878,#169);
#110=LINE('',#882,#170);
#111=LINE('',#886,#171);
#112=LINE('',#888,#172);
#113=LINE('',#894,#173);
#114=LINE('',#898,#174);
#115=LINE('',#902,#175);
#116=LINE('',#905,#176);
#117=LINE('',#910,#177);
#118=LINE('',#911,#178);
#119=LINE('',#914,#179);
#120=LINE('',#915,#180);
#121=LINE('',#919,#181);
#122=LINE('',#924,#182);
#123=LINE('',#925,#183);
#124=LINE('',#928,#184);
#125=LINE('',#929,#185);
#126=LINE('',#933,#186);
#127=LINE('',#936,#187);
#128=LINE('',#937,#188);
#129=LINE('',#942,#189);
#130=LINE('',#943,#190);
#131=LINE('',#946,#191);
#132=LINE('',#947,#192);
#133=LINE('',#951,#193);
#134=LINE('',#954,#194);
#135=LINE('',#955,#195);
#136=LINE('',#960,#196);
#137=LINE('',#961,#197);
#138=LINE('',#963,#198);
#139=LINE('',#966,#199);
#140=LINE('',#969,#200);
#141=LINE('',#972,#201);
#142=LINE('',#973,#202);
#143=LINE('',#976,#203);
#144=LINE('',#980,#204);
#145=LINE('',#981,#205);
#146=LINE('',#984,#206);
#147=LINE('',#987,#207);
#148=LINE('',#989,#208);
#149=LINE('',#992,#209);
#150=LINE('',#995,#210);
#151=LINE('',#997,#211);
#152=LINE('',#999,#212);
#153=LINE('',#1002,#213);
#154=LINE('',#1003,#214);
#155=LINE('',#1005,#215);
#156=LINE('',#1007,#216);
#157=VECTOR('',#674,10.);
#158=VECTOR('',#677,10.);
#159=VECTOR('',#680,10.);
#160=VECTOR('',#681,10.);
#161=VECTOR('',#682,10.);
#162=VECTOR('',#685,10.);
#163=VECTOR('',#686,10.);
#164=VECTOR('',#689,10.);
#165=VECTOR('',#692,10.);
#166=VECTOR('',#693,10.);
#167=VECTOR('',#696,10.);
#168=VECTOR('',#699,10.);
#169=VECTOR('',#700,10.);
#170=VECTOR('',#703,10.);
#171=VECTOR('',#706,10.);
#172=VECTOR('',#707,10.);
#173=VECTOR('',#712,10.);
#174=VECTOR('',#715,10.);
#175=VECTOR('',#718,10.);
#176=VECTOR('',#721,10.);
#177=VECTOR('',#726,10.);
#178=VECTOR('',#727,10.);
#179=VECTOR('',#730,10.);
#180=VECTOR('',#731,10.);
#181=VECTOR('',#736,10.);
#182=VECTOR('',#741,10.);
#183=VECTOR('',#742,10.);
#184=VECTOR('',#745,10.);
#185=VECTOR('',#746,10.);
#186=VECTOR('',#751,10.);
#187=VECTOR('',#754,10.);
#188=VECTOR('',#755,10.);
#189=VECTOR('',#760,10.);
#190=VECTOR('',#761,10.);
#191=VECTOR('',#764,10.);
#192=VECTOR('',#765,10.);
#193=VECTOR('',#770,10.);
#194=VECTOR('',#773,10.);
#195=VECTOR('',#774,10.);
#196=VECTOR('',#779,10.);
#197=VECTOR('',#780,10.);
#198=VECTOR('',#783,10.);
#199=VECTOR('',#786,10.);
#200=VECTOR('',#789,10.);
#201=VECTOR('',#792,10.);
#202=VECTOR('',#793,10.);
#203=VECTOR('',#796,10.);
#204=VECTOR('',#801,10.);
#205=VECTOR('',#802,10.);
#206=VECTOR('',#805,10.);
#207=VECTOR('',#808,10.);
#208=VECTOR('',#811,10.);
#209=VECTOR('',#814,10.);
#210=VECTOR('',#819,10.);
#211=VECTOR('',#822,10.);
#212=VECTOR('',#825,10.);
#213=VECTOR('',#828,10.);
#214=VECTOR('',#829,10.);
#215=VECTOR('',#832,10.);
#216=VECTOR('',#835,10.);
#217=CIRCLE('',#615,2.);
#218=CIRCLE('',#616,2.);
#219=CIRCLE('',#619,2.);
#220=CIRCLE('',#620,2.);
#221=CIRCLE('',#621,2.);
#222=CIRCLE('',#622,2.);
#223=CIRCLE('',#623,2.);
#224=CIRCLE('',#624,2.);
#225=CIRCLE('',#625,2.);
#226=CIRCLE('',#626,3.);
#227=CIRCLE('',#627,3.);
#228=CIRCLE('',#628,3.);
#229=CIRCLE('',#629,3.);
#230=CIRCLE('',#631,2.);
#231=CIRCLE('',#634,2.);
#232=CIRCLE('',#636,2.);
#233=CIRCLE('',#639,2.);
#234=CIRCLE('',#642,2.);
#235=CIRCLE('',#645,2.);
#236=CIRCLE('',#648,2.);
#237=CIRCLE('',#651,3.);
#238=CIRCLE('',#654,3.);
#239=CIRCLE('',#657,3.);
#240=CIRCLE('',#660,3.);
#241=VERTEX_POINT('',#840);
#242=VERTEX_POINT('',#841);
#243=VERTEX_POINT('',#843);
#244=VERTEX_POINT('',#845);
#245=VERTEX_POINT('',#849);
#246=VERTEX_POINT('',#851);
#247=VERTEX_POINT('',#855);
#248=VERTEX_POINT('',#857);
#249=VERTEX_POINT('',#859);
#250=VERTEX_POINT('',#861);
#251=VERTEX_POINT('',#863);
#252=VERTEX_POINT('',#865);
#253=VERTEX_POINT('',#867);
#254=VERTEX_POINT('',#869);
#255=VERTEX_POINT('',#871);
#256=VERTEX_POINT('',#873);
#257=VERTEX_POINT('',#875);
#258=VERTEX_POINT('',#877);
#259=VERTEX_POINT('',#879);
#260=VERTEX_POINT('',#881);
#261=VERTEX_POINT('',#883);
#262=VERTEX_POINT('',#885);
#263=VERTEX_POINT('',#887);
#264=VERTEX_POINT('',#890);
#265=VERTEX_POINT('',#891);
#266=VERTEX_POINT('',#893);
#267=VERTEX_POINT('',#895);
#268=VERTEX_POINT('',#897);
#269=VERTEX_POINT('',#899);
#270=VERTEX_POINT('',#901);
#271=VERTEX_POINT('',#903);
#272=VERTEX_POINT('',#907);
#273=VERTEX_POINT('',#908);
#274=VERTEX_POINT('',#913);
#275=VERTEX_POINT('',#917);
#276=VERTEX_POINT('',#921);
#277=VERTEX_POINT('',#922);
#278=VERTEX_POINT('',#927);
#279=VERTEX_POINT('',#931);
#280=VERTEX_POINT('',#935);
#281=VERTEX_POINT('',#939);
#282=VERTEX_POINT('',#940);
#283=VERTEX_POINT('',#945);
#284=VERTEX_POINT('',#949);
#285=VERTEX_POINT('',#953);
#286=VERTEX_POINT('',#957);
#287=VERTEX_POINT('',#958);
#288=VERTEX_POINT('',#965);
#289=VERTEX_POINT('',#967);
#290=VERTEX_POINT('',#971);
#291=VERTEX_POINT('',#975);
#292=VERTEX_POINT('',#979);
#293=VERTEX_POINT('',#983);
#294=VERTEX_POINT('',#985);
#295=VERTEX_POINT('',#991);
#296=VERTEX_POINT('',#1001);
#297=EDGE_CURVE('',#241,#242,#217,.T.);
#298=EDGE_CURVE('',#242,#243,#97,.T.);
#299=EDGE_CURVE('',#243,#244,#218,.T.);
#300=EDGE_CURVE('',#244,#241,#98,.T.);
#301=EDGE_CURVE('',#244,#245,#99,.T.);
#302=EDGE_CURVE('',#246,#245,#100,.T.);
#303=EDGE_CURVE('',#241,#246,#101,.T.);
#304=EDGE_CURVE('',#247,#243,#102,.T.);
#305=EDGE_CURVE('',#248,#247,#103,.T.);
#306=EDGE_CURVE('',#249,#248,#219,.T.);
#307=EDGE_CURVE('',#250,#249,#104,.T.);
#308=EDGE_CURVE('',#251,#250,#220,.T.);
#309=EDGE_CURVE('',#252,#251,#105,.T.);
#310=EDGE_CURVE('',#253,#252,#106,.T.);
#311=EDGE_CURVE('',#254,#253,#221,.T.);
#312=EDGE_CURVE('',#255,#254,#107,.T.);
#313=EDGE_CURVE('',#256,#255,#222,.T.);
#314=EDGE_CURVE('',#257,#256,#108,.T.);
#315=EDGE_CURVE('',#258,#257,#109,.T.);
#316=EDGE_CURVE('',#259,#258,#223,.T.);
#317=EDGE_CURVE('',#260,#259,#110,.T.);
#318=EDGE_CURVE('',#261,#260,#224,.T.);
#319=EDGE_CURVE('',#262,#261,#111,.T.);
#320=EDGE_CURVE('',#263,#262,#112,.T.);
#321=EDGE_CURVE('',#245,#263,#225,.T.);
#322=EDGE_CURVE('',#264,#265,#226,.T.);
#323=EDGE_CURVE('',#266,#264,#113,.T.);
#324=EDGE_CURVE('',#267,#266,#227,.T.);
#325=EDGE_CURVE('',#268,#267,#114,.T.);
#326=EDGE_CURVE('',#269,#268,#228,.T.);
#327=EDGE_CURVE('',#270,#269,#115,.T.);
#328=EDGE_CURVE('',#271,#270,#229,.T.);
#329=EDGE_CURVE('',#265,#271,#116,.T.);
#330=EDGE_CURVE('',#272,#273,#230,.T.);
#331=EDGE_CURVE('',#273,#249,#117,.T.);
#332=EDGE_CURVE('',#248,#272,#118,.T.);
#333=EDGE_CURVE('',#274,#273,#119,.T.);
#334=EDGE_CURVE('',#250,#274,#120,.T.);
#335=EDGE_CURVE('',#274,#275,#231,.T.);
#336=EDGE_CURVE('',#275,#251,#121,.T.);
#337=EDGE_CURVE('',#276,#277,#232,.T.);
#338=EDGE_CURVE('',#277,#254,#122,.T.);
#339=EDGE_CURVE('',#253,#276,#123,.T.);
#340=EDGE_CURVE('',#252,#278,#124,.T.);
#341=EDGE_CURVE('',#276,#278,#125,.T.);
#342=EDGE_CURVE('',#279,#246,#233,.T.);
#343=EDGE_CURVE('',#263,#279,#126,.T.);
#344=EDGE_CURVE('',#262,#280,#127,.T.);
#345=EDGE_CURVE('',#279,#280,#128,.T.);
#346=EDGE_CURVE('',#281,#282,#234,.T.);
#347=EDGE_CURVE('',#282,#261,#129,.T.);
#348=EDGE_CURVE('',#260,#281,#130,.T.);
#349=EDGE_CURVE('',#283,#259,#131,.T.);
#350=EDGE_CURVE('',#281,#283,#132,.T.);
#351=EDGE_CURVE('',#284,#283,#235,.T.);
#352=EDGE_CURVE('',#258,#284,#133,.T.);
#353=EDGE_CURVE('',#257,#285,#134,.T.);
#354=EDGE_CURVE('',#284,#285,#135,.T.);
#355=EDGE_CURVE('',#286,#287,#236,.T.);
#356=EDGE_CURVE('',#287,#256,#136,.T.);
#357=EDGE_CURVE('',#255,#286,#137,.T.);
#358=EDGE_CURVE('',#285,#287,#138,.T.);
#359=EDGE_CURVE('',#268,#288,#139,.T.);
#360=EDGE_CURVE('',#288,#289,#237,.T.);
#361=EDGE_CURVE('',#289,#269,#140,.T.);
#362=EDGE_CURVE('',#290,#267,#141,.T.);
#363=EDGE_CURVE('',#288,#290,#142,.T.);
#364=EDGE_CURVE('',#266,#291,#143,.T.);
#365=EDGE_CURVE('',#291,#290,#238,.T.);
#366=EDGE_CURVE('',#292,#264,#144,.T.);
#367=EDGE_CURVE('',#291,#292,#145,.T.);
#368=EDGE_CURVE('',#270,#293,#146,.T.);
#369=EDGE_CURVE('',#293,#294,#239,.T.);
#370=EDGE_CURVE('',#294,#271,#147,.T.);
#371=EDGE_CURVE('',#293,#289,#148,.T.);
#372=EDGE_CURVE('',#265,#295,#149,.T.);
#373=EDGE_CURVE('',#295,#292,#240,.T.);
#374=EDGE_CURVE('',#295,#294,#150,.T.);
#375=EDGE_CURVE('',#286,#277,#151,.T.);
#376=EDGE_CURVE('',#280,#282,#152,.T.);
#377=EDGE_CURVE('',#296,#242,#153,.T.);
#378=EDGE_CURVE('',#247,#296,#154,.T.);
#379=EDGE_CURVE('',#272,#296,#155,.T.);
#380=EDGE_CURVE('',#278,#275,#156,.T.);
#381=ORIENTED_EDGE('',*,*,#297,.T.);
#382=ORIENTED_EDGE('',*,*,#298,.T.);
#383=ORIENTED_EDGE('',*,*,#299,.T.);
#384=ORIENTED_EDGE('',*,*,#300,.T.);
#385=ORIENTED_EDGE('',*,*,#300,.F.);
#386=ORIENTED_EDGE('',*,*,#301,.T.);
#387=ORIENTED_EDGE('',*,*,#302,.F.);
#388=ORIENTED_EDGE('',*,*,#303,.F.);
#389=ORIENTED_EDGE('',*,*,#299,.F.);
#390=ORIENTED_EDGE('',*,*,#304,.F.);
#391=ORIENTED_EDGE('',*,*,#305,.F.);
#392=ORIENTED_EDGE('',*,*,#306,.F.);
#393=ORIENTED_EDGE('',*,*,#307,.F.);
#394=ORIENTED_EDGE('',*,*,#308,.F.);
#395=ORIENTED_EDGE('',*,*,#309,.F.);
#396=ORIENTED_EDGE('',*,*,#310,.F.);
#397=ORIENTED_EDGE('',*,*,#311,.F.);
#398=ORIENTED_EDGE('',*,*,#312,.F.);
#399=ORIENTED_EDGE('',*,*,#313,.F.);
#400=ORIENTED_EDGE('',*,*,#314,.F.);
#401=ORIENTED_EDGE('',*,*,#315,.F.);
#402=ORIENTED_EDGE('',*,*,#316,.F.);
#403=ORIENTED_EDGE('',*,*,#317,.F.);
#404=ORIENTED_EDGE('',*,*,#318,.F.);
#405=ORIENTED_EDGE('',*,*,#319,.F.);
#406=ORIENTED_EDGE('',*,*,#320,.F.);
#407=ORIENTED_EDGE('',*,*,#321,.F.);
#408=ORIENTED_EDGE('',*,*,#301,.F.);
#409=ORIENTED_EDGE('',*,*,#322,.F.);
#410=ORIENTED_EDGE('',*,*,#323,.F.);
#411=ORIENTED_EDGE('',*,*,#324,.F.);
#412=ORIENTED_EDGE('',*,*,#325,.F.);
#413=ORIENTED_EDGE('',*,*,#326,.F.);
#414=ORIENTED_EDGE('',*,*,#327,.F.);
#415=ORIENTED_EDGE('',*,*,#328,.F.);
#416=ORIENTED_EDGE('',*,*,#329,.F.);
#417=ORIENTED_EDGE('',*,*,#330,.T.);
#418=ORIENTED_EDGE('',*,*,#331,.T.);
#419=ORIENTED_EDGE('',*,*,#306,.T.);
#420=ORIENTED_EDGE('',*,*,#332,.T.);
#421=ORIENTED_EDGE('',*,*,#331,.F.);
#422=ORIENTED_EDGE('',*,*,#333,.F.);
#423=ORIENTED_EDGE('',*,*,#334,.F.);
#424=ORIENTED_EDGE('',*,*,#307,.T.);
#425=ORIENTED_EDGE('',*,*,#335,.T.);
#426=ORIENTED_EDGE('',*,*,#336,.T.);
#427=ORIENTED_EDGE('',*,*,#308,.T.);
#428=ORIENTED_EDGE('',*,*,#334,.T.);
#429=ORIENTED_EDGE('',*,*,#337,.T.);
#430=ORIENTED_EDGE('',*,*,#338,.T.);
#431=ORIENTED_EDGE('',*,*,#311,.T.);
#432=ORIENTED_EDGE('',*,*,#339,.T.);
#433=ORIENTED_EDGE('',*,*,#339,.F.);
#434=ORIENTED_EDGE('',*,*,#310,.T.);
#435=ORIENTED_EDGE('',*,*,#340,.T.);
#436=ORIENTED_EDGE('',*,*,#341,.F.);
#437=ORIENTED_EDGE('',*,*,#342,.T.);
#438=ORIENTED_EDGE('',*,*,#302,.T.);
#439=ORIENTED_EDGE('',*,*,#321,.T.);
#440=ORIENTED_EDGE('',*,*,#343,.T.);
#441=ORIENTED_EDGE('',*,*,#343,.F.);
#442=ORIENTED_EDGE('',*,*,#320,.T.);
#443=ORIENTED_EDGE('',*,*,#344,.T.);
#444=ORIENTED_EDGE('',*,*,#345,.F.);
#445=ORIENTED_EDGE('',*,*,#346,.T.);
#446=ORIENTED_EDGE('',*,*,#347,.T.);
#447=ORIENTED_EDGE('',*,*,#318,.T.);
#448=ORIENTED_EDGE('',*,*,#348,.T.);
#449=ORIENTED_EDGE('',*,*,#348,.F.);
#450=ORIENTED_EDGE('',*,*,#317,.T.);
#451=ORIENTED_EDGE('',*,*,#349,.F.);
#452=ORIENTED_EDGE('',*,*,#350,.F.);
#453=ORIENTED_EDGE('',*,*,#351,.T.);
#454=ORIENTED_EDGE('',*,*,#349,.T.);
#455=ORIENTED_EDGE('',*,*,#316,.T.);
#456=ORIENTED_EDGE('',*,*,#352,.T.);
#457=ORIENTED_EDGE('',*,*,#352,.F.);
#458=ORIENTED_EDGE('',*,*,#315,.T.);
#459=ORIENTED_EDGE('',*,*,#353,.T.);
#460=ORIENTED_EDGE('',*,*,#354,.F.);
#461=ORIENTED_EDGE('',*,*,#355,.T.);
#462=ORIENTED_EDGE('',*,*,#356,.T.);
#463=ORIENTED_EDGE('',*,*,#313,.T.);
#464=ORIENTED_EDGE('',*,*,#357,.T.);
#465=ORIENTED_EDGE('',*,*,#356,.F.);
#466=ORIENTED_EDGE('',*,*,#358,.F.);
#467=ORIENTED_EDGE('',*,*,#353,.F.);
#468=ORIENTED_EDGE('',*,*,#314,.T.);
#469=ORIENTED_EDGE('',*,*,#326,.T.);
#470=ORIENTED_EDGE('',*,*,#359,.T.);
#471=ORIENTED_EDGE('',*,*,#360,.T.);
#472=ORIENTED_EDGE('',*,*,#361,.T.);
#473=ORIENTED_EDGE('',*,*,#359,.F.);
#474=ORIENTED_EDGE('',*,*,#325,.T.);
#475=ORIENTED_EDGE('',*,*,#362,.F.);
#476=ORIENTED_EDGE('',*,*,#363,.F.);
#477=ORIENTED_EDGE('',*,*,#324,.T.);
#478=ORIENTED_EDGE('',*,*,#364,.T.);
#479=ORIENTED_EDGE('',*,*,#365,.T.);
#480=ORIENTED_EDGE('',*,*,#362,.T.);
#481=ORIENTED_EDGE('',*,*,#364,.F.);
#482=ORIENTED_EDGE('',*,*,#323,.T.);
#483=ORIENTED_EDGE('',*,*,#366,.F.);
#484=ORIENTED_EDGE('',*,*,#367,.F.);
#485=ORIENTED_EDGE('',*,*,#328,.T.);
#486=ORIENTED_EDGE('',*,*,#368,.T.);
#487=ORIENTED_EDGE('',*,*,#369,.T.);
#488=ORIENTED_EDGE('',*,*,#370,.T.);
#489=ORIENTED_EDGE('',*,*,#361,.F.);
#490=ORIENTED_EDGE('',*,*,#371,.F.);
#491=ORIENTED_EDGE('',*,*,#368,.F.);
#492=ORIENTED_EDGE('',*,*,#327,.T.);
#493=ORIENTED_EDGE('',*,*,#322,.T.);
#494=ORIENTED_EDGE('',*,*,#372,.T.);
#495=ORIENTED_EDGE('',*,*,#373,.T.);
#496=ORIENTED_EDGE('',*,*,#366,.T.);
#497=ORIENTED_EDGE('',*,*,#370,.F.);
#498=ORIENTED_EDGE('',*,*,#374,.F.);
#499=ORIENTED_EDGE('',*,*,#372,.F.);
#500=ORIENTED_EDGE('',*,*,#329,.T.);
#501=ORIENTED_EDGE('',*,*,#338,.F.);
#502=ORIENTED_EDGE('',*,*,#375,.F.);
#503=ORIENTED_EDGE('',*,*,#357,.F.);
#504=ORIENTED_EDGE('',*,*,#312,.T.);
#505=ORIENTED_EDGE('',*,*,#347,.F.);
#506=ORIENTED_EDGE('',*,*,#376,.F.);
#507=ORIENTED_EDGE('',*,*,#344,.F.);
#508=ORIENTED_EDGE('',*,*,#319,.T.);
#509=ORIENTED_EDGE('',*,*,#298,.F.);
#510=ORIENTED_EDGE('',*,*,#377,.F.);
#511=ORIENTED_EDGE('',*,*,#378,.F.);
#512=ORIENTED_EDGE('',*,*,#304,.T.);
#513=ORIENTED_EDGE('',*,*,#332,.F.);
#514=ORIENTED_EDGE('',*,*,#305,.T.);
#515=ORIENTED_EDGE('',*,*,#378,.T.);
#516=ORIENTED_EDGE('',*,*,#379,.F.);
#517=ORIENTED_EDGE('',*,*,#336,.F.);
#518=ORIENTED_EDGE('',*,*,#380,.F.);
#519=ORIENTED_EDGE('',*,*,#340,.F.);
#520=ORIENTED_EDGE('',*,*,#309,.T.);
#521=ORIENTED_EDGE('',*,*,#297,.F.);
#522=ORIENTED_EDGE('',*,*,#303,.T.);
#523=ORIENTED_EDGE('',*,*,#342,.F.);
#524=ORIENTED_EDGE('',*,*,#345,.T.);
#525=ORIENTED_EDGE('',*,*,#376,.T.);
#526=ORIENTED_EDGE('',*,*,#346,.F.);
#527=ORIENTED_EDGE('',*,*,#350,.T.);
#528=ORIENTED_EDGE('',*,*,#351,.F.);
#529=ORIENTED_EDGE('',*,*,#354,.T.);
#530=ORIENTED_EDGE('',*,*,#358,.T.);
#531=ORIENTED_EDGE('',*,*,#355,.F.);
#532=ORIENTED_EDGE('',*,*,#375,.T.);
#533=ORIENTED_EDGE('',*,*,#337,.F.);
#534=ORIENTED_EDGE('',*,*,#341,.T.);
#535=ORIENTED_EDGE('',*,*,#380,.T.);
#536=ORIENTED_EDGE('',*,*,#335,.F.);
#537=ORIENTED_EDGE('',*,*,#333,.T.);
#538=ORIENTED_EDGE('',*,*,#330,.F.);
#539=ORIENTED_EDGE('',*,*,#379,.T.);
#540=ORIENTED_EDGE('',*,*,#377,.T.);
#541=ORIENTED_EDGE('',*,*,#374,.T.);
#542=ORIENTED_EDGE('',*,*,#369,.F.);
#543=ORIENTED_EDGE('',*,*,#371,.T.);
#544=ORIENTED_EDGE('',*,*,#360,.F.);
#545=ORIENTED_EDGE('',*,*,#363,.T.);
#546=ORIENTED_EDGE('',*,*,#365,.F.);
#547=ORIENTED_EDGE('',*,*,#367,.T.);
#548=ORIENTED_EDGE('',*,*,#373,.F.);
#549=CYLINDRICAL_SURFACE('',#614,2.);
#550=CYLINDRICAL_SURFACE('',#630,2.);
#551=CYLINDRICAL_SURFACE('',#633,2.);
#552=CYLINDRICAL_SURFACE('',#635,2.);
#553=CYLINDRICAL_SURFACE('',#638,2.);
#554=CYLINDRICAL_SURFACE('',#641,2.);
#555=CYLINDRICAL_SURFACE('',#644,2.);
#556=CYLINDRICAL_SURFACE('',#647,2.);
#557=CYLINDRICAL_SURFACE('',#650,3.);
#558=CYLINDRICAL_SURFACE('',#653,3.);
#559=CYLINDRICAL_SURFACE('',#656,3.);
#560=CYLINDRICAL_SURFACE('',#659,3.);
#561=ADVANCED_FACE('',(#35),#549,.T.);
#562=ADVANCED_FACE('',(#36),#17,.T.);
#563=ADVANCED_FACE('',(#37,#15),#18,.F.);
#564=ADVANCED_FACE('',(#38),#550,.T.);
#565=ADVANCED_FACE('',(#39),#19,.T.);
#566=ADVANCED_FACE('',(#40),#551,.T.);
#567=ADVANCED_FACE('',(#41),#552,.T.);
#568=ADVANCED_FACE('',(#42),#20,.T.);
#569=ADVANCED_FACE('',(#43),#553,.T.);
#570=ADVANCED_FACE('',(#44),#21,.T.);
#571=ADVANCED_FACE('',(#45),#554,.T.);
#572=ADVANCED_FACE('',(#46),#22,.T.);
#573=ADVANCED_FACE('',(#47),#555,.T.);
#574=ADVANCED_FACE('',(#48),#23,.T.);
#575=ADVANCED_FACE('',(#49),#556,.T.);
#576=ADVANCED_FACE('',(#50),#24,.T.);
#577=ADVANCED_FACE('',(#51),#557,.F.);
#578=ADVANCED_FACE('',(#52),#25,.T.);
#579=ADVANCED_FACE('',(#53),#558,.F.);
#580=ADVANCED_FACE('',(#54),#26,.T.);
#581=ADVANCED_FACE('',(#55),#559,.F.);
#582=ADVANCED_FACE('',(#56),#27,.T.);
#583=ADVANCED_FACE('',(#57),#560,.F.);
#584=ADVANCED_FACE('',(#58),#28,.T.);
#585=ADVANCED_FACE('',(#59),#29,.T.);
#586=ADVANCED_FACE('',(#60),#30,.T.);
#587=ADVANCED_FACE('',(#61),#31,.T.);
#588=ADVANCED_FACE('',(#62),#32,.T.);
#589=ADVANCED_FACE('',(#63),#33,.T.);
#590=ADVANCED_FACE('',(#64,#16),#34,.T.);
#591=CLOSED_SHELL('',(#561,#562,#563,#564,#565,#566,#567,#568,#569,#570,
#571,#572,#573,#574,#575,#576,#577,#578,#579,#580,#581,#582,#583,#584,#585,
#586,#587,#588,#589,#590));
#592=DERIVED_UNIT_ELEMENT(#595,1.);
#593=DERIVED_UNIT_ELEMENT(#1014,-3.);
#594=DIMENSIONAL_EXPONENTS(0.,1.,0.,0.,0.,0.,0.);
#595=(
CONVERSION_BASED_UNIT('gram',#597)
MASS_UNIT()
NAMED_UNIT(#594)
);
#596=(
MASS_UNIT()
NAMED_UNIT(*)
SI_UNIT(.KILO.,.GRAM.)
);
#597=MASS_MEASURE_WITH_UNIT(MASS_MEASURE(0.001),#596);
#598=DERIVED_UNIT((#592,#593));
#599=MEASURE_REPRESENTATION_ITEM('density measure',
POSITIVE_RATIO_MEASURE(1.),#598);
#600=PROPERTY_DEFINITION_REPRESENTATION(#605,#602);
#601=PROPERTY_DEFINITION_REPRESENTATION(#606,#603);
#602=REPRESENTATION('material name',(#604),#1011);
#603=REPRESENTATION('density',(#599),#1011);
#604=DESCRIPTIVE_REPRESENTATION_ITEM('\X2\4E00822C\X0\','\X2\4E00822C\X0\');
#605=PROPERTY_DEFINITION('material property','material name',#1021);
#606=PROPERTY_DEFINITION('material property','density of part',#1021);
#607=DATE_TIME_ROLE('creation_date');
#608=APPLIED_DATE_AND_TIME_ASSIGNMENT(#609,#607,(#1021));
#609=DATE_AND_TIME(#610,#611);
#610=CALENDAR_DATE(2025,2,9);
#611=LOCAL_TIME(0,0,0.,#612);
#612=COORDINATED_UNIVERSAL_TIME_OFFSET(0,0,.BEHIND.);
#613=AXIS2_PLACEMENT_3D('',#838,#668,#669);
#614=AXIS2_PLACEMENT_3D('',#839,#670,#671);
#615=AXIS2_PLACEMENT_3D('',#842,#672,#673);
#616=AXIS2_PLACEMENT_3D('',#846,#675,#676);
#617=AXIS2_PLACEMENT_3D('',#848,#678,#679);
#618=AXIS2_PLACEMENT_3D('',#854,#683,#684);
#619=AXIS2_PLACEMENT_3D('',#860,#687,#688);
#620=AXIS2_PLACEMENT_3D('',#864,#690,#691);
#621=AXIS2_PLACEMENT_3D('',#870,#694,#695);
#622=AXIS2_PLACEMENT_3D('',#874,#697,#698);
#623=AXIS2_PLACEMENT_3D('',#880,#701,#702);
#624=AXIS2_PLACEMENT_3D('',#884,#704,#705);
#625=AXIS2_PLACEMENT_3D('',#889,#708,#709);
#626=AXIS2_PLACEMENT_3D('',#892,#710,#711);
#627=AXIS2_PLACEMENT_3D('',#896,#713,#714);
#628=AXIS2_PLACEMENT_3D('',#900,#716,#717);
#629=AXIS2_PLACEMENT_3D('',#904,#719,#720);
#630=AXIS2_PLACEMENT_3D('',#906,#722,#723);
#631=AXIS2_PLACEMENT_3D('',#909,#724,#725);
#632=AXIS2_PLACEMENT_3D('',#912,#728,#729);
#633=AXIS2_PLACEMENT_3D('',#916,#732,#733);
#634=AXIS2_PLACEMENT_3D('',#918,#734,#735);
#635=AXIS2_PLACEMENT_3D('',#920,#737,#738);
#636=AXIS2_PLACEMENT_3D('',#923,#739,#740);
#637=AXIS2_PLACEMENT_3D('',#926,#743,#744);
#638=AXIS2_PLACEMENT_3D('',#930,#747,#748);
#639=AXIS2_PLACEMENT_3D('',#932,#749,#750);
#640=AXIS2_PLACEMENT_3D('',#934,#752,#753);
#641=AXIS2_PLACEMENT_3D('',#938,#756,#757);
#642=AXIS2_PLACEMENT_3D('',#941,#758,#759);
#643=AXIS2_PLACEMENT_3D('',#944,#762,#763);
#644=AXIS2_PLACEMENT_3D('',#948,#766,#767);
#645=AXIS2_PLACEMENT_3D('',#950,#768,#769);
#646=AXIS2_PLACEMENT_3D('',#952,#771,#772);
#647=AXIS2_PLACEMENT_3D('',#956,#775,#776);
#648=AXIS2_PLACEMENT_3D('',#959,#777,#778);
#649=AXIS2_PLACEMENT_3D('',#962,#781,#782);
#650=AXIS2_PLACEMENT_3D('',#964,#784,#785);
#651=AXIS2_PLACEMENT_3D('',#968,#787,#788);
#652=AXIS2_PLACEMENT_3D('',#970,#790,#791);
#653=AXIS2_PLACEMENT_3D('',#974,#794,#795);
#654=AXIS2_PLACEMENT_3D('',#977,#797,#798);
#655=AXIS2_PLACEMENT_3D('',#978,#799,#800);
#656=AXIS2_PLACEMENT_3D('',#982,#803,#804);
#657=AXIS2_PLACEMENT_3D('',#986,#806,#807);
#658=AXIS2_PLACEMENT_3D('',#988,#809,#810);
#659=AXIS2_PLACEMENT_3D('',#990,#812,#813);
#660=AXIS2_PLACEMENT_3D('',#993,#815,#816);
#661=AXIS2_PLACEMENT_3D('',#994,#817,#818);
#662=AXIS2_PLACEMENT_3D('',#996,#820,#821);
#663=AXIS2_PLACEMENT_3D('',#998,#823,#824);
#664=AXIS2_PLACEMENT_3D('',#1000,#826,#827);
#665=AXIS2_PLACEMENT_3D('',#1004,#830,#831);
#666=AXIS2_PLACEMENT_3D('',#1006,#833,#834);
#667=AXIS2_PLACEMENT_3D('',#1008,#836,#837);
#668=DIRECTION('axis',(0.,0.,1.));
#669=DIRECTION('refdir',(1.,0.,0.));
#670=DIRECTION('center_axis',(0.,0.,1.));
#671=DIRECTION('ref_axis',(-0.707106781186548,-0.707106781186547,0.));
#672=DIRECTION('center_axis',(0.,0.,-1.));
#673=DIRECTION('ref_axis',(-0.707106781186548,-0.707106781186547,0.));
#674=DIRECTION('',(0.,0.,-1.));
#675=DIRECTION('center_axis',(0.,0.,1.));
#676=DIRECTION('ref_axis',(-0.707106781186548,-0.707106781186547,0.));
#677=DIRECTION('',(0.,0.,1.));
#678=DIRECTION('center_axis',(-1.79429983777803E-16,-1.,0.));
#679=DIRECTION('ref_axis',(1.,-1.79429983777803E-16,0.));
#680=DIRECTION('',(1.,-1.79429983777803E-16,0.));
#681=DIRECTION('',(0.,0.,-1.));
#682=DIRECTION('',(1.,-1.79429983777803E-16,0.));
#683=DIRECTION('center_axis',(0.,0.,1.));
#684=DIRECTION('ref_axis',(1.,0.,0.));
#685=DIRECTION('',(1.11022302462516E-16,-1.,0.));
#686=DIRECTION('',(1.,-1.43254583822601E-16,0.));
#687=DIRECTION('center_axis',(0.,0.,1.));
#688=DIRECTION('ref_axis',(-0.707106781186548,-0.707106781186548,0.));
#689=DIRECTION('',(1.65704929048531E-16,-1.,0.));
#690=DIRECTION('center_axis',(0.,0.,1.));
#691=DIRECTION('ref_axis',(-0.707106781186548,0.707106781186548,0.));
#692=DIRECTION('',(-1.,0.,0.));
#693=DIRECTION('',(1.11022302462516E-16,-1.,0.));
#694=DIRECTION('center_axis',(0.,0.,1.));
#695=DIRECTION('ref_axis',(-0.707106781186548,0.707106781186548,0.));
#696=DIRECTION('',(-1.,4.48574959444508E-17,0.));
#697=DIRECTION('center_axis',(0.,0.,1.));
#698=DIRECTION('ref_axis',(0.707106781186548,0.707106781186548,0.));
#699=DIRECTION('',(-1.11022302462516E-16,1.,0.));
#700=DIRECTION('',(-1.,0.,0.));
#701=DIRECTION('center_axis',(0.,0.,1.));
#702=DIRECTION('ref_axis',(0.707106781186548,0.707106781186548,0.));
#703=DIRECTION('',(0.,1.,0.));
#704=DIRECTION('center_axis',(0.,0.,1.));
#705=DIRECTION('ref_axis',(0.707106781186548,-0.707106781186547,0.));
#706=DIRECTION('',(1.,-1.43254583822601E-16,0.));
#707=DIRECTION('',(-1.11022302462516E-16,1.,0.));
#708=DIRECTION('center_axis',(0.,0.,1.));
#709=DIRECTION('ref_axis',(0.707106781186548,-0.707106781186548,0.));
#710=DIRECTION('center_axis',(0.,0.,-1.));
#711=DIRECTION('ref_axis',(-0.707106781186548,0.707106781186547,0.));
#712=DIRECTION('',(-2.22044604925031E-16,1.,0.));
#713=DIRECTION('center_axis',(0.,0.,-1.));
#714=DIRECTION('ref_axis',(-0.707106781186547,-0.707106781186548,0.));
#715=DIRECTION('',(-1.,1.1686558153949E-16,0.));
#716=DIRECTION('center_axis',(0.,0.,-1.));
#717=DIRECTION('ref_axis',(0.707106781186548,-0.707106781186547,0.));
#718=DIRECTION('',(2.22044604925031E-16,-1.,0.));
#719=DIRECTION('center_axis',(0.,0.,-1.));
#720=DIRECTION('ref_axis',(0.707106781186548,0.707106781186547,0.));
#721=DIRECTION('',(1.,1.46081976924363E-17,0.));
#722=DIRECTION('center_axis',(0.,0.,1.));
#723=DIRECTION('ref_axis',(-0.707106781186548,-0.707106781186548,0.));
#724=DIRECTION('center_axis',(0.,0.,-1.));
#725=DIRECTION('ref_axis',(-0.707106781186548,-0.707106781186548,0.));
#726=DIRECTION('',(0.,0.,-1.));
#727=DIRECTION('',(0.,0.,1.));
#728=DIRECTION('center_axis',(-1.,-1.65704929048531E-16,0.));
#729=DIRECTION('ref_axis',(1.65704929048531E-16,-1.,0.));
#730=DIRECTION('',(1.65704929048531E-16,-1.,0.));
#731=DIRECTION('',(0.,0.,1.));
#732=DIRECTION('center_axis',(0.,0.,1.));
#733=DIRECTION('ref_axis',(-0.707106781186548,0.707106781186548,0.));
#734=DIRECTION('center_axis',(0.,0.,-1.));
#735=DIRECTION('ref_axis',(-0.707106781186548,0.707106781186548,0.));
#736=DIRECTION('',(0.,0.,-1.));
#737=DIRECTION('center_axis',(0.,0.,1.));
#738=DIRECTION('ref_axis',(-0.707106781186548,0.707106781186548,0.));
#739=DIRECTION('center_axis',(0.,0.,-1.));
#740=DIRECTION('ref_axis',(-0.707106781186548,0.707106781186548,0.));
#741=DIRECTION('',(0.,0.,-1.));
#742=DIRECTION('',(0.,0.,1.));
#743=DIRECTION('center_axis',(-1.,-1.11022302462516E-16,0.));
#744=DIRECTION('ref_axis',(1.11022302462516E-16,-1.,0.));
#745=DIRECTION('',(0.,0.,1.));
#746=DIRECTION('',(1.11022302462516E-16,-1.,0.));
#747=DIRECTION('center_axis',(0.,0.,1.));
#748=DIRECTION('ref_axis',(0.707106781186548,-0.707106781186548,0.));
#749=DIRECTION('center_axis',(0.,0.,-1.));
#750=DIRECTION('ref_axis',(0.707106781186548,-0.707106781186548,0.));
#751=DIRECTION('',(0.,0.,1.));
#752=DIRECTION('center_axis',(1.,1.11022302462516E-16,0.));
#753=DIRECTION('ref_axis',(-1.11022302462516E-16,1.,0.));
#754=DIRECTION('',(0.,0.,1.));
#755=DIRECTION('',(-1.11022302462516E-16,1.,0.));
#756=DIRECTION('center_axis',(0.,0.,1.));
#757=DIRECTION('ref_axis',(0.707106781186548,-0.707106781186547,0.));
#758=DIRECTION('center_axis',(0.,0.,-1.));
#759=DIRECTION('ref_axis',(0.707106781186548,-0.707106781186547,0.));
#760=DIRECTION('',(0.,0.,-1.));
#761=DIRECTION('',(0.,0.,1.));
#762=DIRECTION('center_axis',(1.,0.,0.));
#763=DIRECTION('ref_axis',(0.,1.,0.));
#764=DIRECTION('',(0.,0.,-1.));
#765=DIRECTION('',(0.,1.,0.));
#766=DIRECTION('center_axis',(0.,0.,1.));
#767=DIRECTION('ref_axis',(0.707106781186548,0.707106781186548,0.));
#768=DIRECTION('center_axis',(0.,0.,-1.));
#769=DIRECTION('ref_axis',(0.707106781186548,0.707106781186548,0.));
#770=DIRECTION('',(0.,0.,1.));
#771=DIRECTION('center_axis',(0.,1.,0.));
#772=DIRECTION('ref_axis',(-1.,0.,0.));
#773=DIRECTION('',(0.,0.,1.));
#774=DIRECTION('',(-1.,0.,0.));
#775=DIRECTION('center_axis',(0.,0.,1.));
#776=DIRECTION('ref_axis',(0.707106781186548,0.707106781186548,0.));
#777=DIRECTION('center_axis',(0.,0.,-1.));
#778=DIRECTION('ref_axis',(0.707106781186548,0.707106781186548,0.));
#779=DIRECTION('',(0.,0.,-1.));
#780=DIRECTION('',(0.,0.,1.));
#781=DIRECTION('center_axis',(1.,1.11022302462516E-16,0.));
#782=DIRECTION('ref_axis',(-1.11022302462516E-16,1.,0.));
#783=DIRECTION('',(-1.11022302462516E-16,1.,0.));
#784=DIRECTION('center_axis',(0.,0.,1.));
#785=DIRECTION('ref_axis',(0.707106781186548,-0.707106781186547,0.));
#786=DIRECTION('',(0.,0.,1.));
#787=DIRECTION('center_axis',(0.,0.,1.));
#788=DIRECTION('ref_axis',(0.707106781186548,-0.707106781186547,0.));
#789=DIRECTION('',(0.,0.,-1.));
#790=DIRECTION('center_axis',(1.1686558153949E-16,1.,0.));
#791=DIRECTION('ref_axis',(-1.,1.1686558153949E-16,0.));
#792=DIRECTION('',(0.,0.,-1.));
#793=DIRECTION('',(-1.,1.1686558153949E-16,0.));
#794=DIRECTION('center_axis',(0.,0.,1.));
#795=DIRECTION('ref_axis',(-0.707106781186547,-0.707106781186548,0.));
#796=DIRECTION('',(0.,0.,1.));
#797=DIRECTION('center_axis',(0.,0.,1.));
#798=DIRECTION('ref_axis',(-0.707106781186547,-0.707106781186548,0.));
#799=DIRECTION('center_axis',(1.,2.22044604925031E-16,0.));
#800=DIRECTION('ref_axis',(-2.22044604925031E-16,1.,0.));
#801=DIRECTION('',(0.,0.,-1.));
#802=DIRECTION('',(-2.22044604925031E-16,1.,0.));
#803=DIRECTION('center_axis',(0.,0.,1.));
#804=DIRECTION('ref_axis',(0.707106781186548,0.707106781186547,0.));
#805=DIRECTION('',(0.,0.,1.));
#806=DIRECTION('center_axis',(0.,0.,1.));
#807=DIRECTION('ref_axis',(0.707106781186548,0.707106781186547,0.));
#808=DIRECTION('',(0.,0.,-1.));
#809=DIRECTION('center_axis',(-1.,-2.22044604925031E-16,0.));
#810=DIRECTION('ref_axis',(2.22044604925031E-16,-1.,0.));
#811=DIRECTION('',(2.22044604925031E-16,-1.,0.));
#812=DIRECTION('center_axis',(0.,0.,1.));
#813=DIRECTION('ref_axis',(-0.707106781186548,0.707106781186547,0.));
#814=DIRECTION('',(0.,0.,1.));
#815=DIRECTION('center_axis',(0.,0.,1.));
#816=DIRECTION('ref_axis',(-0.707106781186548,0.707106781186547,0.));
#817=DIRECTION('center_axis',(1.46081976924363E-17,-1.,0.));
#818=DIRECTION('ref_axis',(1.,1.46081976924363E-17,0.));
#819=DIRECTION('',(1.,1.46081976924363E-17,0.));
#820=DIRECTION('center_axis',(4.48574959444508E-17,1.,0.));
#821=DIRECTION('ref_axis',(-1.,4.48574959444508E-17,0.));
#822=DIRECTION('',(-1.,4.48574959444508E-17,0.));
#823=DIRECTION('center_axis',(-1.43254583822601E-16,-1.,0.));
#824=DIRECTION('ref_axis',(1.,-1.43254583822601E-16,0.));
#825=DIRECTION('',(1.,-1.43254583822601E-16,0.));
#826=DIRECTION('center_axis',(-1.,-1.11022302462516E-16,0.));
#827=DIRECTION('ref_axis',(1.11022302462516E-16,-1.,0.));
#828=DIRECTION('',(1.11022302462516E-16,-1.,0.));
#829=DIRECTION('',(0.,0.,1.));
#830=DIRECTION('center_axis',(-1.43254583822601E-16,-1.,0.));
#831=DIRECTION('ref_axis',(1.,-1.43254583822601E-16,0.));
#832=DIRECTION('',(1.,-1.43254583822601E-16,0.));
#833=DIRECTION('center_axis',(0.,1.,0.));
#834=DIRECTION('ref_axis',(-1.,0.,0.));
#835=DIRECTION('',(-1.,0.,0.));
#836=DIRECTION('center_axis',(0.,0.,1.));
#837=DIRECTION('ref_axis',(1.,0.,0.));
#838=CARTESIAN_POINT('',(0.,0.,0.));
#839=CARTESIAN_POINT('Origin',(-22.75,-18.,0.));
#840=CARTESIAN_POINT('',(-22.75,-20.,4.));
#841=CARTESIAN_POINT('',(-24.75,-18.,4.));
#842=CARTESIAN_POINT('Origin',(-22.75,-18.,4.));
#843=CARTESIAN_POINT('',(-24.75,-18.,0.));
#844=CARTESIAN_POINT('',(-24.75,-18.,0.));
#845=CARTESIAN_POINT('',(-22.75,-20.,0.));
#846=CARTESIAN_POINT('Origin',(-22.75,-18.,0.));
#847=CARTESIAN_POINT('',(-22.75,-20.,0.));
#848=CARTESIAN_POINT('Origin',(-24.75,-20.,0.));
#849=CARTESIAN_POINT('',(22.75,-20.,0.));
#850=CARTESIAN_POINT('',(-24.75,-20.,0.));
#851=CARTESIAN_POINT('',(22.75,-20.,4.));
#852=CARTESIAN_POINT('',(22.75,-20.,0.));
#853=CARTESIAN_POINT('',(-24.75,-20.,4.));
#854=CARTESIAN_POINT('Origin',(-2.22044604925031E-15,-2.22044604925031E-15,
0.));
#855=CARTESIAN_POINT('',(-24.75,-13.4,0.));
#856=CARTESIAN_POINT('',(-24.75,20.,0.));
#857=CARTESIAN_POINT('',(-29.,-13.4,0.));
#858=CARTESIAN_POINT('',(-31.,-13.4,0.));
#859=CARTESIAN_POINT('',(-31.,-11.4,0.));
#860=CARTESIAN_POINT('Origin',(-29.,-11.4,0.));
#861=CARTESIAN_POINT('',(-31.,11.4,0.));
#862=CARTESIAN_POINT('',(-31.,13.4,0.));
#863=CARTESIAN_POINT('',(-29.,13.4,0.));
#864=CARTESIAN_POINT('Origin',(-29.,11.4,0.));
#865=CARTESIAN_POINT('',(-24.75,13.4,0.));
#866=CARTESIAN_POINT('',(31.,13.4,0.));
#867=CARTESIAN_POINT('',(-24.75,18.,0.));
#868=CARTESIAN_POINT('',(-24.75,20.,0.));
#869=CARTESIAN_POINT('',(-22.75,20.,0.));
#870=CARTESIAN_POINT('Origin',(-22.75,18.,0.));
#871=CARTESIAN_POINT('',(22.75,20.,0.));
#872=CARTESIAN_POINT('',(24.75,20.,0.));
#873=CARTESIAN_POINT('',(24.75,18.,0.));
#874=CARTESIAN_POINT('Origin',(22.75,18.,0.));
#875=CARTESIAN_POINT('',(24.75,13.4,0.));
#876=CARTESIAN_POINT('',(24.75,-20.,0.));
#877=CARTESIAN_POINT('',(29.,13.4,0.));
#878=CARTESIAN_POINT('',(31.,13.4,0.));
#879=CARTESIAN_POINT('',(31.,11.4,0.));
#880=CARTESIAN_POINT('Origin',(29.,11.4,0.));
#881=CARTESIAN_POINT('',(31.,-11.4,0.));
#882=CARTESIAN_POINT('',(31.,-13.4,0.));
#883=CARTESIAN_POINT('',(29.,-13.4,0.));
#884=CARTESIAN_POINT('Origin',(29.,-11.4,0.));
#885=CARTESIAN_POINT('',(24.75,-13.4,0.));
#886=CARTESIAN_POINT('',(-31.,-13.4,0.));
#887=CARTESIAN_POINT('',(24.75,-18.,0.));
#888=CARTESIAN_POINT('',(24.75,-20.,0.));
#889=CARTESIAN_POINT('Origin',(22.75,-18.,0.));
#890=CARTESIAN_POINT('',(-19.,2.,0.));
#891=CARTESIAN_POINT('',(-16.,5.,0.));
#892=CARTESIAN_POINT('Origin',(-16.,2.,0.));
#893=CARTESIAN_POINT('',(-19.,-2.,0.));
#894=CARTESIAN_POINT('',(-19.,-5.,0.));
#895=CARTESIAN_POINT('',(-16.,-5.,0.));
#896=CARTESIAN_POINT('Origin',(-16.,-2.,0.));
#897=CARTESIAN_POINT('',(16.,-5.,0.));
#898=CARTESIAN_POINT('',(19.,-5.,0.));
#899=CARTESIAN_POINT('',(19.,-2.,0.));
#900=CARTESIAN_POINT('Origin',(16.,-2.,0.));
#901=CARTESIAN_POINT('',(19.,2.,0.));
#902=CARTESIAN_POINT('',(19.,5.,0.));
#903=CARTESIAN_POINT('',(16.,5.,0.));
#904=CARTESIAN_POINT('Origin',(16.,2.,0.));
#905=CARTESIAN_POINT('',(-19.,5.,0.));
#906=CARTESIAN_POINT('Origin',(-29.,-11.4,0.));
#907=CARTESIAN_POINT('',(-29.,-13.4,4.));
#908=CARTESIAN_POINT('',(-31.,-11.4,4.));
#909=CARTESIAN_POINT('Origin',(-29.,-11.4,4.));
#910=CARTESIAN_POINT('',(-31.,-11.4,0.));
#911=CARTESIAN_POINT('',(-29.,-13.4,0.));
#912=CARTESIAN_POINT('Origin',(-31.,13.4,0.));
#913=CARTESIAN_POINT('',(-31.,11.4,4.));
#914=CARTESIAN_POINT('',(-31.,13.4,4.));
#915=CARTESIAN_POINT('',(-31.,11.4,0.));
#916=CARTESIAN_POINT('Origin',(-29.,11.4,0.));
#917=CARTESIAN_POINT('',(-29.,13.4,4.));
#918=CARTESIAN_POINT('Origin',(-29.,11.4,4.));
#919=CARTESIAN_POINT('',(-29.,13.4,0.));
#920=CARTESIAN_POINT('Origin',(-22.75,18.,0.));
#921=CARTESIAN_POINT('',(-24.75,18.,4.));
#922=CARTESIAN_POINT('',(-22.75,20.,4.));
#923=CARTESIAN_POINT('Origin',(-22.75,18.,4.));
#924=CARTESIAN_POINT('',(-22.75,20.,0.));
#925=CARTESIAN_POINT('',(-24.75,18.,0.));
#926=CARTESIAN_POINT('Origin',(-24.75,20.,0.));
#927=CARTESIAN_POINT('',(-24.75,13.4,4.));
#928=CARTESIAN_POINT('',(-24.75,13.4,0.));
#929=CARTESIAN_POINT('',(-24.75,20.,4.));
#930=CARTESIAN_POINT('Origin',(22.75,-18.,0.));
#931=CARTESIAN_POINT('',(24.75,-18.,4.));
#932=CARTESIAN_POINT('Origin',(22.75,-18.,4.));
#933=CARTESIAN_POINT('',(24.75,-18.,0.));
#934=CARTESIAN_POINT('Origin',(24.75,-20.,0.));
#935=CARTESIAN_POINT('',(24.75,-13.4,4.));
#936=CARTESIAN_POINT('',(24.75,-13.4,0.));
#937=CARTESIAN_POINT('',(24.75,-20.,4.));
#938=CARTESIAN_POINT('Origin',(29.,-11.4,0.));
#939=CARTESIAN_POINT('',(31.,-11.4,4.));
#940=CARTESIAN_POINT('',(29.,-13.4,4.));
#941=CARTESIAN_POINT('Origin',(29.,-11.4,4.));
#942=CARTESIAN_POINT('',(29.,-13.4,0.));
#943=CARTESIAN_POINT('',(31.,-11.4,0.));
#944=CARTESIAN_POINT('Origin',(31.,-13.4,0.));
#945=CARTESIAN_POINT('',(31.,11.4,4.));
#946=CARTESIAN_POINT('',(31.,11.4,0.));
#947=CARTESIAN_POINT('',(31.,-13.4,4.));
#948=CARTESIAN_POINT('Origin',(29.,11.4,0.));
#949=CARTESIAN_POINT('',(29.,13.4,4.));
#950=CARTESIAN_POINT('Origin',(29.,11.4,4.));
#951=CARTESIAN_POINT('',(29.,13.4,0.));
#952=CARTESIAN_POINT('Origin',(31.,13.4,0.));
#953=CARTESIAN_POINT('',(24.75,13.4,4.));
#954=CARTESIAN_POINT('',(24.75,13.4,0.));
#955=CARTESIAN_POINT('',(31.,13.4,4.));
#956=CARTESIAN_POINT('Origin',(22.75,18.,0.));
#957=CARTESIAN_POINT('',(22.75,20.,4.));
#958=CARTESIAN_POINT('',(24.75,18.,4.));
#959=CARTESIAN_POINT('Origin',(22.75,18.,4.));
#960=CARTESIAN_POINT('',(24.75,18.,0.));
#961=CARTESIAN_POINT('',(22.75,20.,0.));
#962=CARTESIAN_POINT('Origin',(24.75,13.4,0.));
#963=CARTESIAN_POINT('',(24.75,-20.,4.));
#964=CARTESIAN_POINT('Origin',(16.,-2.,0.));
#965=CARTESIAN_POINT('',(16.,-5.,4.));
#966=CARTESIAN_POINT('',(16.,-5.,0.));
#967=CARTESIAN_POINT('',(19.,-2.,4.));
#968=CARTESIAN_POINT('Origin',(16.,-2.,4.));
#969=CARTESIAN_POINT('',(19.,-2.,0.));
#970=CARTESIAN_POINT('Origin',(19.,-5.,0.));
#971=CARTESIAN_POINT('',(-16.,-5.,4.));
#972=CARTESIAN_POINT('',(-16.,-5.,0.));
#973=CARTESIAN_POINT('',(19.,-5.,4.));
#974=CARTESIAN_POINT('Origin',(-16.,-2.,0.));
#975=CARTESIAN_POINT('',(-19.,-2.,4.));
#976=CARTESIAN_POINT('',(-19.,-2.,0.));
#977=CARTESIAN_POINT('Origin',(-16.,-2.,4.));
#978=CARTESIAN_POINT('Origin',(-19.,-5.,0.));
#979=CARTESIAN_POINT('',(-19.,2.,4.));
#980=CARTESIAN_POINT('',(-19.,2.,0.));
#981=CARTESIAN_POINT('',(-19.,-5.,4.));
#982=CARTESIAN_POINT('Origin',(16.,2.,0.));
#983=CARTESIAN_POINT('',(19.,2.,4.));
#984=CARTESIAN_POINT('',(19.,2.,0.));
#985=CARTESIAN_POINT('',(16.,5.,4.));
#986=CARTESIAN_POINT('Origin',(16.,2.,4.));
#987=CARTESIAN_POINT('',(16.,5.,0.));
#988=CARTESIAN_POINT('Origin',(19.,5.,0.));
#989=CARTESIAN_POINT('',(19.,5.,4.));
#990=CARTESIAN_POINT('Origin',(-16.,2.,0.));
#991=CARTESIAN_POINT('',(-16.,5.,4.));
#992=CARTESIAN_POINT('',(-16.,5.,0.));
#993=CARTESIAN_POINT('Origin',(-16.,2.,4.));
#994=CARTESIAN_POINT('Origin',(-19.,5.,0.));
#995=CARTESIAN_POINT('',(-19.,5.,4.));
#996=CARTESIAN_POINT('Origin',(24.75,20.,0.));
#997=CARTESIAN_POINT('',(24.75,20.,4.));
#998=CARTESIAN_POINT('Origin',(24.75,-13.4,0.));
#999=CARTESIAN_POINT('',(-31.,-13.4,4.));
#1000=CARTESIAN_POINT('Origin',(-24.75,-13.4,0.));
#1001=CARTESIAN_POINT('',(-24.75,-13.4,4.));
#1002=CARTESIAN_POINT('',(-24.75,20.,4.));
#1003=CARTESIAN_POINT('',(-24.75,-13.4,0.));
#1004=CARTESIAN_POINT('Origin',(-31.,-13.4,0.));
#1005=CARTESIAN_POINT('',(-31.,-13.4,4.));
#1006=CARTESIAN_POINT('Origin',(-24.75,13.4,0.));
#1007=CARTESIAN_POINT('',(31.,13.4,4.));
#1008=CARTESIAN_POINT('Origin',(-4.44089209850063E-15,0.,4.));
#1009=UNCERTAINTY_MEASURE_WITH_UNIT(LENGTH_MEASURE(0.01),#1013,
'DISTANCE_ACCURACY_VALUE',
'Maximum model space distance between geometric entities at asserted c
onnectivities');
#1010=UNCERTAINTY_MEASURE_WITH_UNIT(LENGTH_MEASURE(0.01),#1013,
'DISTANCE_ACCURACY_VALUE',
'Maximum model space distance between geometric entities at asserted c
onnectivities');
#1011=(
GEOMETRIC_REPRESENTATION_CONTEXT(3)
GLOBAL_UNCERTAINTY_ASSIGNED_CONTEXT((#1009))
GLOBAL_UNIT_ASSIGNED_CONTEXT((#1013,#1015,#1016))
REPRESENTATION_CONTEXT('','3D')
);
#1012=(
GEOMETRIC_REPRESENTATION_CONTEXT(3)
GLOBAL_UNCERTAINTY_ASSIGNED_CONTEXT((#1010))
GLOBAL_UNIT_ASSIGNED_CONTEXT((#1013,#1015,#1016))
REPRESENTATION_CONTEXT('','3D')
);
#1013=(
LENGTH_UNIT()
NAMED_UNIT(*)
SI_UNIT(.MILLI.,.METRE.)
);
#1014=(
LENGTH_UNIT()
NAMED_UNIT(*)
SI_UNIT(.CENTI.,.METRE.)
);
#1015=(
NAMED_UNIT(*)
PLANE_ANGLE_UNIT()
SI_UNIT($,.RADIAN.)
);
#1016=(
NAMED_UNIT(*)
SI_UNIT($,.STERADIAN.)
SOLID_ANGLE_UNIT()
);
#1017=SHAPE_DEFINITION_REPRESENTATION(#1018,#1019);
#1018=PRODUCT_DEFINITION_SHAPE('',$,#1021);
#1019=SHAPE_REPRESENTATION('',(#613),#1011);
#1020=PRODUCT_DEFINITION_CONTEXT('part definition',#1025,'design');
#1021=PRODUCT_DEFINITION('top','top',#1022,#1020);
#1022=PRODUCT_DEFINITION_FORMATION('',$,#1027);
#1023=PRODUCT_RELATED_PRODUCT_CATEGORY('top','top',(#1027));
#1024=APPLICATION_PROTOCOL_DEFINITION('international standard',
'automotive_design',2009,#1025);
#1025=APPLICATION_CONTEXT(
'Core Data for Automotive Mechanical Design Process');
#1026=PRODUCT_CONTEXT('part definition',#1025,'mechanical');
#1027=PRODUCT('top','top',$,(#1026));
#1028=PRESENTATION_STYLE_ASSIGNMENT((#1029));
#1029=SURFACE_STYLE_USAGE(.BOTH.,#1032);
#1030=SURFACE_STYLE_RENDERING_WITH_PROPERTIES($,#1036,(#1031));
#1031=SURFACE_STYLE_TRANSPARENT(0.);
#1032=SURFACE_SIDE_STYLE('',(#1033,#1030));
#1033=SURFACE_STYLE_FILL_AREA(#1034);
#1034=FILL_AREA_STYLE('',(#1035));
#1035=FILL_AREA_STYLE_COLOUR('',#1036);
#1036=COLOUR_RGB('',0.749019607843137,0.749019607843137,0.749019607843137);
ENDSEC;
END-ISO-10303-21;
