ISO-10303-21;
HEADER;
/* Generated by software containing ST-Developer
 * from STEP Tools, Inc. (www.steptools.com) 
 */

FILE_DESCRIPTION(
/* description */ (''),
/* implementation_level */ '2;1');

FILE_NAME(
/* name */ 'bottom.stp',
/* time_stamp */ '2025-09-08T14:30:38+09:00',
/* author */ ('ka0n7'),
/* organization */ (''),
/* preprocessor_version */ 'ST-DEVELOPER v20.1',
/* originating_system */ 'Autodesk Inventor 2026',
/* authorisation */ '');

FILE_SCHEMA (('AUTOMOTIVE_DESIGN { 1 0 10303 214 3 1 1 }'));
ENDSEC;

DATA;
#10=MECHANICAL_DESIGN_GEOMETRIC_PRESENTATION_REPRESENTATION('',(#16),#472);
#11=GEOMETRICALLY_BOUNDED_WIREFRAME_SHAPE_REPRESENTATION('',(#12),#471);
#12=GEOMETRIC_CURVE_SET('\X2\30B930B130C330C1\X0\2',(#468));
#13=SHAPE_REPRESENTATION_RELATIONSHIP('SRR','None',#479,#15);
#14=SHAPE_REPRESENTATION_RELATIONSHIP('SRR','None',#479,#11);
#15=ADVANCED_BREP_SHAPE_REPRESENTATION('',(#17),#471);
#16=STYLED_ITEM('',(#488),#17);
#17=MANIFOLD_SOLID_BREP('\X2\30BD30EA30C330C9\X0\1',#274);
#18=FACE_BOUND('',#47,.T.);
#19=FACE_BOUND('',#59,.T.);
#20=PLANE('',#300);
#21=PLANE('',#301);
#22=PLANE('',#307);
#23=PLANE('',#312);
#24=PLANE('',#313);
#25=PLANE('',#314);
#26=PLANE('',#315);
#27=PLANE('',#316);
#28=PLANE('',#317);
#29=PLANE('',#318);
#30=FACE_OUTER_BOUND('',#44,.T.);
#31=FACE_OUTER_BOUND('',#45,.T.);
#32=FACE_OUTER_BOUND('',#46,.T.);
#33=FACE_OUTER_BOUND('',#48,.T.);
#34=FACE_OUTER_BOUND('',#49,.T.);
#35=FACE_OUTER_BOUND('',#50,.T.);
#36=FACE_OUTER_BOUND('',#51,.T.);
#37=FACE_OUTER_BOUND('',#52,.T.);
#38=FACE_OUTER_BOUND('',#53,.T.);
#39=FACE_OUTER_BOUND('',#54,.T.);
#40=FACE_OUTER_BOUND('',#55,.T.);
#41=FACE_OUTER_BOUND('',#56,.T.);
#42=FACE_OUTER_BOUND('',#57,.T.);
#43=FACE_OUTER_BOUND('',#58,.T.);
#44=EDGE_LOOP('',(#184,#185,#186,#187));
#45=EDGE_LOOP('',(#188,#189,#190,#191));
#46=EDGE_LOOP('',(#192,#193,#194,#195,#196,#197,#198,#199));
#47=EDGE_LOOP('',(#200,#201,#202,#203));
#48=EDGE_LOOP('',(#204,#205,#206,#207));
#49=EDGE_LOOP('',(#208,#209,#210,#211));
#50=EDGE_LOOP('',(#212,#213,#214,#215));
#51=EDGE_LOOP('',(#216,#217,#218,#219));
#52=EDGE_LOOP('',(#220,#221,#222,#223));
#53=EDGE_LOOP('',(#224,#225,#226,#227));
#54=EDGE_LOOP('',(#228,#229,#230,#231));
#55=EDGE_LOOP('',(#232,#233,#234,#235));
#56=EDGE_LOOP('',(#236,#237,#238,#239));
#57=EDGE_LOOP('',(#240,#241,#242,#243));
#58=EDGE_LOOP('',(#244,#245,#246,#247,#248,#249,#250,#251));
#59=EDGE_LOOP('',(#252,#253,#254,#255));
#60=LINE('',#399,#88);
#61=LINE('',#402,#89);
#62=LINE('',#405,#90);
#63=LINE('',#407,#91);
#64=LINE('',#408,#92);
#65=LINE('',#411,#93);
#66=LINE('',#415,#94);
#67=LINE('',#419,#95);
#68=LINE('',#423,#96);
#69=LINE('',#425,#97);
#70=LINE('',#427,#98);
#71=LINE('',#428,#99);
#72=LINE('',#433,#100);
#73=LINE('',#434,#101);
#74=LINE('',#437,#102);
#75=LINE('',#438,#103);
#76=LINE('',#442,#104);
#77=LINE('',#446,#105);
#78=LINE('',#449,#106);
#79=LINE('',#451,#107);
#80=LINE('',#452,#108);
#81=LINE('',#455,#109);
#82=LINE('',#456,#110);
#83=LINE('',#459,#111);
#84=LINE('',#460,#112);
#85=LINE('',#462,#113);
#86=LINE('',#464,#114);
#87=LINE('',#466,#115);
#88=VECTOR('',#325,10.);
#89=VECTOR('',#328,10.);
#90=VECTOR('',#331,10.);
#91=VECTOR('',#332,10.);
#92=VECTOR('',#333,10.);
#93=VECTOR('',#336,10.);
#94=VECTOR('',#339,10.);
#95=VECTOR('',#342,10.);
#96=VECTOR('',#345,10.);
#97=VECTOR('',#346,10.);
#98=VECTOR('',#347,10.);
#99=VECTOR('',#348,10.);
#100=VECTOR('',#353,10.);
#101=VECTOR('',#354,10.);
#102=VECTOR('',#357,10.);
#103=VECTOR('',#358,10.);
#104=VECTOR('',#363,10.);
#105=VECTOR('',#368,10.);
#106=VECTOR('',#371,10.);
#107=VECTOR('',#372,10.);
#108=VECTOR('',#373,10.);
#109=VECTOR('',#376,10.);
#110=VECTOR('',#377,10.);
#111=VECTOR('',#380,10.);
#112=VECTOR('',#381,10.);
#113=VECTOR('',#384,10.);
#114=VECTOR('',#387,10.);
#115=VECTOR('',#390,10.);
#116=CIRCLE('',#298,3.);
#117=CIRCLE('',#299,3.);
#118=CIRCLE('',#302,3.);
#119=CIRCLE('',#303,3.);
#120=CIRCLE('',#304,3.);
#121=CIRCLE('',#306,3.);
#122=CIRCLE('',#309,3.);
#123=CIRCLE('',#311,3.);
#124=VERTEX_POINT('',#395);
#125=VERTEX_POINT('',#396);
#126=VERTEX_POINT('',#398);
#127=VERTEX_POINT('',#400);
#128=VERTEX_POINT('',#404);
#129=VERTEX_POINT('',#406);
#130=VERTEX_POINT('',#410);
#131=VERTEX_POINT('',#412);
#132=VERTEX_POINT('',#414);
#133=VERTEX_POINT('',#416);
#134=VERTEX_POINT('',#418);
#135=VERTEX_POINT('',#421);
#136=VERTEX_POINT('',#422);
#137=VERTEX_POINT('',#424);
#138=VERTEX_POINT('',#426);
#139=VERTEX_POINT('',#430);
#140=VERTEX_POINT('',#431);
#141=VERTEX_POINT('',#436);
#142=VERTEX_POINT('',#440);
#143=VERTEX_POINT('',#444);
#144=VERTEX_POINT('',#448);
#145=VERTEX_POINT('',#450);
#146=VERTEX_POINT('',#454);
#147=VERTEX_POINT('',#458);
#148=EDGE_CURVE('',#124,#125,#116,.T.);
#149=EDGE_CURVE('',#125,#126,#60,.T.);
#150=EDGE_CURVE('',#126,#127,#117,.T.);
#151=EDGE_CURVE('',#127,#124,#61,.T.);
#152=EDGE_CURVE('',#127,#128,#62,.T.);
#153=EDGE_CURVE('',#129,#128,#63,.T.);
#154=EDGE_CURVE('',#124,#129,#64,.T.);
#155=EDGE_CURVE('',#130,#126,#65,.T.);
#156=EDGE_CURVE('',#131,#130,#118,.T.);
#157=EDGE_CURVE('',#132,#131,#66,.T.);
#158=EDGE_CURVE('',#133,#132,#119,.T.);
#159=EDGE_CURVE('',#134,#133,#67,.T.);
#160=EDGE_CURVE('',#128,#134,#120,.T.);
#161=EDGE_CURVE('',#135,#136,#68,.T.);
#162=EDGE_CURVE('',#137,#135,#69,.T.);
#163=EDGE_CURVE('',#138,#137,#70,.T.);
#164=EDGE_CURVE('',#136,#138,#71,.T.);
#165=EDGE_CURVE('',#139,#140,#121,.T.);
#166=EDGE_CURVE('',#140,#131,#72,.T.);
#167=EDGE_CURVE('',#130,#139,#73,.T.);
#168=EDGE_CURVE('',#141,#140,#74,.T.);
#169=EDGE_CURVE('',#132,#141,#75,.T.);
#170=EDGE_CURVE('',#141,#142,#122,.T.);
#171=EDGE_CURVE('',#142,#133,#76,.T.);
#172=EDGE_CURVE('',#143,#129,#123,.T.);
#173=EDGE_CURVE('',#134,#143,#77,.T.);
#174=EDGE_CURVE('',#135,#144,#78,.T.);
#175=EDGE_CURVE('',#145,#144,#79,.T.);
#176=EDGE_CURVE('',#137,#145,#80,.T.);
#177=EDGE_CURVE('',#146,#145,#81,.T.);
#178=EDGE_CURVE('',#138,#146,#82,.T.);
#179=EDGE_CURVE('',#147,#146,#83,.T.);
#180=EDGE_CURVE('',#136,#147,#84,.T.);
#181=EDGE_CURVE('',#144,#147,#85,.T.);
#182=EDGE_CURVE('',#143,#142,#86,.T.);
#183=EDGE_CURVE('',#139,#125,#87,.T.);
#184=ORIENTED_EDGE('',*,*,#148,.T.);
#185=ORIENTED_EDGE('',*,*,#149,.T.);
#186=ORIENTED_EDGE('',*,*,#150,.T.);
#187=ORIENTED_EDGE('',*,*,#151,.T.);
#188=ORIENTED_EDGE('',*,*,#151,.F.);
#189=ORIENTED_EDGE('',*,*,#152,.T.);
#190=ORIENTED_EDGE('',*,*,#153,.F.);
#191=ORIENTED_EDGE('',*,*,#154,.F.);
#192=ORIENTED_EDGE('',*,*,#150,.F.);
#193=ORIENTED_EDGE('',*,*,#155,.F.);
#194=ORIENTED_EDGE('',*,*,#156,.F.);
#195=ORIENTED_EDGE('',*,*,#157,.F.);
#196=ORIENTED_EDGE('',*,*,#158,.F.);
#197=ORIENTED_EDGE('',*,*,#159,.F.);
#198=ORIENTED_EDGE('',*,*,#160,.F.);
#199=ORIENTED_EDGE('',*,*,#152,.F.);
#200=ORIENTED_EDGE('',*,*,#161,.F.);
#201=ORIENTED_EDGE('',*,*,#162,.F.);
#202=ORIENTED_EDGE('',*,*,#163,.F.);
#203=ORIENTED_EDGE('',*,*,#164,.F.);
#204=ORIENTED_EDGE('',*,*,#165,.T.);
#205=ORIENTED_EDGE('',*,*,#166,.T.);
#206=ORIENTED_EDGE('',*,*,#156,.T.);
#207=ORIENTED_EDGE('',*,*,#167,.T.);
#208=ORIENTED_EDGE('',*,*,#166,.F.);
#209=ORIENTED_EDGE('',*,*,#168,.F.);
#210=ORIENTED_EDGE('',*,*,#169,.F.);
#211=ORIENTED_EDGE('',*,*,#157,.T.);
#212=ORIENTED_EDGE('',*,*,#170,.T.);
#213=ORIENTED_EDGE('',*,*,#171,.T.);
#214=ORIENTED_EDGE('',*,*,#158,.T.);
#215=ORIENTED_EDGE('',*,*,#169,.T.);
#216=ORIENTED_EDGE('',*,*,#172,.T.);
#217=ORIENTED_EDGE('',*,*,#153,.T.);
#218=ORIENTED_EDGE('',*,*,#160,.T.);
#219=ORIENTED_EDGE('',*,*,#173,.T.);
#220=ORIENTED_EDGE('',*,*,#162,.T.);
#221=ORIENTED_EDGE('',*,*,#174,.T.);
#222=ORIENTED_EDGE('',*,*,#175,.F.);
#223=ORIENTED_EDGE('',*,*,#176,.F.);
#224=ORIENTED_EDGE('',*,*,#163,.T.);
#225=ORIENTED_EDGE('',*,*,#176,.T.);
#226=ORIENTED_EDGE('',*,*,#177,.F.);
#227=ORIENTED_EDGE('',*,*,#178,.F.);
#228=ORIENTED_EDGE('',*,*,#164,.T.);
#229=ORIENTED_EDGE('',*,*,#178,.T.);
#230=ORIENTED_EDGE('',*,*,#179,.F.);
#231=ORIENTED_EDGE('',*,*,#180,.F.);
#232=ORIENTED_EDGE('',*,*,#161,.T.);
#233=ORIENTED_EDGE('',*,*,#180,.T.);
#234=ORIENTED_EDGE('',*,*,#181,.F.);
#235=ORIENTED_EDGE('',*,*,#174,.F.);
#236=ORIENTED_EDGE('',*,*,#171,.F.);
#237=ORIENTED_EDGE('',*,*,#182,.F.);
#238=ORIENTED_EDGE('',*,*,#173,.F.);
#239=ORIENTED_EDGE('',*,*,#159,.T.);
#240=ORIENTED_EDGE('',*,*,#149,.F.);
#241=ORIENTED_EDGE('',*,*,#183,.F.);
#242=ORIENTED_EDGE('',*,*,#167,.F.);
#243=ORIENTED_EDGE('',*,*,#155,.T.);
#244=ORIENTED_EDGE('',*,*,#148,.F.);
#245=ORIENTED_EDGE('',*,*,#154,.T.);
#246=ORIENTED_EDGE('',*,*,#172,.F.);
#247=ORIENTED_EDGE('',*,*,#182,.T.);
#248=ORIENTED_EDGE('',*,*,#170,.F.);
#249=ORIENTED_EDGE('',*,*,#168,.T.);
#250=ORIENTED_EDGE('',*,*,#165,.F.);
#251=ORIENTED_EDGE('',*,*,#183,.T.);
#252=ORIENTED_EDGE('',*,*,#181,.T.);
#253=ORIENTED_EDGE('',*,*,#179,.T.);
#254=ORIENTED_EDGE('',*,*,#177,.T.);
#255=ORIENTED_EDGE('',*,*,#175,.T.);
#256=CYLINDRICAL_SURFACE('',#297,3.);
#257=CYLINDRICAL_SURFACE('',#305,3.);
#258=CYLINDRICAL_SURFACE('',#308,3.);
#259=CYLINDRICAL_SURFACE('',#310,3.);
#260=ADVANCED_FACE('',(#30),#256,.T.);
#261=ADVANCED_FACE('',(#31),#20,.T.);
#262=ADVANCED_FACE('',(#32,#18),#21,.F.);
#263=ADVANCED_FACE('',(#33),#257,.T.);
#264=ADVANCED_FACE('',(#34),#22,.T.);
#265=ADVANCED_FACE('',(#35),#258,.T.);
#266=ADVANCED_FACE('',(#36),#259,.T.);
#267=ADVANCED_FACE('',(#37),#23,.T.);
#268=ADVANCED_FACE('',(#38),#24,.T.);
#269=ADVANCED_FACE('',(#39),#25,.T.);
#270=ADVANCED_FACE('',(#40),#26,.T.);
#271=ADVANCED_FACE('',(#41),#27,.T.);
#272=ADVANCED_FACE('',(#42),#28,.T.);
#273=ADVANCED_FACE('',(#43,#19),#29,.T.);
#274=CLOSED_SHELL('',(#260,#261,#262,#263,#264,#265,#266,#267,#268,#269,
#270,#271,#272,#273));
#275=DERIVED_UNIT_ELEMENT(#278,1.);
#276=DERIVED_UNIT_ELEMENT(#474,-3.);
#277=DIMENSIONAL_EXPONENTS(0.,1.,0.,0.,0.,0.,0.);
#278=(
CONVERSION_BASED_UNIT('gram',#280)
MASS_UNIT()
NAMED_UNIT(#277)
);
#279=(
MASS_UNIT()
NAMED_UNIT(*)
SI_UNIT(.KILO.,.GRAM.)
);
#280=MASS_MEASURE_WITH_UNIT(MASS_MEASURE(0.001),#279);
#281=DERIVED_UNIT((#275,#276));
#282=MEASURE_REPRESENTATION_ITEM('density measure',
POSITIVE_RATIO_MEASURE(1.),#281);
#283=PROPERTY_DEFINITION_REPRESENTATION(#288,#285);
#284=PROPERTY_DEFINITION_REPRESENTATION(#289,#286);
#285=REPRESENTATION('material name',(#287),#471);
#286=REPRESENTATION('density',(#282),#471);
#287=DESCRIPTIVE_REPRESENTATION_ITEM('\X2\4E00822C\X0\','\X2\4E00822C\X0\');
#288=PROPERTY_DEFINITION('material property','material name',#481);
#289=PROPERTY_DEFINITION('material property','density of part',#481);
#290=DATE_TIME_ROLE('creation_date');
#291=APPLIED_DATE_AND_TIME_ASSIGNMENT(#292,#290,(#481));
#292=DATE_AND_TIME(#293,#294);
#293=CALENDAR_DATE(2025,5,9);
#294=LOCAL_TIME(0,0,0.,#295);
#295=COORDINATED_UNIVERSAL_TIME_OFFSET(0,0,.BEHIND.);
#296=AXIS2_PLACEMENT_3D('',#393,#319,#320);
#297=AXIS2_PLACEMENT_3D('',#394,#321,#322);
#298=AXIS2_PLACEMENT_3D('',#397,#323,#324);
#299=AXIS2_PLACEMENT_3D('',#401,#326,#327);
#300=AXIS2_PLACEMENT_3D('',#403,#329,#330);
#301=AXIS2_PLACEMENT_3D('',#409,#334,#335);
#302=AXIS2_PLACEMENT_3D('',#413,#337,#338);
#303=AXIS2_PLACEMENT_3D('',#417,#340,#341);
#304=AXIS2_PLACEMENT_3D('',#420,#343,#344);
#305=AXIS2_PLACEMENT_3D('',#429,#349,#350);
#306=AXIS2_PLACEMENT_3D('',#432,#351,#352);
#307=AXIS2_PLACEMENT_3D('',#435,#355,#356);
#308=AXIS2_PLACEMENT_3D('',#439,#359,#360);
#309=AXIS2_PLACEMENT_3D('',#441,#361,#362);
#310=AXIS2_PLACEMENT_3D('',#443,#364,#365);
#311=AXIS2_PLACEMENT_3D('',#445,#366,#367);
#312=AXIS2_PLACEMENT_3D('',#447,#369,#370);
#313=AXIS2_PLACEMENT_3D('',#453,#374,#375);
#314=AXIS2_PLACEMENT_3D('',#457,#378,#379);
#315=AXIS2_PLACEMENT_3D('',#461,#382,#383);
#316=AXIS2_PLACEMENT_3D('',#463,#385,#386);
#317=AXIS2_PLACEMENT_3D('',#465,#388,#389);
#318=AXIS2_PLACEMENT_3D('',#467,#391,#392);
#319=DIRECTION('axis',(0.,0.,1.));
#320=DIRECTION('refdir',(1.,0.,0.));
#321=DIRECTION('center_axis',(0.,1.,0.));
#322=DIRECTION('ref_axis',(-0.707106781186547,0.,-0.707106781186548));
#323=DIRECTION('center_axis',(0.,-1.,0.));
#324=DIRECTION('ref_axis',(-0.707106781186547,0.,-0.707106781186548));
#325=DIRECTION('',(0.,-1.,0.));
#326=DIRECTION('center_axis',(0.,1.,0.));
#327=DIRECTION('ref_axis',(-0.707106781186547,0.,-0.707106781186548));
#328=DIRECTION('',(0.,1.,0.));
#329=DIRECTION('center_axis',(-1.,0.,3.81639164714898E-16));
#330=DIRECTION('ref_axis',(3.81639164714898E-16,0.,1.));
#331=DIRECTION('',(3.81639164714898E-16,0.,1.));
#332=DIRECTION('',(0.,-1.,0.));
#333=DIRECTION('',(3.81639164714898E-16,0.,1.));
#334=DIRECTION('center_axis',(0.,1.,0.));
#335=DIRECTION('ref_axis',(0.,0.,1.));
#336=DIRECTION('',(-1.,0.,0.));
#337=DIRECTION('center_axis',(0.,1.,0.));
#338=DIRECTION('ref_axis',(0.707106781186546,0.,-0.707106781186549));
#339=DIRECTION('',(-2.77555756156289E-16,0.,-1.));
#340=DIRECTION('center_axis',(0.,1.,0.));
#341=DIRECTION('ref_axis',(0.707106781186548,0.,0.707106781186547));
#342=DIRECTION('',(1.,0.,-1.85037170770859E-16));
#343=DIRECTION('center_axis',(0.,1.,0.));
#344=DIRECTION('ref_axis',(-0.707106781186546,0.,0.707106781186549));
#345=DIRECTION('',(-3.99680288865056E-16,0.,-1.));
#346=DIRECTION('',(-1.,0.,0.));
#347=DIRECTION('',(2.88657986402541E-16,0.,1.));
#348=DIRECTION('',(1.,0.,-2.69144975666705E-16));
#349=DIRECTION('center_axis',(0.,1.,0.));
#350=DIRECTION('ref_axis',(0.707106781186546,0.,-0.707106781186549));
#351=DIRECTION('center_axis',(0.,-1.,0.));
#352=DIRECTION('ref_axis',(0.707106781186546,0.,-0.707106781186549));
#353=DIRECTION('',(0.,-1.,0.));
#354=DIRECTION('',(0.,1.,0.));
#355=DIRECTION('center_axis',(1.,0.,-2.77555756156289E-16));
#356=DIRECTION('ref_axis',(-2.77555756156289E-16,0.,-1.));
#357=DIRECTION('',(-2.77555756156289E-16,0.,-1.));
#358=DIRECTION('',(0.,1.,0.));
#359=DIRECTION('center_axis',(0.,1.,0.));
#360=DIRECTION('ref_axis',(0.707106781186548,0.,0.707106781186547));
#361=DIRECTION('center_axis',(0.,-1.,0.));
#362=DIRECTION('ref_axis',(0.707106781186548,0.,0.707106781186547));
#363=DIRECTION('',(0.,-1.,0.));
#364=DIRECTION('center_axis',(0.,1.,0.));
#365=DIRECTION('ref_axis',(-0.707106781186546,0.,0.707106781186549));
#366=DIRECTION('center_axis',(0.,-1.,0.));
#367=DIRECTION('ref_axis',(-0.707106781186546,0.,0.707106781186549));
#368=DIRECTION('',(0.,1.,0.));
#369=DIRECTION('center_axis',(0.,0.,-1.));
#370=DIRECTION('ref_axis',(-1.,0.,0.));
#371=DIRECTION('',(0.,1.,0.));
#372=DIRECTION('',(-1.,0.,0.));
#373=DIRECTION('',(0.,1.,0.));
#374=DIRECTION('center_axis',(-1.,0.,2.88657986402541E-16));
#375=DIRECTION('ref_axis',(2.88657986402541E-16,0.,1.));
#376=DIRECTION('',(2.88657986402541E-16,0.,1.));
#377=DIRECTION('',(0.,1.,0.));
#378=DIRECTION('center_axis',(2.69144975666705E-16,0.,1.));
#379=DIRECTION('ref_axis',(1.,0.,-2.69144975666705E-16));
#380=DIRECTION('',(1.,0.,-2.69144975666705E-16));
#381=DIRECTION('',(0.,1.,0.));
#382=DIRECTION('center_axis',(1.,0.,-3.99680288865056E-16));
#383=DIRECTION('ref_axis',(-3.99680288865056E-16,0.,-1.));
#384=DIRECTION('',(-3.99680288865056E-16,0.,-1.));
#385=DIRECTION('center_axis',(1.85037170770859E-16,0.,1.));
#386=DIRECTION('ref_axis',(1.,0.,-1.85037170770859E-16));
#387=DIRECTION('',(1.,0.,-1.85037170770859E-16));
#388=DIRECTION('center_axis',(0.,0.,-1.));
#389=DIRECTION('ref_axis',(-1.,0.,0.));
#390=DIRECTION('',(-1.,0.,0.));
#391=DIRECTION('center_axis',(0.,1.,0.));
#392=DIRECTION('ref_axis',(0.,0.,1.));
#393=CARTESIAN_POINT('',(0.,0.,0.));
#394=CARTESIAN_POINT('Origin',(-9.00000000000001,0.,-29.));
#395=CARTESIAN_POINT('',(-12.,2.,-29.));
#396=CARTESIAN_POINT('',(-9.00000000000001,2.,-32.));
#397=CARTESIAN_POINT('Origin',(-9.00000000000001,2.,-29.));
#398=CARTESIAN_POINT('',(-9.00000000000001,0.,-32.));
#399=CARTESIAN_POINT('',(-9.00000000000001,0.,-32.));
#400=CARTESIAN_POINT('',(-12.,0.,-29.));
#401=CARTESIAN_POINT('Origin',(-9.00000000000001,0.,-29.));
#402=CARTESIAN_POINT('',(-12.,0.,-29.));
#403=CARTESIAN_POINT('Origin',(-12.,0.,-32.));
#404=CARTESIAN_POINT('',(-12.,0.,29.));
#405=CARTESIAN_POINT('',(-12.,0.,-32.));
#406=CARTESIAN_POINT('',(-12.,2.,29.));
#407=CARTESIAN_POINT('',(-12.,0.,29.));
#408=CARTESIAN_POINT('',(-12.,2.,-32.));
#409=CARTESIAN_POINT('Origin',(0.,0.,2.22044604925031E-15));
#410=CARTESIAN_POINT('',(8.99999999999999,0.,-32.));
#411=CARTESIAN_POINT('',(12.,0.,-32.));
#412=CARTESIAN_POINT('',(12.,0.,-29.));
#413=CARTESIAN_POINT('Origin',(8.99999999999999,0.,-29.));
#414=CARTESIAN_POINT('',(12.,0.,29.));
#415=CARTESIAN_POINT('',(12.,0.,32.));
#416=CARTESIAN_POINT('',(9.00000000000001,0.,32.));
#417=CARTESIAN_POINT('Origin',(9.00000000000001,0.,29.));
#418=CARTESIAN_POINT('',(-8.99999999999999,0.,32.));
#419=CARTESIAN_POINT('',(-12.,0.,32.));
#420=CARTESIAN_POINT('Origin',(-8.99999999999999,0.,29.));
#421=CARTESIAN_POINT('',(-8.24999999999999,0.,25.));
#422=CARTESIAN_POINT('',(-8.25000000000001,0.,-25.));
#423=CARTESIAN_POINT('',(-8.24999999999999,0.,25.));
#424=CARTESIAN_POINT('',(8.25,0.,25.));
#425=CARTESIAN_POINT('',(8.25,0.,25.));
#426=CARTESIAN_POINT('',(8.24999999999999,0.,-25.));
#427=CARTESIAN_POINT('',(8.24999999999999,0.,-25.));
#428=CARTESIAN_POINT('',(-8.25000000000001,0.,-25.));
#429=CARTESIAN_POINT('Origin',(8.99999999999999,0.,-29.));
#430=CARTESIAN_POINT('',(8.99999999999999,2.,-32.));
#431=CARTESIAN_POINT('',(12.,2.,-29.));
#432=CARTESIAN_POINT('Origin',(8.99999999999999,2.,-29.));
#433=CARTESIAN_POINT('',(12.,0.,-29.));
#434=CARTESIAN_POINT('',(8.99999999999999,0.,-32.));
#435=CARTESIAN_POINT('Origin',(12.,0.,32.));
#436=CARTESIAN_POINT('',(12.,2.,29.));
#437=CARTESIAN_POINT('',(12.,2.,32.));
#438=CARTESIAN_POINT('',(12.,0.,29.));
#439=CARTESIAN_POINT('Origin',(9.00000000000001,0.,29.));
#440=CARTESIAN_POINT('',(9.00000000000001,2.,32.));
#441=CARTESIAN_POINT('Origin',(9.00000000000001,2.,29.));
#442=CARTESIAN_POINT('',(9.00000000000001,0.,32.));
#443=CARTESIAN_POINT('Origin',(-8.99999999999999,0.,29.));
#444=CARTESIAN_POINT('',(-8.99999999999999,2.,32.));
#445=CARTESIAN_POINT('Origin',(-8.99999999999999,2.,29.));
#446=CARTESIAN_POINT('',(-8.99999999999999,0.,32.));
#447=CARTESIAN_POINT('Origin',(8.25,0.,25.));
#448=CARTESIAN_POINT('',(-8.24999999999999,2.,25.));
#449=CARTESIAN_POINT('',(-8.24999999999999,0.,25.));
#450=CARTESIAN_POINT('',(8.25,2.,25.));
#451=CARTESIAN_POINT('',(8.25,2.,25.));
#452=CARTESIAN_POINT('',(8.25,0.,25.));
#453=CARTESIAN_POINT('Origin',(8.24999999999999,0.,-25.));
#454=CARTESIAN_POINT('',(8.24999999999999,2.,-25.));
#455=CARTESIAN_POINT('',(8.24999999999999,2.,-25.));
#456=CARTESIAN_POINT('',(8.24999999999999,0.,-25.));
#457=CARTESIAN_POINT('Origin',(-8.25000000000001,0.,-25.));
#458=CARTESIAN_POINT('',(-8.25000000000001,2.,-25.));
#459=CARTESIAN_POINT('',(-8.25000000000001,2.,-25.));
#460=CARTESIAN_POINT('',(-8.25000000000001,0.,-25.));
#461=CARTESIAN_POINT('Origin',(-8.24999999999999,0.,25.));
#462=CARTESIAN_POINT('',(-8.24999999999999,2.,25.));
#463=CARTESIAN_POINT('Origin',(-12.,0.,32.));
#464=CARTESIAN_POINT('',(-12.,2.,32.));
#465=CARTESIAN_POINT('Origin',(12.,0.,-32.));
#466=CARTESIAN_POINT('',(12.,2.,-32.));
#467=CARTESIAN_POINT('Origin',(0.,2.,0.));
#468=CARTESIAN_POINT('',(0.,2.,0.));
#469=UNCERTAINTY_MEASURE_WITH_UNIT(LENGTH_MEASURE(0.01),#473,
'DISTANCE_ACCURACY_VALUE',
'Maximum model space distance between geometric entities at asserted c
onnectivities');
#470=UNCERTAINTY_MEASURE_WITH_UNIT(LENGTH_MEASURE(0.01),#473,
'DISTANCE_ACCURACY_VALUE',
'Maximum model space distance between geometric entities at asserted c
onnectivities');
#471=(
GEOMETRIC_REPRESENTATION_CONTEXT(3)
GLOBAL_UNCERTAINTY_ASSIGNED_CONTEXT((#469))
GLOBAL_UNIT_ASSIGNED_CONTEXT((#473,#475,#476))
REPRESENTATION_CONTEXT('','3D')
);
#472=(
GEOMETRIC_REPRESENTATION_CONTEXT(3)
GLOBAL_UNCERTAINTY_ASSIGNED_CONTEXT((#470))
GLOBAL_UNIT_ASSIGNED_CONTEXT((#473,#475,#476))
REPRESENTATION_CONTEXT('','3D')
);
#473=(
LENGTH_UNIT()
NAMED_UNIT(*)
SI_UNIT(.MILLI.,.METRE.)
);
#474=(
LENGTH_UNIT()
NAMED_UNIT(*)
SI_UNIT(.CENTI.,.METRE.)
);
#475=(
NAMED_UNIT(*)
PLANE_ANGLE_UNIT()
SI_UNIT($,.RADIAN.)
);
#476=(
NAMED_UNIT(*)
SI_UNIT($,.STERADIAN.)
SOLID_ANGLE_UNIT()
);
#477=SHAPE_DEFINITION_REPRESENTATION(#478,#479);
#478=PRODUCT_DEFINITION_SHAPE('',$,#481);
#479=SHAPE_REPRESENTATION('',(#296),#471);
#480=PRODUCT_DEFINITION_CONTEXT('part definition',#485,'design');
#481=PRODUCT_DEFINITION('bottom','bottom',#482,#480);
#482=PRODUCT_DEFINITION_FORMATION('',$,#487);
#483=PRODUCT_RELATED_PRODUCT_CATEGORY('bottom','bottom',(#487));
#484=APPLICATION_PROTOCOL_DEFINITION('international standard',
'automotive_design',2009,#485);
#485=APPLICATION_CONTEXT(
'Core Data for Automotive Mechanical Design Process');
#486=PRODUCT_CONTEXT('part definition',#485,'mechanical');
#487=PRODUCT('bottom','bottom',$,(#486));
#488=PRESENTATION_STYLE_ASSIGNMENT((#490));
#489=PRESENTATION_STYLE_ASSIGNMENT((#491));
#490=SURFACE_STYLE_USAGE(.BOTH.,#494);
#491=SURFACE_STYLE_USAGE(.BOTH.,#495);
#492=SURFACE_STYLE_RENDERING_WITH_PROPERTIES($,#502,(#493));
#493=SURFACE_STYLE_TRANSPARENT(0.);
#494=SURFACE_SIDE_STYLE('',(#496,#492));
#495=SURFACE_SIDE_STYLE('',(#497));
#496=SURFACE_STYLE_FILL_AREA(#498);
#497=SURFACE_STYLE_FILL_AREA(#499);
#498=FILL_AREA_STYLE('',(#500));
#499=FILL_AREA_STYLE('',(#501));
#500=FILL_AREA_STYLE_COLOUR('',#502);
#501=FILL_AREA_STYLE_COLOUR('',#503);
#502=COLOUR_RGB('',0.749019607843137,0.749019607843137,0.749019607843137);
#503=COLOUR_RGB('',0.913725490196078,0.913725490196078,0.);
ENDSEC;
END-ISO-10303-21;
