ISO-10303-21;
HEADER;
/* Generated by software containing ST-Developer
 * from STEP Tools, Inc. (www.steptools.com) 
 */

FILE_DESCRIPTION(
/* description */ (''),
/* implementation_level */ '2;1');

FILE_NAME(
/* name */ 'LRA_case3.stp',
/* time_stamp */ '2025-09-05T19:33:18+09:00',
/* author */ ('ka0n7'),
/* organization */ (''),
/* preprocessor_version */ 'ST-DEVELOPER v20.1',
/* originating_system */ 'Autodesk Inventor 2026',
/* authorisation */ '');

FILE_SCHEMA (('AUTOMOTIVE_DESIGN { 1 0 10303 214 3 1 1 }'));
ENDSEC;

DATA;
#10=MECHANICAL_DESIGN_GEOMETRIC_PRESENTATION_REPRESENTATION('',(#13),#822);
#11=SHAPE_REPRESENTATION_RELATIONSHIP('SRR','None',#829,#12);
#12=ADVANCED_BREP_SHAPE_REPRESENTATION('',(#14),#821);
#13=STYLED_ITEM('',(#838),#14);
#14=MANIFOLD_SOLID_BREP('\X2\30BD30EA30C330C9\X0\1',#489);
#15=FACE_BOUND('',#85,.T.);
#16=PLANE('',#515);
#17=PLANE('',#516);
#18=PLANE('',#520);
#19=PLANE('',#524);
#20=PLANE('',#525);
#21=PLANE('',#529);
#22=PLANE('',#536);
#23=PLANE('',#537);
#24=PLANE('',#538);
#25=PLANE('',#539);
#26=PLANE('',#540);
#27=PLANE('',#541);
#28=PLANE('',#542);
#29=PLANE('',#543);
#30=PLANE('',#544);
#31=PLANE('',#545);
#32=PLANE('',#546);
#33=PLANE('',#547);
#34=PLANE('',#548);
#35=FACE_OUTER_BOUND('',#60,.T.);
#36=FACE_OUTER_BOUND('',#61,.T.);
#37=FACE_OUTER_BOUND('',#62,.T.);
#38=FACE_OUTER_BOUND('',#63,.T.);
#39=FACE_OUTER_BOUND('',#64,.T.);
#40=FACE_OUTER_BOUND('',#65,.T.);
#41=FACE_OUTER_BOUND('',#66,.T.);
#42=FACE_OUTER_BOUND('',#67,.T.);
#43=FACE_OUTER_BOUND('',#68,.T.);
#44=FACE_OUTER_BOUND('',#69,.T.);
#45=FACE_OUTER_BOUND('',#70,.T.);
#46=FACE_OUTER_BOUND('',#71,.T.);
#47=FACE_OUTER_BOUND('',#72,.T.);
#48=FACE_OUTER_BOUND('',#73,.T.);
#49=FACE_OUTER_BOUND('',#74,.T.);
#50=FACE_OUTER_BOUND('',#75,.T.);
#51=FACE_OUTER_BOUND('',#76,.T.);
#52=FACE_OUTER_BOUND('',#77,.T.);
#53=FACE_OUTER_BOUND('',#78,.T.);
#54=FACE_OUTER_BOUND('',#79,.T.);
#55=FACE_OUTER_BOUND('',#80,.T.);
#56=FACE_OUTER_BOUND('',#81,.T.);
#57=FACE_OUTER_BOUND('',#82,.T.);
#58=FACE_OUTER_BOUND('',#83,.T.);
#59=FACE_OUTER_BOUND('',#84,.T.);
#60=EDGE_LOOP('',(#322,#323,#324,#325));
#61=EDGE_LOOP('',(#326,#327,#328,#329));
#62=EDGE_LOOP('',(#330,#331,#332,#333,#334,#335,#336,#337,#338,#339));
#63=EDGE_LOOP('',(#340,#341,#342,#343));
#64=EDGE_LOOP('',(#344,#345,#346,#347,#348,#349));
#65=EDGE_LOOP('',(#350,#351,#352,#353));
#66=EDGE_LOOP('',(#354,#355,#356,#357));
#67=EDGE_LOOP('',(#358,#359,#360,#361,#362,#363,#364,#365,#366,#367));
#68=EDGE_LOOP('',(#368,#369,#370,#371));
#69=EDGE_LOOP('',(#372,#373,#374,#375,#376,#377));
#70=EDGE_LOOP('',(#378,#379,#380,#381));
#71=EDGE_LOOP('',(#382,#383,#384,#385));
#72=EDGE_LOOP('',(#386,#387,#388,#389));
#73=EDGE_LOOP('',(#390,#391,#392,#393,#394));
#74=EDGE_LOOP('',(#395,#396,#397,#398,#399));
#75=EDGE_LOOP('',(#400,#401,#402,#403));
#76=EDGE_LOOP('',(#404,#405,#406,#407));
#77=EDGE_LOOP('',(#408,#409,#410,#411,#412));
#78=EDGE_LOOP('',(#413,#414,#415,#416,#417));
#79=EDGE_LOOP('',(#418,#419,#420,#421));
#80=EDGE_LOOP('',(#422,#423,#424,#425));
#81=EDGE_LOOP('',(#426,#427,#428,#429,#430,#431,#432,#433));
#82=EDGE_LOOP('',(#434,#435,#436,#437));
#83=EDGE_LOOP('',(#438,#439,#440,#441,#442,#443,#444,#445));
#84=EDGE_LOOP('',(#446,#447,#448,#449,#450,#451,#452,#453));
#85=EDGE_LOOP('',(#454,#455,#456,#457));
#86=LINE('',#687,#142);
#87=LINE('',#690,#143);
#88=LINE('',#693,#144);
#89=LINE('',#695,#145);
#90=LINE('',#696,#146);
#91=LINE('',#699,#147);
#92=LINE('',#701,#148);
#93=LINE('',#703,#149);
#94=LINE('',#705,#150);
#95=LINE('',#707,#151);
#96=LINE('',#709,#152);
#97=LINE('',#711,#153);
#98=LINE('',#715,#154);
#99=LINE('',#719,#155);
#100=LINE('',#721,#156);
#101=LINE('',#723,#157);
#102=LINE('',#724,#158);
#103=LINE('',#729,#159);
#104=LINE('',#733,#160);
#105=LINE('',#735,#161);
#106=LINE('',#736,#162);
#107=LINE('',#739,#163);
#108=LINE('',#741,#164);
#109=LINE('',#743,#165);
#110=LINE('',#745,#166);
#111=LINE('',#747,#167);
#112=LINE('',#749,#168);
#113=LINE('',#753,#169);
#114=LINE('',#756,#170);
#115=LINE('',#757,#171);
#116=LINE('',#762,#172);
#117=LINE('',#768,#173);
#118=LINE('',#772,#174);
#119=LINE('',#774,#175);
#120=LINE('',#775,#176);
#121=LINE('',#778,#177);
#122=LINE('',#779,#178);
#123=LINE('',#782,#179);
#124=LINE('',#783,#180);
#125=LINE('',#785,#181);
#126=LINE('',#788,#182);
#127=LINE('',#790,#183);
#128=LINE('',#791,#184);
#129=LINE('',#794,#185);
#130=LINE('',#795,#186);
#131=LINE('',#798,#187);
#132=LINE('',#799,#188);
#133=LINE('',#801,#189);
#134=LINE('',#805,#190);
#135=LINE('',#806,#191);
#136=LINE('',#807,#192);
#137=LINE('',#810,#193);
#138=LINE('',#811,#194);
#139=LINE('',#814,#195);
#140=LINE('',#815,#196);
#141=LINE('',#817,#197);
#142=VECTOR('',#555,10.);
#143=VECTOR('',#558,10.);
#144=VECTOR('',#561,10.);
#145=VECTOR('',#562,10.);
#146=VECTOR('',#563,10.);
#147=VECTOR('',#566,10.);
#148=VECTOR('',#567,10.);
#149=VECTOR('',#568,10.);
#150=VECTOR('',#569,10.);
#151=VECTOR('',#570,10.);
#152=VECTOR('',#571,10.);
#153=VECTOR('',#572,10.);
#154=VECTOR('',#577,10.);
#155=VECTOR('',#582,10.);
#156=VECTOR('',#583,10.);
#157=VECTOR('',#584,10.);
#158=VECTOR('',#585,10.);
#159=VECTOR('',#590,10.);
#160=VECTOR('',#595,10.);
#161=VECTOR('',#596,10.);
#162=VECTOR('',#597,10.);
#163=VECTOR('',#600,10.);
#164=VECTOR('',#601,10.);
#165=VECTOR('',#602,10.);
#166=VECTOR('',#603,10.);
#167=VECTOR('',#604,10.);
#168=VECTOR('',#605,10.);
#169=VECTOR('',#610,10.);
#170=VECTOR('',#615,10.);
#171=VECTOR('',#616,10.);
#172=VECTOR('',#621,2.);
#173=VECTOR('',#628,2.);
#174=VECTOR('',#633,10.);
#175=VECTOR('',#634,10.);
#176=VECTOR('',#635,10.);
#177=VECTOR('',#638,10.);
#178=VECTOR('',#639,10.);
#179=VECTOR('',#642,10.);
#180=VECTOR('',#643,10.);
#181=VECTOR('',#646,10.);
#182=VECTOR('',#649,10.);
#183=VECTOR('',#650,10.);
#184=VECTOR('',#651,10.);
#185=VECTOR('',#654,10.);
#186=VECTOR('',#655,10.);
#187=VECTOR('',#658,10.);
#188=VECTOR('',#659,10.);
#189=VECTOR('',#662,10.);
#190=VECTOR('',#665,10.);
#191=VECTOR('',#666,10.);
#192=VECTOR('',#667,10.);
#193=VECTOR('',#670,10.);
#194=VECTOR('',#671,10.);
#195=VECTOR('',#674,10.);
#196=VECTOR('',#675,10.);
#197=VECTOR('',#678,10.);
#198=CIRCLE('',#513,2.);
#199=CIRCLE('',#514,2.);
#200=CIRCLE('',#517,2.);
#201=CIRCLE('',#519,2.);
#202=CIRCLE('',#522,2.);
#203=CIRCLE('',#523,2.);
#204=CIRCLE('',#526,2.);
#205=CIRCLE('',#528,2.);
#206=CIRCLE('',#531,2.);
#207=CIRCLE('',#532,2.);
#208=CIRCLE('',#534,2.);
#209=CIRCLE('',#535,2.);
#210=VERTEX_POINT('',#683);
#211=VERTEX_POINT('',#684);
#212=VERTEX_POINT('',#686);
#213=VERTEX_POINT('',#688);
#214=VERTEX_POINT('',#692);
#215=VERTEX_POINT('',#694);
#216=VERTEX_POINT('',#698);
#217=VERTEX_POINT('',#700);
#218=VERTEX_POINT('',#702);
#219=VERTEX_POINT('',#704);
#220=VERTEX_POINT('',#706);
#221=VERTEX_POINT('',#708);
#222=VERTEX_POINT('',#710);
#223=VERTEX_POINT('',#714);
#224=VERTEX_POINT('',#718);
#225=VERTEX_POINT('',#720);
#226=VERTEX_POINT('',#722);
#227=VERTEX_POINT('',#726);
#228=VERTEX_POINT('',#728);
#229=VERTEX_POINT('',#732);
#230=VERTEX_POINT('',#734);
#231=VERTEX_POINT('',#738);
#232=VERTEX_POINT('',#740);
#233=VERTEX_POINT('',#742);
#234=VERTEX_POINT('',#744);
#235=VERTEX_POINT('',#746);
#236=VERTEX_POINT('',#748);
#237=VERTEX_POINT('',#752);
#238=VERTEX_POINT('',#759);
#239=VERTEX_POINT('',#761);
#240=VERTEX_POINT('',#765);
#241=VERTEX_POINT('',#767);
#242=VERTEX_POINT('',#771);
#243=VERTEX_POINT('',#773);
#244=VERTEX_POINT('',#777);
#245=VERTEX_POINT('',#781);
#246=VERTEX_POINT('',#787);
#247=VERTEX_POINT('',#789);
#248=VERTEX_POINT('',#793);
#249=VERTEX_POINT('',#797);
#250=VERTEX_POINT('',#803);
#251=VERTEX_POINT('',#804);
#252=VERTEX_POINT('',#809);
#253=VERTEX_POINT('',#813);
#254=EDGE_CURVE('',#210,#211,#198,.T.);
#255=EDGE_CURVE('',#211,#212,#86,.T.);
#256=EDGE_CURVE('',#212,#213,#199,.T.);
#257=EDGE_CURVE('',#213,#210,#87,.T.);
#258=EDGE_CURVE('',#214,#211,#88,.T.);
#259=EDGE_CURVE('',#215,#214,#89,.T.);
#260=EDGE_CURVE('',#215,#212,#90,.T.);
#261=EDGE_CURVE('',#210,#216,#91,.T.);
#262=EDGE_CURVE('',#216,#217,#92,.T.);
#263=EDGE_CURVE('',#217,#218,#93,.T.);
#264=EDGE_CURVE('',#218,#219,#94,.T.);
#265=EDGE_CURVE('',#219,#220,#95,.T.);
#266=EDGE_CURVE('',#220,#221,#96,.T.);
#267=EDGE_CURVE('',#221,#222,#97,.T.);
#268=EDGE_CURVE('',#214,#222,#200,.T.);
#269=EDGE_CURVE('',#222,#223,#98,.T.);
#270=EDGE_CURVE('',#223,#215,#201,.T.);
#271=EDGE_CURVE('',#224,#221,#99,.T.);
#272=EDGE_CURVE('',#225,#224,#100,.T.);
#273=EDGE_CURVE('',#226,#225,#101,.T.);
#274=EDGE_CURVE('',#226,#223,#102,.T.);
#275=EDGE_CURVE('',#225,#227,#202,.T.);
#276=EDGE_CURVE('',#227,#228,#103,.T.);
#277=EDGE_CURVE('',#228,#226,#203,.T.);
#278=EDGE_CURVE('',#229,#227,#104,.T.);
#279=EDGE_CURVE('',#230,#229,#105,.T.);
#280=EDGE_CURVE('',#230,#228,#106,.T.);
#281=EDGE_CURVE('',#224,#231,#107,.T.);
#282=EDGE_CURVE('',#231,#232,#108,.T.);
#283=EDGE_CURVE('',#232,#233,#109,.T.);
#284=EDGE_CURVE('',#233,#234,#110,.T.);
#285=EDGE_CURVE('',#234,#235,#111,.T.);
#286=EDGE_CURVE('',#235,#236,#112,.T.);
#287=EDGE_CURVE('',#229,#236,#204,.T.);
#288=EDGE_CURVE('',#236,#237,#113,.T.);
#289=EDGE_CURVE('',#237,#230,#205,.T.);
#290=EDGE_CURVE('',#213,#237,#114,.T.);
#291=EDGE_CURVE('',#216,#235,#115,.T.);
#292=EDGE_CURVE('',#235,#238,#206,.T.);
#293=EDGE_CURVE('',#238,#239,#116,.T.);
#294=EDGE_CURVE('',#216,#239,#207,.F.);
#295=EDGE_CURVE('',#221,#240,#208,.T.);
#296=EDGE_CURVE('',#240,#241,#117,.T.);
#297=EDGE_CURVE('',#224,#241,#209,.F.);
#298=EDGE_CURVE('',#240,#242,#118,.T.);
#299=EDGE_CURVE('',#243,#242,#119,.T.);
#300=EDGE_CURVE('',#241,#243,#120,.T.);
#301=EDGE_CURVE('',#244,#243,#121,.T.);
#302=EDGE_CURVE('',#231,#244,#122,.T.);
#303=EDGE_CURVE('',#220,#245,#123,.T.);
#304=EDGE_CURVE('',#242,#245,#124,.T.);
#305=EDGE_CURVE('',#245,#244,#125,.T.);
#306=EDGE_CURVE('',#238,#246,#126,.T.);
#307=EDGE_CURVE('',#247,#246,#127,.T.);
#308=EDGE_CURVE('',#239,#247,#128,.T.);
#309=EDGE_CURVE('',#248,#247,#129,.T.);
#310=EDGE_CURVE('',#217,#248,#130,.T.);
#311=EDGE_CURVE('',#234,#249,#131,.T.);
#312=EDGE_CURVE('',#246,#249,#132,.T.);
#313=EDGE_CURVE('',#249,#248,#133,.T.);
#314=EDGE_CURVE('',#250,#251,#134,.T.);
#315=EDGE_CURVE('',#251,#233,#135,.T.);
#316=EDGE_CURVE('',#250,#232,#136,.T.);
#317=EDGE_CURVE('',#252,#250,#137,.T.);
#318=EDGE_CURVE('',#252,#219,#138,.T.);
#319=EDGE_CURVE('',#253,#252,#139,.T.);
#320=EDGE_CURVE('',#253,#218,#140,.T.);
#321=EDGE_CURVE('',#251,#253,#141,.T.);
#322=ORIENTED_EDGE('',*,*,#254,.T.);
#323=ORIENTED_EDGE('',*,*,#255,.T.);
#324=ORIENTED_EDGE('',*,*,#256,.T.);
#325=ORIENTED_EDGE('',*,*,#257,.T.);
#326=ORIENTED_EDGE('',*,*,#255,.F.);
#327=ORIENTED_EDGE('',*,*,#258,.F.);
#328=ORIENTED_EDGE('',*,*,#259,.F.);
#329=ORIENTED_EDGE('',*,*,#260,.T.);
#330=ORIENTED_EDGE('',*,*,#254,.F.);
#331=ORIENTED_EDGE('',*,*,#261,.T.);
#332=ORIENTED_EDGE('',*,*,#262,.T.);
#333=ORIENTED_EDGE('',*,*,#263,.T.);
#334=ORIENTED_EDGE('',*,*,#264,.T.);
#335=ORIENTED_EDGE('',*,*,#265,.T.);
#336=ORIENTED_EDGE('',*,*,#266,.T.);
#337=ORIENTED_EDGE('',*,*,#267,.T.);
#338=ORIENTED_EDGE('',*,*,#268,.F.);
#339=ORIENTED_EDGE('',*,*,#258,.T.);
#340=ORIENTED_EDGE('',*,*,#268,.T.);
#341=ORIENTED_EDGE('',*,*,#269,.T.);
#342=ORIENTED_EDGE('',*,*,#270,.T.);
#343=ORIENTED_EDGE('',*,*,#259,.T.);
#344=ORIENTED_EDGE('',*,*,#269,.F.);
#345=ORIENTED_EDGE('',*,*,#267,.F.);
#346=ORIENTED_EDGE('',*,*,#271,.F.);
#347=ORIENTED_EDGE('',*,*,#272,.F.);
#348=ORIENTED_EDGE('',*,*,#273,.F.);
#349=ORIENTED_EDGE('',*,*,#274,.T.);
#350=ORIENTED_EDGE('',*,*,#275,.T.);
#351=ORIENTED_EDGE('',*,*,#276,.T.);
#352=ORIENTED_EDGE('',*,*,#277,.T.);
#353=ORIENTED_EDGE('',*,*,#273,.T.);
#354=ORIENTED_EDGE('',*,*,#276,.F.);
#355=ORIENTED_EDGE('',*,*,#278,.F.);
#356=ORIENTED_EDGE('',*,*,#279,.F.);
#357=ORIENTED_EDGE('',*,*,#280,.T.);
#358=ORIENTED_EDGE('',*,*,#275,.F.);
#359=ORIENTED_EDGE('',*,*,#272,.T.);
#360=ORIENTED_EDGE('',*,*,#281,.T.);
#361=ORIENTED_EDGE('',*,*,#282,.T.);
#362=ORIENTED_EDGE('',*,*,#283,.T.);
#363=ORIENTED_EDGE('',*,*,#284,.T.);
#364=ORIENTED_EDGE('',*,*,#285,.T.);
#365=ORIENTED_EDGE('',*,*,#286,.T.);
#366=ORIENTED_EDGE('',*,*,#287,.F.);
#367=ORIENTED_EDGE('',*,*,#278,.T.);
#368=ORIENTED_EDGE('',*,*,#287,.T.);
#369=ORIENTED_EDGE('',*,*,#288,.T.);
#370=ORIENTED_EDGE('',*,*,#289,.T.);
#371=ORIENTED_EDGE('',*,*,#279,.T.);
#372=ORIENTED_EDGE('',*,*,#257,.F.);
#373=ORIENTED_EDGE('',*,*,#290,.T.);
#374=ORIENTED_EDGE('',*,*,#288,.F.);
#375=ORIENTED_EDGE('',*,*,#286,.F.);
#376=ORIENTED_EDGE('',*,*,#291,.F.);
#377=ORIENTED_EDGE('',*,*,#261,.F.);
#378=ORIENTED_EDGE('',*,*,#292,.T.);
#379=ORIENTED_EDGE('',*,*,#293,.T.);
#380=ORIENTED_EDGE('',*,*,#294,.F.);
#381=ORIENTED_EDGE('',*,*,#291,.T.);
#382=ORIENTED_EDGE('',*,*,#295,.T.);
#383=ORIENTED_EDGE('',*,*,#296,.T.);
#384=ORIENTED_EDGE('',*,*,#297,.F.);
#385=ORIENTED_EDGE('',*,*,#271,.T.);
#386=ORIENTED_EDGE('',*,*,#296,.F.);
#387=ORIENTED_EDGE('',*,*,#298,.T.);
#388=ORIENTED_EDGE('',*,*,#299,.F.);
#389=ORIENTED_EDGE('',*,*,#300,.F.);
#390=ORIENTED_EDGE('',*,*,#281,.F.);
#391=ORIENTED_EDGE('',*,*,#297,.T.);
#392=ORIENTED_EDGE('',*,*,#300,.T.);
#393=ORIENTED_EDGE('',*,*,#301,.F.);
#394=ORIENTED_EDGE('',*,*,#302,.F.);
#395=ORIENTED_EDGE('',*,*,#266,.F.);
#396=ORIENTED_EDGE('',*,*,#303,.T.);
#397=ORIENTED_EDGE('',*,*,#304,.F.);
#398=ORIENTED_EDGE('',*,*,#298,.F.);
#399=ORIENTED_EDGE('',*,*,#295,.F.);
#400=ORIENTED_EDGE('',*,*,#304,.T.);
#401=ORIENTED_EDGE('',*,*,#305,.T.);
#402=ORIENTED_EDGE('',*,*,#301,.T.);
#403=ORIENTED_EDGE('',*,*,#299,.T.);
#404=ORIENTED_EDGE('',*,*,#293,.F.);
#405=ORIENTED_EDGE('',*,*,#306,.T.);
#406=ORIENTED_EDGE('',*,*,#307,.F.);
#407=ORIENTED_EDGE('',*,*,#308,.F.);
#408=ORIENTED_EDGE('',*,*,#262,.F.);
#409=ORIENTED_EDGE('',*,*,#294,.T.);
#410=ORIENTED_EDGE('',*,*,#308,.T.);
#411=ORIENTED_EDGE('',*,*,#309,.F.);
#412=ORIENTED_EDGE('',*,*,#310,.F.);
#413=ORIENTED_EDGE('',*,*,#285,.F.);
#414=ORIENTED_EDGE('',*,*,#311,.T.);
#415=ORIENTED_EDGE('',*,*,#312,.F.);
#416=ORIENTED_EDGE('',*,*,#306,.F.);
#417=ORIENTED_EDGE('',*,*,#292,.F.);
#418=ORIENTED_EDGE('',*,*,#312,.T.);
#419=ORIENTED_EDGE('',*,*,#313,.T.);
#420=ORIENTED_EDGE('',*,*,#309,.T.);
#421=ORIENTED_EDGE('',*,*,#307,.T.);
#422=ORIENTED_EDGE('',*,*,#314,.T.);
#423=ORIENTED_EDGE('',*,*,#315,.T.);
#424=ORIENTED_EDGE('',*,*,#283,.F.);
#425=ORIENTED_EDGE('',*,*,#316,.F.);
#426=ORIENTED_EDGE('',*,*,#317,.T.);
#427=ORIENTED_EDGE('',*,*,#316,.T.);
#428=ORIENTED_EDGE('',*,*,#282,.F.);
#429=ORIENTED_EDGE('',*,*,#302,.T.);
#430=ORIENTED_EDGE('',*,*,#305,.F.);
#431=ORIENTED_EDGE('',*,*,#303,.F.);
#432=ORIENTED_EDGE('',*,*,#265,.F.);
#433=ORIENTED_EDGE('',*,*,#318,.F.);
#434=ORIENTED_EDGE('',*,*,#319,.T.);
#435=ORIENTED_EDGE('',*,*,#318,.T.);
#436=ORIENTED_EDGE('',*,*,#264,.F.);
#437=ORIENTED_EDGE('',*,*,#320,.F.);
#438=ORIENTED_EDGE('',*,*,#321,.T.);
#439=ORIENTED_EDGE('',*,*,#320,.T.);
#440=ORIENTED_EDGE('',*,*,#263,.F.);
#441=ORIENTED_EDGE('',*,*,#310,.T.);
#442=ORIENTED_EDGE('',*,*,#313,.F.);
#443=ORIENTED_EDGE('',*,*,#311,.F.);
#444=ORIENTED_EDGE('',*,*,#284,.F.);
#445=ORIENTED_EDGE('',*,*,#315,.F.);
#446=ORIENTED_EDGE('',*,*,#256,.F.);
#447=ORIENTED_EDGE('',*,*,#260,.F.);
#448=ORIENTED_EDGE('',*,*,#270,.F.);
#449=ORIENTED_EDGE('',*,*,#274,.F.);
#450=ORIENTED_EDGE('',*,*,#277,.F.);
#451=ORIENTED_EDGE('',*,*,#280,.F.);
#452=ORIENTED_EDGE('',*,*,#289,.F.);
#453=ORIENTED_EDGE('',*,*,#290,.F.);
#454=ORIENTED_EDGE('',*,*,#321,.F.);
#455=ORIENTED_EDGE('',*,*,#314,.F.);
#456=ORIENTED_EDGE('',*,*,#317,.F.);
#457=ORIENTED_EDGE('',*,*,#319,.F.);
#458=CYLINDRICAL_SURFACE('',#512,2.);
#459=CYLINDRICAL_SURFACE('',#518,2.);
#460=CYLINDRICAL_SURFACE('',#521,2.);
#461=CYLINDRICAL_SURFACE('',#527,2.);
#462=CYLINDRICAL_SURFACE('',#530,2.);
#463=CYLINDRICAL_SURFACE('',#533,2.);
#464=ADVANCED_FACE('',(#35),#458,.T.);
#465=ADVANCED_FACE('',(#36),#16,.T.);
#466=ADVANCED_FACE('',(#37),#17,.T.);
#467=ADVANCED_FACE('',(#38),#459,.T.);
#468=ADVANCED_FACE('',(#39),#18,.T.);
#469=ADVANCED_FACE('',(#40),#460,.T.);
#470=ADVANCED_FACE('',(#41),#19,.T.);
#471=ADVANCED_FACE('',(#42),#20,.T.);
#472=ADVANCED_FACE('',(#43),#461,.T.);
#473=ADVANCED_FACE('',(#44),#21,.T.);
#474=ADVANCED_FACE('',(#45),#462,.F.);
#475=ADVANCED_FACE('',(#46),#463,.F.);
#476=ADVANCED_FACE('',(#47),#22,.T.);
#477=ADVANCED_FACE('',(#48),#23,.T.);
#478=ADVANCED_FACE('',(#49),#24,.T.);
#479=ADVANCED_FACE('',(#50),#25,.T.);
#480=ADVANCED_FACE('',(#51),#26,.T.);
#481=ADVANCED_FACE('',(#52),#27,.T.);
#482=ADVANCED_FACE('',(#53),#28,.T.);
#483=ADVANCED_FACE('',(#54),#29,.T.);
#484=ADVANCED_FACE('',(#55),#30,.T.);
#485=ADVANCED_FACE('',(#56),#31,.T.);
#486=ADVANCED_FACE('',(#57),#32,.T.);
#487=ADVANCED_FACE('',(#58),#33,.T.);
#488=ADVANCED_FACE('',(#59,#15),#34,.F.);
#489=CLOSED_SHELL('',(#464,#465,#466,#467,#468,#469,#470,#471,#472,#473,
#474,#475,#476,#477,#478,#479,#480,#481,#482,#483,#484,#485,#486,#487,#488));
#490=DERIVED_UNIT_ELEMENT(#493,1.);
#491=DERIVED_UNIT_ELEMENT(#824,-3.);
#492=DIMENSIONAL_EXPONENTS(0.,1.,0.,0.,0.,0.,0.);
#493=(
CONVERSION_BASED_UNIT('gram',#495)
MASS_UNIT()
NAMED_UNIT(#492)
);
#494=(
MASS_UNIT()
NAMED_UNIT(*)
SI_UNIT(.KILO.,.GRAM.)
);
#495=MASS_MEASURE_WITH_UNIT(MASS_MEASURE(0.001),#494);
#496=DERIVED_UNIT((#490,#491));
#497=MEASURE_REPRESENTATION_ITEM('density measure',
POSITIVE_RATIO_MEASURE(1.),#496);
#498=PROPERTY_DEFINITION_REPRESENTATION(#503,#500);
#499=PROPERTY_DEFINITION_REPRESENTATION(#504,#501);
#500=REPRESENTATION('material name',(#502),#821);
#501=REPRESENTATION('density',(#497),#821);
#502=DESCRIPTIVE_REPRESENTATION_ITEM('\X2\4E00822C\X0\','\X2\4E00822C\X0\');
#503=PROPERTY_DEFINITION('material property','material name',#831);
#504=PROPERTY_DEFINITION('material property','density of part',#831);
#505=DATE_TIME_ROLE('creation_date');
#506=APPLIED_DATE_AND_TIME_ASSIGNMENT(#507,#505,(#831));
#507=DATE_AND_TIME(#508,#509);
#508=CALENDAR_DATE(2025,5,9);
#509=LOCAL_TIME(0,0,0.,#510);
#510=COORDINATED_UNIVERSAL_TIME_OFFSET(0,0,.BEHIND.);
#511=AXIS2_PLACEMENT_3D('',#681,#549,#550);
#512=AXIS2_PLACEMENT_3D('',#682,#551,#552);
#513=AXIS2_PLACEMENT_3D('',#685,#553,#554);
#514=AXIS2_PLACEMENT_3D('',#689,#556,#557);
#515=AXIS2_PLACEMENT_3D('',#691,#559,#560);
#516=AXIS2_PLACEMENT_3D('',#697,#564,#565);
#517=AXIS2_PLACEMENT_3D('',#712,#573,#574);
#518=AXIS2_PLACEMENT_3D('',#713,#575,#576);
#519=AXIS2_PLACEMENT_3D('',#716,#578,#579);
#520=AXIS2_PLACEMENT_3D('',#717,#580,#581);
#521=AXIS2_PLACEMENT_3D('',#725,#586,#587);
#522=AXIS2_PLACEMENT_3D('',#727,#588,#589);
#523=AXIS2_PLACEMENT_3D('',#730,#591,#592);
#524=AXIS2_PLACEMENT_3D('',#731,#593,#594);
#525=AXIS2_PLACEMENT_3D('',#737,#598,#599);
#526=AXIS2_PLACEMENT_3D('',#750,#606,#607);
#527=AXIS2_PLACEMENT_3D('',#751,#608,#609);
#528=AXIS2_PLACEMENT_3D('',#754,#611,#612);
#529=AXIS2_PLACEMENT_3D('',#755,#613,#614);
#530=AXIS2_PLACEMENT_3D('',#758,#617,#618);
#531=AXIS2_PLACEMENT_3D('',#760,#619,#620);
#532=AXIS2_PLACEMENT_3D('',#763,#622,#623);
#533=AXIS2_PLACEMENT_3D('',#764,#624,#625);
#534=AXIS2_PLACEMENT_3D('',#766,#626,#627);
#535=AXIS2_PLACEMENT_3D('',#769,#629,#630);
#536=AXIS2_PLACEMENT_3D('',#770,#631,#632);
#537=AXIS2_PLACEMENT_3D('',#776,#636,#637);
#538=AXIS2_PLACEMENT_3D('',#780,#640,#641);
#539=AXIS2_PLACEMENT_3D('',#784,#644,#645);
#540=AXIS2_PLACEMENT_3D('',#786,#647,#648);
#541=AXIS2_PLACEMENT_3D('',#792,#652,#653);
#542=AXIS2_PLACEMENT_3D('',#796,#656,#657);
#543=AXIS2_PLACEMENT_3D('',#800,#660,#661);
#544=AXIS2_PLACEMENT_3D('',#802,#663,#664);
#545=AXIS2_PLACEMENT_3D('',#808,#668,#669);
#546=AXIS2_PLACEMENT_3D('',#812,#672,#673);
#547=AXIS2_PLACEMENT_3D('',#816,#676,#677);
#548=AXIS2_PLACEMENT_3D('',#818,#679,#680);
#549=DIRECTION('axis',(0.,0.,1.));
#550=DIRECTION('refdir',(1.,0.,0.));
#551=DIRECTION('center_axis',(0.,1.,0.));
#552=DIRECTION('ref_axis',(-0.707106781186548,0.,-0.707106781186548));
#553=DIRECTION('center_axis',(0.,-1.,0.));
#554=DIRECTION('ref_axis',(-0.707106781186548,0.,-0.707106781186548));
#555=DIRECTION('',(0.,-1.,0.));
#556=DIRECTION('center_axis',(0.,1.,0.));
#557=DIRECTION('ref_axis',(-0.707106781186548,0.,-0.707106781186548));
#558=DIRECTION('',(0.,1.,0.));
#559=DIRECTION('center_axis',(0.,0.,-1.));
#560=DIRECTION('ref_axis',(-1.,0.,0.));
#561=DIRECTION('',(-1.,0.,0.));
#562=DIRECTION('',(0.,1.,0.));
#563=DIRECTION('',(-1.,0.,0.));
#564=DIRECTION('center_axis',(0.,1.,0.));
#565=DIRECTION('ref_axis',(0.,0.,1.));
#566=DIRECTION('',(4.44089209850063E-16,0.,1.));
#567=DIRECTION('',(1.,0.,4.11193712824132E-17));
#568=DIRECTION('',(-3.70074341541719E-16,0.,-1.));
#569=DIRECTION('',(1.,0.,0.));
#570=DIRECTION('',(3.70074341541719E-16,0.,1.));
#571=DIRECTION('',(1.,0.,4.11193712824132E-17));
#572=DIRECTION('',(-3.70074341541719E-16,0.,-1.));
#573=DIRECTION('center_axis',(0.,-1.,0.));
#574=DIRECTION('ref_axis',(0.707106781186548,0.,-0.707106781186548));
#575=DIRECTION('center_axis',(0.,1.,0.));
#576=DIRECTION('ref_axis',(0.707106781186548,0.,-0.707106781186548));
#577=DIRECTION('',(0.,-1.,0.));
#578=DIRECTION('center_axis',(0.,1.,0.));
#579=DIRECTION('ref_axis',(0.707106781186548,0.,-0.707106781186548));
#580=DIRECTION('center_axis',(1.,0.,-3.70074341541719E-16));
#581=DIRECTION('ref_axis',(-3.70074341541719E-16,0.,-1.));
#582=DIRECTION('',(-3.70074341541719E-16,0.,-1.));
#583=DIRECTION('',(-3.70074341541719E-16,0.,-1.));
#584=DIRECTION('',(0.,1.,0.));
#585=DIRECTION('',(-3.70074341541719E-16,0.,-1.));
#586=DIRECTION('center_axis',(0.,1.,0.));
#587=DIRECTION('ref_axis',(0.707106781186548,0.,0.707106781186547));
#588=DIRECTION('center_axis',(0.,-1.,0.));
#589=DIRECTION('ref_axis',(0.707106781186548,0.,0.707106781186547));
#590=DIRECTION('',(0.,-1.,0.));
#591=DIRECTION('center_axis',(0.,1.,0.));
#592=DIRECTION('ref_axis',(0.707106781186548,0.,0.707106781186547));
#593=DIRECTION('center_axis',(7.40148683083438E-17,0.,1.));
#594=DIRECTION('ref_axis',(1.,0.,-7.40148683083438E-17));
#595=DIRECTION('',(1.,0.,-7.40148683083438E-17));
#596=DIRECTION('',(0.,1.,0.));
#597=DIRECTION('',(1.,0.,-7.40148683083438E-17));
#598=DIRECTION('center_axis',(0.,1.,0.));
#599=DIRECTION('ref_axis',(0.,0.,1.));
#600=DIRECTION('',(-1.,0.,-1.2335811384724E-16));
#601=DIRECTION('',(3.70074341541719E-16,0.,1.));
#602=DIRECTION('',(-1.,0.,1.11022302462516E-16));
#603=DIRECTION('',(-3.70074341541719E-16,0.,-1.));
#604=DIRECTION('',(-1.,0.,-1.2335811384724E-16));
#605=DIRECTION('',(4.44089209850063E-16,0.,1.));
#606=DIRECTION('center_axis',(0.,-1.,0.));
#607=DIRECTION('ref_axis',(-0.707106781186548,0.,0.707106781186548));
#608=DIRECTION('center_axis',(0.,1.,0.));
#609=DIRECTION('ref_axis',(-0.707106781186548,0.,0.707106781186548));
#610=DIRECTION('',(0.,-1.,0.));
#611=DIRECTION('center_axis',(0.,1.,0.));
#612=DIRECTION('ref_axis',(-0.707106781186548,0.,0.707106781186548));
#613=DIRECTION('center_axis',(-1.,0.,4.44089209850063E-16));
#614=DIRECTION('ref_axis',(4.44089209850063E-16,0.,1.));
#615=DIRECTION('',(4.44089209850063E-16,0.,1.));
#616=DIRECTION('',(4.44089209850063E-16,0.,1.));
#617=DIRECTION('center_axis',(2.58191401075618E-16,0.,1.));
#618=DIRECTION('ref_axis',(0.625,-0.7806247497998,0.));
#619=DIRECTION('center_axis',(-1.2335811384724E-16,0.,1.));
#620=DIRECTION('ref_axis',(0.625,-0.7806247497998,0.));
#621=DIRECTION('',(-2.58191401075618E-16,0.,-1.));
#622=DIRECTION('center_axis',(4.11193712824132E-17,0.,-1.));
#623=DIRECTION('ref_axis',(0.625,-0.7806247497998,0.));
#624=DIRECTION('center_axis',(-5.16382802151236E-16,0.,-1.));
#625=DIRECTION('ref_axis',(-0.625,-0.780624749799799,5.55111512312578E-16));
#626=DIRECTION('center_axis',(4.11193712824132E-17,0.,-1.));
#627=DIRECTION('ref_axis',(-0.625,-0.780624749799799,5.55111512312578E-16));
#628=DIRECTION('',(5.16382802151236E-16,0.,1.));
#629=DIRECTION('center_axis',(-1.2335811384724E-16,0.,1.));
#630=DIRECTION('ref_axis',(-0.625,-0.780624749799799,5.55111512312578E-16));
#631=DIRECTION('center_axis',(1.,0.,-5.16382802151236E-16));
#632=DIRECTION('ref_axis',(-5.16382802151236E-16,0.,-1.));
#633=DIRECTION('',(0.,1.,0.));
#634=DIRECTION('',(-5.16382802151236E-16,0.,-1.));
#635=DIRECTION('',(0.,1.,0.));
#636=DIRECTION('center_axis',(-1.2335811384724E-16,0.,1.));
#637=DIRECTION('ref_axis',(1.,0.,1.2335811384724E-16));
#638=DIRECTION('',(1.,0.,1.2335811384724E-16));
#639=DIRECTION('',(0.,1.,0.));
#640=DIRECTION('center_axis',(4.11193712824132E-17,0.,-1.));
#641=DIRECTION('ref_axis',(-1.,0.,-4.11193712824132E-17));
#642=DIRECTION('',(0.,1.,0.));
#643=DIRECTION('',(-1.,0.,-4.11193712824132E-17));
#644=DIRECTION('center_axis',(0.,1.,0.));
#645=DIRECTION('ref_axis',(0.,0.,1.));
#646=DIRECTION('',(3.70074341541719E-16,0.,1.));
#647=DIRECTION('center_axis',(-1.,0.,2.58191401075618E-16));
#648=DIRECTION('ref_axis',(2.58191401075618E-16,0.,1.));
#649=DIRECTION('',(0.,1.,0.));
#650=DIRECTION('',(2.58191401075618E-16,0.,1.));
#651=DIRECTION('',(0.,1.,0.));
#652=DIRECTION('center_axis',(4.11193712824132E-17,0.,-1.));
#653=DIRECTION('ref_axis',(-1.,0.,-4.11193712824132E-17));
#654=DIRECTION('',(-1.,0.,-4.11193712824132E-17));
#655=DIRECTION('',(0.,1.,0.));
#656=DIRECTION('center_axis',(-1.2335811384724E-16,0.,1.));
#657=DIRECTION('ref_axis',(1.,0.,1.2335811384724E-16));
#658=DIRECTION('',(0.,1.,0.));
#659=DIRECTION('',(1.,0.,1.2335811384724E-16));
#660=DIRECTION('center_axis',(0.,1.,0.));
#661=DIRECTION('ref_axis',(0.,0.,1.));
#662=DIRECTION('',(-3.70074341541719E-16,0.,-1.));
#663=DIRECTION('center_axis',(-1.11022302462516E-16,0.,-1.));
#664=DIRECTION('ref_axis',(-1.,0.,1.11022302462516E-16));
#665=DIRECTION('',(-1.,0.,1.11022302462516E-16));
#666=DIRECTION('',(0.,1.,0.));
#667=DIRECTION('',(0.,1.,0.));
#668=DIRECTION('center_axis',(-1.,0.,3.70074341541719E-16));
#669=DIRECTION('ref_axis',(3.70074341541719E-16,0.,1.));
#670=DIRECTION('',(3.70074341541719E-16,0.,1.));
#671=DIRECTION('',(0.,1.,0.));
#672=DIRECTION('center_axis',(0.,0.,1.));
#673=DIRECTION('ref_axis',(1.,0.,0.));
#674=DIRECTION('',(1.,0.,0.));
#675=DIRECTION('',(0.,1.,0.));
#676=DIRECTION('center_axis',(1.,0.,-3.70074341541719E-16));
#677=DIRECTION('ref_axis',(-3.70074341541719E-16,0.,-1.));
#678=DIRECTION('',(-3.70074341541719E-16,0.,-1.));
#679=DIRECTION('center_axis',(0.,1.,0.));
#680=DIRECTION('ref_axis',(0.,0.,1.));
#681=CARTESIAN_POINT('',(0.,0.,0.));
#682=CARTESIAN_POINT('Origin',(-5.5,0.,-5.5));
#683=CARTESIAN_POINT('',(-7.5,2.,-5.5));
#684=CARTESIAN_POINT('',(-5.5,2.,-7.5));
#685=CARTESIAN_POINT('Origin',(-5.5,2.,-5.5));
#686=CARTESIAN_POINT('',(-5.5,0.,-7.5));
#687=CARTESIAN_POINT('',(-5.5,0.,-7.5));
#688=CARTESIAN_POINT('',(-7.5,0.,-5.5));
#689=CARTESIAN_POINT('Origin',(-5.5,0.,-5.5));
#690=CARTESIAN_POINT('',(-7.5,0.,-5.5));
#691=CARTESIAN_POINT('Origin',(7.5,0.,-7.5));
#692=CARTESIAN_POINT('',(5.5,2.,-7.5));
#693=CARTESIAN_POINT('',(7.5,2.,-7.5));
#694=CARTESIAN_POINT('',(5.5,0.,-7.5));
#695=CARTESIAN_POINT('',(5.5,0.,-7.5));
#696=CARTESIAN_POINT('',(7.5,0.,-7.5));
#697=CARTESIAN_POINT('Origin',(1.11022302462516E-15,2.,0.));
#698=CARTESIAN_POINT('',(-7.5,2.,-2.15));
#699=CARTESIAN_POINT('',(-7.5,2.,-7.5));
#700=CARTESIAN_POINT('',(-5.,2.,-2.15));
#701=CARTESIAN_POINT('',(-2.5,2.,-2.15));
#702=CARTESIAN_POINT('',(-5.,2.,-3.));
#703=CARTESIAN_POINT('',(-5.,2.,3.));
#704=CARTESIAN_POINT('',(5.,2.,-3.));
#705=CARTESIAN_POINT('',(-5.,2.,-3.));
#706=CARTESIAN_POINT('',(5.,2.,-2.15));
#707=CARTESIAN_POINT('',(5.,2.,-3.));
#708=CARTESIAN_POINT('',(7.5,2.,-2.15));
#709=CARTESIAN_POINT('',(3.375,2.,-2.15));
#710=CARTESIAN_POINT('',(7.5,2.,-5.5));
#711=CARTESIAN_POINT('',(7.5,2.,7.5));
#712=CARTESIAN_POINT('Origin',(5.5,2.,-5.5));
#713=CARTESIAN_POINT('Origin',(5.5,0.,-5.5));
#714=CARTESIAN_POINT('',(7.5,0.,-5.5));
#715=CARTESIAN_POINT('',(7.5,0.,-5.5));
#716=CARTESIAN_POINT('Origin',(5.5,0.,-5.5));
#717=CARTESIAN_POINT('Origin',(7.5,0.,7.5));
#718=CARTESIAN_POINT('',(7.5,2.,2.15));
#719=CARTESIAN_POINT('',(7.5,2.,7.5));
#720=CARTESIAN_POINT('',(7.5,2.,5.5));
#721=CARTESIAN_POINT('',(7.5,2.,7.5));
#722=CARTESIAN_POINT('',(7.5,0.,5.5));
#723=CARTESIAN_POINT('',(7.5,0.,5.5));
#724=CARTESIAN_POINT('',(7.5,0.,7.5));
#725=CARTESIAN_POINT('Origin',(5.5,0.,5.5));
#726=CARTESIAN_POINT('',(5.5,2.,7.5));
#727=CARTESIAN_POINT('Origin',(5.5,2.,5.5));
#728=CARTESIAN_POINT('',(5.5,0.,7.5));
#729=CARTESIAN_POINT('',(5.5,0.,7.5));
#730=CARTESIAN_POINT('Origin',(5.5,0.,5.5));
#731=CARTESIAN_POINT('Origin',(-7.5,0.,7.5));
#732=CARTESIAN_POINT('',(-5.5,2.,7.5));
#733=CARTESIAN_POINT('',(-7.5,2.,7.5));
#734=CARTESIAN_POINT('',(-5.5,0.,7.5));
#735=CARTESIAN_POINT('',(-5.5,0.,7.5));
#736=CARTESIAN_POINT('',(-7.5,0.,7.5));
#737=CARTESIAN_POINT('Origin',(1.11022302462516E-15,2.,0.));
#738=CARTESIAN_POINT('',(5.,2.,2.15));
#739=CARTESIAN_POINT('',(2.5,2.,2.15));
#740=CARTESIAN_POINT('',(5.,2.,3.));
#741=CARTESIAN_POINT('',(5.,2.,-3.));
#742=CARTESIAN_POINT('',(-5.,2.,3.));
#743=CARTESIAN_POINT('',(5.,2.,3.));
#744=CARTESIAN_POINT('',(-5.,2.,2.15));
#745=CARTESIAN_POINT('',(-5.,2.,3.));
#746=CARTESIAN_POINT('',(-7.5,2.,2.15));
#747=CARTESIAN_POINT('',(-3.375,2.,2.15));
#748=CARTESIAN_POINT('',(-7.5,2.,5.5));
#749=CARTESIAN_POINT('',(-7.5,2.,-7.5));
#750=CARTESIAN_POINT('Origin',(-5.5,2.,5.5));
#751=CARTESIAN_POINT('Origin',(-5.5,0.,5.5));
#752=CARTESIAN_POINT('',(-7.5,0.,5.5));
#753=CARTESIAN_POINT('',(-7.5,0.,5.5));
#754=CARTESIAN_POINT('Origin',(-5.5,0.,5.5));
#755=CARTESIAN_POINT('Origin',(-7.5,0.,-7.5));
#756=CARTESIAN_POINT('',(-7.5,0.,-7.5));
#757=CARTESIAN_POINT('',(-7.5,2.,-7.5));
#758=CARTESIAN_POINT('Origin',(-8.75,3.5612494995996,-7.5));
#759=CARTESIAN_POINT('',(-6.75,3.5612494995996,2.15));
#760=CARTESIAN_POINT('Origin',(-8.75,3.5612494995996,2.15));
#761=CARTESIAN_POINT('',(-6.75,3.5612494995996,-2.15));
#762=CARTESIAN_POINT('',(-6.75,3.5612494995996,-7.5));
#763=CARTESIAN_POINT('Origin',(-8.75,3.5612494995996,-2.15));
#764=CARTESIAN_POINT('Origin',(8.75,3.5612494995996,7.5));
#765=CARTESIAN_POINT('',(6.75,3.5612494995996,-2.15));
#766=CARTESIAN_POINT('Origin',(8.75,3.5612494995996,-2.15));
#767=CARTESIAN_POINT('',(6.75,3.5612494995996,2.15));
#768=CARTESIAN_POINT('',(6.75000000000001,3.5612494995996,7.5));
#769=CARTESIAN_POINT('Origin',(8.75,3.5612494995996,2.15));
#770=CARTESIAN_POINT('Origin',(6.75,2.,2.15));
#771=CARTESIAN_POINT('',(6.75,9.,-2.15));
#772=CARTESIAN_POINT('',(6.75,2.,-2.15));
#773=CARTESIAN_POINT('',(6.75,9.,2.15));
#774=CARTESIAN_POINT('',(6.75,9.,2.15));
#775=CARTESIAN_POINT('',(6.75,2.,2.15));
#776=CARTESIAN_POINT('Origin',(5.,2.,2.15));
#777=CARTESIAN_POINT('',(5.,9.,2.15));
#778=CARTESIAN_POINT('',(-6.75,9.,2.15));
#779=CARTESIAN_POINT('',(5.,2.,2.15));
#780=CARTESIAN_POINT('Origin',(6.75,2.,-2.15));
#781=CARTESIAN_POINT('',(5.,9.,-2.15));
#782=CARTESIAN_POINT('',(5.,2.,-2.15));
#783=CARTESIAN_POINT('',(6.75,9.,-2.15));
#784=CARTESIAN_POINT('Origin',(5.875,9.,2.77555756156289E-16));
#785=CARTESIAN_POINT('',(5.,9.,-3.));
#786=CARTESIAN_POINT('Origin',(-6.75,2.,-2.15));
#787=CARTESIAN_POINT('',(-6.75,9.,2.15));
#788=CARTESIAN_POINT('',(-6.75,2.,2.15));
#789=CARTESIAN_POINT('',(-6.75,9.,-2.15));
#790=CARTESIAN_POINT('',(-6.75,9.,-2.15));
#791=CARTESIAN_POINT('',(-6.75,2.,-2.15));
#792=CARTESIAN_POINT('Origin',(-5.,2.,-2.15));
#793=CARTESIAN_POINT('',(-5.,9.,-2.15));
#794=CARTESIAN_POINT('',(6.75,9.,-2.15));
#795=CARTESIAN_POINT('',(-5.,2.,-2.15));
#796=CARTESIAN_POINT('Origin',(-6.75,2.,2.15));
#797=CARTESIAN_POINT('',(-5.,9.,2.15));
#798=CARTESIAN_POINT('',(-5.,2.,2.15));
#799=CARTESIAN_POINT('',(-6.75,9.,2.15));
#800=CARTESIAN_POINT('Origin',(-5.875,9.,-1.11022302462516E-15));
#801=CARTESIAN_POINT('',(-5.,9.,3.));
#802=CARTESIAN_POINT('Origin',(5.,0.,3.));
#803=CARTESIAN_POINT('',(5.,0.,3.));
#804=CARTESIAN_POINT('',(-5.,0.,3.));
#805=CARTESIAN_POINT('',(5.,0.,3.));
#806=CARTESIAN_POINT('',(-5.,0.,3.));
#807=CARTESIAN_POINT('',(5.,0.,3.));
#808=CARTESIAN_POINT('Origin',(5.,0.,-3.));
#809=CARTESIAN_POINT('',(5.,0.,-3.));
#810=CARTESIAN_POINT('',(5.,0.,-3.));
#811=CARTESIAN_POINT('',(5.,0.,-3.));
#812=CARTESIAN_POINT('Origin',(-5.,0.,-3.));
#813=CARTESIAN_POINT('',(-5.,0.,-3.));
#814=CARTESIAN_POINT('',(-5.,0.,-3.));
#815=CARTESIAN_POINT('',(-5.,0.,-3.));
#816=CARTESIAN_POINT('Origin',(-5.,0.,3.));
#817=CARTESIAN_POINT('',(-5.,0.,3.));
#818=CARTESIAN_POINT('Origin',(1.11022302462516E-15,0.,5.55111512312578E-16));
#819=UNCERTAINTY_MEASURE_WITH_UNIT(LENGTH_MEASURE(0.01),#823,
'DISTANCE_ACCURACY_VALUE',
'Maximum model space distance between geometric entities at asserted c
onnectivities');
#820=UNCERTAINTY_MEASURE_WITH_UNIT(LENGTH_MEASURE(0.01),#823,
'DISTANCE_ACCURACY_VALUE',
'Maximum model space distance between geometric entities at asserted c
onnectivities');
#821=(
GEOMETRIC_REPRESENTATION_CONTEXT(3)
GLOBAL_UNCERTAINTY_ASSIGNED_CONTEXT((#819))
GLOBAL_UNIT_ASSIGNED_CONTEXT((#823,#825,#826))
REPRESENTATION_CONTEXT('','3D')
);
#822=(
GEOMETRIC_REPRESENTATION_CONTEXT(3)
GLOBAL_UNCERTAINTY_ASSIGNED_CONTEXT((#820))
GLOBAL_UNIT_ASSIGNED_CONTEXT((#823,#825,#826))
REPRESENTATION_CONTEXT('','3D')
);
#823=(
LENGTH_UNIT()
NAMED_UNIT(*)
SI_UNIT(.MILLI.,.METRE.)
);
#824=(
LENGTH_UNIT()
NAMED_UNIT(*)
SI_UNIT(.CENTI.,.METRE.)
);
#825=(
NAMED_UNIT(*)
PLANE_ANGLE_UNIT()
SI_UNIT($,.RADIAN.)
);
#826=(
NAMED_UNIT(*)
SI_UNIT($,.STERADIAN.)
SOLID_ANGLE_UNIT()
);
#827=SHAPE_DEFINITION_REPRESENTATION(#828,#829);
#828=PRODUCT_DEFINITION_SHAPE('',$,#831);
#829=SHAPE_REPRESENTATION('',(#511),#821);
#830=PRODUCT_DEFINITION_CONTEXT('part definition',#835,'design');
#831=PRODUCT_DEFINITION('LRA_case3','LRA_case3',#832,#830);
#832=PRODUCT_DEFINITION_FORMATION('',$,#837);
#833=PRODUCT_RELATED_PRODUCT_CATEGORY('LRA_case3','LRA_case3',(#837));
#834=APPLICATION_PROTOCOL_DEFINITION('international standard',
'automotive_design',2009,#835);
#835=APPLICATION_CONTEXT(
'Core Data for Automotive Mechanical Design Process');
#836=PRODUCT_CONTEXT('part definition',#835,'mechanical');
#837=PRODUCT('LRA_case3','LRA_case3',$,(#836));
#838=PRESENTATION_STYLE_ASSIGNMENT((#839));
#839=SURFACE_STYLE_USAGE(.BOTH.,#842);
#840=SURFACE_STYLE_RENDERING_WITH_PROPERTIES($,#846,(#841));
#841=SURFACE_STYLE_TRANSPARENT(0.);
#842=SURFACE_SIDE_STYLE('',(#843,#840));
#843=SURFACE_STYLE_FILL_AREA(#844);
#844=FILL_AREA_STYLE('',(#845));
#845=FILL_AREA_STYLE_COLOUR('',#846);
#846=COLOUR_RGB('',0.749019607843137,0.749019607843137,0.749019607843137);
ENDSEC;
END-ISO-10303-21;
