ISO-10303-21;
HEADER;
/* Generated by software containing ST-Developer
 * from STEP Tools, Inc. (www.steptools.com) 
 */

FILE_DESCRIPTION(
/* description */ (''),
/* implementation_level */ '2;1');

FILE_NAME(
/* name */ 'LRA_case1.stp',
/* time_stamp */ '2025-09-05T19:32:51+09:00',
/* author */ ('ka0n7'),
/* organization */ (''),
/* preprocessor_version */ 'ST-DEVELOPER v20.1',
/* originating_system */ 'Autodesk Inventor 2026',
/* authorisation */ '');

FILE_SCHEMA (('AUTOMOTIVE_DESIGN { 1 0 10303 214 3 1 1 }'));
ENDSEC;

DATA;
#10=MECHANICAL_DESIGN_GEOMETRIC_PRESENTATION_REPRESENTATION('',(#13),#902);
#11=SHAPE_REPRESENTATION_RELATIONSHIP('SRR','None',#909,#12);
#12=ADVANCED_BREP_SHAPE_REPRESENTATION('',(#14),#901);
#13=STYLED_ITEM('',(#918),#14);
#14=MANIFOLD_SOLID_BREP('\X2\30BD30EA30C330C9\X0\1',#533);
#15=ELLIPSE('',#575,1.4142135623731,1.);
#16=ELLIPSE('',#577,1.4142135623731,1.);
#17=ELLIPSE('',#582,1.41421356237309,1.);
#18=ELLIPSE('',#585,1.4142135623731,1.);
#19=FACE_BOUND('',#70,.T.);
#20=FACE_BOUND('',#96,.T.);
#21=PLANE('',#559);
#22=PLANE('',#560);
#23=PLANE('',#566);
#24=PLANE('',#569);
#25=PLANE('',#572);
#26=PLANE('',#587);
#27=PLANE('',#588);
#28=PLANE('',#589);
#29=PLANE('',#590);
#30=PLANE('',#591);
#31=PLANE('',#592);
#32=PLANE('',#593);
#33=PLANE('',#594);
#34=PLANE('',#595);
#35=PLANE('',#596);
#36=PLANE('',#597);
#37=PLANE('',#598);
#38=PLANE('',#599);
#39=FACE_OUTER_BOUND('',#67,.T.);
#40=FACE_OUTER_BOUND('',#68,.T.);
#41=FACE_OUTER_BOUND('',#69,.T.);
#42=FACE_OUTER_BOUND('',#71,.T.);
#43=FACE_OUTER_BOUND('',#72,.T.);
#44=FACE_OUTER_BOUND('',#73,.T.);
#45=FACE_OUTER_BOUND('',#74,.T.);
#46=FACE_OUTER_BOUND('',#75,.T.);
#47=FACE_OUTER_BOUND('',#76,.T.);
#48=FACE_OUTER_BOUND('',#77,.T.);
#49=FACE_OUTER_BOUND('',#78,.T.);
#50=FACE_OUTER_BOUND('',#79,.T.);
#51=FACE_OUTER_BOUND('',#80,.T.);
#52=FACE_OUTER_BOUND('',#81,.T.);
#53=FACE_OUTER_BOUND('',#82,.T.);
#54=FACE_OUTER_BOUND('',#83,.T.);
#55=FACE_OUTER_BOUND('',#84,.T.);
#56=FACE_OUTER_BOUND('',#85,.T.);
#57=FACE_OUTER_BOUND('',#86,.T.);
#58=FACE_OUTER_BOUND('',#87,.T.);
#59=FACE_OUTER_BOUND('',#88,.T.);
#60=FACE_OUTER_BOUND('',#89,.T.);
#61=FACE_OUTER_BOUND('',#90,.T.);
#62=FACE_OUTER_BOUND('',#91,.T.);
#63=FACE_OUTER_BOUND('',#92,.T.);
#64=FACE_OUTER_BOUND('',#93,.T.);
#65=FACE_OUTER_BOUND('',#94,.T.);
#66=FACE_OUTER_BOUND('',#95,.T.);
#67=EDGE_LOOP('',(#347,#348,#349,#350));
#68=EDGE_LOOP('',(#351,#352,#353,#354));
#69=EDGE_LOOP('',(#355,#356,#357,#358,#359,#360,#361,#362));
#70=EDGE_LOOP('',(#363,#364,#365,#366,#367,#368,#369,#370,#371,#372,#373,
#374));
#71=EDGE_LOOP('',(#375,#376,#377,#378));
#72=EDGE_LOOP('',(#379,#380,#381,#382));
#73=EDGE_LOOP('',(#383,#384,#385,#386));
#74=EDGE_LOOP('',(#387,#388,#389,#390));
#75=EDGE_LOOP('',(#391,#392,#393,#394));
#76=EDGE_LOOP('',(#395,#396,#397,#398));
#77=EDGE_LOOP('',(#399,#400,#401,#402));
#78=EDGE_LOOP('',(#403,#404,#405,#406));
#79=EDGE_LOOP('',(#407,#408,#409,#410));
#80=EDGE_LOOP('',(#411,#412,#413,#414));
#81=EDGE_LOOP('',(#415,#416,#417,#418));
#82=EDGE_LOOP('',(#419,#420,#421,#422));
#83=EDGE_LOOP('',(#423,#424,#425,#426));
#84=EDGE_LOOP('',(#427,#428,#429,#430));
#85=EDGE_LOOP('',(#431,#432,#433,#434));
#86=EDGE_LOOP('',(#435,#436,#437,#438));
#87=EDGE_LOOP('',(#439,#440,#441,#442));
#88=EDGE_LOOP('',(#443,#444,#445,#446));
#89=EDGE_LOOP('',(#447,#448,#449,#450));
#90=EDGE_LOOP('',(#451,#452,#453,#454));
#91=EDGE_LOOP('',(#455,#456,#457,#458,#459,#460,#461,#462,#463,#464));
#92=EDGE_LOOP('',(#465,#466,#467,#468));
#93=EDGE_LOOP('',(#469,#470,#471,#472,#473,#474,#475,#476,#477,#478));
#94=EDGE_LOOP('',(#479,#480,#481,#482));
#95=EDGE_LOOP('',(#483,#484,#485,#486,#487,#488,#489,#490));
#96=EDGE_LOOP('',(#491,#492,#493,#494));
#97=LINE('',#754,#155);
#98=LINE('',#757,#156);
#99=LINE('',#760,#157);
#100=LINE('',#762,#158);
#101=LINE('',#763,#159);
#102=LINE('',#766,#160);
#103=LINE('',#770,#161);
#104=LINE('',#774,#162);
#105=LINE('',#778,#163);
#106=LINE('',#780,#164);
#107=LINE('',#782,#165);
#108=LINE('',#784,#166);
#109=LINE('',#786,#167);
#110=LINE('',#788,#168);
#111=LINE('',#790,#169);
#112=LINE('',#792,#170);
#113=LINE('',#794,#171);
#114=LINE('',#796,#172);
#115=LINE('',#798,#173);
#116=LINE('',#799,#174);
#117=LINE('',#802,#175);
#118=LINE('',#806,#176);
#119=LINE('',#807,#177);
#120=LINE('',#810,#178);
#121=LINE('',#814,#179);
#122=LINE('',#815,#180);
#123=LINE('',#818,#181);
#124=LINE('',#821,#182);
#125=LINE('',#826,#183);
#126=LINE('',#830,#184);
#127=LINE('',#834,#185);
#128=LINE('',#839,#186);
#129=LINE('',#846,#187);
#130=LINE('',#849,#188);
#131=LINE('',#852,#189);
#132=LINE('',#854,#190);
#133=LINE('',#855,#191);
#134=LINE('',#858,#192);
#135=LINE('',#859,#193);
#136=LINE('',#862,#194);
#137=LINE('',#863,#195);
#138=LINE('',#865,#196);
#139=LINE('',#868,#197);
#140=LINE('',#870,#198);
#141=LINE('',#871,#199);
#142=LINE('',#874,#200);
#143=LINE('',#875,#201);
#144=LINE('',#878,#202);
#145=LINE('',#879,#203);
#146=LINE('',#881,#204);
#147=LINE('',#885,#205);
#148=LINE('',#886,#206);
#149=LINE('',#887,#207);
#150=LINE('',#890,#208);
#151=LINE('',#891,#209);
#152=LINE('',#894,#210);
#153=LINE('',#895,#211);
#154=LINE('',#897,#212);
#155=VECTOR('',#606,10.);
#156=VECTOR('',#609,10.);
#157=VECTOR('',#612,10.);
#158=VECTOR('',#613,10.);
#159=VECTOR('',#614,10.);
#160=VECTOR('',#617,10.);
#161=VECTOR('',#620,10.);
#162=VECTOR('',#623,10.);
#163=VECTOR('',#626,10.);
#164=VECTOR('',#627,10.);
#165=VECTOR('',#628,10.);
#166=VECTOR('',#629,10.);
#167=VECTOR('',#630,10.);
#168=VECTOR('',#631,10.);
#169=VECTOR('',#632,10.);
#170=VECTOR('',#633,10.);
#171=VECTOR('',#634,10.);
#172=VECTOR('',#635,10.);
#173=VECTOR('',#636,10.);
#174=VECTOR('',#637,10.);
#175=VECTOR('',#640,10.);
#176=VECTOR('',#645,10.);
#177=VECTOR('',#646,10.);
#178=VECTOR('',#649,10.);
#179=VECTOR('',#654,10.);
#180=VECTOR('',#655,10.);
#181=VECTOR('',#658,10.);
#182=VECTOR('',#663,10.);
#183=VECTOR('',#668,10.);
#184=VECTOR('',#673,10.);
#185=VECTOR('',#678,10.);
#186=VECTOR('',#683,10.);
#187=VECTOR('',#692,10.);
#188=VECTOR('',#697,10.);
#189=VECTOR('',#700,10.);
#190=VECTOR('',#701,10.);
#191=VECTOR('',#702,10.);
#192=VECTOR('',#705,10.);
#193=VECTOR('',#706,10.);
#194=VECTOR('',#709,10.);
#195=VECTOR('',#710,10.);
#196=VECTOR('',#713,10.);
#197=VECTOR('',#716,10.);
#198=VECTOR('',#717,10.);
#199=VECTOR('',#718,10.);
#200=VECTOR('',#721,10.);
#201=VECTOR('',#722,10.);
#202=VECTOR('',#725,10.);
#203=VECTOR('',#726,10.);
#204=VECTOR('',#729,10.);
#205=VECTOR('',#732,10.);
#206=VECTOR('',#733,10.);
#207=VECTOR('',#734,10.);
#208=VECTOR('',#737,10.);
#209=VECTOR('',#738,10.);
#210=VECTOR('',#741,10.);
#211=VECTOR('',#742,10.);
#212=VECTOR('',#745,10.);
#213=CIRCLE('',#557,2.);
#214=CIRCLE('',#558,2.);
#215=CIRCLE('',#561,2.);
#216=CIRCLE('',#562,2.);
#217=CIRCLE('',#563,2.);
#218=CIRCLE('',#565,2.);
#219=CIRCLE('',#568,2.);
#220=CIRCLE('',#571,2.);
#221=CIRCLE('',#574,1.);
#222=CIRCLE('',#579,1.);
#223=CIRCLE('',#581,1.);
#224=CIRCLE('',#584,1.);
#225=VERTEX_POINT('',#750);
#226=VERTEX_POINT('',#751);
#227=VERTEX_POINT('',#753);
#228=VERTEX_POINT('',#755);
#229=VERTEX_POINT('',#759);
#230=VERTEX_POINT('',#761);
#231=VERTEX_POINT('',#765);
#232=VERTEX_POINT('',#767);
#233=VERTEX_POINT('',#769);
#234=VERTEX_POINT('',#771);
#235=VERTEX_POINT('',#773);
#236=VERTEX_POINT('',#776);
#237=VERTEX_POINT('',#777);
#238=VERTEX_POINT('',#779);
#239=VERTEX_POINT('',#781);
#240=VERTEX_POINT('',#783);
#241=VERTEX_POINT('',#785);
#242=VERTEX_POINT('',#787);
#243=VERTEX_POINT('',#789);
#244=VERTEX_POINT('',#791);
#245=VERTEX_POINT('',#793);
#246=VERTEX_POINT('',#795);
#247=VERTEX_POINT('',#797);
#248=VERTEX_POINT('',#801);
#249=VERTEX_POINT('',#805);
#250=VERTEX_POINT('',#809);
#251=VERTEX_POINT('',#813);
#252=VERTEX_POINT('',#817);
#253=VERTEX_POINT('',#823);
#254=VERTEX_POINT('',#825);
#255=VERTEX_POINT('',#829);
#256=VERTEX_POINT('',#833);
#257=VERTEX_POINT('',#837);
#258=VERTEX_POINT('',#838);
#259=VERTEX_POINT('',#843);
#260=VERTEX_POINT('',#845);
#261=VERTEX_POINT('',#851);
#262=VERTEX_POINT('',#853);
#263=VERTEX_POINT('',#857);
#264=VERTEX_POINT('',#861);
#265=VERTEX_POINT('',#867);
#266=VERTEX_POINT('',#869);
#267=VERTEX_POINT('',#873);
#268=VERTEX_POINT('',#877);
#269=VERTEX_POINT('',#883);
#270=VERTEX_POINT('',#884);
#271=VERTEX_POINT('',#889);
#272=VERTEX_POINT('',#893);
#273=EDGE_CURVE('',#225,#226,#213,.T.);
#274=EDGE_CURVE('',#226,#227,#97,.T.);
#275=EDGE_CURVE('',#227,#228,#214,.T.);
#276=EDGE_CURVE('',#228,#225,#98,.T.);
#277=EDGE_CURVE('',#229,#226,#99,.T.);
#278=EDGE_CURVE('',#230,#229,#100,.T.);
#279=EDGE_CURVE('',#230,#227,#101,.T.);
#280=EDGE_CURVE('',#225,#231,#102,.T.);
#281=EDGE_CURVE('',#232,#231,#215,.T.);
#282=EDGE_CURVE('',#232,#233,#103,.T.);
#283=EDGE_CURVE('',#234,#233,#216,.T.);
#284=EDGE_CURVE('',#234,#235,#104,.T.);
#285=EDGE_CURVE('',#229,#235,#217,.T.);
#286=EDGE_CURVE('',#236,#237,#105,.T.);
#287=EDGE_CURVE('',#238,#237,#106,.T.);
#288=EDGE_CURVE('',#239,#238,#107,.T.);
#289=EDGE_CURVE('',#240,#239,#108,.T.);
#290=EDGE_CURVE('',#240,#241,#109,.T.);
#291=EDGE_CURVE('',#241,#242,#110,.T.);
#292=EDGE_CURVE('',#242,#243,#111,.T.);
#293=EDGE_CURVE('',#244,#243,#112,.T.);
#294=EDGE_CURVE('',#245,#244,#113,.T.);
#295=EDGE_CURVE('',#246,#245,#114,.T.);
#296=EDGE_CURVE('',#246,#247,#115,.T.);
#297=EDGE_CURVE('',#247,#236,#116,.T.);
#298=EDGE_CURVE('',#235,#248,#117,.T.);
#299=EDGE_CURVE('',#248,#230,#218,.T.);
#300=EDGE_CURVE('',#249,#234,#118,.T.);
#301=EDGE_CURVE('',#249,#248,#119,.T.);
#302=EDGE_CURVE('',#233,#250,#120,.T.);
#303=EDGE_CURVE('',#250,#249,#219,.T.);
#304=EDGE_CURVE('',#251,#232,#121,.T.);
#305=EDGE_CURVE('',#251,#250,#122,.T.);
#306=EDGE_CURVE('',#231,#252,#123,.T.);
#307=EDGE_CURVE('',#252,#251,#220,.T.);
#308=EDGE_CURVE('',#228,#252,#124,.T.);
#309=EDGE_CURVE('',#237,#253,#221,.T.);
#310=EDGE_CURVE('',#253,#254,#125,.T.);
#311=EDGE_CURVE('',#254,#238,#15,.T.);
#312=EDGE_CURVE('',#254,#255,#126,.T.);
#313=EDGE_CURVE('',#255,#239,#16,.T.);
#314=EDGE_CURVE('',#255,#256,#127,.T.);
#315=EDGE_CURVE('',#240,#256,#222,.F.);
#316=EDGE_CURVE('',#257,#258,#128,.T.);
#317=EDGE_CURVE('',#246,#258,#223,.F.);
#318=EDGE_CURVE('',#245,#257,#17,.T.);
#319=EDGE_CURVE('',#243,#259,#224,.T.);
#320=EDGE_CURVE('',#259,#260,#129,.T.);
#321=EDGE_CURVE('',#260,#244,#18,.T.);
#322=EDGE_CURVE('',#260,#257,#130,.T.);
#323=EDGE_CURVE('',#257,#261,#131,.T.);
#324=EDGE_CURVE('',#262,#261,#132,.T.);
#325=EDGE_CURVE('',#258,#262,#133,.T.);
#326=EDGE_CURVE('',#260,#263,#134,.T.);
#327=EDGE_CURVE('',#261,#263,#135,.T.);
#328=EDGE_CURVE('',#259,#264,#136,.T.);
#329=EDGE_CURVE('',#263,#264,#137,.T.);
#330=EDGE_CURVE('',#264,#262,#138,.T.);
#331=EDGE_CURVE('',#253,#265,#139,.T.);
#332=EDGE_CURVE('',#266,#265,#140,.T.);
#333=EDGE_CURVE('',#254,#266,#141,.T.);
#334=EDGE_CURVE('',#267,#266,#142,.T.);
#335=EDGE_CURVE('',#255,#267,#143,.T.);
#336=EDGE_CURVE('',#268,#267,#144,.T.);
#337=EDGE_CURVE('',#256,#268,#145,.T.);
#338=EDGE_CURVE('',#265,#268,#146,.T.);
#339=EDGE_CURVE('',#269,#270,#147,.T.);
#340=EDGE_CURVE('',#270,#247,#148,.T.);
#341=EDGE_CURVE('',#269,#242,#149,.T.);
#342=EDGE_CURVE('',#271,#269,#150,.T.);
#343=EDGE_CURVE('',#271,#241,#151,.T.);
#344=EDGE_CURVE('',#272,#271,#152,.T.);
#345=EDGE_CURVE('',#272,#236,#153,.T.);
#346=EDGE_CURVE('',#270,#272,#154,.T.);
#347=ORIENTED_EDGE('',*,*,#273,.T.);
#348=ORIENTED_EDGE('',*,*,#274,.T.);
#349=ORIENTED_EDGE('',*,*,#275,.T.);
#350=ORIENTED_EDGE('',*,*,#276,.T.);
#351=ORIENTED_EDGE('',*,*,#274,.F.);
#352=ORIENTED_EDGE('',*,*,#277,.F.);
#353=ORIENTED_EDGE('',*,*,#278,.F.);
#354=ORIENTED_EDGE('',*,*,#279,.T.);
#355=ORIENTED_EDGE('',*,*,#273,.F.);
#356=ORIENTED_EDGE('',*,*,#280,.T.);
#357=ORIENTED_EDGE('',*,*,#281,.F.);
#358=ORIENTED_EDGE('',*,*,#282,.T.);
#359=ORIENTED_EDGE('',*,*,#283,.F.);
#360=ORIENTED_EDGE('',*,*,#284,.T.);
#361=ORIENTED_EDGE('',*,*,#285,.F.);
#362=ORIENTED_EDGE('',*,*,#277,.T.);
#363=ORIENTED_EDGE('',*,*,#286,.T.);
#364=ORIENTED_EDGE('',*,*,#287,.F.);
#365=ORIENTED_EDGE('',*,*,#288,.F.);
#366=ORIENTED_EDGE('',*,*,#289,.F.);
#367=ORIENTED_EDGE('',*,*,#290,.T.);
#368=ORIENTED_EDGE('',*,*,#291,.T.);
#369=ORIENTED_EDGE('',*,*,#292,.T.);
#370=ORIENTED_EDGE('',*,*,#293,.F.);
#371=ORIENTED_EDGE('',*,*,#294,.F.);
#372=ORIENTED_EDGE('',*,*,#295,.F.);
#373=ORIENTED_EDGE('',*,*,#296,.T.);
#374=ORIENTED_EDGE('',*,*,#297,.T.);
#375=ORIENTED_EDGE('',*,*,#285,.T.);
#376=ORIENTED_EDGE('',*,*,#298,.T.);
#377=ORIENTED_EDGE('',*,*,#299,.T.);
#378=ORIENTED_EDGE('',*,*,#278,.T.);
#379=ORIENTED_EDGE('',*,*,#298,.F.);
#380=ORIENTED_EDGE('',*,*,#284,.F.);
#381=ORIENTED_EDGE('',*,*,#300,.F.);
#382=ORIENTED_EDGE('',*,*,#301,.T.);
#383=ORIENTED_EDGE('',*,*,#283,.T.);
#384=ORIENTED_EDGE('',*,*,#302,.T.);
#385=ORIENTED_EDGE('',*,*,#303,.T.);
#386=ORIENTED_EDGE('',*,*,#300,.T.);
#387=ORIENTED_EDGE('',*,*,#302,.F.);
#388=ORIENTED_EDGE('',*,*,#282,.F.);
#389=ORIENTED_EDGE('',*,*,#304,.F.);
#390=ORIENTED_EDGE('',*,*,#305,.T.);
#391=ORIENTED_EDGE('',*,*,#281,.T.);
#392=ORIENTED_EDGE('',*,*,#306,.T.);
#393=ORIENTED_EDGE('',*,*,#307,.T.);
#394=ORIENTED_EDGE('',*,*,#304,.T.);
#395=ORIENTED_EDGE('',*,*,#276,.F.);
#396=ORIENTED_EDGE('',*,*,#308,.T.);
#397=ORIENTED_EDGE('',*,*,#306,.F.);
#398=ORIENTED_EDGE('',*,*,#280,.F.);
#399=ORIENTED_EDGE('',*,*,#287,.T.);
#400=ORIENTED_EDGE('',*,*,#309,.T.);
#401=ORIENTED_EDGE('',*,*,#310,.T.);
#402=ORIENTED_EDGE('',*,*,#311,.T.);
#403=ORIENTED_EDGE('',*,*,#288,.T.);
#404=ORIENTED_EDGE('',*,*,#311,.F.);
#405=ORIENTED_EDGE('',*,*,#312,.T.);
#406=ORIENTED_EDGE('',*,*,#313,.T.);
#407=ORIENTED_EDGE('',*,*,#314,.T.);
#408=ORIENTED_EDGE('',*,*,#315,.F.);
#409=ORIENTED_EDGE('',*,*,#289,.T.);
#410=ORIENTED_EDGE('',*,*,#313,.F.);
#411=ORIENTED_EDGE('',*,*,#316,.T.);
#412=ORIENTED_EDGE('',*,*,#317,.F.);
#413=ORIENTED_EDGE('',*,*,#295,.T.);
#414=ORIENTED_EDGE('',*,*,#318,.T.);
#415=ORIENTED_EDGE('',*,*,#293,.T.);
#416=ORIENTED_EDGE('',*,*,#319,.T.);
#417=ORIENTED_EDGE('',*,*,#320,.T.);
#418=ORIENTED_EDGE('',*,*,#321,.T.);
#419=ORIENTED_EDGE('',*,*,#294,.T.);
#420=ORIENTED_EDGE('',*,*,#321,.F.);
#421=ORIENTED_EDGE('',*,*,#322,.T.);
#422=ORIENTED_EDGE('',*,*,#318,.F.);
#423=ORIENTED_EDGE('',*,*,#316,.F.);
#424=ORIENTED_EDGE('',*,*,#323,.T.);
#425=ORIENTED_EDGE('',*,*,#324,.F.);
#426=ORIENTED_EDGE('',*,*,#325,.F.);
#427=ORIENTED_EDGE('',*,*,#322,.F.);
#428=ORIENTED_EDGE('',*,*,#326,.T.);
#429=ORIENTED_EDGE('',*,*,#327,.F.);
#430=ORIENTED_EDGE('',*,*,#323,.F.);
#431=ORIENTED_EDGE('',*,*,#320,.F.);
#432=ORIENTED_EDGE('',*,*,#328,.T.);
#433=ORIENTED_EDGE('',*,*,#329,.F.);
#434=ORIENTED_EDGE('',*,*,#326,.F.);
#435=ORIENTED_EDGE('',*,*,#327,.T.);
#436=ORIENTED_EDGE('',*,*,#329,.T.);
#437=ORIENTED_EDGE('',*,*,#330,.T.);
#438=ORIENTED_EDGE('',*,*,#324,.T.);
#439=ORIENTED_EDGE('',*,*,#310,.F.);
#440=ORIENTED_EDGE('',*,*,#331,.T.);
#441=ORIENTED_EDGE('',*,*,#332,.F.);
#442=ORIENTED_EDGE('',*,*,#333,.F.);
#443=ORIENTED_EDGE('',*,*,#312,.F.);
#444=ORIENTED_EDGE('',*,*,#333,.T.);
#445=ORIENTED_EDGE('',*,*,#334,.F.);
#446=ORIENTED_EDGE('',*,*,#335,.F.);
#447=ORIENTED_EDGE('',*,*,#314,.F.);
#448=ORIENTED_EDGE('',*,*,#335,.T.);
#449=ORIENTED_EDGE('',*,*,#336,.F.);
#450=ORIENTED_EDGE('',*,*,#337,.F.);
#451=ORIENTED_EDGE('',*,*,#338,.T.);
#452=ORIENTED_EDGE('',*,*,#336,.T.);
#453=ORIENTED_EDGE('',*,*,#334,.T.);
#454=ORIENTED_EDGE('',*,*,#332,.T.);
#455=ORIENTED_EDGE('',*,*,#339,.T.);
#456=ORIENTED_EDGE('',*,*,#340,.T.);
#457=ORIENTED_EDGE('',*,*,#296,.F.);
#458=ORIENTED_EDGE('',*,*,#317,.T.);
#459=ORIENTED_EDGE('',*,*,#325,.T.);
#460=ORIENTED_EDGE('',*,*,#330,.F.);
#461=ORIENTED_EDGE('',*,*,#328,.F.);
#462=ORIENTED_EDGE('',*,*,#319,.F.);
#463=ORIENTED_EDGE('',*,*,#292,.F.);
#464=ORIENTED_EDGE('',*,*,#341,.F.);
#465=ORIENTED_EDGE('',*,*,#342,.T.);
#466=ORIENTED_EDGE('',*,*,#341,.T.);
#467=ORIENTED_EDGE('',*,*,#291,.F.);
#468=ORIENTED_EDGE('',*,*,#343,.F.);
#469=ORIENTED_EDGE('',*,*,#344,.T.);
#470=ORIENTED_EDGE('',*,*,#343,.T.);
#471=ORIENTED_EDGE('',*,*,#290,.F.);
#472=ORIENTED_EDGE('',*,*,#315,.T.);
#473=ORIENTED_EDGE('',*,*,#337,.T.);
#474=ORIENTED_EDGE('',*,*,#338,.F.);
#475=ORIENTED_EDGE('',*,*,#331,.F.);
#476=ORIENTED_EDGE('',*,*,#309,.F.);
#477=ORIENTED_EDGE('',*,*,#286,.F.);
#478=ORIENTED_EDGE('',*,*,#345,.F.);
#479=ORIENTED_EDGE('',*,*,#346,.T.);
#480=ORIENTED_EDGE('',*,*,#345,.T.);
#481=ORIENTED_EDGE('',*,*,#297,.F.);
#482=ORIENTED_EDGE('',*,*,#340,.F.);
#483=ORIENTED_EDGE('',*,*,#275,.F.);
#484=ORIENTED_EDGE('',*,*,#279,.F.);
#485=ORIENTED_EDGE('',*,*,#299,.F.);
#486=ORIENTED_EDGE('',*,*,#301,.F.);
#487=ORIENTED_EDGE('',*,*,#303,.F.);
#488=ORIENTED_EDGE('',*,*,#305,.F.);
#489=ORIENTED_EDGE('',*,*,#307,.F.);
#490=ORIENTED_EDGE('',*,*,#308,.F.);
#491=ORIENTED_EDGE('',*,*,#346,.F.);
#492=ORIENTED_EDGE('',*,*,#339,.F.);
#493=ORIENTED_EDGE('',*,*,#342,.F.);
#494=ORIENTED_EDGE('',*,*,#344,.F.);
#495=CYLINDRICAL_SURFACE('',#556,2.);
#496=CYLINDRICAL_SURFACE('',#564,2.);
#497=CYLINDRICAL_SURFACE('',#567,2.);
#498=CYLINDRICAL_SURFACE('',#570,2.);
#499=CYLINDRICAL_SURFACE('',#573,1.);
#500=CYLINDRICAL_SURFACE('',#576,1.);
#501=CYLINDRICAL_SURFACE('',#578,1.);
#502=CYLINDRICAL_SURFACE('',#580,1.);
#503=CYLINDRICAL_SURFACE('',#583,1.);
#504=CYLINDRICAL_SURFACE('',#586,1.);
#505=ADVANCED_FACE('',(#39),#495,.T.);
#506=ADVANCED_FACE('',(#40),#21,.T.);
#507=ADVANCED_FACE('',(#41,#19),#22,.T.);
#508=ADVANCED_FACE('',(#42),#496,.T.);
#509=ADVANCED_FACE('',(#43),#23,.T.);
#510=ADVANCED_FACE('',(#44),#497,.T.);
#511=ADVANCED_FACE('',(#45),#24,.T.);
#512=ADVANCED_FACE('',(#46),#498,.T.);
#513=ADVANCED_FACE('',(#47),#25,.T.);
#514=ADVANCED_FACE('',(#48),#499,.F.);
#515=ADVANCED_FACE('',(#49),#500,.F.);
#516=ADVANCED_FACE('',(#50),#501,.F.);
#517=ADVANCED_FACE('',(#51),#502,.F.);
#518=ADVANCED_FACE('',(#52),#503,.F.);
#519=ADVANCED_FACE('',(#53),#504,.F.);
#520=ADVANCED_FACE('',(#54),#26,.T.);
#521=ADVANCED_FACE('',(#55),#27,.T.);
#522=ADVANCED_FACE('',(#56),#28,.T.);
#523=ADVANCED_FACE('',(#57),#29,.T.);
#524=ADVANCED_FACE('',(#58),#30,.T.);
#525=ADVANCED_FACE('',(#59),#31,.T.);
#526=ADVANCED_FACE('',(#60),#32,.T.);
#527=ADVANCED_FACE('',(#61),#33,.T.);
#528=ADVANCED_FACE('',(#62),#34,.T.);
#529=ADVANCED_FACE('',(#63),#35,.T.);
#530=ADVANCED_FACE('',(#64),#36,.T.);
#531=ADVANCED_FACE('',(#65),#37,.T.);
#532=ADVANCED_FACE('',(#66,#20),#38,.F.);
#533=CLOSED_SHELL('',(#505,#506,#507,#508,#509,#510,#511,#512,#513,#514,
#515,#516,#517,#518,#519,#520,#521,#522,#523,#524,#525,#526,#527,#528,#529,
#530,#531,#532));
#534=DERIVED_UNIT_ELEMENT(#537,1.);
#535=DERIVED_UNIT_ELEMENT(#904,-3.);
#536=DIMENSIONAL_EXPONENTS(0.,1.,0.,0.,0.,0.,0.);
#537=(
CONVERSION_BASED_UNIT('gram',#539)
MASS_UNIT()
NAMED_UNIT(#536)
);
#538=(
MASS_UNIT()
NAMED_UNIT(*)
SI_UNIT(.KILO.,.GRAM.)
);
#539=MASS_MEASURE_WITH_UNIT(MASS_MEASURE(0.001),#538);
#540=DERIVED_UNIT((#534,#535));
#541=MEASURE_REPRESENTATION_ITEM('density measure',
POSITIVE_RATIO_MEASURE(1.),#540);
#542=PROPERTY_DEFINITION_REPRESENTATION(#547,#544);
#543=PROPERTY_DEFINITION_REPRESENTATION(#548,#545);
#544=REPRESENTATION('material name',(#546),#901);
#545=REPRESENTATION('density',(#541),#901);
#546=DESCRIPTIVE_REPRESENTATION_ITEM('\X2\4E00822C\X0\','\X2\4E00822C\X0\');
#547=PROPERTY_DEFINITION('material property','material name',#911);
#548=PROPERTY_DEFINITION('material property','density of part',#911);
#549=DATE_TIME_ROLE('creation_date');
#550=APPLIED_DATE_AND_TIME_ASSIGNMENT(#551,#549,(#911));
#551=DATE_AND_TIME(#552,#553);
#552=CALENDAR_DATE(2025,5,9);
#553=LOCAL_TIME(0,0,0.,#554);
#554=COORDINATED_UNIVERSAL_TIME_OFFSET(0,0,.BEHIND.);
#555=AXIS2_PLACEMENT_3D('',#748,#600,#601);
#556=AXIS2_PLACEMENT_3D('',#749,#602,#603);
#557=AXIS2_PLACEMENT_3D('',#752,#604,#605);
#558=AXIS2_PLACEMENT_3D('',#756,#607,#608);
#559=AXIS2_PLACEMENT_3D('',#758,#610,#611);
#560=AXIS2_PLACEMENT_3D('',#764,#615,#616);
#561=AXIS2_PLACEMENT_3D('',#768,#618,#619);
#562=AXIS2_PLACEMENT_3D('',#772,#621,#622);
#563=AXIS2_PLACEMENT_3D('',#775,#624,#625);
#564=AXIS2_PLACEMENT_3D('',#800,#638,#639);
#565=AXIS2_PLACEMENT_3D('',#803,#641,#642);
#566=AXIS2_PLACEMENT_3D('',#804,#643,#644);
#567=AXIS2_PLACEMENT_3D('',#808,#647,#648);
#568=AXIS2_PLACEMENT_3D('',#811,#650,#651);
#569=AXIS2_PLACEMENT_3D('',#812,#652,#653);
#570=AXIS2_PLACEMENT_3D('',#816,#656,#657);
#571=AXIS2_PLACEMENT_3D('',#819,#659,#660);
#572=AXIS2_PLACEMENT_3D('',#820,#661,#662);
#573=AXIS2_PLACEMENT_3D('',#822,#664,#665);
#574=AXIS2_PLACEMENT_3D('',#824,#666,#667);
#575=AXIS2_PLACEMENT_3D('',#827,#669,#670);
#576=AXIS2_PLACEMENT_3D('',#828,#671,#672);
#577=AXIS2_PLACEMENT_3D('',#831,#674,#675);
#578=AXIS2_PLACEMENT_3D('',#832,#676,#677);
#579=AXIS2_PLACEMENT_3D('',#835,#679,#680);
#580=AXIS2_PLACEMENT_3D('',#836,#681,#682);
#581=AXIS2_PLACEMENT_3D('',#840,#684,#685);
#582=AXIS2_PLACEMENT_3D('',#841,#686,#687);
#583=AXIS2_PLACEMENT_3D('',#842,#688,#689);
#584=AXIS2_PLACEMENT_3D('',#844,#690,#691);
#585=AXIS2_PLACEMENT_3D('',#847,#693,#694);
#586=AXIS2_PLACEMENT_3D('',#848,#695,#696);
#587=AXIS2_PLACEMENT_3D('',#850,#698,#699);
#588=AXIS2_PLACEMENT_3D('',#856,#703,#704);
#589=AXIS2_PLACEMENT_3D('',#860,#707,#708);
#590=AXIS2_PLACEMENT_3D('',#864,#711,#712);
#591=AXIS2_PLACEMENT_3D('',#866,#714,#715);
#592=AXIS2_PLACEMENT_3D('',#872,#719,#720);
#593=AXIS2_PLACEMENT_3D('',#876,#723,#724);
#594=AXIS2_PLACEMENT_3D('',#880,#727,#728);
#595=AXIS2_PLACEMENT_3D('',#882,#730,#731);
#596=AXIS2_PLACEMENT_3D('',#888,#735,#736);
#597=AXIS2_PLACEMENT_3D('',#892,#739,#740);
#598=AXIS2_PLACEMENT_3D('',#896,#743,#744);
#599=AXIS2_PLACEMENT_3D('',#898,#746,#747);
#600=DIRECTION('axis',(0.,0.,1.));
#601=DIRECTION('refdir',(1.,0.,0.));
#602=DIRECTION('center_axis',(0.,1.,0.));
#603=DIRECTION('ref_axis',(0.707106781186548,0.,0.707106781186547));
#604=DIRECTION('center_axis',(0.,-1.,0.));
#605=DIRECTION('ref_axis',(0.707106781186548,0.,0.707106781186547));
#606=DIRECTION('',(0.,-1.,0.));
#607=DIRECTION('center_axis',(0.,1.,0.));
#608=DIRECTION('ref_axis',(0.707106781186548,0.,0.707106781186547));
#609=DIRECTION('',(0.,1.,0.));
#610=DIRECTION('center_axis',(7.40148683083438E-17,0.,1.));
#611=DIRECTION('ref_axis',(1.,0.,-7.40148683083438E-17));
#612=DIRECTION('',(1.,0.,-7.40148683083438E-17));
#613=DIRECTION('',(0.,1.,0.));
#614=DIRECTION('',(1.,0.,-7.40148683083438E-17));
#615=DIRECTION('center_axis',(0.,1.,0.));
#616=DIRECTION('ref_axis',(0.,0.,1.));
#617=DIRECTION('',(-4.16333634234434E-16,0.,-1.));
#618=DIRECTION('center_axis',(0.,-1.,0.));
#619=DIRECTION('ref_axis',(0.707106781186548,0.,-0.707106781186548));
#620=DIRECTION('',(-1.,0.,0.));
#621=DIRECTION('center_axis',(0.,-1.,0.));
#622=DIRECTION('ref_axis',(-0.707106781186548,0.,-0.707106781186548));
#623=DIRECTION('',(4.16333634234434E-16,0.,1.));
#624=DIRECTION('center_axis',(0.,-1.,0.));
#625=DIRECTION('ref_axis',(-0.707106781186548,0.,0.707106781186548));
#626=DIRECTION('',(-1.,0.,2.47326911426396E-16));
#627=DIRECTION('',(1.11022302462516E-15,0.,1.));
#628=DIRECTION('',(-1.,0.,1.09923071745065E-16));
#629=DIRECTION('',(3.33066907387547E-15,0.,-1.));
#630=DIRECTION('',(-1.,0.,2.47326911426396E-16));
#631=DIRECTION('',(0.,0.,1.));
#632=DIRECTION('',(1.,0.,-1.64884607617598E-16));
#633=DIRECTION('',(-3.33066907387547E-15,0.,-1.));
#634=DIRECTION('',(1.,0.,-1.09923071745065E-16));
#635=DIRECTION('',(2.22044604925031E-15,0.,1.));
#636=DIRECTION('',(1.,0.,-1.64884607617598E-16));
#637=DIRECTION('',(0.,0.,-1.));
#638=DIRECTION('center_axis',(0.,1.,0.));
#639=DIRECTION('ref_axis',(-0.707106781186548,0.,0.707106781186548));
#640=DIRECTION('',(0.,-1.,0.));
#641=DIRECTION('center_axis',(0.,1.,0.));
#642=DIRECTION('ref_axis',(-0.707106781186548,0.,0.707106781186548));
#643=DIRECTION('center_axis',(-1.,0.,4.16333634234434E-16));
#644=DIRECTION('ref_axis',(4.16333634234434E-16,0.,1.));
#645=DIRECTION('',(0.,1.,0.));
#646=DIRECTION('',(4.16333634234434E-16,0.,1.));
#647=DIRECTION('center_axis',(0.,1.,0.));
#648=DIRECTION('ref_axis',(-0.707106781186548,0.,-0.707106781186548));
#649=DIRECTION('',(0.,-1.,0.));
#650=DIRECTION('center_axis',(0.,1.,0.));
#651=DIRECTION('ref_axis',(-0.707106781186548,0.,-0.707106781186548));
#652=DIRECTION('center_axis',(0.,0.,-1.));
#653=DIRECTION('ref_axis',(-1.,0.,0.));
#654=DIRECTION('',(0.,1.,0.));
#655=DIRECTION('',(-1.,0.,0.));
#656=DIRECTION('center_axis',(0.,1.,0.));
#657=DIRECTION('ref_axis',(0.707106781186548,0.,-0.707106781186548));
#658=DIRECTION('',(0.,-1.,0.));
#659=DIRECTION('center_axis',(0.,1.,0.));
#660=DIRECTION('ref_axis',(0.707106781186548,0.,-0.707106781186548));
#661=DIRECTION('center_axis',(1.,0.,-4.16333634234434E-16));
#662=DIRECTION('ref_axis',(-4.16333634234434E-16,0.,-1.));
#663=DIRECTION('',(-4.16333634234434E-16,0.,-1.));
#664=DIRECTION('center_axis',(-1.11022302462516E-15,0.,-1.));
#665=DIRECTION('ref_axis',(0.707106781186547,-0.707106781186548,-7.85046229341888E-16));
#666=DIRECTION('center_axis',(2.47326911426396E-16,0.,1.));
#667=DIRECTION('ref_axis',(0.707106781186547,-0.707106781186548,-7.85046229341888E-16));
#668=DIRECTION('',(-1.11022302462516E-15,0.,-1.));
#669=DIRECTION('center_axis',(0.707106781186547,0.,-0.707106781186548));
#670=DIRECTION('ref_axis',(0.707106781186548,0.,0.707106781186547));
#671=DIRECTION('center_axis',(1.,0.,-1.09923071745065E-16));
#672=DIRECTION('ref_axis',(0.,-0.707106781186548,0.707106781186547));
#673=DIRECTION('',(1.,0.,-1.09923071745065E-16));
#674=DIRECTION('center_axis',(0.707106781186546,0.,0.707106781186549));
#675=DIRECTION('ref_axis',(-0.707106781186549,0.,0.707106781186546));
#676=DIRECTION('center_axis',(-3.33066907387547E-15,0.,1.));
#677=DIRECTION('ref_axis',(-0.707106781186548,-0.707106781186548,-2.35513868802566E-15));
#678=DIRECTION('',(-3.33066907387547E-15,0.,1.));
#679=DIRECTION('center_axis',(2.47326911426396E-16,0.,1.));
#680=DIRECTION('ref_axis',(-0.707106781186548,-0.707106781186548,-2.35513868802566E-15));
#681=DIRECTION('center_axis',(-2.22044604925031E-15,0.,-1.));
#682=DIRECTION('ref_axis',(0.707106781186548,-0.707106781186548,-1.57009245868377E-15));
#683=DIRECTION('',(-2.22044604925031E-15,0.,-1.));
#684=DIRECTION('center_axis',(-1.64884607617598E-16,0.,-1.));
#685=DIRECTION('ref_axis',(0.707106781186548,-0.707106781186548,-1.57009245868377E-15));
#686=DIRECTION('center_axis',(0.707106781186549,0.,0.707106781186547));
#687=DIRECTION('ref_axis',(-0.707106781186547,0.,0.707106781186549));
#688=DIRECTION('center_axis',(3.33066907387547E-15,0.,1.));
#689=DIRECTION('ref_axis',(-0.707106781186547,-0.707106781186548,2.35513868802566E-15));
#690=DIRECTION('center_axis',(-1.64884607617598E-16,0.,-1.));
#691=DIRECTION('ref_axis',(-0.707106781186547,-0.707106781186548,2.35513868802566E-15));
#692=DIRECTION('',(3.33066907387547E-15,0.,1.));
#693=DIRECTION('center_axis',(-0.707106781186547,0.,0.707106781186548));
#694=DIRECTION('ref_axis',(-0.707106781186548,0.,-0.707106781186547));
#695=DIRECTION('center_axis',(-1.,0.,1.09923071745065E-16));
#696=DIRECTION('ref_axis',(0.,-0.707106781186548,-0.707106781186548));
#697=DIRECTION('',(-1.,0.,1.09923071745065E-16));
#698=DIRECTION('center_axis',(-1.,0.,2.22044604925031E-15));
#699=DIRECTION('ref_axis',(2.22044604925031E-15,0.,1.));
#700=DIRECTION('',(0.,1.,0.));
#701=DIRECTION('',(2.22044604925031E-15,0.,1.));
#702=DIRECTION('',(0.,1.,0.));
#703=DIRECTION('center_axis',(1.09923071745065E-16,0.,1.));
#704=DIRECTION('ref_axis',(1.,0.,-1.09923071745065E-16));
#705=DIRECTION('',(0.,1.,0.));
#706=DIRECTION('',(1.,0.,-1.09923071745065E-16));
#707=DIRECTION('center_axis',(1.,0.,-3.33066907387547E-15));
#708=DIRECTION('ref_axis',(-3.33066907387547E-15,0.,-1.));
#709=DIRECTION('',(0.,1.,0.));
#710=DIRECTION('',(-3.33066907387547E-15,0.,-1.));
#711=DIRECTION('center_axis',(0.,1.,0.));
#712=DIRECTION('ref_axis',(0.,0.,1.));
#713=DIRECTION('',(-1.,0.,1.64884607617598E-16));
#714=DIRECTION('center_axis',(-1.,0.,1.11022302462516E-15));
#715=DIRECTION('ref_axis',(1.11022302462516E-15,0.,1.));
#716=DIRECTION('',(0.,1.,0.));
#717=DIRECTION('',(1.11022302462516E-15,0.,1.));
#718=DIRECTION('',(0.,1.,0.));
#719=DIRECTION('center_axis',(-1.09923071745065E-16,0.,-1.));
#720=DIRECTION('ref_axis',(-1.,0.,1.09923071745065E-16));
#721=DIRECTION('',(-1.,0.,1.09923071745065E-16));
#722=DIRECTION('',(0.,1.,0.));
#723=DIRECTION('center_axis',(1.,0.,3.33066907387547E-15));
#724=DIRECTION('ref_axis',(3.33066907387547E-15,0.,-1.));
#725=DIRECTION('',(3.33066907387547E-15,0.,-1.));
#726=DIRECTION('',(0.,1.,0.));
#727=DIRECTION('center_axis',(0.,1.,0.));
#728=DIRECTION('ref_axis',(0.,0.,1.));
#729=DIRECTION('',(1.,0.,-2.1984614349013E-16));
#730=DIRECTION('center_axis',(-1.64884607617598E-16,0.,-1.));
#731=DIRECTION('ref_axis',(-1.,0.,1.64884607617598E-16));
#732=DIRECTION('',(-1.,0.,1.64884607617598E-16));
#733=DIRECTION('',(0.,1.,0.));
#734=DIRECTION('',(0.,1.,0.));
#735=DIRECTION('center_axis',(-1.,0.,0.));
#736=DIRECTION('ref_axis',(0.,0.,1.));
#737=DIRECTION('',(0.,0.,1.));
#738=DIRECTION('',(0.,1.,0.));
#739=DIRECTION('center_axis',(2.47326911426396E-16,0.,1.));
#740=DIRECTION('ref_axis',(1.,0.,-2.47326911426396E-16));
#741=DIRECTION('',(1.,0.,-2.47326911426396E-16));
#742=DIRECTION('',(0.,1.,0.));
#743=DIRECTION('center_axis',(1.,0.,0.));
#744=DIRECTION('ref_axis',(0.,0.,-1.));
#745=DIRECTION('',(0.,0.,-1.));
#746=DIRECTION('center_axis',(0.,1.,0.));
#747=DIRECTION('ref_axis',(0.,0.,1.));
#748=CARTESIAN_POINT('',(0.,0.,0.));
#749=CARTESIAN_POINT('Origin',(5.5,0.,6.));
#750=CARTESIAN_POINT('',(7.5,2.,6.));
#751=CARTESIAN_POINT('',(5.5,2.,8.));
#752=CARTESIAN_POINT('Origin',(5.5,2.,6.));
#753=CARTESIAN_POINT('',(5.5,0.,8.));
#754=CARTESIAN_POINT('',(5.5,0.,8.));
#755=CARTESIAN_POINT('',(7.5,0.,6.));
#756=CARTESIAN_POINT('Origin',(5.5,0.,6.));
#757=CARTESIAN_POINT('',(7.5,0.,6.));
#758=CARTESIAN_POINT('Origin',(-7.5,0.,8.));
#759=CARTESIAN_POINT('',(-5.5,2.,8.));
#760=CARTESIAN_POINT('',(-7.5,2.,8.));
#761=CARTESIAN_POINT('',(-5.5,0.,8.));
#762=CARTESIAN_POINT('',(-5.5,0.,8.));
#763=CARTESIAN_POINT('',(-7.5,0.,8.));
#764=CARTESIAN_POINT('Origin',(1.11022302462516E-15,2.,-2.22044604925031E-15));
#765=CARTESIAN_POINT('',(7.5,2.,-6.));
#766=CARTESIAN_POINT('',(7.5,2.,8.));
#767=CARTESIAN_POINT('',(5.5,2.,-8.));
#768=CARTESIAN_POINT('Origin',(5.5,2.,-6.));
#769=CARTESIAN_POINT('',(-5.5,2.,-8.));
#770=CARTESIAN_POINT('',(7.5,2.,-8.));
#771=CARTESIAN_POINT('',(-7.5,2.,-6.));
#772=CARTESIAN_POINT('Origin',(-5.5,2.,-6.));
#773=CARTESIAN_POINT('',(-7.5,2.,6.));
#774=CARTESIAN_POINT('',(-7.5,2.,-8.));
#775=CARTESIAN_POINT('Origin',(-5.5,2.,6.));
#776=CARTESIAN_POINT('',(-5.05,2.,-2.05));
#777=CARTESIAN_POINT('',(-6.05,2.,-2.05));
#778=CARTESIAN_POINT('',(-2.525,2.,-2.05));
#779=CARTESIAN_POINT('',(-6.05,2.,-5.05));
#780=CARTESIAN_POINT('',(-6.05,2.,-2.025));
#781=CARTESIAN_POINT('',(6.05000000000001,2.,-5.05));
#782=CARTESIAN_POINT('',(2.525,2.,-5.05));
#783=CARTESIAN_POINT('',(6.05,2.,-2.05));
#784=CARTESIAN_POINT('',(6.05,2.,-1.02499999999999));
#785=CARTESIAN_POINT('',(5.05,2.,-2.05));
#786=CARTESIAN_POINT('',(-2.525,2.,-2.05));
#787=CARTESIAN_POINT('',(5.05,2.,2.05));
#788=CARTESIAN_POINT('',(5.05,2.,-2.05));
#789=CARTESIAN_POINT('',(6.05,2.,2.05));
#790=CARTESIAN_POINT('',(2.525,2.,2.05));
#791=CARTESIAN_POINT('',(6.05000000000001,2.,5.05));
#792=CARTESIAN_POINT('',(6.05,2.,2.02499999999999));
#793=CARTESIAN_POINT('',(-6.04999999999999,2.,5.05));
#794=CARTESIAN_POINT('',(-2.525,2.,5.05));
#795=CARTESIAN_POINT('',(-6.05,2.,2.05));
#796=CARTESIAN_POINT('',(-6.05,2.,1.02500000000001));
#797=CARTESIAN_POINT('',(-5.05,2.,2.05));
#798=CARTESIAN_POINT('',(2.525,2.,2.05));
#799=CARTESIAN_POINT('',(-5.05,2.,2.05));
#800=CARTESIAN_POINT('Origin',(-5.5,0.,6.));
#801=CARTESIAN_POINT('',(-7.5,0.,6.));
#802=CARTESIAN_POINT('',(-7.5,0.,6.));
#803=CARTESIAN_POINT('Origin',(-5.5,0.,6.));
#804=CARTESIAN_POINT('Origin',(-7.5,0.,-8.));
#805=CARTESIAN_POINT('',(-7.5,0.,-6.));
#806=CARTESIAN_POINT('',(-7.5,0.,-6.));
#807=CARTESIAN_POINT('',(-7.5,0.,-8.));
#808=CARTESIAN_POINT('Origin',(-5.5,0.,-6.));
#809=CARTESIAN_POINT('',(-5.5,0.,-8.));
#810=CARTESIAN_POINT('',(-5.5,0.,-8.));
#811=CARTESIAN_POINT('Origin',(-5.5,0.,-6.));
#812=CARTESIAN_POINT('Origin',(7.5,0.,-8.));
#813=CARTESIAN_POINT('',(5.5,0.,-8.));
#814=CARTESIAN_POINT('',(5.5,0.,-8.));
#815=CARTESIAN_POINT('',(7.5,0.,-8.));
#816=CARTESIAN_POINT('Origin',(5.5,0.,-6.));
#817=CARTESIAN_POINT('',(7.5,0.,-6.));
#818=CARTESIAN_POINT('',(7.5,0.,-6.));
#819=CARTESIAN_POINT('Origin',(5.5,0.,-6.));
#820=CARTESIAN_POINT('Origin',(7.5,0.,8.));
#821=CARTESIAN_POINT('',(7.5,0.,8.));
#822=CARTESIAN_POINT('Origin',(-6.05,3.,-2.025));
#823=CARTESIAN_POINT('',(-5.05,3.,-2.05));
#824=CARTESIAN_POINT('Origin',(-6.05,3.,-2.05));
#825=CARTESIAN_POINT('',(-5.05,3.,-4.05));
#826=CARTESIAN_POINT('',(-5.05,3.,-2.025));
#827=CARTESIAN_POINT('Origin',(-6.05,3.,-5.05));
#828=CARTESIAN_POINT('Origin',(2.525,3.,-5.05));
#829=CARTESIAN_POINT('',(5.05000000000001,3.,-4.05));
#830=CARTESIAN_POINT('',(2.525,3.,-4.05));
#831=CARTESIAN_POINT('Origin',(6.05000000000001,3.,-5.05));
#832=CARTESIAN_POINT('Origin',(6.05,3.,-1.02499999999999));
#833=CARTESIAN_POINT('',(5.05,3.,-2.05));
#834=CARTESIAN_POINT('',(5.05,3.,-1.02499999999999));
#835=CARTESIAN_POINT('Origin',(6.05,3.,-2.04999999999996));
#836=CARTESIAN_POINT('Origin',(-6.05,3.,1.02500000000001));
#837=CARTESIAN_POINT('',(-5.05,3.,4.05));
#838=CARTESIAN_POINT('',(-5.05,3.,2.05));
#839=CARTESIAN_POINT('',(-5.05,3.,1.025));
#840=CARTESIAN_POINT('Origin',(-6.05,3.,2.05000000000002));
#841=CARTESIAN_POINT('Origin',(-6.04999999999999,3.,5.05));
#842=CARTESIAN_POINT('Origin',(6.05,3.,2.02499999999999));
#843=CARTESIAN_POINT('',(5.05,3.,2.05));
#844=CARTESIAN_POINT('Origin',(6.05,3.,2.05));
#845=CARTESIAN_POINT('',(5.05000000000001,3.,4.05));
#846=CARTESIAN_POINT('',(5.05,3.,2.02499999999999));
#847=CARTESIAN_POINT('Origin',(6.05000000000001,3.,5.05));
#848=CARTESIAN_POINT('Origin',(-2.525,3.,5.05));
#849=CARTESIAN_POINT('',(-2.525,3.,4.05));
#850=CARTESIAN_POINT('Origin',(-5.05,2.,2.05));
#851=CARTESIAN_POINT('',(-5.05,9.,4.05));
#852=CARTESIAN_POINT('',(-5.05,2.,4.05));
#853=CARTESIAN_POINT('',(-5.05,9.,2.05));
#854=CARTESIAN_POINT('',(-5.05,9.,2.05));
#855=CARTESIAN_POINT('',(-5.05,2.,2.05));
#856=CARTESIAN_POINT('Origin',(-5.05,2.,4.05));
#857=CARTESIAN_POINT('',(5.05000000000001,9.,4.05));
#858=CARTESIAN_POINT('',(5.05000000000001,2.,4.05));
#859=CARTESIAN_POINT('',(-5.05,9.,4.05));
#860=CARTESIAN_POINT('Origin',(5.05000000000001,2.,4.05));
#861=CARTESIAN_POINT('',(5.05,9.,2.05));
#862=CARTESIAN_POINT('',(5.05,2.,2.05));
#863=CARTESIAN_POINT('',(5.05000000000001,9.,4.05));
#864=CARTESIAN_POINT('Origin',(3.33066907387547E-15,9.,3.05));
#865=CARTESIAN_POINT('',(5.05,9.,2.05));
#866=CARTESIAN_POINT('Origin',(-5.05,2.,-4.05));
#867=CARTESIAN_POINT('',(-5.05,9.,-2.05));
#868=CARTESIAN_POINT('',(-5.05,2.,-2.05));
#869=CARTESIAN_POINT('',(-5.05,9.,-4.05));
#870=CARTESIAN_POINT('',(-5.05,9.,-4.05));
#871=CARTESIAN_POINT('',(-5.05,2.,-4.05));
#872=CARTESIAN_POINT('Origin',(5.05000000000001,2.,-4.05));
#873=CARTESIAN_POINT('',(5.05000000000001,9.,-4.05));
#874=CARTESIAN_POINT('',(5.05000000000001,9.,-4.05));
#875=CARTESIAN_POINT('',(5.05000000000001,2.,-4.05));
#876=CARTESIAN_POINT('Origin',(5.05,2.,-2.05));
#877=CARTESIAN_POINT('',(5.05,9.,-2.05));
#878=CARTESIAN_POINT('',(5.05,9.,-2.05));
#879=CARTESIAN_POINT('',(5.05,2.,-2.05));
#880=CARTESIAN_POINT('Origin',(2.22044604925031E-15,9.,-3.05));
#881=CARTESIAN_POINT('',(-5.05,9.,-2.05));
#882=CARTESIAN_POINT('Origin',(5.05,0.,2.05));
#883=CARTESIAN_POINT('',(5.05,0.,2.05));
#884=CARTESIAN_POINT('',(-5.05,0.,2.05));
#885=CARTESIAN_POINT('',(5.05,0.,2.05));
#886=CARTESIAN_POINT('',(-5.05,0.,2.05));
#887=CARTESIAN_POINT('',(5.05,0.,2.05));
#888=CARTESIAN_POINT('Origin',(5.05,0.,-2.05));
#889=CARTESIAN_POINT('',(5.05,0.,-2.05));
#890=CARTESIAN_POINT('',(5.05,0.,-2.05));
#891=CARTESIAN_POINT('',(5.05,0.,-2.05));
#892=CARTESIAN_POINT('Origin',(-5.05,0.,-2.05));
#893=CARTESIAN_POINT('',(-5.05,0.,-2.05));
#894=CARTESIAN_POINT('',(-5.05,0.,-2.05));
#895=CARTESIAN_POINT('',(-5.05,0.,-2.05));
#896=CARTESIAN_POINT('Origin',(-5.05,0.,2.05));
#897=CARTESIAN_POINT('',(-5.05,0.,2.05));
#898=CARTESIAN_POINT('Origin',(1.11022302462516E-15,0.,-1.66533453693773E-15));
#899=UNCERTAINTY_MEASURE_WITH_UNIT(LENGTH_MEASURE(0.01),#903,
'DISTANCE_ACCURACY_VALUE',
'Maximum model space distance between geometric entities at asserted c
onnectivities');
#900=UNCERTAINTY_MEASURE_WITH_UNIT(LENGTH_MEASURE(0.01),#903,
'DISTANCE_ACCURACY_VALUE',
'Maximum model space distance between geometric entities at asserted c
onnectivities');
#901=(
GEOMETRIC_REPRESENTATION_CONTEXT(3)
GLOBAL_UNCERTAINTY_ASSIGNED_CONTEXT((#899))
GLOBAL_UNIT_ASSIGNED_CONTEXT((#903,#905,#906))
REPRESENTATION_CONTEXT('','3D')
);
#902=(
GEOMETRIC_REPRESENTATION_CONTEXT(3)
GLOBAL_UNCERTAINTY_ASSIGNED_CONTEXT((#900))
GLOBAL_UNIT_ASSIGNED_CONTEXT((#903,#905,#906))
REPRESENTATION_CONTEXT('','3D')
);
#903=(
LENGTH_UNIT()
NAMED_UNIT(*)
SI_UNIT(.MILLI.,.METRE.)
);
#904=(
LENGTH_UNIT()
NAMED_UNIT(*)
SI_UNIT(.CENTI.,.METRE.)
);
#905=(
NAMED_UNIT(*)
PLANE_ANGLE_UNIT()
SI_UNIT($,.RADIAN.)
);
#906=(
NAMED_UNIT(*)
SI_UNIT($,.STERADIAN.)
SOLID_ANGLE_UNIT()
);
#907=SHAPE_DEFINITION_REPRESENTATION(#908,#909);
#908=PRODUCT_DEFINITION_SHAPE('',$,#911);
#909=SHAPE_REPRESENTATION('',(#555),#901);
#910=PRODUCT_DEFINITION_CONTEXT('part definition',#915,'design');
#911=PRODUCT_DEFINITION('LRA_case1','LRA_case1',#912,#910);
#912=PRODUCT_DEFINITION_FORMATION('',$,#917);
#913=PRODUCT_RELATED_PRODUCT_CATEGORY('LRA_case1','LRA_case1',(#917));
#914=APPLICATION_PROTOCOL_DEFINITION('international standard',
'automotive_design',2009,#915);
#915=APPLICATION_CONTEXT(
'Core Data for Automotive Mechanical Design Process');
#916=PRODUCT_CONTEXT('part definition',#915,'mechanical');
#917=PRODUCT('LRA_case1','LRA_case1',$,(#916));
#918=PRESENTATION_STYLE_ASSIGNMENT((#919));
#919=SURFACE_STYLE_USAGE(.BOTH.,#922);
#920=SURFACE_STYLE_RENDERING_WITH_PROPERTIES($,#926,(#921));
#921=SURFACE_STYLE_TRANSPARENT(0.);
#922=SURFACE_SIDE_STYLE('',(#923,#920));
#923=SURFACE_STYLE_FILL_AREA(#924);
#924=FILL_AREA_STYLE('',(#925));
#925=FILL_AREA_STYLE_COLOUR('',#926);
#926=COLOUR_RGB('',0.749019607843137,0.749019607843137,0.749019607843137);
ENDSEC;
END-ISO-10303-21;
