ISO-10303-21;
HEADER;
/* Generated by software containing ST-Developer
 * from STEP Tools, Inc. (www.steptools.com) 
 */

FILE_DESCRIPTION(
/* description */ (''),
/* implementation_level */ '2;1');

FILE_NAME(
/* name */ 'LRA_case2.stp',
/* time_stamp */ '2025-09-05T19:33:35+09:00',
/* author */ ('ka0n7'),
/* organization */ (''),
/* preprocessor_version */ 'ST-DEVELOPER v20.1',
/* originating_system */ 'Autodesk Inventor 2026',
/* authorisation */ '');

FILE_SCHEMA (('AUTOMOTIVE_DESIGN { 1 0 10303 214 3 1 1 }'));
ENDSEC;

DATA;
#10=MECHANICAL_DESIGN_GEOMETRIC_PRESENTATION_REPRESENTATION('',(#13),#741);
#11=SHAPE_REPRESENTATION_RELATIONSHIP('SRR','None',#748,#12);
#12=ADVANCED_BREP_SHAPE_REPRESENTATION('',(#14),#740);
#13=STYLED_ITEM('',(#757),#14);
#14=MANIFOLD_SOLID_BREP('\X2\30BD30EA30C330C9\X0\1',#446);
#15=FACE_BOUND('',#61,.T.);
#16=FACE_BOUND('',#74,.T.);
#17=FACE_BOUND('',#82,.T.);
#18=PLANE('',#472);
#19=PLANE('',#473);
#20=PLANE('',#479);
#21=PLANE('',#482);
#22=PLANE('',#484);
#23=PLANE('',#486);
#24=PLANE('',#487);
#25=PLANE('',#488);
#26=PLANE('',#489);
#27=PLANE('',#490);
#28=PLANE('',#491);
#29=PLANE('',#492);
#30=PLANE('',#493);
#31=PLANE('',#494);
#32=PLANE('',#495);
#33=PLANE('',#496);
#34=PLANE('',#497);
#35=PLANE('',#498);
#36=FACE_OUTER_BOUND('',#58,.T.);
#37=FACE_OUTER_BOUND('',#59,.T.);
#38=FACE_OUTER_BOUND('',#60,.T.);
#39=FACE_OUTER_BOUND('',#62,.T.);
#40=FACE_OUTER_BOUND('',#63,.T.);
#41=FACE_OUTER_BOUND('',#64,.T.);
#42=FACE_OUTER_BOUND('',#65,.T.);
#43=FACE_OUTER_BOUND('',#66,.T.);
#44=FACE_OUTER_BOUND('',#67,.T.);
#45=FACE_OUTER_BOUND('',#68,.T.);
#46=FACE_OUTER_BOUND('',#69,.T.);
#47=FACE_OUTER_BOUND('',#70,.T.);
#48=FACE_OUTER_BOUND('',#71,.T.);
#49=FACE_OUTER_BOUND('',#72,.T.);
#50=FACE_OUTER_BOUND('',#73,.T.);
#51=FACE_OUTER_BOUND('',#75,.T.);
#52=FACE_OUTER_BOUND('',#76,.T.);
#53=FACE_OUTER_BOUND('',#77,.T.);
#54=FACE_OUTER_BOUND('',#78,.T.);
#55=FACE_OUTER_BOUND('',#79,.T.);
#56=FACE_OUTER_BOUND('',#80,.T.);
#57=FACE_OUTER_BOUND('',#81,.T.);
#58=EDGE_LOOP('',(#298,#299,#300,#301));
#59=EDGE_LOOP('',(#302,#303,#304,#305));
#60=EDGE_LOOP('',(#306,#307,#308,#309,#310,#311,#312,#313));
#61=EDGE_LOOP('',(#314,#315,#316,#317));
#62=EDGE_LOOP('',(#318,#319,#320,#321));
#63=EDGE_LOOP('',(#322,#323,#324,#325,#326,#327,#328,#329));
#64=EDGE_LOOP('',(#330,#331,#332,#333));
#65=EDGE_LOOP('',(#334,#335,#336,#337,#338,#339,#340,#341,#342,#343,#344));
#66=EDGE_LOOP('',(#345,#346,#347,#348));
#67=EDGE_LOOP('',(#349,#350,#351,#352));
#68=EDGE_LOOP('',(#353,#354,#355,#356));
#69=EDGE_LOOP('',(#357,#358,#359,#360));
#70=EDGE_LOOP('',(#361,#362,#363,#364));
#71=EDGE_LOOP('',(#365,#366,#367,#368));
#72=EDGE_LOOP('',(#369,#370,#371,#372,#373));
#73=EDGE_LOOP('',(#374,#375,#376,#377));
#74=EDGE_LOOP('',(#378,#379,#380,#381));
#75=EDGE_LOOP('',(#382,#383,#384,#385));
#76=EDGE_LOOP('',(#386,#387,#388,#389));
#77=EDGE_LOOP('',(#390,#391,#392,#393));
#78=EDGE_LOOP('',(#394,#395,#396,#397));
#79=EDGE_LOOP('',(#398,#399,#400,#401));
#80=EDGE_LOOP('',(#402,#403,#404,#405,#406,#407,#408,#409));
#81=EDGE_LOOP('',(#410,#411,#412,#413,#414,#415));
#82=EDGE_LOOP('',(#416,#417,#418,#419));
#83=LINE('',#620,#136);
#84=LINE('',#623,#137);
#85=LINE('',#626,#138);
#86=LINE('',#628,#139);
#87=LINE('',#629,#140);
#88=LINE('',#632,#141);
#89=LINE('',#636,#142);
#90=LINE('',#640,#143);
#91=LINE('',#644,#144);
#92=LINE('',#646,#145);
#93=LINE('',#648,#146);
#94=LINE('',#649,#147);
#95=LINE('',#653,#148);
#96=LINE('',#656,#149);
#97=LINE('',#658,#150);
#98=LINE('',#660,#151);
#99=LINE('',#662,#152);
#100=LINE('',#664,#153);
#101=LINE('',#665,#154);
#102=LINE('',#668,#155);
#103=LINE('',#672,#156);
#104=LINE('',#676,#157);
#105=LINE('',#678,#158);
#106=LINE('',#680,#159);
#107=LINE('',#682,#160);
#108=LINE('',#684,#161);
#109=LINE('',#685,#162);
#110=LINE('',#686,#163);
#111=LINE('',#688,#164);
#112=LINE('',#690,#165);
#113=LINE('',#692,#166);
#114=LINE('',#693,#167);
#115=LINE('',#695,#168);
#116=LINE('',#697,#169);
#117=LINE('',#701,#170);
#118=LINE('',#702,#171);
#119=LINE('',#705,#172);
#120=LINE('',#706,#173);
#121=LINE('',#709,#174);
#122=LINE('',#711,#175);
#123=LINE('',#713,#176);
#124=LINE('',#714,#177);
#125=LINE('',#717,#178);
#126=LINE('',#719,#179);
#127=LINE('',#720,#180);
#128=LINE('',#723,#181);
#129=LINE('',#724,#182);
#130=LINE('',#727,#183);
#131=LINE('',#728,#184);
#132=LINE('',#730,#185);
#133=LINE('',#733,#186);
#134=LINE('',#734,#187);
#135=LINE('',#736,#188);
#136=VECTOR('',#505,10.);
#137=VECTOR('',#508,10.);
#138=VECTOR('',#511,10.);
#139=VECTOR('',#512,10.);
#140=VECTOR('',#513,10.);
#141=VECTOR('',#516,10.);
#142=VECTOR('',#519,10.);
#143=VECTOR('',#522,10.);
#144=VECTOR('',#525,10.);
#145=VECTOR('',#526,10.);
#146=VECTOR('',#527,10.);
#147=VECTOR('',#528,10.);
#148=VECTOR('',#533,10.);
#149=VECTOR('',#536,10.);
#150=VECTOR('',#537,10.);
#151=VECTOR('',#538,10.);
#152=VECTOR('',#539,10.);
#153=VECTOR('',#540,10.);
#154=VECTOR('',#541,10.);
#155=VECTOR('',#544,10.);
#156=VECTOR('',#549,10.);
#157=VECTOR('',#552,10.);
#158=VECTOR('',#553,10.);
#159=VECTOR('',#554,10.);
#160=VECTOR('',#555,10.);
#161=VECTOR('',#556,10.);
#162=VECTOR('',#557,10.);
#163=VECTOR('',#558,10.);
#164=VECTOR('',#561,10.);
#165=VECTOR('',#564,10.);
#166=VECTOR('',#567,10.);
#167=VECTOR('',#568,10.);
#168=VECTOR('',#571,10.);
#169=VECTOR('',#574,10.);
#170=VECTOR('',#579,10.);
#171=VECTOR('',#580,10.);
#172=VECTOR('',#583,10.);
#173=VECTOR('',#584,10.);
#174=VECTOR('',#585,10.);
#175=VECTOR('',#586,10.);
#176=VECTOR('',#587,10.);
#177=VECTOR('',#588,10.);
#178=VECTOR('',#591,10.);
#179=VECTOR('',#592,10.);
#180=VECTOR('',#593,10.);
#181=VECTOR('',#596,10.);
#182=VECTOR('',#597,10.);
#183=VECTOR('',#600,10.);
#184=VECTOR('',#601,10.);
#185=VECTOR('',#604,10.);
#186=VECTOR('',#607,10.);
#187=VECTOR('',#608,10.);
#188=VECTOR('',#611,10.);
#189=CIRCLE('',#470,2.);
#190=CIRCLE('',#471,2.);
#191=CIRCLE('',#474,2.);
#192=CIRCLE('',#475,2.);
#193=CIRCLE('',#476,2.);
#194=CIRCLE('',#478,2.);
#195=CIRCLE('',#481,2.);
#196=CIRCLE('',#483,2.);
#197=VERTEX_POINT('',#616);
#198=VERTEX_POINT('',#617);
#199=VERTEX_POINT('',#619);
#200=VERTEX_POINT('',#621);
#201=VERTEX_POINT('',#625);
#202=VERTEX_POINT('',#627);
#203=VERTEX_POINT('',#631);
#204=VERTEX_POINT('',#633);
#205=VERTEX_POINT('',#635);
#206=VERTEX_POINT('',#637);
#207=VERTEX_POINT('',#639);
#208=VERTEX_POINT('',#642);
#209=VERTEX_POINT('',#643);
#210=VERTEX_POINT('',#645);
#211=VERTEX_POINT('',#647);
#212=VERTEX_POINT('',#651);
#213=VERTEX_POINT('',#655);
#214=VERTEX_POINT('',#657);
#215=VERTEX_POINT('',#659);
#216=VERTEX_POINT('',#661);
#217=VERTEX_POINT('',#663);
#218=VERTEX_POINT('',#667);
#219=VERTEX_POINT('',#671);
#220=VERTEX_POINT('',#673);
#221=VERTEX_POINT('',#675);
#222=VERTEX_POINT('',#677);
#223=VERTEX_POINT('',#679);
#224=VERTEX_POINT('',#681);
#225=VERTEX_POINT('',#683);
#226=VERTEX_POINT('',#700);
#227=VERTEX_POINT('',#704);
#228=VERTEX_POINT('',#707);
#229=VERTEX_POINT('',#708);
#230=VERTEX_POINT('',#710);
#231=VERTEX_POINT('',#712);
#232=VERTEX_POINT('',#716);
#233=VERTEX_POINT('',#718);
#234=VERTEX_POINT('',#722);
#235=VERTEX_POINT('',#726);
#236=VERTEX_POINT('',#732);
#237=EDGE_CURVE('',#197,#198,#189,.T.);
#238=EDGE_CURVE('',#198,#199,#83,.T.);
#239=EDGE_CURVE('',#199,#200,#190,.T.);
#240=EDGE_CURVE('',#200,#197,#84,.T.);
#241=EDGE_CURVE('',#201,#200,#85,.T.);
#242=EDGE_CURVE('',#202,#201,#86,.T.);
#243=EDGE_CURVE('',#197,#202,#87,.T.);
#244=EDGE_CURVE('',#199,#203,#88,.T.);
#245=EDGE_CURVE('',#204,#203,#191,.T.);
#246=EDGE_CURVE('',#205,#204,#89,.T.);
#247=EDGE_CURVE('',#206,#205,#192,.T.);
#248=EDGE_CURVE('',#207,#206,#90,.T.);
#249=EDGE_CURVE('',#201,#207,#193,.T.);
#250=EDGE_CURVE('',#208,#209,#91,.T.);
#251=EDGE_CURVE('',#209,#210,#92,.T.);
#252=EDGE_CURVE('',#210,#211,#93,.T.);
#253=EDGE_CURVE('',#211,#208,#94,.T.);
#254=EDGE_CURVE('',#212,#202,#194,.T.);
#255=EDGE_CURVE('',#207,#212,#95,.T.);
#256=EDGE_CURVE('',#213,#206,#96,.T.);
#257=EDGE_CURVE('',#214,#213,#97,.T.);
#258=EDGE_CURVE('',#215,#214,#98,.T.);
#259=EDGE_CURVE('',#215,#216,#99,.T.);
#260=EDGE_CURVE('',#216,#217,#100,.T.);
#261=EDGE_CURVE('',#212,#217,#101,.T.);
#262=EDGE_CURVE('',#205,#218,#102,.T.);
#263=EDGE_CURVE('',#218,#213,#195,.T.);
#264=EDGE_CURVE('',#219,#218,#103,.T.);
#265=EDGE_CURVE('',#220,#219,#196,.T.);
#266=EDGE_CURVE('',#221,#220,#104,.T.);
#267=EDGE_CURVE('',#222,#221,#105,.T.);
#268=EDGE_CURVE('',#222,#223,#106,.T.);
#269=EDGE_CURVE('',#223,#224,#107,.T.);
#270=EDGE_CURVE('',#224,#225,#108,.T.);
#271=EDGE_CURVE('',#225,#222,#109,.T.);
#272=EDGE_CURVE('',#214,#222,#110,.T.);
#273=EDGE_CURVE('',#219,#204,#111,.T.);
#274=EDGE_CURVE('',#203,#220,#112,.T.);
#275=EDGE_CURVE('',#224,#210,#113,.T.);
#276=EDGE_CURVE('',#223,#211,#114,.T.);
#277=EDGE_CURVE('',#222,#208,#115,.T.);
#278=EDGE_CURVE('',#225,#209,#116,.T.);
#279=EDGE_CURVE('',#226,#221,#117,.T.);
#280=EDGE_CURVE('',#215,#226,#118,.T.);
#281=EDGE_CURVE('',#227,#226,#119,.T.);
#282=EDGE_CURVE('',#216,#227,#120,.T.);
#283=EDGE_CURVE('',#228,#229,#121,.T.);
#284=EDGE_CURVE('',#230,#228,#122,.T.);
#285=EDGE_CURVE('',#231,#230,#123,.T.);
#286=EDGE_CURVE('',#229,#231,#124,.T.);
#287=EDGE_CURVE('',#228,#232,#125,.T.);
#288=EDGE_CURVE('',#233,#232,#126,.T.);
#289=EDGE_CURVE('',#230,#233,#127,.T.);
#290=EDGE_CURVE('',#234,#233,#128,.T.);
#291=EDGE_CURVE('',#231,#234,#129,.T.);
#292=EDGE_CURVE('',#235,#234,#130,.T.);
#293=EDGE_CURVE('',#229,#235,#131,.T.);
#294=EDGE_CURVE('',#232,#235,#132,.T.);
#295=EDGE_CURVE('',#227,#236,#133,.T.);
#296=EDGE_CURVE('',#217,#236,#134,.T.);
#297=EDGE_CURVE('',#236,#198,#135,.T.);
#298=ORIENTED_EDGE('',*,*,#237,.T.);
#299=ORIENTED_EDGE('',*,*,#238,.T.);
#300=ORIENTED_EDGE('',*,*,#239,.T.);
#301=ORIENTED_EDGE('',*,*,#240,.T.);
#302=ORIENTED_EDGE('',*,*,#240,.F.);
#303=ORIENTED_EDGE('',*,*,#241,.F.);
#304=ORIENTED_EDGE('',*,*,#242,.F.);
#305=ORIENTED_EDGE('',*,*,#243,.F.);
#306=ORIENTED_EDGE('',*,*,#239,.F.);
#307=ORIENTED_EDGE('',*,*,#244,.T.);
#308=ORIENTED_EDGE('',*,*,#245,.F.);
#309=ORIENTED_EDGE('',*,*,#246,.F.);
#310=ORIENTED_EDGE('',*,*,#247,.F.);
#311=ORIENTED_EDGE('',*,*,#248,.F.);
#312=ORIENTED_EDGE('',*,*,#249,.F.);
#313=ORIENTED_EDGE('',*,*,#241,.T.);
#314=ORIENTED_EDGE('',*,*,#250,.T.);
#315=ORIENTED_EDGE('',*,*,#251,.T.);
#316=ORIENTED_EDGE('',*,*,#252,.T.);
#317=ORIENTED_EDGE('',*,*,#253,.T.);
#318=ORIENTED_EDGE('',*,*,#254,.T.);
#319=ORIENTED_EDGE('',*,*,#242,.T.);
#320=ORIENTED_EDGE('',*,*,#249,.T.);
#321=ORIENTED_EDGE('',*,*,#255,.T.);
#322=ORIENTED_EDGE('',*,*,#255,.F.);
#323=ORIENTED_EDGE('',*,*,#248,.T.);
#324=ORIENTED_EDGE('',*,*,#256,.F.);
#325=ORIENTED_EDGE('',*,*,#257,.F.);
#326=ORIENTED_EDGE('',*,*,#258,.F.);
#327=ORIENTED_EDGE('',*,*,#259,.T.);
#328=ORIENTED_EDGE('',*,*,#260,.T.);
#329=ORIENTED_EDGE('',*,*,#261,.F.);
#330=ORIENTED_EDGE('',*,*,#247,.T.);
#331=ORIENTED_EDGE('',*,*,#262,.T.);
#332=ORIENTED_EDGE('',*,*,#263,.T.);
#333=ORIENTED_EDGE('',*,*,#256,.T.);
#334=ORIENTED_EDGE('',*,*,#263,.F.);
#335=ORIENTED_EDGE('',*,*,#264,.F.);
#336=ORIENTED_EDGE('',*,*,#265,.F.);
#337=ORIENTED_EDGE('',*,*,#266,.F.);
#338=ORIENTED_EDGE('',*,*,#267,.F.);
#339=ORIENTED_EDGE('',*,*,#268,.T.);
#340=ORIENTED_EDGE('',*,*,#269,.T.);
#341=ORIENTED_EDGE('',*,*,#270,.T.);
#342=ORIENTED_EDGE('',*,*,#271,.T.);
#343=ORIENTED_EDGE('',*,*,#272,.F.);
#344=ORIENTED_EDGE('',*,*,#257,.T.);
#345=ORIENTED_EDGE('',*,*,#262,.F.);
#346=ORIENTED_EDGE('',*,*,#246,.T.);
#347=ORIENTED_EDGE('',*,*,#273,.F.);
#348=ORIENTED_EDGE('',*,*,#264,.T.);
#349=ORIENTED_EDGE('',*,*,#265,.T.);
#350=ORIENTED_EDGE('',*,*,#273,.T.);
#351=ORIENTED_EDGE('',*,*,#245,.T.);
#352=ORIENTED_EDGE('',*,*,#274,.T.);
#353=ORIENTED_EDGE('',*,*,#252,.F.);
#354=ORIENTED_EDGE('',*,*,#275,.F.);
#355=ORIENTED_EDGE('',*,*,#269,.F.);
#356=ORIENTED_EDGE('',*,*,#276,.T.);
#357=ORIENTED_EDGE('',*,*,#253,.F.);
#358=ORIENTED_EDGE('',*,*,#276,.F.);
#359=ORIENTED_EDGE('',*,*,#268,.F.);
#360=ORIENTED_EDGE('',*,*,#277,.T.);
#361=ORIENTED_EDGE('',*,*,#250,.F.);
#362=ORIENTED_EDGE('',*,*,#277,.F.);
#363=ORIENTED_EDGE('',*,*,#271,.F.);
#364=ORIENTED_EDGE('',*,*,#278,.T.);
#365=ORIENTED_EDGE('',*,*,#251,.F.);
#366=ORIENTED_EDGE('',*,*,#278,.F.);
#367=ORIENTED_EDGE('',*,*,#270,.F.);
#368=ORIENTED_EDGE('',*,*,#275,.T.);
#369=ORIENTED_EDGE('',*,*,#272,.T.);
#370=ORIENTED_EDGE('',*,*,#267,.T.);
#371=ORIENTED_EDGE('',*,*,#279,.F.);
#372=ORIENTED_EDGE('',*,*,#280,.F.);
#373=ORIENTED_EDGE('',*,*,#258,.T.);
#374=ORIENTED_EDGE('',*,*,#280,.T.);
#375=ORIENTED_EDGE('',*,*,#281,.F.);
#376=ORIENTED_EDGE('',*,*,#282,.F.);
#377=ORIENTED_EDGE('',*,*,#259,.F.);
#378=ORIENTED_EDGE('',*,*,#283,.F.);
#379=ORIENTED_EDGE('',*,*,#284,.F.);
#380=ORIENTED_EDGE('',*,*,#285,.F.);
#381=ORIENTED_EDGE('',*,*,#286,.F.);
#382=ORIENTED_EDGE('',*,*,#284,.T.);
#383=ORIENTED_EDGE('',*,*,#287,.T.);
#384=ORIENTED_EDGE('',*,*,#288,.F.);
#385=ORIENTED_EDGE('',*,*,#289,.F.);
#386=ORIENTED_EDGE('',*,*,#285,.T.);
#387=ORIENTED_EDGE('',*,*,#289,.T.);
#388=ORIENTED_EDGE('',*,*,#290,.F.);
#389=ORIENTED_EDGE('',*,*,#291,.F.);
#390=ORIENTED_EDGE('',*,*,#286,.T.);
#391=ORIENTED_EDGE('',*,*,#291,.T.);
#392=ORIENTED_EDGE('',*,*,#292,.F.);
#393=ORIENTED_EDGE('',*,*,#293,.F.);
#394=ORIENTED_EDGE('',*,*,#283,.T.);
#395=ORIENTED_EDGE('',*,*,#293,.T.);
#396=ORIENTED_EDGE('',*,*,#294,.F.);
#397=ORIENTED_EDGE('',*,*,#287,.F.);
#398=ORIENTED_EDGE('',*,*,#282,.T.);
#399=ORIENTED_EDGE('',*,*,#295,.T.);
#400=ORIENTED_EDGE('',*,*,#296,.F.);
#401=ORIENTED_EDGE('',*,*,#260,.F.);
#402=ORIENTED_EDGE('',*,*,#238,.F.);
#403=ORIENTED_EDGE('',*,*,#297,.F.);
#404=ORIENTED_EDGE('',*,*,#295,.F.);
#405=ORIENTED_EDGE('',*,*,#281,.T.);
#406=ORIENTED_EDGE('',*,*,#279,.T.);
#407=ORIENTED_EDGE('',*,*,#266,.T.);
#408=ORIENTED_EDGE('',*,*,#274,.F.);
#409=ORIENTED_EDGE('',*,*,#244,.F.);
#410=ORIENTED_EDGE('',*,*,#237,.F.);
#411=ORIENTED_EDGE('',*,*,#243,.T.);
#412=ORIENTED_EDGE('',*,*,#254,.F.);
#413=ORIENTED_EDGE('',*,*,#261,.T.);
#414=ORIENTED_EDGE('',*,*,#296,.T.);
#415=ORIENTED_EDGE('',*,*,#297,.T.);
#416=ORIENTED_EDGE('',*,*,#294,.T.);
#417=ORIENTED_EDGE('',*,*,#292,.T.);
#418=ORIENTED_EDGE('',*,*,#290,.T.);
#419=ORIENTED_EDGE('',*,*,#288,.T.);
#420=CYLINDRICAL_SURFACE('',#469,2.);
#421=CYLINDRICAL_SURFACE('',#477,2.);
#422=CYLINDRICAL_SURFACE('',#480,2.);
#423=CYLINDRICAL_SURFACE('',#485,2.);
#424=ADVANCED_FACE('',(#36),#420,.T.);
#425=ADVANCED_FACE('',(#37),#18,.T.);
#426=ADVANCED_FACE('',(#38,#15),#19,.T.);
#427=ADVANCED_FACE('',(#39),#421,.T.);
#428=ADVANCED_FACE('',(#40),#20,.T.);
#429=ADVANCED_FACE('',(#41),#422,.T.);
#430=ADVANCED_FACE('',(#42),#21,.T.);
#431=ADVANCED_FACE('',(#43),#22,.T.);
#432=ADVANCED_FACE('',(#44),#423,.T.);
#433=ADVANCED_FACE('',(#45),#23,.F.);
#434=ADVANCED_FACE('',(#46),#24,.F.);
#435=ADVANCED_FACE('',(#47),#25,.F.);
#436=ADVANCED_FACE('',(#48),#26,.F.);
#437=ADVANCED_FACE('',(#49),#27,.T.);
#438=ADVANCED_FACE('',(#50,#16),#28,.F.);
#439=ADVANCED_FACE('',(#51),#29,.T.);
#440=ADVANCED_FACE('',(#52),#30,.T.);
#441=ADVANCED_FACE('',(#53),#31,.T.);
#442=ADVANCED_FACE('',(#54),#32,.T.);
#443=ADVANCED_FACE('',(#55),#33,.T.);
#444=ADVANCED_FACE('',(#56),#34,.T.);
#445=ADVANCED_FACE('',(#57,#17),#35,.T.);
#446=CLOSED_SHELL('',(#424,#425,#426,#427,#428,#429,#430,#431,#432,#433,
#434,#435,#436,#437,#438,#439,#440,#441,#442,#443,#444,#445));
#447=DERIVED_UNIT_ELEMENT(#450,1.);
#448=DERIVED_UNIT_ELEMENT(#743,-3.);
#449=DIMENSIONAL_EXPONENTS(0.,1.,0.,0.,0.,0.,0.);
#450=(
CONVERSION_BASED_UNIT('gram',#452)
MASS_UNIT()
NAMED_UNIT(#449)
);
#451=(
MASS_UNIT()
NAMED_UNIT(*)
SI_UNIT(.KILO.,.GRAM.)
);
#452=MASS_MEASURE_WITH_UNIT(MASS_MEASURE(0.001),#451);
#453=DERIVED_UNIT((#447,#448));
#454=MEASURE_REPRESENTATION_ITEM('density measure',
POSITIVE_RATIO_MEASURE(1.),#453);
#455=PROPERTY_DEFINITION_REPRESENTATION(#460,#457);
#456=PROPERTY_DEFINITION_REPRESENTATION(#461,#458);
#457=REPRESENTATION('material name',(#459),#740);
#458=REPRESENTATION('density',(#454),#740);
#459=DESCRIPTIVE_REPRESENTATION_ITEM('\X2\4E00822C\X0\','\X2\4E00822C\X0\');
#460=PROPERTY_DEFINITION('material property','material name',#750);
#461=PROPERTY_DEFINITION('material property','density of part',#750);
#462=DATE_TIME_ROLE('creation_date');
#463=APPLIED_DATE_AND_TIME_ASSIGNMENT(#464,#462,(#750));
#464=DATE_AND_TIME(#465,#466);
#465=CALENDAR_DATE(2025,5,9);
#466=LOCAL_TIME(0,0,0.,#467);
#467=COORDINATED_UNIVERSAL_TIME_OFFSET(0,0,.BEHIND.);
#468=AXIS2_PLACEMENT_3D('',#614,#499,#500);
#469=AXIS2_PLACEMENT_3D('',#615,#501,#502);
#470=AXIS2_PLACEMENT_3D('',#618,#503,#504);
#471=AXIS2_PLACEMENT_3D('',#622,#506,#507);
#472=AXIS2_PLACEMENT_3D('',#624,#509,#510);
#473=AXIS2_PLACEMENT_3D('',#630,#514,#515);
#474=AXIS2_PLACEMENT_3D('',#634,#517,#518);
#475=AXIS2_PLACEMENT_3D('',#638,#520,#521);
#476=AXIS2_PLACEMENT_3D('',#641,#523,#524);
#477=AXIS2_PLACEMENT_3D('',#650,#529,#530);
#478=AXIS2_PLACEMENT_3D('',#652,#531,#532);
#479=AXIS2_PLACEMENT_3D('',#654,#534,#535);
#480=AXIS2_PLACEMENT_3D('',#666,#542,#543);
#481=AXIS2_PLACEMENT_3D('',#669,#545,#546);
#482=AXIS2_PLACEMENT_3D('',#670,#547,#548);
#483=AXIS2_PLACEMENT_3D('',#674,#550,#551);
#484=AXIS2_PLACEMENT_3D('',#687,#559,#560);
#485=AXIS2_PLACEMENT_3D('',#689,#562,#563);
#486=AXIS2_PLACEMENT_3D('',#691,#565,#566);
#487=AXIS2_PLACEMENT_3D('',#694,#569,#570);
#488=AXIS2_PLACEMENT_3D('',#696,#572,#573);
#489=AXIS2_PLACEMENT_3D('',#698,#575,#576);
#490=AXIS2_PLACEMENT_3D('',#699,#577,#578);
#491=AXIS2_PLACEMENT_3D('',#703,#581,#582);
#492=AXIS2_PLACEMENT_3D('',#715,#589,#590);
#493=AXIS2_PLACEMENT_3D('',#721,#594,#595);
#494=AXIS2_PLACEMENT_3D('',#725,#598,#599);
#495=AXIS2_PLACEMENT_3D('',#729,#602,#603);
#496=AXIS2_PLACEMENT_3D('',#731,#605,#606);
#497=AXIS2_PLACEMENT_3D('',#735,#609,#610);
#498=AXIS2_PLACEMENT_3D('',#737,#612,#613);
#499=DIRECTION('axis',(0.,0.,1.));
#500=DIRECTION('refdir',(1.,0.,0.));
#501=DIRECTION('center_axis',(0.,1.,0.));
#502=DIRECTION('ref_axis',(0.707106781186548,0.,-0.707106781186548));
#503=DIRECTION('center_axis',(0.,-1.,0.));
#504=DIRECTION('ref_axis',(0.707106781186548,0.,-0.707106781186548));
#505=DIRECTION('',(0.,-1.,0.));
#506=DIRECTION('center_axis',(0.,1.,0.));
#507=DIRECTION('ref_axis',(0.707106781186548,0.,-0.707106781186548));
#508=DIRECTION('',(0.,1.,0.));
#509=DIRECTION('center_axis',(0.,0.,-1.));
#510=DIRECTION('ref_axis',(-1.,0.,0.));
#511=DIRECTION('',(1.,0.,0.));
#512=DIRECTION('',(0.,-1.,0.));
#513=DIRECTION('',(-1.,0.,0.));
#514=DIRECTION('center_axis',(0.,-1.,0.));
#515=DIRECTION('ref_axis',(0.,0.,-1.));
#516=DIRECTION('',(0.,0.,1.));
#517=DIRECTION('center_axis',(0.,1.,0.));
#518=DIRECTION('ref_axis',(0.707106781186548,0.,0.707106781186548));
#519=DIRECTION('',(1.,0.,1.29526019539602E-16));
#520=DIRECTION('center_axis',(0.,1.,0.));
#521=DIRECTION('ref_axis',(-0.707106781186548,0.,0.707106781186548));
#522=DIRECTION('',(-8.91745401305346E-17,0.,1.));
#523=DIRECTION('center_axis',(0.,1.,0.));
#524=DIRECTION('ref_axis',(-0.707106781186548,0.,-0.707106781186548));
#525=DIRECTION('',(-0.999999946963937,0.,0.000325687156493207));
#526=DIRECTION('',(-1.29526019539602E-16,0.,1.));
#527=DIRECTION('',(1.,0.,1.29526019539602E-16));
#528=DIRECTION('',(1.29526019539602E-16,0.,-1.));
#529=DIRECTION('center_axis',(0.,1.,0.));
#530=DIRECTION('ref_axis',(-0.707106781186548,0.,-0.707106781186548));
#531=DIRECTION('center_axis',(0.,-1.,0.));
#532=DIRECTION('ref_axis',(-0.707106781186548,0.,-0.707106781186548));
#533=DIRECTION('',(0.,1.,0.));
#534=DIRECTION('center_axis',(-1.,0.,0.));
#535=DIRECTION('ref_axis',(0.,0.,1.));
#536=DIRECTION('',(0.,-1.,0.));
#537=DIRECTION('',(-8.91745401305346E-17,0.,1.));
#538=DIRECTION('',(0.,-1.,0.));
#539=DIRECTION('',(0.,0.,1.));
#540=DIRECTION('',(0.,1.,0.));
#541=DIRECTION('',(0.,0.,1.));
#542=DIRECTION('center_axis',(0.,-1.,0.));
#543=DIRECTION('ref_axis',(-0.707106781186548,0.,0.707106781186548));
#544=DIRECTION('',(0.,1.,0.));
#545=DIRECTION('center_axis',(1.48029736616688E-16,-1.,1.32004836884373E-32));
#546=DIRECTION('ref_axis',(-0.707106781186548,0.,0.707106781186548));
#547=DIRECTION('center_axis',(-1.48029736616688E-16,1.,-1.32004836884373E-32));
#548=DIRECTION('ref_axis',(-1.,-1.48029736616688E-16,-1.29526019539602E-16));
#549=DIRECTION('',(-1.,-1.48029736616688E-16,-1.29526019539602E-16));
#550=DIRECTION('center_axis',(1.48029736616688E-16,-1.,1.32004836884373E-32));
#551=DIRECTION('ref_axis',(0.707106781186548,0.,0.707106781186548));
#552=DIRECTION('',(-8.91745401305346E-17,0.,1.));
#553=DIRECTION('',(1.,1.48029736616688E-16,1.29526019539602E-16));
#554=DIRECTION('',(-1.29526019539602E-16,-5.97321886901788E-33,1.));
#555=DIRECTION('',(-1.,-1.48029736616688E-16,-1.29526019539602E-16));
#556=DIRECTION('',(1.29526019539602E-16,5.97321886901788E-33,-1.));
#557=DIRECTION('',(0.999999946963937,1.48029728765773E-16,-0.000325687156493207));
#558=DIRECTION('',(1.,1.48029736616688E-16,1.29526019539602E-16));
#559=DIRECTION('center_axis',(-8.91745401305346E-17,0.,1.));
#560=DIRECTION('ref_axis',(1.,0.,8.91745401305346E-17));
#561=DIRECTION('',(0.,-1.,0.));
#562=DIRECTION('center_axis',(0.,1.,0.));
#563=DIRECTION('ref_axis',(0.707106781186548,0.,0.707106781186548));
#564=DIRECTION('',(0.,1.,0.));
#565=DIRECTION('center_axis',(-1.29526019539602E-16,-1.43802769180914E-32,
1.));
#566=DIRECTION('ref_axis',(-1.,-1.48029736616688E-16,-1.29526019539602E-16));
#567=DIRECTION('',(1.11022302462516E-16,-1.,0.));
#568=DIRECTION('',(1.11022302462516E-16,-1.,0.));
#569=DIRECTION('center_axis',(1.,1.11022302462516E-16,1.29526019539602E-16));
#570=DIRECTION('ref_axis',(-1.29526019539602E-16,-5.97321886901787E-33,
1.));
#571=DIRECTION('',(1.11022302462516E-16,-1.,0.));
#572=DIRECTION('center_axis',(-0.000325687156493207,-3.61585379963455E-20,
-0.999999946963937));
#573=DIRECTION('ref_axis',(0.999999946963937,1.48029728765773E-16,-0.000325687156493207));
#574=DIRECTION('',(1.11022302462516E-16,-1.,0.));
#575=DIRECTION('center_axis',(-1.,-1.11022302462516E-16,-1.29526019539602E-16));
#576=DIRECTION('ref_axis',(1.29526019539602E-16,5.97321886901787E-33,-1.));
#577=DIRECTION('center_axis',(-1.29526019539602E-16,0.,1.));
#578=DIRECTION('ref_axis',(-1.,0.,-1.29526019539602E-16));
#579=DIRECTION('',(0.,-1.,0.));
#580=DIRECTION('',(1.,0.,1.29526019539602E-16));
#581=DIRECTION('center_axis',(0.,1.,0.));
#582=DIRECTION('ref_axis',(0.,0.,1.));
#583=DIRECTION('',(0.,0.,-1.));
#584=DIRECTION('',(1.,0.,0.));
#585=DIRECTION('',(-2.70786103567111E-16,0.,-1.));
#586=DIRECTION('',(-1.,0.,8.24423038087988E-17));
#587=DIRECTION('',(2.70786103567111E-16,0.,1.));
#588=DIRECTION('',(1.,0.,0.));
#589=DIRECTION('center_axis',(-8.24423038087988E-17,0.,-1.));
#590=DIRECTION('ref_axis',(-1.,0.,8.24423038087988E-17));
#591=DIRECTION('',(0.,1.,0.));
#592=DIRECTION('',(-1.,0.,8.24423038087988E-17));
#593=DIRECTION('',(0.,1.,0.));
#594=DIRECTION('center_axis',(-1.,0.,2.70786103567111E-16));
#595=DIRECTION('ref_axis',(2.70786103567111E-16,0.,1.));
#596=DIRECTION('',(2.70786103567111E-16,0.,1.));
#597=DIRECTION('',(0.,1.,0.));
#598=DIRECTION('center_axis',(0.,0.,1.));
#599=DIRECTION('ref_axis',(1.,0.,0.));
#600=DIRECTION('',(1.,0.,0.));
#601=DIRECTION('',(0.,1.,0.));
#602=DIRECTION('center_axis',(1.,0.,-2.70786103567111E-16));
#603=DIRECTION('ref_axis',(-2.70786103567111E-16,0.,-1.));
#604=DIRECTION('',(-2.70786103567111E-16,0.,-1.));
#605=DIRECTION('center_axis',(0.,0.,1.));
#606=DIRECTION('ref_axis',(1.,0.,0.));
#607=DIRECTION('',(0.,1.,0.));
#608=DIRECTION('',(1.,0.,0.));
#609=DIRECTION('center_axis',(1.,0.,0.));
#610=DIRECTION('ref_axis',(0.,0.,-1.));
#611=DIRECTION('',(0.,0.,-1.));
#612=DIRECTION('center_axis',(0.,1.,0.));
#613=DIRECTION('ref_axis',(0.,0.,1.));
#614=CARTESIAN_POINT('',(0.,0.,0.));
#615=CARTESIAN_POINT('Origin',(5.5,0.,-2.6151035551));
#616=CARTESIAN_POINT('',(5.5,4.,-4.6151035551));
#617=CARTESIAN_POINT('',(7.5,4.,-2.6151035551));
#618=CARTESIAN_POINT('Origin',(5.5,4.,-2.6151035551));
#619=CARTESIAN_POINT('',(7.5,-6.,-2.6151035551));
#620=CARTESIAN_POINT('',(7.5,0.,-2.6151035551));
#621=CARTESIAN_POINT('',(5.5,-6.,-4.6151035551));
#622=CARTESIAN_POINT('Origin',(5.5,-6.,-2.6151035551));
#623=CARTESIAN_POINT('',(5.5,0.,-4.6151035551));
#624=CARTESIAN_POINT('Origin',(7.5,0.,-4.6151035551));
#625=CARTESIAN_POINT('',(-5.5,-6.,-4.6151035551));
#626=CARTESIAN_POINT('',(-7.5,-6.,-4.6151035551));
#627=CARTESIAN_POINT('',(-5.5,4.,-4.6151035551));
#628=CARTESIAN_POINT('',(-5.5,0.,-4.6151035551));
#629=CARTESIAN_POINT('',(7.5,4.,-4.6151035551));
#630=CARTESIAN_POINT('Origin',(0.,-6.,-3.3401035551));
#631=CARTESIAN_POINT('',(7.5,-6.,8.3848964449));
#632=CARTESIAN_POINT('',(7.5,-6.,-4.6151035551));
#633=CARTESIAN_POINT('',(5.5,-6.,10.3848964449));
#634=CARTESIAN_POINT('Origin',(5.5,-6.,8.3848964449));
#635=CARTESIAN_POINT('',(-5.5,-6.,10.3848964449));
#636=CARTESIAN_POINT('',(-7.5,-6.,10.3848964449));
#637=CARTESIAN_POINT('',(-7.5,-6.,8.3848964449));
#638=CARTESIAN_POINT('Origin',(-5.5,-6.,8.3848964449));
#639=CARTESIAN_POINT('',(-7.5,-6.,-2.6151035551));
#640=CARTESIAN_POINT('',(-7.5,-6.,-2.0651035551));
#641=CARTESIAN_POINT('Origin',(-5.5,-6.,-2.6151035551));
#642=CARTESIAN_POINT('',(6.,-6.,-2.0651035551));
#643=CARTESIAN_POINT('',(-6.,-6.,-2.0611953090148));
#644=CARTESIAN_POINT('',(-2.99979205623238,-6.,-2.06217243826072));
#645=CARTESIAN_POINT('',(-6.,-6.,3.12475799295));
#646=CARTESIAN_POINT('',(-6.,-6.,-0.107672781075001));
#647=CARTESIAN_POINT('',(6.,-6.,3.12475799295));
#648=CARTESIAN_POINT('',(3.,-6.,3.12475799295));
#649=CARTESIAN_POINT('',(6.,-6.,-2.7026035551));
#650=CARTESIAN_POINT('Origin',(-5.5,0.,-2.6151035551));
#651=CARTESIAN_POINT('',(-7.5,4.,-2.6151035551));
#652=CARTESIAN_POINT('Origin',(-5.5,4.,-2.6151035551));
#653=CARTESIAN_POINT('',(-7.5,0.,-2.6151035551));
#654=CARTESIAN_POINT('Origin',(-7.5,0.,-4.6151035551));
#655=CARTESIAN_POINT('',(-7.5,-3.5,8.3848964449));
#656=CARTESIAN_POINT('',(-7.5,-2.375,8.3848964449));
#657=CARTESIAN_POINT('',(-7.5,-3.5,-2.0651035551));
#658=CARTESIAN_POINT('',(-7.5,-3.5,-2.0651035551));
#659=CARTESIAN_POINT('',(-7.5,0.,-2.0651035551));
#660=CARTESIAN_POINT('',(-7.5,0.,-2.0651035551));
#661=CARTESIAN_POINT('',(-7.5,0.,4.6151035551));
#662=CARTESIAN_POINT('',(-7.5,0.,-4.6151035551));
#663=CARTESIAN_POINT('',(-7.5,4.,4.6151035551));
#664=CARTESIAN_POINT('',(-7.5,0.,4.6151035551));
#665=CARTESIAN_POINT('',(-7.5,4.,-4.6151035551));
#666=CARTESIAN_POINT('Origin',(-5.5,-2.375,8.3848964449));
#667=CARTESIAN_POINT('',(-5.5,-3.5,10.3848964449));
#668=CARTESIAN_POINT('',(-5.5,-2.375,10.3848964449));
#669=CARTESIAN_POINT('Origin',(-5.5,-3.5,8.3848964449));
#670=CARTESIAN_POINT('Origin',(7.5,-3.5,-2.0651035551));
#671=CARTESIAN_POINT('',(5.5,-3.5,10.3848964449));
#672=CARTESIAN_POINT('',(7.5,-3.5,10.3848964449));
#673=CARTESIAN_POINT('',(7.5,-3.5,8.3848964449));
#674=CARTESIAN_POINT('Origin',(5.5,-3.5,8.3848964449));
#675=CARTESIAN_POINT('',(7.5,-3.5,-2.0651035551));
#676=CARTESIAN_POINT('',(7.5,-3.5,-2.0651035551));
#677=CARTESIAN_POINT('',(6.,-3.5,-2.0651035551));
#678=CARTESIAN_POINT('',(7.5,-3.5,-2.0651035551));
#679=CARTESIAN_POINT('',(6.,-3.5,3.12475799295));
#680=CARTESIAN_POINT('',(6.,-3.5,-2.0651035551));
#681=CARTESIAN_POINT('',(-6.,-3.5,3.12475799295));
#682=CARTESIAN_POINT('',(6.75,-3.5,3.12475799295));
#683=CARTESIAN_POINT('',(-6.,-3.5,-2.0611953090148));
#684=CARTESIAN_POINT('',(-6.,-3.5,0.529827218924999));
#685=CARTESIAN_POINT('',(0.749999920445906,-3.5,-2.06339369741182));
#686=CARTESIAN_POINT('',(7.5,-3.5,-2.0651035551));
#687=CARTESIAN_POINT('Origin',(-1.11022302462516E-15,-4.75,10.3848964449));
#688=CARTESIAN_POINT('',(5.5,-2.375,10.3848964449));
#689=CARTESIAN_POINT('Origin',(5.5,-2.375,8.3848964449));
#690=CARTESIAN_POINT('',(7.5,-2.375,8.3848964449));
#691=CARTESIAN_POINT('Origin',(6.,-3.5,3.12475799295));
#692=CARTESIAN_POINT('',(-6.,-3.5,3.12475799295));
#693=CARTESIAN_POINT('',(6.,-3.5,3.12475799295));
#694=CARTESIAN_POINT('Origin',(6.,-3.5,-2.0651035551));
#695=CARTESIAN_POINT('',(6.,-3.5,-2.0651035551));
#696=CARTESIAN_POINT('Origin',(-6.,-3.5,-2.0611953090148));
#697=CARTESIAN_POINT('',(-6.,-3.5,-2.0611953090148));
#698=CARTESIAN_POINT('Origin',(-6.,-3.5,3.12475799295));
#699=CARTESIAN_POINT('Origin',(7.5,0.,-2.0651035551));
#700=CARTESIAN_POINT('',(7.5,0.,-2.0651035551));
#701=CARTESIAN_POINT('',(7.5,0.,-2.0651035551));
#702=CARTESIAN_POINT('',(3.75,0.,-2.0651035551));
#703=CARTESIAN_POINT('Origin',(0.,0.,0.));
#704=CARTESIAN_POINT('',(7.5,0.,4.6151035551));
#705=CARTESIAN_POINT('',(7.5,0.,4.6151035551));
#706=CARTESIAN_POINT('',(-7.5,0.,4.6151035551));
#707=CARTESIAN_POINT('',(-5.05,0.,2.05));
#708=CARTESIAN_POINT('',(-5.05,0.,-2.05));
#709=CARTESIAN_POINT('',(-5.05,0.,2.05));
#710=CARTESIAN_POINT('',(5.05,0.,2.05));
#711=CARTESIAN_POINT('',(5.05,0.,2.05));
#712=CARTESIAN_POINT('',(5.05,0.,-2.05));
#713=CARTESIAN_POINT('',(5.05,0.,-2.05));
#714=CARTESIAN_POINT('',(-5.05,0.,-2.05));
#715=CARTESIAN_POINT('Origin',(5.05,0.,2.05));
#716=CARTESIAN_POINT('',(-5.05,4.,2.05));
#717=CARTESIAN_POINT('',(-5.05,0.,2.05));
#718=CARTESIAN_POINT('',(5.05,4.,2.05));
#719=CARTESIAN_POINT('',(5.05,4.,2.05));
#720=CARTESIAN_POINT('',(5.05,0.,2.05));
#721=CARTESIAN_POINT('Origin',(5.05,0.,-2.05));
#722=CARTESIAN_POINT('',(5.05,4.,-2.05));
#723=CARTESIAN_POINT('',(5.05,4.,-2.05));
#724=CARTESIAN_POINT('',(5.05,0.,-2.05));
#725=CARTESIAN_POINT('Origin',(-5.05,0.,-2.05));
#726=CARTESIAN_POINT('',(-5.05,4.,-2.05));
#727=CARTESIAN_POINT('',(-5.05,4.,-2.05));
#728=CARTESIAN_POINT('',(-5.05,0.,-2.05));
#729=CARTESIAN_POINT('Origin',(-5.05,0.,2.05));
#730=CARTESIAN_POINT('',(-5.05,4.,2.05));
#731=CARTESIAN_POINT('Origin',(-7.5,0.,4.6151035551));
#732=CARTESIAN_POINT('',(7.5,4.,4.6151035551));
#733=CARTESIAN_POINT('',(7.5,0.,4.6151035551));
#734=CARTESIAN_POINT('',(-7.5,4.,4.6151035551));
#735=CARTESIAN_POINT('Origin',(7.5,0.,4.6151035551));
#736=CARTESIAN_POINT('',(7.5,4.,4.6151035551));
#737=CARTESIAN_POINT('Origin',(0.,4.,0.));
#738=UNCERTAINTY_MEASURE_WITH_UNIT(LENGTH_MEASURE(0.01),#742,
'DISTANCE_ACCURACY_VALUE',
'Maximum model space distance between geometric entities at asserted c
onnectivities');
#739=UNCERTAINTY_MEASURE_WITH_UNIT(LENGTH_MEASURE(0.01),#742,
'DISTANCE_ACCURACY_VALUE',
'Maximum model space distance between geometric entities at asserted c
onnectivities');
#740=(
GEOMETRIC_REPRESENTATION_CONTEXT(3)
GLOBAL_UNCERTAINTY_ASSIGNED_CONTEXT((#738))
GLOBAL_UNIT_ASSIGNED_CONTEXT((#742,#744,#745))
REPRESENTATION_CONTEXT('','3D')
);
#741=(
GEOMETRIC_REPRESENTATION_CONTEXT(3)
GLOBAL_UNCERTAINTY_ASSIGNED_CONTEXT((#739))
GLOBAL_UNIT_ASSIGNED_CONTEXT((#742,#744,#745))
REPRESENTATION_CONTEXT('','3D')
);
#742=(
LENGTH_UNIT()
NAMED_UNIT(*)
SI_UNIT(.MILLI.,.METRE.)
);
#743=(
LENGTH_UNIT()
NAMED_UNIT(*)
SI_UNIT(.CENTI.,.METRE.)
);
#744=(
NAMED_UNIT(*)
PLANE_ANGLE_UNIT()
SI_UNIT($,.RADIAN.)
);
#745=(
NAMED_UNIT(*)
SI_UNIT($,.STERADIAN.)
SOLID_ANGLE_UNIT()
);
#746=SHAPE_DEFINITION_REPRESENTATION(#747,#748);
#747=PRODUCT_DEFINITION_SHAPE('',$,#750);
#748=SHAPE_REPRESENTATION('',(#468),#740);
#749=PRODUCT_DEFINITION_CONTEXT('part definition',#754,'design');
#750=PRODUCT_DEFINITION('LRA_case2','LRA_case2',#751,#749);
#751=PRODUCT_DEFINITION_FORMATION('',$,#756);
#752=PRODUCT_RELATED_PRODUCT_CATEGORY('LRA_case2','LRA_case2',(#756));
#753=APPLICATION_PROTOCOL_DEFINITION('international standard',
'automotive_design',2009,#754);
#754=APPLICATION_CONTEXT(
'Core Data for Automotive Mechanical Design Process');
#755=PRODUCT_CONTEXT('part definition',#754,'mechanical');
#756=PRODUCT('LRA_case2','LRA_case2',$,(#755));
#757=PRESENTATION_STYLE_ASSIGNMENT((#758));
#758=SURFACE_STYLE_USAGE(.BOTH.,#761);
#759=SURFACE_STYLE_RENDERING_WITH_PROPERTIES($,#765,(#760));
#760=SURFACE_STYLE_TRANSPARENT(0.);
#761=SURFACE_SIDE_STYLE('',(#762,#759));
#762=SURFACE_STYLE_FILL_AREA(#763);
#763=FILL_AREA_STYLE('',(#764));
#764=FILL_AREA_STYLE_COLOUR('',#765);
#765=COLOUR_RGB('',0.749019607843137,0.749019607843137,0.749019607843137);
ENDSEC;
END-ISO-10303-21;
